M48
; DRILL file {KiCad 8.0.8} date 2025-01-25T15:20:37-0800
; FORMAT={-:-/ absolute / inch / decimal}
; #@! TF.CreationDate,2025-01-25T15:20:37-08:00
; #@! TF.GenerationSoftware,Kicad,Pcbnew,8.0.8
; #@! TF.FileFunction,Plated,1,2,PTH
FMAT,2
INCH
; #@! TA.AperFunction,Plated,PTH,ViaDrill
T1C0.0118
; #@! TA.AperFunction,Plated,PTH,ComponentDrill
T2C0.0295
; #@! TA.AperFunction,Plated,PTH,ComponentDrill
T3C0.0430
%
G90
G05
T1
X1.8248Y-2.2382
X2.0709Y-2.7244
X2.0945Y-5.6693
X2.126Y-2.3386
X2.2677Y-3.5039
X2.3465Y-4.2756
X2.5Y-2.3386
X2.5118Y-5.0236
X2.5591Y-2.3386
X2.5984Y-2.3386
X2.6378Y-2.3268
X2.7756Y-2.5591
X2.8346Y-2.7795
X2.874Y-2.792
X2.874Y-2.8543
X2.9134Y-3.1102
X2.9331Y-2.6772
X3.0315Y-2.815
X3.1339Y-5.748
X3.2362Y-3.5118
X3.2677Y-3.5236
X3.2677Y-3.6024
X3.3071Y-3.5039
X3.4016Y-4.2835
X3.4055Y-3.622
X3.4449Y-4.3504
X3.4488Y-4.2913
X3.4961Y-2.6181
X3.5906Y-2.7559
X3.5984Y-1.685
X3.5984Y-1.7638
X3.622Y-2.8346
X3.7874Y-5.0315
X3.9843Y-3.5197
X4.0157Y-3.5236
X4.0157Y-3.6024
X4.0945Y-5.7323
X4.1654Y-4.2913
X4.2126Y-4.2913
X4.2126Y-4.3504
X4.2323Y-5.0591
X4.2717Y-5.1181
X4.2888Y-2.1417
X4.311Y-2.1654
X4.311Y-2.2047
X4.311Y-2.2441
X4.311Y-2.2835
X4.311Y-2.3228
X4.311Y-2.3622
X4.311Y-2.4016
X4.311Y-2.4409
X4.315Y-2.5118
X4.3543Y-1.6929
X4.3543Y-2.7638
X4.3898Y-2.1417
X4.3898Y-2.1732
X4.3898Y-2.2047
X4.3898Y-2.2441
X4.3898Y-2.4016
X4.3898Y-2.4606
X4.3937Y-2.5039
X4.4094Y-2.2835
X4.4094Y-2.3228
X4.4094Y-2.3622
X4.4094Y-2.3622
X4.5512Y-5.0315
X4.7323Y-3.5276
X4.9213Y-4.2835
X5.0591Y-2.1654
X5.0787Y-2.2047
X5.0787Y-2.2441
X5.0787Y-2.2913
X5.0787Y-2.3228
X5.0787Y-2.3622
X5.0787Y-2.4016
X5.0984Y-2.4409
X5.0984Y-2.5
X5.1181Y-1.685
X5.1181Y-2.7559
X5.1575Y-2.1732
X5.1575Y-2.2047
X5.1772Y-2.2441
X5.1772Y-2.2835
X5.1772Y-2.3228
X5.1772Y-2.3622
X5.1772Y-2.4213
X5.1772Y-2.4606
X5.1772Y-2.5
X5.2047Y-4.9134
X5.4961Y-3.5276
X5.6929Y-4.2992
X5.8465Y-2.4016
X5.8465Y-2.4409
X5.8661Y-2.2047
X5.8661Y-2.2441
X5.8661Y-2.2835
X5.8661Y-2.3228
X5.8661Y-2.3622
X5.8661Y-2.4803
X5.8858Y-1.6929
X5.8858Y-2.7559
X5.9449Y-2.2047
X5.9449Y-2.2835
X5.9449Y-2.3307
X5.9449Y-2.3622
X5.9449Y-2.4016
X5.9449Y-2.4409
X5.9449Y-2.4803
X5.9646Y-2.2441
X5.9685Y-4.9055
X6.2598Y-3.5236
X6.4567Y-4.2913
X6.6142Y-2.2244
X6.6142Y-2.2638
X6.6142Y-2.2992
X6.6142Y-2.3307
X6.6142Y-2.3622
X6.6142Y-2.4016
X6.6299Y-2.4803
X6.6535Y-2.7707
X6.6929Y-2.2323
X6.6929Y-2.2638
X6.6929Y-2.3031
X6.6929Y-2.3622
X6.6929Y-2.4016
X6.6929Y-2.4409
X6.6929Y-2.4803
X6.8307Y-5.0591
X6.8307Y-5.6693
X7.0276Y-1.6929
X7.0276Y-3.5236
X7.2047Y-4.2913
X7.3819Y-2.2835
X7.3819Y-2.3228
X7.3819Y-2.4016
X7.3819Y-2.4606
X7.3819Y-2.5
X7.3976Y-2.3622
X7.4213Y-2.7726
X7.4606Y-2.3031
X7.4606Y-2.3819
X7.4606Y-2.4213
X7.4606Y-2.4606
X7.4606Y-2.5
X7.4803Y-2.3425
X7.5197Y-4.9213
X7.7756Y-3.5236
X7.7854Y-1.7028
X7.9724Y-4.2717
X8.1299Y-2.3425
X8.1299Y-2.3819
X8.1299Y-2.4213
X8.1457Y-2.4803
X8.1457Y-2.5197
X8.1693Y-2.7559
X8.2087Y-2.4016
X8.2087Y-2.4409
X8.2087Y-2.4882
X8.2087Y-2.5197
X8.2283Y-2.3622
X8.3071Y-4.9213
X8.5433Y-3.5236
X8.563Y-1.6929
X8.7402Y-4.2913
X8.8976Y-2.3819
X8.8976Y-2.4213
X8.8976Y-2.4606
X8.9134Y-2.5197
X8.937Y-2.7756
X8.9606Y-2.5197
X8.9764Y-2.4016
X8.9764Y-2.4409
X8.9764Y-2.4803
X9.1142Y-5.0591
X9.2913Y-3.5404
X9.3307Y-1.6732
X9.5079Y-4.2913
X9.6457Y-2.4213
X9.6457Y-2.4606
X9.6457Y-2.5
X9.685Y-2.7707
X9.685Y-5.6496
X9.7087Y-2.5
X9.7244Y-2.4213
X9.7244Y-2.4606
X9.8228Y-4.9213
X10.0591Y-3.5236
X10.2559Y-4.2913
X10.4528Y-1.6929
X10.4528Y-2.7362
X10.6299Y-5.0394
X10.6496Y-2.5
X10.689Y-2.4606
X10.689Y-5.6693
X10.7874Y-2.5
X10.8071Y-2.4606
X10.8268Y-3.5039
X10.9449Y-4.1535
X11.2008Y-2.4803
X11.2205Y-1.6732
X11.2402Y-2.7362
X11.2638Y-2.5
X11.4567Y-5.6299
X11.6142Y-3.5039
X11.9882Y-1.6929
X12.3031Y-2.5787
T2
X3.565Y-1.2205
X3.565Y-1.2992
T3
X2.1161Y-1.1319
X2.1161Y-1.2319
X2.1161Y-1.3319
X2.1161Y-1.4319
X2.1161Y-1.5319
X2.1161Y-1.6319
X2.1161Y-1.7319
X2.1161Y-1.8319
X2.1161Y-1.9319
X2.1161Y-2.0319
X2.1161Y-2.1319
X2.1161Y-2.2319
X2.2161Y-2.0319
X2.3161Y-2.0319
X2.4161Y-2.0319
X2.7161Y-1.1319
X2.7161Y-1.2319
X2.7161Y-1.3319
X2.7161Y-1.4319
X2.7161Y-1.5319
X2.7161Y-1.6319
X2.7161Y-1.7319
X2.7161Y-1.8319
X2.7161Y-1.9319
X2.7161Y-2.0319
X2.7161Y-2.1319
X2.7161Y-2.2319
M30
