M48
; DRILL file {KiCad 8.0.8} date 2025-01-25T15:20:37-0800
; FORMAT={-:-/ absolute / inch / decimal}
; #@! TF.CreationDate,2025-01-25T15:20:37-08:00
; #@! TF.GenerationSoftware,Kicad,Pcbnew,8.0.8
; #@! TF.FileFunction,NonPlated,1,2,NPTH
FMAT,2
INCH
; #@! TA.AperFunction,NonPlated,NPTH,ComponentDrill
T1C0.0394
; #@! TA.AperFunction,NonPlated,NPTH,ComponentDrill
T2C0.0630
; #@! TA.AperFunction,NonPlated,NPTH,ComponentDrill
T3C0.0748
; #@! TA.AperFunction,NonPlated,NPTH,ComponentDrill
T4C0.1201
; #@! TA.AperFunction,NonPlated,NPTH,ComponentDrill
T5C0.1988
%
G90
G05
T1
X2.8386Y-1.0433
X3.1063Y-1.0433
T2
X1.4646Y-2.0138
X1.4646Y-3.0728
X1.5551Y-6.0984
X1.6437Y-3.8346
X1.7323Y-4.6024
X1.9094Y-5.3602
X2.2264Y-3.0728
X2.5118Y-6.0984
X2.6024Y-3.8366
X2.7913Y-4.6004
X2.9882Y-2.0138
X2.9882Y-3.0728
X3.1752Y-5.3642
X3.3642Y-3.8366
X3.4724Y-6.0984
X3.5531Y-4.6004
X3.75Y-2.0138
X3.75Y-3.0728
X3.937Y-5.3642
X4.126Y-3.8366
X4.315Y-4.6004
X4.5118Y-2.0138
X4.5118Y-3.0728
X4.6988Y-5.3642
X4.8878Y-3.8366
X5.0768Y-4.6004
X5.2736Y-2.0138
X5.2736Y-3.0728
X5.4606Y-5.3642
X5.6496Y-3.8366
X5.8386Y-4.6004
X6.0354Y-3.0728
X6.2224Y-5.3642
X6.3071Y-6.1001
X6.4114Y-3.8366
X6.4163Y-2.0138
X6.6004Y-4.6004
X6.7972Y-3.0728
X6.9843Y-5.3642
X7.1732Y-3.8366
X7.1781Y-2.0138
X7.3622Y-4.6004
X7.5591Y-3.0728
X7.7461Y-5.3642
X7.935Y-3.8366
X7.94Y-2.0138
X8.124Y-4.6004
X8.3209Y-3.0728
X8.5079Y-5.3642
X8.6969Y-3.8366
X8.7018Y-2.0138
X8.8858Y-4.6004
X9.0827Y-3.0728
X9.1417Y-6.1024
X9.2697Y-5.3642
X9.4587Y-3.8366
X9.6476Y-4.6004
X9.8445Y-2.0138
X9.8445Y-3.0728
X10.0315Y-5.3642
X10.1024Y-6.1024
X10.2205Y-3.8366
X10.4094Y-4.6004
X10.6063Y-2.0138
X10.6063Y-3.0728
X10.9823Y-3.8366
X11.0669Y-6.1024
X11.3681Y-2.0138
X11.4844Y-5.3634
X11.6535Y-4.6024
X11.752Y-3.0709
X11.9193Y-3.8445
X12.0236Y-6.1024
X12.1299Y-2.0138
T3
X1.4449Y-1.811
X1.4449Y-2.8701
X1.5354Y-5.8957
X1.624Y-3.6319
X1.7126Y-4.3996
X1.878Y-1.811
X1.878Y-2.8701
X1.8898Y-5.1575
X1.9685Y-5.8957
X2.0571Y-3.6319
X2.1457Y-4.3996
X2.2067Y-2.8701
X2.3228Y-5.1575
X2.4921Y-5.8957
X2.5827Y-3.6339
X2.6398Y-2.8701
X2.7717Y-4.3976
X2.9252Y-5.8957
X2.9685Y-1.811
X2.9685Y-2.8701
X3.0157Y-3.6339
X3.1555Y-5.1614
X3.2047Y-4.3976
X3.3445Y-3.6339
X3.4016Y-1.811
X3.4016Y-2.8701
X3.4528Y-5.8957
X3.5335Y-4.3976
X3.5886Y-5.1614
X3.7303Y-1.811
X3.7303Y-2.8701
X3.7776Y-3.6339
X3.8858Y-5.8957
X3.9173Y-5.1614
X3.9665Y-4.3976
X4.1063Y-3.6339
X4.1634Y-1.811
X4.1634Y-2.8701
X4.2953Y-4.3976
X4.3504Y-5.1614
X4.4921Y-1.811
X4.4921Y-2.8701
X4.5394Y-3.6339
X4.6791Y-5.1614
X4.7283Y-4.3976
X4.8681Y-3.6339
X4.9252Y-1.811
X4.9252Y-2.8701
X5.0571Y-4.3976
X5.1122Y-5.1614
X5.2539Y-1.811
X5.2539Y-2.8701
X5.3012Y-3.6339
X5.4409Y-5.1614
X5.4902Y-4.3976
X5.6299Y-3.6339
X5.687Y-1.811
X5.687Y-2.8701
X5.8189Y-4.3976
X5.874Y-5.1614
X6.0157Y-2.8701
X6.063Y-3.6339
X6.2028Y-5.1614
X6.252Y-4.3976
X6.2874Y-5.8973
X6.3917Y-3.6339
X6.3967Y-1.811
X6.4488Y-2.8701
X6.5807Y-4.3976
X6.6358Y-5.1614
X6.7205Y-5.8973
X6.7776Y-2.8701
X6.8248Y-3.6339
X6.8297Y-1.811
X6.9646Y-5.1614
X7.0138Y-4.3976
X7.1535Y-3.6339
X7.1585Y-1.811
X7.2106Y-2.8701
X7.3425Y-4.3976
X7.3976Y-5.1614
X7.5394Y-2.8701
X7.5866Y-3.6339
X7.5915Y-1.811
X7.7264Y-5.1614
X7.7756Y-4.3976
X7.9154Y-3.6339
X7.9203Y-1.811
X7.9724Y-2.8701
X8.1043Y-4.3976
X8.1594Y-5.1614
X8.3012Y-2.8701
X8.3484Y-3.6339
X8.3533Y-1.811
X8.4882Y-5.1614
X8.5374Y-4.3976
X8.6772Y-3.6339
X8.6821Y-1.811
X8.7343Y-2.8701
X8.8661Y-4.3976
X8.9213Y-5.1614
X9.063Y-2.8701
X9.1102Y-3.6339
X9.1152Y-1.811
X9.122Y-5.8996
X9.25Y-5.1614
X9.2992Y-4.3976
X9.439Y-3.6339
X9.4961Y-2.8701
X9.5551Y-5.8996
X9.628Y-4.3976
X9.6831Y-5.1614
X9.8248Y-1.811
X9.8248Y-2.8701
X9.872Y-3.6339
X10.0118Y-5.1614
X10.061Y-4.3976
X10.0827Y-5.8996
X10.2008Y-3.6339
X10.2579Y-1.811
X10.2579Y-2.8701
X10.3898Y-4.3976
X10.4449Y-5.1614
X10.5157Y-5.8996
X10.5866Y-1.811
X10.5866Y-2.8701
X10.6339Y-3.6339
X10.8228Y-4.3976
X10.9626Y-3.6339
X11.0197Y-1.811
X11.0197Y-2.8701
X11.0472Y-5.8996
X11.3484Y-1.811
X11.3957Y-3.6339
X11.4647Y-5.1606
X11.4803Y-5.8996
X11.6339Y-4.3996
X11.7323Y-2.8681
X11.7815Y-1.811
X11.8977Y-5.1606
X11.8996Y-3.6417
X12.0039Y-5.8996
X12.0669Y-4.3996
X12.1102Y-1.811
X12.1654Y-2.8681
X12.3327Y-3.6417
X12.437Y-5.8996
X12.5433Y-1.811
T4
X1.6614Y-1.5787
X1.6614Y-2.6378
X1.752Y-5.6634
X1.8406Y-3.3996
X1.8583Y-1.6614
X1.8583Y-2.7205
X1.9291Y-4.1673
X1.9488Y-5.7461
X2.0374Y-3.4823
X2.1063Y-4.9252
X2.126Y-4.25
X2.3031Y-5.0079
X2.4232Y-2.6378
X2.6201Y-2.7205
X2.7087Y-5.6634
X2.7992Y-3.4016
X2.9055Y-5.7461
X2.9882Y-4.1654
X2.9961Y-3.4843
X3.185Y-1.5787
X3.185Y-2.6378
X3.185Y-4.248
X3.372Y-4.9291
X3.3819Y-1.6614
X3.3819Y-2.7205
X3.561Y-3.4016
X3.5689Y-5.0118
X3.6693Y-5.6634
X3.75Y-4.1654
X3.7579Y-3.4843
X3.8661Y-5.7461
X3.9469Y-1.5787
X3.9469Y-2.6378
X3.9469Y-4.248
X4.1339Y-4.9291
X4.1437Y-1.6614
X4.1437Y-2.7205
X4.3228Y-3.4016
X4.3307Y-5.0118
X4.5118Y-4.1654
X4.5197Y-3.4843
X4.7087Y-1.5787
X4.7087Y-2.6378
X4.7087Y-4.248
X4.8957Y-4.9291
X4.9055Y-1.6614
X4.9055Y-2.7205
X5.0846Y-3.4016
X5.0925Y-5.0118
X5.2736Y-4.1654
X5.2815Y-3.4843
X5.4705Y-1.5787
X5.4705Y-2.6378
X5.4705Y-4.248
X5.6575Y-4.9291
X5.6673Y-1.6614
X5.6673Y-2.7205
X5.8465Y-3.4016
X5.8543Y-5.0118
X6.0354Y-4.1654
X6.0433Y-3.4843
X6.2323Y-2.6378
X6.2323Y-4.248
X6.4193Y-4.9291
X6.4291Y-2.7205
X6.5039Y-5.6651
X6.6083Y-3.4016
X6.6132Y-1.5787
X6.6161Y-5.0118
X6.7008Y-5.7477
X6.7972Y-4.1654
X6.8051Y-3.4843
X6.81Y-1.6614
X6.9941Y-2.6378
X6.9941Y-4.248
X7.1811Y-4.9291
X7.1909Y-2.7205
X7.3701Y-3.4016
X7.375Y-1.5787
X7.378Y-5.0118
X7.5591Y-4.1654
X7.5669Y-3.4843
X7.5719Y-1.6614
X7.7559Y-2.6378
X7.7559Y-4.248
X7.9429Y-4.9291
X7.9528Y-2.7205
X8.1319Y-3.4016
X8.1368Y-1.5787
X8.1398Y-5.0118
X8.3209Y-4.1654
X8.3287Y-3.4843
X8.3337Y-1.6614
X8.5177Y-2.6378
X8.5177Y-4.248
X8.7047Y-4.9291
X8.7146Y-2.7205
X8.8937Y-3.4016
X8.8986Y-1.5787
X8.9016Y-5.0118
X9.0827Y-4.1654
X9.0906Y-3.4843
X9.0955Y-1.6614
X9.2795Y-2.6378
X9.2795Y-4.248
X9.3386Y-5.6673
X9.4665Y-4.9291
X9.4764Y-2.7205
X9.5354Y-5.75
X9.6555Y-3.4016
X9.6634Y-5.0118
X9.8445Y-4.1654
X9.8524Y-3.4843
X10.0413Y-1.5787
X10.0413Y-2.6378
X10.0413Y-4.248
X10.2283Y-4.9291
X10.2382Y-1.6614
X10.2382Y-2.7205
X10.2992Y-5.6673
X10.4173Y-3.4016
X10.4252Y-5.0118
X10.4961Y-5.75
X10.6063Y-4.1654
X10.6142Y-3.4843
X10.8031Y-1.5787
X10.8031Y-2.6378
X10.8031Y-4.248
X11.0Y-1.6614
X11.0Y-2.7205
X11.1791Y-3.4016
X11.2638Y-5.6673
X11.376Y-3.4843
X11.4606Y-5.75
X11.565Y-1.5787
X11.6812Y-4.9283
X11.7618Y-1.6614
X11.8504Y-4.1673
X11.8781Y-5.011
X11.9488Y-2.6359
X12.0472Y-4.25
X12.1161Y-3.4094
X12.1457Y-2.7185
X12.2205Y-5.6673
X12.313Y-3.4921
X12.3268Y-1.5787
X12.4173Y-5.75
X12.5236Y-1.6614
T5
X1.6614Y-1.811
X1.6614Y-2.8701
X1.752Y-5.8957
X1.8406Y-3.6319
X1.9291Y-4.3996
X2.1063Y-5.1575
X2.4232Y-2.8701
X2.7087Y-5.8957
X2.7992Y-3.6339
X2.9882Y-4.3976
X3.185Y-1.811
X3.185Y-2.8701
X3.372Y-5.1614
X3.561Y-3.6339
X3.6693Y-5.8957
X3.75Y-4.3976
X3.9469Y-1.811
X3.9469Y-2.8701
X4.1339Y-5.1614
X4.3228Y-3.6339
X4.5118Y-4.3976
X4.7087Y-1.811
X4.7087Y-2.8701
X4.8957Y-5.1614
X5.0846Y-3.6339
X5.2736Y-4.3976
X5.4705Y-1.811
X5.4705Y-2.8701
X5.6575Y-5.1614
X5.8465Y-3.6339
X6.0354Y-4.3976
X6.2323Y-2.8701
X6.4193Y-5.1614
X6.5039Y-5.8973
X6.6083Y-3.6339
X6.6132Y-1.811
X6.7972Y-4.3976
X6.9941Y-2.8701
X7.1811Y-5.1614
X7.3701Y-3.6339
X7.375Y-1.811
X7.5591Y-4.3976
X7.7559Y-2.8701
X7.9429Y-5.1614
X8.1319Y-3.6339
X8.1368Y-1.811
X8.3209Y-4.3976
X8.5177Y-2.8701
X8.7047Y-5.1614
X8.8937Y-3.6339
X8.8986Y-1.811
X9.0827Y-4.3976
X9.2795Y-2.8701
X9.3386Y-5.8996
X9.4665Y-5.1614
X9.6555Y-3.6339
X9.8445Y-4.3976
X10.0413Y-1.811
X10.0413Y-2.8701
X10.2283Y-5.1614
X10.2992Y-5.8996
X10.4173Y-3.6339
X10.6063Y-4.3976
X10.8031Y-1.811
X10.8031Y-2.8701
X11.1791Y-3.6339
X11.2638Y-5.8996
X11.565Y-1.811
X11.6812Y-5.1606
X11.8504Y-4.3996
X11.9488Y-2.8681
X12.1161Y-3.6417
X12.2205Y-5.8996
X12.3268Y-1.811
M30
