%TF.GenerationSoftware,KiCad,Pcbnew,8.0.8*%
%TF.CreationDate,2025-01-25T15:20:35-08:00*%
%TF.ProjectId,CustomKeyboard,43757374-6f6d-44b6-9579-626f6172642e,rev?*%
%TF.SameCoordinates,Original*%
%TF.FileFunction,Soldermask,Bot*%
%TF.FilePolarity,Negative*%
%FSLAX46Y46*%
G04 Gerber Fmt 4.6, Leading zero omitted, Abs format (unit mm)*
G04 Created by KiCad (PCBNEW 8.0.8) date 2025-01-25 15:20:35*
%MOMM*%
%LPD*%
G01*
G04 APERTURE LIST*
G04 Aperture macros list*
%AMRoundRect*
0 Rectangle with rounded corners*
0 $1 Rounding radius*
0 $2 $3 $4 $5 $6 $7 $8 $9 X,Y pos of 4 corners*
0 Add a 4 corners polygon primitive as box body*
4,1,4,$2,$3,$4,$5,$6,$7,$8,$9,$2,$3,0*
0 Add four circle primitives for the rounded corners*
1,1,$1+$1,$2,$3*
1,1,$1+$1,$4,$5*
1,1,$1+$1,$6,$7*
1,1,$1+$1,$8,$9*
0 Add four rect primitives between the rounded corners*
20,1,$1+$1,$2,$3,$4,$5,0*
20,1,$1+$1,$4,$5,$6,$7,0*
20,1,$1+$1,$6,$7,$8,$9,0*
20,1,$1+$1,$8,$9,$2,$3,0*%
G04 Aperture macros list end*
%ADD10C,3.050000*%
%ADD11RoundRect,0.250000X-1.025000X-1.000000X1.025000X-1.000000X1.025000X1.000000X-1.025000X1.000000X0*%
%ADD12C,5.050000*%
%ADD13C,1.900000*%
%ADD14C,1.600000*%
%ADD15C,1.752600*%
%ADD16C,1.000000*%
%ADD17RoundRect,0.250000X-0.625000X0.350000X-0.625000X-0.350000X0.625000X-0.350000X0.625000X0.350000X0*%
%ADD18O,1.750000X1.200000*%
%ADD19RoundRect,0.218750X0.218750X0.256250X-0.218750X0.256250X-0.218750X-0.256250X0.218750X-0.256250X0*%
G04 APERTURE END LIST*
D10*
%TO.C,SW_]1*%
X283950000Y-86400000D03*
X288950000Y-88500000D03*
D11*
X280450000Y-86300000D03*
X292450000Y-88500000D03*
D12*
X283950000Y-92300000D03*
D13*
X278450000Y-92300000D03*
X289450000Y-92300000D03*
D14*
X278950000Y-97450000D03*
%TD*%
D10*
%TO.C,SW_\u005C1*%
X307750000Y-86600000D03*
X312750000Y-88700000D03*
D11*
X304250000Y-86500000D03*
X316250000Y-88700000D03*
D12*
X307750000Y-92500000D03*
D13*
X302250000Y-92500000D03*
X313250000Y-92500000D03*
D14*
X302750000Y-97650000D03*
%TD*%
D10*
%TO.C,SW_[1*%
X264600000Y-86400000D03*
X269600000Y-88500000D03*
D11*
X261100000Y-86300000D03*
X273100000Y-88500000D03*
D12*
X264600000Y-92300000D03*
D13*
X259100000Y-92300000D03*
X270100000Y-92300000D03*
D14*
X259600000Y-97450000D03*
%TD*%
D10*
%TO.C,SW_Z1*%
X85650000Y-125200000D03*
X90650000Y-127300000D03*
D11*
X82150000Y-125100000D03*
X94150000Y-127300000D03*
D12*
X85650000Y-131100000D03*
D13*
X80150000Y-131100000D03*
X91150000Y-131100000D03*
D14*
X80650000Y-136250000D03*
%TD*%
D10*
%TO.C,SW_Y1*%
X167850000Y-86400000D03*
X172850000Y-88500000D03*
D11*
X164350000Y-86300000D03*
X176350000Y-88500000D03*
D12*
X167850000Y-92300000D03*
D13*
X162350000Y-92300000D03*
X173350000Y-92300000D03*
D14*
X162850000Y-97450000D03*
%TD*%
D10*
%TO.C,SW_X1*%
X105000000Y-125200000D03*
X110000000Y-127300000D03*
D11*
X101500000Y-125100000D03*
X113500000Y-127300000D03*
D12*
X105000000Y-131100000D03*
D13*
X99500000Y-131100000D03*
X110500000Y-131100000D03*
D14*
X100000000Y-136250000D03*
%TD*%
D10*
%TO.C,SW_W1*%
X90450000Y-86400000D03*
X95450000Y-88500000D03*
D11*
X86950000Y-86300000D03*
X98950000Y-88500000D03*
D12*
X90450000Y-92300000D03*
D13*
X84950000Y-92300000D03*
X95950000Y-92300000D03*
D14*
X85450000Y-97450000D03*
%TD*%
D10*
%TO.C,SW_V1*%
X143700000Y-125200000D03*
X148700000Y-127300000D03*
D11*
X140200000Y-125100000D03*
X152200000Y-127300000D03*
D12*
X143700000Y-131100000D03*
D13*
X138200000Y-131100000D03*
X149200000Y-131100000D03*
D14*
X138700000Y-136250000D03*
%TD*%
D10*
%TO.C,SW_U1*%
X187200000Y-86400000D03*
X192200000Y-88500000D03*
D11*
X183700000Y-86300000D03*
X195700000Y-88500000D03*
D12*
X187200000Y-92300000D03*
D13*
X181700000Y-92300000D03*
X192700000Y-92300000D03*
D14*
X182200000Y-97450000D03*
%TD*%
D10*
%TO.C,SW_TILDE1*%
X42200000Y-67000000D03*
X47200000Y-69100000D03*
D11*
X38700000Y-66900000D03*
X50700000Y-69100000D03*
D12*
X42200000Y-72900000D03*
D13*
X36700000Y-72900000D03*
X47700000Y-72900000D03*
D14*
X37200000Y-78050000D03*
%TD*%
D10*
%TO.C,SW_TAB1*%
X46750000Y-86350000D03*
X51750000Y-88450000D03*
D11*
X43250000Y-86250000D03*
X55250000Y-88450000D03*
D12*
X46750000Y-92250000D03*
D13*
X41250000Y-92250000D03*
X52250000Y-92250000D03*
D14*
X41750000Y-97400000D03*
%TD*%
D10*
%TO.C,SW_T1*%
X148500000Y-86400000D03*
X153500000Y-88500000D03*
D11*
X145000000Y-86300000D03*
X157000000Y-88500000D03*
D12*
X148500000Y-92300000D03*
D13*
X143000000Y-92300000D03*
X154000000Y-92300000D03*
D14*
X143500000Y-97450000D03*
%TD*%
D10*
%TO.C,SW_SPACE1*%
X165200000Y-143892500D03*
X170200000Y-145992500D03*
D11*
X161700000Y-143792500D03*
X173700000Y-145992500D03*
D12*
X165200000Y-149792500D03*
D13*
X159700000Y-149792500D03*
X170700000Y-149792500D03*
D14*
X160200000Y-154942500D03*
%TD*%
D10*
%TO.C,SW_S1*%
X95250000Y-105800000D03*
X100250000Y-107900000D03*
D11*
X91750000Y-105700000D03*
X103750000Y-107900000D03*
D12*
X95250000Y-111700000D03*
D13*
X89750000Y-111700000D03*
X100750000Y-111700000D03*
D14*
X90250000Y-116850000D03*
%TD*%
D10*
%TO.C,SW_RWIN1*%
X261600000Y-143950000D03*
X266600000Y-146050000D03*
D11*
X258100000Y-143850000D03*
X270100000Y-146050000D03*
D12*
X261600000Y-149850000D03*
D13*
X256100000Y-149850000D03*
X267100000Y-149850000D03*
D14*
X256600000Y-155000000D03*
%TD*%
D10*
%TO.C,SW_RSHIFT1*%
X296702500Y-125180000D03*
X301702500Y-127280000D03*
D11*
X293202500Y-125080000D03*
X305202500Y-127280000D03*
D12*
X296702500Y-131080000D03*
D13*
X291202500Y-131080000D03*
X302202500Y-131080000D03*
D14*
X291702500Y-136230000D03*
%TD*%
D10*
%TO.C,SW_RCTRL1*%
X310400000Y-143950000D03*
X315400000Y-146050000D03*
D11*
X306900000Y-143850000D03*
X318900000Y-146050000D03*
D12*
X310400000Y-149850000D03*
D13*
X304900000Y-149850000D03*
X315900000Y-149850000D03*
D14*
X305400000Y-155000000D03*
%TD*%
D10*
%TO.C,SW_RC1*%
X286100000Y-143950000D03*
X291100000Y-146050000D03*
D11*
X282600000Y-143850000D03*
X294600000Y-146050000D03*
D12*
X286100000Y-149850000D03*
D13*
X280600000Y-149850000D03*
X291600000Y-149850000D03*
D14*
X281100000Y-155000000D03*
%TD*%
D10*
%TO.C,SW_RALT1*%
X237200000Y-143950000D03*
X242200000Y-146050000D03*
D11*
X233700000Y-143850000D03*
X245700000Y-146050000D03*
D12*
X237200000Y-149850000D03*
D13*
X231700000Y-149850000D03*
X242700000Y-149850000D03*
D14*
X232200000Y-155000000D03*
%TD*%
D10*
%TO.C,SW_R1*%
X129150000Y-86400000D03*
X134150000Y-88500000D03*
D11*
X125650000Y-86300000D03*
X137650000Y-88500000D03*
D12*
X129150000Y-92300000D03*
D13*
X123650000Y-92300000D03*
X134650000Y-92300000D03*
D14*
X124150000Y-97450000D03*
%TD*%
D10*
%TO.C,SW_Q1*%
X71100000Y-86400000D03*
X76100000Y-88500000D03*
D11*
X67600000Y-86300000D03*
X79600000Y-88500000D03*
D12*
X71100000Y-92300000D03*
D13*
X65600000Y-92300000D03*
X76600000Y-92300000D03*
D14*
X66100000Y-97450000D03*
%TD*%
D10*
%TO.C,SW_P1*%
X245250000Y-86400000D03*
X250250000Y-88500000D03*
D11*
X241750000Y-86300000D03*
X253750000Y-88500000D03*
D12*
X245250000Y-92300000D03*
D13*
X239750000Y-92300000D03*
X250750000Y-92300000D03*
D14*
X240250000Y-97450000D03*
%TD*%
D10*
%TO.C,SW_O1*%
X225900000Y-86400000D03*
X230900000Y-88500000D03*
D11*
X222400000Y-86300000D03*
X234400000Y-88500000D03*
D12*
X225900000Y-92300000D03*
D13*
X220400000Y-92300000D03*
X231400000Y-92300000D03*
D14*
X220900000Y-97450000D03*
%TD*%
D10*
%TO.C,SW_N1*%
X182400000Y-125200000D03*
X187400000Y-127300000D03*
D11*
X178900000Y-125100000D03*
X190900000Y-127300000D03*
D12*
X182400000Y-131100000D03*
D13*
X176900000Y-131100000D03*
X187900000Y-131100000D03*
D14*
X177400000Y-136250000D03*
%TD*%
D10*
%TO.C,SW_M1*%
X201750000Y-125200000D03*
X206750000Y-127300000D03*
D11*
X198250000Y-125100000D03*
X210250000Y-127300000D03*
D12*
X201750000Y-131100000D03*
D13*
X196250000Y-131100000D03*
X207250000Y-131100000D03*
D14*
X196750000Y-136250000D03*
%TD*%
D10*
%TO.C,SW_LWIN1*%
X68800000Y-143850000D03*
X73800000Y-145950000D03*
D11*
X65300000Y-143750000D03*
X77300000Y-145950000D03*
D12*
X68800000Y-149750000D03*
D13*
X63300000Y-149750000D03*
X74300000Y-149750000D03*
D14*
X63800000Y-154900000D03*
%TD*%
D10*
%TO.C,SW_LSHIFT1*%
X53500000Y-125100000D03*
X58500000Y-127200000D03*
D11*
X50000000Y-125000000D03*
X62000000Y-127200000D03*
D12*
X53500000Y-131000000D03*
D13*
X48000000Y-131000000D03*
X59000000Y-131000000D03*
D14*
X48500000Y-136150000D03*
%TD*%
D10*
%TO.C,SW_LCTRL1*%
X44500000Y-143850000D03*
X49500000Y-145950000D03*
D11*
X41000000Y-143750000D03*
X53000000Y-145950000D03*
D12*
X44500000Y-149750000D03*
D13*
X39000000Y-149750000D03*
X50000000Y-149750000D03*
D14*
X39500000Y-154900000D03*
%TD*%
D10*
%TO.C,SW_LALT1*%
X93200000Y-143850000D03*
X98200000Y-145950000D03*
D11*
X89700000Y-143750000D03*
X101700000Y-145950000D03*
D12*
X93200000Y-149750000D03*
D13*
X87700000Y-149750000D03*
X98700000Y-149750000D03*
D14*
X88200000Y-154900000D03*
%TD*%
D10*
%TO.C,SW_L1*%
X230700000Y-105800000D03*
X235700000Y-107900000D03*
D11*
X227200000Y-105700000D03*
X239200000Y-107900000D03*
D12*
X230700000Y-111700000D03*
D13*
X225200000Y-111700000D03*
X236200000Y-111700000D03*
D14*
X225700000Y-116850000D03*
%TD*%
D10*
%TO.C,SW_K1*%
X211350000Y-105800000D03*
X216350000Y-107900000D03*
D11*
X207850000Y-105700000D03*
X219850000Y-107900000D03*
D12*
X211350000Y-111700000D03*
D13*
X205850000Y-111700000D03*
X216850000Y-111700000D03*
D14*
X206350000Y-116850000D03*
%TD*%
D10*
%TO.C,SW_J1*%
X192000000Y-105800000D03*
X197000000Y-107900000D03*
D11*
X188500000Y-105700000D03*
X200500000Y-107900000D03*
D12*
X192000000Y-111700000D03*
D13*
X186500000Y-111700000D03*
X197500000Y-111700000D03*
D14*
X187000000Y-116850000D03*
%TD*%
D10*
%TO.C,SW_I1*%
X206550000Y-86400000D03*
X211550000Y-88500000D03*
D11*
X203050000Y-86300000D03*
X215050000Y-88500000D03*
D12*
X206550000Y-92300000D03*
D13*
X201050000Y-92300000D03*
X212050000Y-92300000D03*
D14*
X201550000Y-97450000D03*
%TD*%
D10*
%TO.C,SW_H1*%
X172650000Y-105800000D03*
X177650000Y-107900000D03*
D11*
X169150000Y-105700000D03*
X181150000Y-107900000D03*
D12*
X172650000Y-111700000D03*
D13*
X167150000Y-111700000D03*
X178150000Y-111700000D03*
D14*
X167650000Y-116850000D03*
%TD*%
D10*
%TO.C,SW_G1*%
X153300000Y-105800000D03*
X158300000Y-107900000D03*
D11*
X149800000Y-105700000D03*
X161800000Y-107900000D03*
D12*
X153300000Y-111700000D03*
D13*
X147800000Y-111700000D03*
X158800000Y-111700000D03*
D14*
X148300000Y-116850000D03*
%TD*%
D10*
%TO.C,SW_FKEY1*%
X133950000Y-105800000D03*
X138950000Y-107900000D03*
D11*
X130450000Y-105700000D03*
X142450000Y-107900000D03*
D12*
X133950000Y-111700000D03*
D13*
X128450000Y-111700000D03*
X139450000Y-111700000D03*
D14*
X128950000Y-116850000D03*
%TD*%
D10*
%TO.C,SW_F12*%
X313100000Y-40100000D03*
X318100000Y-42200000D03*
D11*
X309600000Y-40000000D03*
X321600000Y-42200000D03*
D12*
X313100000Y-46000000D03*
D13*
X307600000Y-46000000D03*
X318600000Y-46000000D03*
D14*
X308100000Y-51150000D03*
%TD*%
D10*
%TO.C,SW_F11*%
X293750000Y-40100000D03*
X298750000Y-42200000D03*
D11*
X290250000Y-40000000D03*
X302250000Y-42200000D03*
D12*
X293750000Y-46000000D03*
D13*
X288250000Y-46000000D03*
X299250000Y-46000000D03*
D14*
X288750000Y-51150000D03*
%TD*%
D10*
%TO.C,SW_F10*%
X274400000Y-40100000D03*
X279400000Y-42200000D03*
D11*
X270900000Y-40000000D03*
X282900000Y-42200000D03*
D12*
X274400000Y-46000000D03*
D13*
X268900000Y-46000000D03*
X279900000Y-46000000D03*
D14*
X269400000Y-51150000D03*
%TD*%
D10*
%TO.C,SW_F9*%
X255050000Y-40100000D03*
X260050000Y-42200000D03*
D11*
X251550000Y-40000000D03*
X263550000Y-42200000D03*
D12*
X255050000Y-46000000D03*
D13*
X249550000Y-46000000D03*
X260550000Y-46000000D03*
D14*
X250050000Y-51150000D03*
%TD*%
D10*
%TO.C,SW_F8*%
X226025000Y-40100000D03*
X231025000Y-42200000D03*
D11*
X222525000Y-40000000D03*
X234525000Y-42200000D03*
D12*
X226025000Y-46000000D03*
D13*
X220525000Y-46000000D03*
X231525000Y-46000000D03*
D14*
X221025000Y-51150000D03*
%TD*%
D10*
%TO.C,SW_F7*%
X206675000Y-40100000D03*
X211675000Y-42200000D03*
D11*
X203175000Y-40000000D03*
X215175000Y-42200000D03*
D12*
X206675000Y-46000000D03*
D13*
X201175000Y-46000000D03*
X212175000Y-46000000D03*
D14*
X201675000Y-51150000D03*
%TD*%
D10*
%TO.C,SW_F6*%
X187325000Y-40100000D03*
X192325000Y-42200000D03*
D11*
X183825000Y-40000000D03*
X195825000Y-42200000D03*
D12*
X187325000Y-46000000D03*
D13*
X181825000Y-46000000D03*
X192825000Y-46000000D03*
D14*
X182325000Y-51150000D03*
%TD*%
D10*
%TO.C,SW_F5*%
X167975000Y-40100000D03*
X172975000Y-42200000D03*
D11*
X164475000Y-40000000D03*
X176475000Y-42200000D03*
D12*
X167975000Y-46000000D03*
D13*
X162475000Y-46000000D03*
X173475000Y-46000000D03*
D14*
X162975000Y-51150000D03*
%TD*%
D10*
%TO.C,SW_F4*%
X138950000Y-40100000D03*
X143950000Y-42200000D03*
D11*
X135450000Y-40000000D03*
X147450000Y-42200000D03*
D12*
X138950000Y-46000000D03*
D13*
X133450000Y-46000000D03*
X144450000Y-46000000D03*
D14*
X133950000Y-51150000D03*
%TD*%
D10*
%TO.C,SW_F3*%
X119600000Y-40100000D03*
X124600000Y-42200000D03*
D11*
X116100000Y-40000000D03*
X128100000Y-42200000D03*
D12*
X119600000Y-46000000D03*
D13*
X114100000Y-46000000D03*
X125100000Y-46000000D03*
D14*
X114600000Y-51150000D03*
%TD*%
D10*
%TO.C,SW_F2*%
X100250000Y-40100000D03*
X105250000Y-42200000D03*
D11*
X96750000Y-40000000D03*
X108750000Y-42200000D03*
D12*
X100250000Y-46000000D03*
D13*
X94750000Y-46000000D03*
X105750000Y-46000000D03*
D14*
X95250000Y-51150000D03*
%TD*%
D10*
%TO.C,SW_F1*%
X80900000Y-40100000D03*
X85900000Y-42200000D03*
D11*
X77400000Y-40000000D03*
X89400000Y-42200000D03*
D12*
X80900000Y-46000000D03*
D13*
X75400000Y-46000000D03*
X86400000Y-46000000D03*
D14*
X75900000Y-51150000D03*
%TD*%
%TO.C,SW_ESC1*%
X37200000Y-51150000D03*
D13*
X47700000Y-46000000D03*
X36700000Y-46000000D03*
D12*
X42200000Y-46000000D03*
D11*
X50700000Y-42200000D03*
X38700000Y-40000000D03*
D10*
X47200000Y-42200000D03*
X42200000Y-40100000D03*
%TD*%
%TO.C,SW_ENTER1*%
X301000000Y-105850000D03*
X306000000Y-107950000D03*
D11*
X297500000Y-105750000D03*
X309500000Y-107950000D03*
D12*
X301000000Y-111750000D03*
D13*
X295500000Y-111750000D03*
X306500000Y-111750000D03*
D14*
X296000000Y-116900000D03*
%TD*%
D10*
%TO.C,SW_E1*%
X109800000Y-86400000D03*
X114800000Y-88500000D03*
D11*
X106300000Y-86300000D03*
X118300000Y-88500000D03*
D12*
X109800000Y-92300000D03*
D13*
X104300000Y-92300000D03*
X115300000Y-92300000D03*
D14*
X104800000Y-97450000D03*
%TD*%
D10*
%TO.C,SW_D1*%
X114600000Y-105800000D03*
X119600000Y-107900000D03*
D11*
X111100000Y-105700000D03*
X123100000Y-107900000D03*
D12*
X114600000Y-111700000D03*
D13*
X109100000Y-111700000D03*
X120100000Y-111700000D03*
D14*
X109600000Y-116850000D03*
%TD*%
D10*
%TO.C,SW_CAPS1*%
X49000000Y-105850000D03*
X54000000Y-107950000D03*
D11*
X45500000Y-105750000D03*
X57500000Y-107950000D03*
D12*
X49000000Y-111750000D03*
D13*
X43500000Y-111750000D03*
X54500000Y-111750000D03*
D14*
X44000000Y-116900000D03*
%TD*%
D10*
%TO.C,SW_C1*%
X124350000Y-125200000D03*
X129350000Y-127300000D03*
D11*
X120850000Y-125100000D03*
X132850000Y-127300000D03*
D12*
X124350000Y-131100000D03*
D13*
X118850000Y-131100000D03*
X129850000Y-131100000D03*
D14*
X119350000Y-136250000D03*
%TD*%
D10*
%TO.C,SW_BACK1*%
X303500000Y-66951000D03*
X308500000Y-69051000D03*
D11*
X300000000Y-66851000D03*
X312000000Y-69051000D03*
D12*
X303500000Y-72851000D03*
D13*
X298000000Y-72851000D03*
X309000000Y-72851000D03*
D14*
X298500000Y-78001000D03*
%TD*%
D10*
%TO.C,SW_B1*%
X163050000Y-125200000D03*
X168050000Y-127300000D03*
D11*
X159550000Y-125100000D03*
X171550000Y-127300000D03*
D12*
X163050000Y-131100000D03*
D13*
X157550000Y-131100000D03*
X168550000Y-131100000D03*
D14*
X158050000Y-136250000D03*
%TD*%
D10*
%TO.C,SW_A1*%
X75900000Y-105800000D03*
X80900000Y-107900000D03*
D11*
X72400000Y-105700000D03*
X84400000Y-107900000D03*
D12*
X75900000Y-111700000D03*
D13*
X70400000Y-111700000D03*
X81400000Y-111700000D03*
D14*
X70900000Y-116850000D03*
%TD*%
D10*
%TO.C,SW_=1*%
X274400000Y-67000000D03*
X279400000Y-69100000D03*
D11*
X270900000Y-66900000D03*
X282900000Y-69100000D03*
D12*
X274400000Y-72900000D03*
D13*
X268900000Y-72900000D03*
X279900000Y-72900000D03*
D14*
X269400000Y-78050000D03*
%TD*%
D10*
%TO.C,SW_;1*%
X250050000Y-105800000D03*
X255050000Y-107900000D03*
D11*
X246550000Y-105700000D03*
X258550000Y-107900000D03*
D12*
X250050000Y-111700000D03*
D13*
X244550000Y-111700000D03*
X255550000Y-111700000D03*
D14*
X245050000Y-116850000D03*
%TD*%
D10*
%TO.C,SW_9*%
X216350000Y-67000000D03*
X221350000Y-69100000D03*
D11*
X212850000Y-66900000D03*
X224850000Y-69100000D03*
D12*
X216350000Y-72900000D03*
D13*
X210850000Y-72900000D03*
X221850000Y-72900000D03*
D14*
X211350000Y-78050000D03*
%TD*%
D10*
%TO.C,SW_8*%
X197000000Y-67000000D03*
X202000000Y-69100000D03*
D11*
X193500000Y-66900000D03*
X205500000Y-69100000D03*
D12*
X197000000Y-72900000D03*
D13*
X191500000Y-72900000D03*
X202500000Y-72900000D03*
D14*
X192000000Y-78050000D03*
%TD*%
D10*
%TO.C,SW_7*%
X177650000Y-67000000D03*
X182650000Y-69100000D03*
D11*
X174150000Y-66900000D03*
X186150000Y-69100000D03*
D12*
X177650000Y-72900000D03*
D13*
X172150000Y-72900000D03*
X183150000Y-72900000D03*
D14*
X172650000Y-78050000D03*
%TD*%
D10*
%TO.C,SW_6*%
X158300000Y-67000000D03*
X163300000Y-69100000D03*
D11*
X154800000Y-66900000D03*
X166800000Y-69100000D03*
D12*
X158300000Y-72900000D03*
D13*
X152800000Y-72900000D03*
X163800000Y-72900000D03*
D14*
X153300000Y-78050000D03*
%TD*%
D10*
%TO.C,SW_5*%
X138950000Y-67000000D03*
X143950000Y-69100000D03*
D11*
X135450000Y-66900000D03*
X147450000Y-69100000D03*
D12*
X138950000Y-72900000D03*
D13*
X133450000Y-72900000D03*
X144450000Y-72900000D03*
D14*
X133950000Y-78050000D03*
%TD*%
D10*
%TO.C,SW_4*%
X119600000Y-67000000D03*
X124600000Y-69100000D03*
D11*
X116100000Y-66900000D03*
X128100000Y-69100000D03*
D12*
X119600000Y-72900000D03*
D13*
X114100000Y-72900000D03*
X125100000Y-72900000D03*
D14*
X114600000Y-78050000D03*
%TD*%
D10*
%TO.C,SW_3*%
X100250000Y-67000000D03*
X105250000Y-69100000D03*
D11*
X96750000Y-66900000D03*
X108750000Y-69100000D03*
D12*
X100250000Y-72900000D03*
D13*
X94750000Y-72900000D03*
X105750000Y-72900000D03*
D14*
X95250000Y-78050000D03*
%TD*%
D10*
%TO.C,SW_2*%
X80900000Y-67000000D03*
X85900000Y-69100000D03*
D11*
X77400000Y-66900000D03*
X89400000Y-69100000D03*
D12*
X80900000Y-72900000D03*
D13*
X75400000Y-72900000D03*
X86400000Y-72900000D03*
D14*
X75900000Y-78050000D03*
%TD*%
D10*
%TO.C,SW_1*%
X61550000Y-67000000D03*
X66550000Y-69100000D03*
D11*
X58050000Y-66900000D03*
X70050000Y-69100000D03*
D12*
X61550000Y-72900000D03*
D13*
X56050000Y-72900000D03*
X67050000Y-72900000D03*
D14*
X56550000Y-78050000D03*
%TD*%
D10*
%TO.C,SW_0*%
X235700000Y-67000000D03*
X240700000Y-69100000D03*
D11*
X232200000Y-66900000D03*
X244200000Y-69100000D03*
D12*
X235700000Y-72900000D03*
D13*
X230200000Y-72900000D03*
X241200000Y-72900000D03*
D14*
X230700000Y-78050000D03*
%TD*%
D10*
%TO.C,SW_/1*%
X259800000Y-125200000D03*
X264800000Y-127300000D03*
D11*
X256300000Y-125100000D03*
X268300000Y-127300000D03*
D12*
X259800000Y-131100000D03*
D13*
X254300000Y-131100000D03*
X265300000Y-131100000D03*
D14*
X254800000Y-136250000D03*
%TD*%
D10*
%TO.C,SW_.1*%
X240450000Y-125200000D03*
X245450000Y-127300000D03*
D11*
X236950000Y-125100000D03*
X248950000Y-127300000D03*
D12*
X240450000Y-131100000D03*
D13*
X234950000Y-131100000D03*
X245950000Y-131100000D03*
D14*
X235450000Y-136250000D03*
%TD*%
D10*
%TO.C,SW_-1*%
X255050000Y-67000000D03*
X260050000Y-69100000D03*
D11*
X251550000Y-66900000D03*
X263550000Y-69100000D03*
D12*
X255050000Y-72900000D03*
D13*
X249550000Y-72900000D03*
X260550000Y-72900000D03*
D14*
X250050000Y-78050000D03*
%TD*%
D10*
%TO.C,SW_\u002C1*%
X221100000Y-125200000D03*
X226100000Y-127300000D03*
D11*
X217600000Y-125100000D03*
X229600000Y-127300000D03*
D12*
X221100000Y-131100000D03*
D13*
X215600000Y-131100000D03*
X226600000Y-131100000D03*
D14*
X216100000Y-136250000D03*
%TD*%
D10*
%TO.C,SW_'1*%
X269400000Y-105800000D03*
X274400000Y-107900000D03*
D11*
X265900000Y-105700000D03*
X277900000Y-107900000D03*
D12*
X269400000Y-111700000D03*
D13*
X263900000Y-111700000D03*
X274900000Y-111700000D03*
D14*
X264400000Y-116850000D03*
%TD*%
D15*
%TO.C,U2*%
X53750000Y-28750000D03*
X53750000Y-31290000D03*
X53750000Y-33830000D03*
X53750000Y-36370000D03*
X53750000Y-38910000D03*
X53750000Y-41450000D03*
X53750000Y-43990000D03*
X53750000Y-46530000D03*
X53750000Y-49070000D03*
X53750000Y-51610000D03*
X53750000Y-54150000D03*
X53750000Y-56690000D03*
X68990000Y-56690000D03*
X68990000Y-54150000D03*
X68990000Y-51610000D03*
X68990000Y-49070000D03*
X68990000Y-46530000D03*
X68990000Y-43990000D03*
X68990000Y-41450000D03*
X68990000Y-38910000D03*
X68990000Y-36370000D03*
X68990000Y-33830000D03*
X68990000Y-31290000D03*
X68990000Y-28750000D03*
X56290000Y-51610000D03*
X58830000Y-51610000D03*
X61370000Y-51610000D03*
%TD*%
D16*
%TO.C,SW2*%
X78900000Y-26500000D03*
X72100000Y-26500000D03*
%TD*%
D17*
%TO.C,J1*%
X90550000Y-31000000D03*
D18*
X90550000Y-33000000D03*
%TD*%
D19*
%TO.C,D45*%
X115787500Y-42750000D03*
X114212500Y-42750000D03*
%TD*%
%TO.C,D21*%
X161397500Y-147230000D03*
X159822500Y-147230000D03*
%TD*%
%TO.C,D13*%
X236037500Y-128250000D03*
X234462500Y-128250000D03*
%TD*%
%TO.C,D39*%
X251037500Y-70000000D03*
X249462500Y-70000000D03*
%TD*%
%TO.C,D67*%
X280037500Y-89500000D03*
X278462500Y-89500000D03*
%TD*%
%TO.C,D53*%
X290037500Y-42750000D03*
X288462500Y-42750000D03*
%TD*%
%TO.C,D54*%
X308787500Y-43250000D03*
X307212500Y-43250000D03*
%TD*%
%TO.C,D3*%
X81787500Y-128250000D03*
X80212500Y-128250000D03*
%TD*%
%TO.C,D23*%
X257397500Y-146980000D03*
X255822500Y-146980000D03*
%TD*%
%TO.C,D48*%
X183037500Y-43250000D03*
X181462500Y-43250000D03*
%TD*%
%TO.C,D26*%
X306647500Y-147230000D03*
X305072500Y-147230000D03*
%TD*%
%TO.C,D73*%
X130287500Y-109000000D03*
X128712500Y-109000000D03*
%TD*%
%TO.C,D49*%
X202537500Y-43250000D03*
X200962500Y-43250000D03*
%TD*%
%TO.C,D51*%
X250787500Y-42750000D03*
X249212500Y-42750000D03*
%TD*%
%TO.C,D59*%
X125287500Y-89250000D03*
X123712500Y-89250000D03*
%TD*%
%TO.C,D46*%
X135037500Y-42750000D03*
X133462500Y-42750000D03*
%TD*%
%TO.C,D62*%
X182787500Y-89250000D03*
X181212500Y-89250000D03*
%TD*%
%TO.C,D47*%
X163787500Y-42750000D03*
X162212500Y-42750000D03*
%TD*%
%TO.C,D20*%
X115787500Y-70000000D03*
X114212500Y-70000000D03*
%TD*%
%TO.C,D10*%
X76787500Y-70250000D03*
X75212500Y-70250000D03*
%TD*%
%TO.C,D16*%
X293250000Y-128250000D03*
X291675000Y-128250000D03*
%TD*%
%TO.C,D75*%
X169287500Y-108750000D03*
X167712500Y-108750000D03*
%TD*%
%TO.C,D9*%
X178787500Y-128250000D03*
X177212500Y-128250000D03*
%TD*%
%TO.C,D58*%
X105787500Y-89500000D03*
X104212500Y-89500000D03*
%TD*%
%TO.C,D15*%
X255787500Y-127750000D03*
X254212500Y-127750000D03*
%TD*%
%TO.C,D66*%
X260537500Y-89500000D03*
X258962500Y-89500000D03*
%TD*%
%TO.C,D65*%
X241037500Y-89750000D03*
X239462500Y-89750000D03*
%TD*%
%TO.C,D1*%
X39537500Y-70000000D03*
X37962500Y-70000000D03*
%TD*%
%TO.C,D14*%
X96537500Y-70000000D03*
X94962500Y-70000000D03*
%TD*%
%TO.C,D25*%
X134787500Y-70250000D03*
X133212500Y-70250000D03*
%TD*%
%TO.C,D71*%
X91037500Y-108750000D03*
X89462500Y-108750000D03*
%TD*%
%TO.C,D37*%
X212537500Y-70000000D03*
X210962500Y-70000000D03*
%TD*%
%TO.C,D81*%
X297367500Y-109130000D03*
X295792500Y-109130000D03*
%TD*%
%TO.C,D42*%
X39037500Y-43250000D03*
X37462500Y-43250000D03*
%TD*%
%TO.C,D63*%
X203037500Y-89750000D03*
X201462500Y-89750000D03*
%TD*%
%TO.C,D11*%
X197537500Y-128250000D03*
X195962500Y-128250000D03*
%TD*%
%TO.C,D64*%
X220462500Y-89500000D03*
X222037500Y-89500000D03*
%TD*%
%TO.C,D38*%
X231787500Y-70000000D03*
X230212500Y-70000000D03*
%TD*%
%TO.C,D68*%
X304247500Y-89680000D03*
X302672500Y-89680000D03*
%TD*%
%TO.C,D18*%
X65147500Y-146480000D03*
X63572500Y-146480000D03*
%TD*%
%TO.C,D76*%
X186462500Y-108750000D03*
X188037500Y-108750000D03*
%TD*%
%TO.C,D17*%
X40647500Y-146980000D03*
X39072500Y-146980000D03*
%TD*%
%TO.C,D60*%
X144537500Y-89250000D03*
X142962500Y-89250000D03*
%TD*%
%TO.C,D72*%
X110787500Y-108750000D03*
X109212500Y-108750000D03*
%TD*%
%TO.C,D52*%
X270537500Y-43000000D03*
X268962500Y-43000000D03*
%TD*%
%TO.C,D6*%
X121287500Y-128000000D03*
X119712500Y-128000000D03*
%TD*%
%TO.C,D77*%
X207537500Y-108500000D03*
X205962500Y-108500000D03*
%TD*%
%TO.C,D43*%
X78037500Y-43000000D03*
X76462500Y-43000000D03*
%TD*%
%TO.C,D50*%
X222037500Y-43000000D03*
X220462500Y-43000000D03*
%TD*%
%TO.C,D80*%
X265287500Y-108750000D03*
X263712500Y-108750000D03*
%TD*%
%TO.C,D4*%
X101537500Y-128000000D03*
X99962500Y-128000000D03*
%TD*%
%TO.C,D57*%
X86787500Y-89500000D03*
X85212500Y-89500000D03*
%TD*%
%TO.C,D40*%
X270287500Y-70000000D03*
X268712500Y-70000000D03*
%TD*%
%TO.C,D5*%
X58037500Y-70000000D03*
X56462500Y-70000000D03*
%TD*%
%TO.C,D22*%
X233397500Y-147230000D03*
X231822500Y-147230000D03*
%TD*%
%TO.C,D41*%
X299967500Y-69781000D03*
X298392500Y-69781000D03*
%TD*%
%TO.C,D69*%
X45117500Y-108900000D03*
X43542500Y-108900000D03*
%TD*%
%TO.C,D36*%
X193287500Y-70250000D03*
X191712500Y-70250000D03*
%TD*%
%TO.C,D35*%
X173787500Y-70000000D03*
X172212500Y-70000000D03*
%TD*%
%TO.C,D12*%
X216787500Y-128500000D03*
X215212500Y-128500000D03*
%TD*%
%TO.C,D79*%
X245787500Y-109000000D03*
X244212500Y-109000000D03*
%TD*%
%TO.C,D44*%
X96287500Y-43000000D03*
X94712500Y-43000000D03*
%TD*%
%TO.C,D55*%
X41422500Y-89530000D03*
X42997500Y-89530000D03*
%TD*%
%TO.C,D56*%
X67037500Y-89250000D03*
X65462500Y-89250000D03*
%TD*%
%TO.C,D2*%
X49627500Y-128230000D03*
X48052500Y-128230000D03*
%TD*%
%TO.C,D24*%
X281397500Y-147480000D03*
X279822500Y-147480000D03*
%TD*%
%TO.C,D31*%
X153787500Y-70000000D03*
X152212500Y-70000000D03*
%TD*%
%TO.C,D78*%
X226787500Y-108750000D03*
X225212500Y-108750000D03*
%TD*%
%TO.C,D8*%
X159037500Y-128250000D03*
X157462500Y-128250000D03*
%TD*%
%TO.C,D74*%
X149537500Y-108750000D03*
X147962500Y-108750000D03*
%TD*%
%TO.C,D7*%
X140037500Y-128250000D03*
X138462500Y-128250000D03*
%TD*%
%TO.C,D61*%
X163787500Y-89250000D03*
X162212500Y-89250000D03*
%TD*%
%TO.C,D19*%
X89147500Y-146980000D03*
X87572500Y-146980000D03*
%TD*%
%TO.C,D70*%
X69962500Y-108750000D03*
X71537500Y-108750000D03*
%TD*%
M02*
