%TF.GenerationSoftware,KiCad,Pcbnew,8.0.8*%
%TF.CreationDate,2025-01-25T15:20:35-08:00*%
%TF.ProjectId,CustomKeyboard,43757374-6f6d-44b6-9579-626f6172642e,rev?*%
%TF.SameCoordinates,Original*%
%TF.FileFunction,Paste,Bot*%
%TF.FilePolarity,Positive*%
%FSLAX46Y46*%
G04 Gerber Fmt 4.6, Leading zero omitted, Abs format (unit mm)*
G04 Created by KiCad (PCBNEW 8.0.8) date 2025-01-25 15:20:35*
%MOMM*%
%LPD*%
G01*
G04 APERTURE LIST*
G04 Aperture macros list*
%AMRoundRect*
0 Rectangle with rounded corners*
0 $1 Rounding radius*
0 $2 $3 $4 $5 $6 $7 $8 $9 X,Y pos of 4 corners*
0 Add a 4 corners polygon primitive as box body*
4,1,4,$2,$3,$4,$5,$6,$7,$8,$9,$2,$3,0*
0 Add four circle primitives for the rounded corners*
1,1,$1+$1,$2,$3*
1,1,$1+$1,$4,$5*
1,1,$1+$1,$6,$7*
1,1,$1+$1,$8,$9*
0 Add four rect primitives between the rounded corners*
20,1,$1+$1,$2,$3,$4,$5,0*
20,1,$1+$1,$4,$5,$6,$7,0*
20,1,$1+$1,$6,$7,$8,$9,0*
20,1,$1+$1,$8,$9,$2,$3,0*%
G04 Aperture macros list end*
%ADD10RoundRect,0.250000X-1.025000X-1.000000X1.025000X-1.000000X1.025000X1.000000X-1.025000X1.000000X0*%
%ADD11RoundRect,0.218750X0.218750X0.256250X-0.218750X0.256250X-0.218750X-0.256250X0.218750X-0.256250X0*%
G04 APERTURE END LIST*
D10*
%TO.C,SW_]1*%
X280450000Y-86300000D03*
X292450000Y-88500000D03*
%TD*%
%TO.C,SW_\u005C1*%
X304250000Y-86500000D03*
X316250000Y-88700000D03*
%TD*%
%TO.C,SW_[1*%
X261100000Y-86300000D03*
X273100000Y-88500000D03*
%TD*%
%TO.C,SW_Z1*%
X82150000Y-125100000D03*
X94150000Y-127300000D03*
%TD*%
%TO.C,SW_Y1*%
X164350000Y-86300000D03*
X176350000Y-88500000D03*
%TD*%
%TO.C,SW_X1*%
X101500000Y-125100000D03*
X113500000Y-127300000D03*
%TD*%
%TO.C,SW_W1*%
X86950000Y-86300000D03*
X98950000Y-88500000D03*
%TD*%
%TO.C,SW_V1*%
X140200000Y-125100000D03*
X152200000Y-127300000D03*
%TD*%
%TO.C,SW_U1*%
X183700000Y-86300000D03*
X195700000Y-88500000D03*
%TD*%
%TO.C,SW_TILDE1*%
X38700000Y-66900000D03*
X50700000Y-69100000D03*
%TD*%
%TO.C,SW_TAB1*%
X43250000Y-86250000D03*
X55250000Y-88450000D03*
%TD*%
%TO.C,SW_T1*%
X145000000Y-86300000D03*
X157000000Y-88500000D03*
%TD*%
%TO.C,SW_SPACE1*%
X161700000Y-143792500D03*
X173700000Y-145992500D03*
%TD*%
%TO.C,SW_S1*%
X91750000Y-105700000D03*
X103750000Y-107900000D03*
%TD*%
%TO.C,SW_RWIN1*%
X258100000Y-143850000D03*
X270100000Y-146050000D03*
%TD*%
%TO.C,SW_RSHIFT1*%
X293202500Y-125080000D03*
X305202500Y-127280000D03*
%TD*%
%TO.C,SW_RCTRL1*%
X306900000Y-143850000D03*
X318900000Y-146050000D03*
%TD*%
%TO.C,SW_RC1*%
X282600000Y-143850000D03*
X294600000Y-146050000D03*
%TD*%
%TO.C,SW_RALT1*%
X233700000Y-143850000D03*
X245700000Y-146050000D03*
%TD*%
%TO.C,SW_R1*%
X125650000Y-86300000D03*
X137650000Y-88500000D03*
%TD*%
%TO.C,SW_Q1*%
X67600000Y-86300000D03*
X79600000Y-88500000D03*
%TD*%
%TO.C,SW_P1*%
X241750000Y-86300000D03*
X253750000Y-88500000D03*
%TD*%
%TO.C,SW_O1*%
X222400000Y-86300000D03*
X234400000Y-88500000D03*
%TD*%
%TO.C,SW_N1*%
X178900000Y-125100000D03*
X190900000Y-127300000D03*
%TD*%
%TO.C,SW_M1*%
X198250000Y-125100000D03*
X210250000Y-127300000D03*
%TD*%
%TO.C,SW_LWIN1*%
X65300000Y-143750000D03*
X77300000Y-145950000D03*
%TD*%
%TO.C,SW_LSHIFT1*%
X50000000Y-125000000D03*
X62000000Y-127200000D03*
%TD*%
%TO.C,SW_LCTRL1*%
X41000000Y-143750000D03*
X53000000Y-145950000D03*
%TD*%
%TO.C,SW_LALT1*%
X89700000Y-143750000D03*
X101700000Y-145950000D03*
%TD*%
%TO.C,SW_L1*%
X227200000Y-105700000D03*
X239200000Y-107900000D03*
%TD*%
%TO.C,SW_K1*%
X207850000Y-105700000D03*
X219850000Y-107900000D03*
%TD*%
%TO.C,SW_J1*%
X188500000Y-105700000D03*
X200500000Y-107900000D03*
%TD*%
%TO.C,SW_I1*%
X203050000Y-86300000D03*
X215050000Y-88500000D03*
%TD*%
%TO.C,SW_H1*%
X169150000Y-105700000D03*
X181150000Y-107900000D03*
%TD*%
%TO.C,SW_G1*%
X149800000Y-105700000D03*
X161800000Y-107900000D03*
%TD*%
%TO.C,SW_FKEY1*%
X130450000Y-105700000D03*
X142450000Y-107900000D03*
%TD*%
%TO.C,SW_F12*%
X309600000Y-40000000D03*
X321600000Y-42200000D03*
%TD*%
%TO.C,SW_F11*%
X290250000Y-40000000D03*
X302250000Y-42200000D03*
%TD*%
%TO.C,SW_F10*%
X270900000Y-40000000D03*
X282900000Y-42200000D03*
%TD*%
%TO.C,SW_F9*%
X251550000Y-40000000D03*
X263550000Y-42200000D03*
%TD*%
%TO.C,SW_F8*%
X222525000Y-40000000D03*
X234525000Y-42200000D03*
%TD*%
%TO.C,SW_F7*%
X203175000Y-40000000D03*
X215175000Y-42200000D03*
%TD*%
%TO.C,SW_F6*%
X183825000Y-40000000D03*
X195825000Y-42200000D03*
%TD*%
%TO.C,SW_F5*%
X164475000Y-40000000D03*
X176475000Y-42200000D03*
%TD*%
%TO.C,SW_F4*%
X135450000Y-40000000D03*
X147450000Y-42200000D03*
%TD*%
%TO.C,SW_F3*%
X116100000Y-40000000D03*
X128100000Y-42200000D03*
%TD*%
%TO.C,SW_F2*%
X96750000Y-40000000D03*
X108750000Y-42200000D03*
%TD*%
%TO.C,SW_F1*%
X77400000Y-40000000D03*
X89400000Y-42200000D03*
%TD*%
%TO.C,SW_ESC1*%
X50700000Y-42200000D03*
X38700000Y-40000000D03*
%TD*%
%TO.C,SW_ENTER1*%
X297500000Y-105750000D03*
X309500000Y-107950000D03*
%TD*%
%TO.C,SW_E1*%
X106300000Y-86300000D03*
X118300000Y-88500000D03*
%TD*%
%TO.C,SW_D1*%
X111100000Y-105700000D03*
X123100000Y-107900000D03*
%TD*%
%TO.C,SW_CAPS1*%
X45500000Y-105750000D03*
X57500000Y-107950000D03*
%TD*%
%TO.C,SW_C1*%
X120850000Y-125100000D03*
X132850000Y-127300000D03*
%TD*%
%TO.C,SW_BACK1*%
X300000000Y-66851000D03*
X312000000Y-69051000D03*
%TD*%
%TO.C,SW_B1*%
X159550000Y-125100000D03*
X171550000Y-127300000D03*
%TD*%
%TO.C,SW_A1*%
X72400000Y-105700000D03*
X84400000Y-107900000D03*
%TD*%
%TO.C,SW_=1*%
X270900000Y-66900000D03*
X282900000Y-69100000D03*
%TD*%
%TO.C,SW_;1*%
X246550000Y-105700000D03*
X258550000Y-107900000D03*
%TD*%
%TO.C,SW_9*%
X212850000Y-66900000D03*
X224850000Y-69100000D03*
%TD*%
%TO.C,SW_8*%
X193500000Y-66900000D03*
X205500000Y-69100000D03*
%TD*%
%TO.C,SW_7*%
X174150000Y-66900000D03*
X186150000Y-69100000D03*
%TD*%
%TO.C,SW_6*%
X154800000Y-66900000D03*
X166800000Y-69100000D03*
%TD*%
%TO.C,SW_5*%
X135450000Y-66900000D03*
X147450000Y-69100000D03*
%TD*%
%TO.C,SW_4*%
X116100000Y-66900000D03*
X128100000Y-69100000D03*
%TD*%
%TO.C,SW_3*%
X96750000Y-66900000D03*
X108750000Y-69100000D03*
%TD*%
%TO.C,SW_2*%
X77400000Y-66900000D03*
X89400000Y-69100000D03*
%TD*%
%TO.C,SW_1*%
X58050000Y-66900000D03*
X70050000Y-69100000D03*
%TD*%
%TO.C,SW_0*%
X232200000Y-66900000D03*
X244200000Y-69100000D03*
%TD*%
%TO.C,SW_/1*%
X256300000Y-125100000D03*
X268300000Y-127300000D03*
%TD*%
%TO.C,SW_.1*%
X236950000Y-125100000D03*
X248950000Y-127300000D03*
%TD*%
%TO.C,SW_-1*%
X251550000Y-66900000D03*
X263550000Y-69100000D03*
%TD*%
%TO.C,SW_\u002C1*%
X217600000Y-125100000D03*
X229600000Y-127300000D03*
%TD*%
%TO.C,SW_'1*%
X265900000Y-105700000D03*
X277900000Y-107900000D03*
%TD*%
D11*
%TO.C,D45*%
X115787500Y-42750000D03*
X114212500Y-42750000D03*
%TD*%
%TO.C,D21*%
X161397500Y-147230000D03*
X159822500Y-147230000D03*
%TD*%
%TO.C,D13*%
X236037500Y-128250000D03*
X234462500Y-128250000D03*
%TD*%
%TO.C,D39*%
X251037500Y-70000000D03*
X249462500Y-70000000D03*
%TD*%
%TO.C,D67*%
X280037500Y-89500000D03*
X278462500Y-89500000D03*
%TD*%
%TO.C,D53*%
X290037500Y-42750000D03*
X288462500Y-42750000D03*
%TD*%
%TO.C,D54*%
X308787500Y-43250000D03*
X307212500Y-43250000D03*
%TD*%
%TO.C,D3*%
X81787500Y-128250000D03*
X80212500Y-128250000D03*
%TD*%
%TO.C,D23*%
X257397500Y-146980000D03*
X255822500Y-146980000D03*
%TD*%
%TO.C,D48*%
X183037500Y-43250000D03*
X181462500Y-43250000D03*
%TD*%
%TO.C,D26*%
X306647500Y-147230000D03*
X305072500Y-147230000D03*
%TD*%
%TO.C,D73*%
X130287500Y-109000000D03*
X128712500Y-109000000D03*
%TD*%
%TO.C,D49*%
X202537500Y-43250000D03*
X200962500Y-43250000D03*
%TD*%
%TO.C,D51*%
X250787500Y-42750000D03*
X249212500Y-42750000D03*
%TD*%
%TO.C,D59*%
X125287500Y-89250000D03*
X123712500Y-89250000D03*
%TD*%
%TO.C,D46*%
X135037500Y-42750000D03*
X133462500Y-42750000D03*
%TD*%
%TO.C,D62*%
X182787500Y-89250000D03*
X181212500Y-89250000D03*
%TD*%
%TO.C,D47*%
X163787500Y-42750000D03*
X162212500Y-42750000D03*
%TD*%
%TO.C,D20*%
X115787500Y-70000000D03*
X114212500Y-70000000D03*
%TD*%
%TO.C,D10*%
X76787500Y-70250000D03*
X75212500Y-70250000D03*
%TD*%
%TO.C,D16*%
X293250000Y-128250000D03*
X291675000Y-128250000D03*
%TD*%
%TO.C,D75*%
X169287500Y-108750000D03*
X167712500Y-108750000D03*
%TD*%
%TO.C,D9*%
X178787500Y-128250000D03*
X177212500Y-128250000D03*
%TD*%
%TO.C,D58*%
X105787500Y-89500000D03*
X104212500Y-89500000D03*
%TD*%
%TO.C,D15*%
X255787500Y-127750000D03*
X254212500Y-127750000D03*
%TD*%
%TO.C,D66*%
X260537500Y-89500000D03*
X258962500Y-89500000D03*
%TD*%
%TO.C,D65*%
X241037500Y-89750000D03*
X239462500Y-89750000D03*
%TD*%
%TO.C,D1*%
X39537500Y-70000000D03*
X37962500Y-70000000D03*
%TD*%
%TO.C,D14*%
X96537500Y-70000000D03*
X94962500Y-70000000D03*
%TD*%
%TO.C,D25*%
X134787500Y-70250000D03*
X133212500Y-70250000D03*
%TD*%
%TO.C,D71*%
X91037500Y-108750000D03*
X89462500Y-108750000D03*
%TD*%
%TO.C,D37*%
X212537500Y-70000000D03*
X210962500Y-70000000D03*
%TD*%
%TO.C,D81*%
X297367500Y-109130000D03*
X295792500Y-109130000D03*
%TD*%
%TO.C,D42*%
X39037500Y-43250000D03*
X37462500Y-43250000D03*
%TD*%
%TO.C,D63*%
X203037500Y-89750000D03*
X201462500Y-89750000D03*
%TD*%
%TO.C,D11*%
X197537500Y-128250000D03*
X195962500Y-128250000D03*
%TD*%
%TO.C,D64*%
X220462500Y-89500000D03*
X222037500Y-89500000D03*
%TD*%
%TO.C,D38*%
X231787500Y-70000000D03*
X230212500Y-70000000D03*
%TD*%
%TO.C,D68*%
X304247500Y-89680000D03*
X302672500Y-89680000D03*
%TD*%
%TO.C,D18*%
X65147500Y-146480000D03*
X63572500Y-146480000D03*
%TD*%
%TO.C,D76*%
X186462500Y-108750000D03*
X188037500Y-108750000D03*
%TD*%
%TO.C,D17*%
X40647500Y-146980000D03*
X39072500Y-146980000D03*
%TD*%
%TO.C,D60*%
X144537500Y-89250000D03*
X142962500Y-89250000D03*
%TD*%
%TO.C,D72*%
X110787500Y-108750000D03*
X109212500Y-108750000D03*
%TD*%
%TO.C,D52*%
X270537500Y-43000000D03*
X268962500Y-43000000D03*
%TD*%
%TO.C,D6*%
X121287500Y-128000000D03*
X119712500Y-128000000D03*
%TD*%
%TO.C,D77*%
X207537500Y-108500000D03*
X205962500Y-108500000D03*
%TD*%
%TO.C,D43*%
X78037500Y-43000000D03*
X76462500Y-43000000D03*
%TD*%
%TO.C,D50*%
X222037500Y-43000000D03*
X220462500Y-43000000D03*
%TD*%
%TO.C,D80*%
X265287500Y-108750000D03*
X263712500Y-108750000D03*
%TD*%
%TO.C,D4*%
X101537500Y-128000000D03*
X99962500Y-128000000D03*
%TD*%
%TO.C,D57*%
X86787500Y-89500000D03*
X85212500Y-89500000D03*
%TD*%
%TO.C,D40*%
X270287500Y-70000000D03*
X268712500Y-70000000D03*
%TD*%
%TO.C,D5*%
X58037500Y-70000000D03*
X56462500Y-70000000D03*
%TD*%
%TO.C,D22*%
X233397500Y-147230000D03*
X231822500Y-147230000D03*
%TD*%
%TO.C,D41*%
X299967500Y-69781000D03*
X298392500Y-69781000D03*
%TD*%
%TO.C,D69*%
X45117500Y-108900000D03*
X43542500Y-108900000D03*
%TD*%
%TO.C,D36*%
X193287500Y-70250000D03*
X191712500Y-70250000D03*
%TD*%
%TO.C,D35*%
X173787500Y-70000000D03*
X172212500Y-70000000D03*
%TD*%
%TO.C,D12*%
X216787500Y-128500000D03*
X215212500Y-128500000D03*
%TD*%
%TO.C,D79*%
X245787500Y-109000000D03*
X244212500Y-109000000D03*
%TD*%
%TO.C,D44*%
X96287500Y-43000000D03*
X94712500Y-43000000D03*
%TD*%
%TO.C,D55*%
X41422500Y-89530000D03*
X42997500Y-89530000D03*
%TD*%
%TO.C,D56*%
X67037500Y-89250000D03*
X65462500Y-89250000D03*
%TD*%
%TO.C,D2*%
X49627500Y-128230000D03*
X48052500Y-128230000D03*
%TD*%
%TO.C,D24*%
X281397500Y-147480000D03*
X279822500Y-147480000D03*
%TD*%
%TO.C,D31*%
X153787500Y-70000000D03*
X152212500Y-70000000D03*
%TD*%
%TO.C,D78*%
X226787500Y-108750000D03*
X225212500Y-108750000D03*
%TD*%
%TO.C,D8*%
X159037500Y-128250000D03*
X157462500Y-128250000D03*
%TD*%
%TO.C,D74*%
X149537500Y-108750000D03*
X147962500Y-108750000D03*
%TD*%
%TO.C,D7*%
X140037500Y-128250000D03*
X138462500Y-128250000D03*
%TD*%
%TO.C,D61*%
X163787500Y-89250000D03*
X162212500Y-89250000D03*
%TD*%
%TO.C,D19*%
X89147500Y-146980000D03*
X87572500Y-146980000D03*
%TD*%
%TO.C,D70*%
X69962500Y-108750000D03*
X71537500Y-108750000D03*
%TD*%
M02*
