M48
; DRILL file {KiCad 8.0.3} date 2024-06-29T11:43:40-0700
; FORMAT={-:-/ absolute / inch / decimal}
; #@! TF.CreationDate,2024-06-29T11:43:40-07:00
; #@! TF.GenerationSoftware,Kicad,Pcbnew,8.0.3
; #@! TF.FileFunction,Plated,1,2,PTH
FMAT,2
INCH
; #@! TA.AperFunction,Plated,PTH,ViaDrill
T1C0.0118
; #@! TA.AperFunction,Plated,PTH,ComponentDrill
T2C0.0197
; #@! TA.AperFunction,Plated,PTH,ComponentDrill
T3C0.0217
; #@! TA.AperFunction,Plated,PTH,ViaDrill
T4C0.0236
; #@! TA.AperFunction,Plated,PTH,ComponentDrill
T5C0.0591
%
G90
G05
T1
X1.4843Y-3.7992
X1.6142Y-3.0433
X1.6535Y-1.9961
X1.7402Y-1.252
X1.7756Y-6.0866
X1.874Y-3.7795
X2.063Y-3.0748
X2.378Y-3.0354
X2.3858Y-2.315
X2.3898Y-3.7835
X2.4094Y-1.2165
X2.6102Y-5.248
X2.6732Y-3.7913
X2.7087Y-2.3307
X2.8976Y-6.2008
X3.1339Y-1.2205
X3.1654Y-3.7559
X3.1732Y-2.9961
X3.1772Y-1.9882
X3.3504Y-5.3976
X3.5551Y-3.8622
X3.5748Y-2.3268
X3.7638Y-6.1339
X3.8937Y-3.0276
X3.8937Y-4.9803
X3.8976Y-4.9094
X3.9213Y-3.7717
X3.9646Y-1.9685
X3.9882Y-1.248
X3.9882Y-5.2756
X3.9961Y-3.3947
X3.9961Y-3.4685
X3.9961Y-4.2402
X4.0276Y-4.3031
X4.0945Y-4.8465
X4.1772Y-4.0748
X4.252Y-3.2874
X4.3386Y-1.6417
X4.3386Y-1.7244
X4.3386Y-2.7047
X4.3386Y-2.7795
X4.3622Y-3.7874
X4.3937Y-4.5551
X4.6299Y-3.063
X4.7047Y-4.2283
X4.7205Y-3.3858
X4.7205Y-3.4685
X4.7559Y-2.3583
X4.7677Y-3.3898
X4.7677Y-3.4685
X4.7874Y-4.311
X4.8819Y-5.374
X5.0039Y-3.2717
X5.0197Y-2.7756
X5.0236Y-2.7008
X5.0433Y-1.315
X5.0433Y-1.622
X5.0433Y-1.7362
X5.063Y-2.7717
X5.0669Y-2.7008
X5.0709Y-3.8268
X5.0787Y-1.626
X5.0787Y-1.7362
X5.1102Y-2.7087
X5.1102Y-2.7756
X5.122Y-1.7402
X5.126Y-1.6299
X5.1654Y-1.6378
X5.1654Y-1.7362
X5.2283Y-4.7165
X5.2362Y-5.9213
X5.4803Y-3.0748
X5.4843Y-3.7717
X5.7244Y-5.4882
X5.815Y-3.8031
X5.8937Y-1.1181
X5.9252Y-5.9331
X5.9291Y-1.1969
X5.9567Y-1.2992
X5.9685Y-1.1496
X6.0049Y-1.5836
X6.0157Y-1.315
X6.0157Y-1.5394
X6.0236Y-1.0748
X6.0276Y-1.2047
X6.0315Y-4.6339
X6.0472Y-1.5157
X6.1102Y-0.9606
X6.1181Y-1.2598
X6.1417Y-0.9567
X6.1575Y-3.0669
X6.1732Y-0.9567
X6.2047Y-0.9567
X6.2126Y-1.2008
X6.2244Y-3.8346
X6.3228Y-5.3543
X6.33Y-1.17
X6.3346Y-1.0472
X6.3425Y-1.14
X6.3465Y-1.2402
X6.3465Y-1.4882
X6.4685Y-3.8071
X6.8504Y-1.1339
X6.9685Y-3.7992
X6.9921Y-3.0236
X7.0Y-1.0669
X7.0276Y-1.0984
X7.0748Y-1.1339
X7.1102Y-1.1732
X7.1575Y-1.2205
X7.2402Y-5.9409
X7.252Y-3.7992
X7.315Y-5.3583
X7.5827Y-4.6732
X7.7598Y-3.0827
X8.0079Y-5.3819
X8.0906Y-3.8504
X8.185Y-5.8898
X8.3386Y-4.685
X8.5472Y-3.811
X8.563Y-3.0591
X8.6693Y-5.4291
X8.7283Y-5.9803
X8.7559Y-3.7795
X9.0512Y-4.689
X9.2559Y-3.0551
X9.3071Y-3.8189
X9.3937Y-6.0906
X9.5Y-5.378
X9.6614Y-3.8346
X9.8228Y-4.6339
X10.0551Y-3.7874
X10.0591Y-3.0315
X10.2362Y-5.378
X10.252Y-6.1299
X10.4449Y-3.8268
X10.5748Y-4.6693
X10.7087Y-5.2913
X10.9213Y-3.8346
X11.0787Y-4.4921
X11.3071Y-5.311
X11.315Y-6.1063
X11.4016Y-4.4803
X11.4567Y-2.9685
X11.8622Y-5.3543
X11.9094Y-4.5945
X12.0709Y-3.0551
X12.0787Y-3.8425
X12.0827Y-6.126
X12.2441Y-5.1772
X12.3543Y-4.437
T4
X6.1969Y-1.0827
X6.2638Y-1.0197
T5
X1.5114Y-1.711
X1.5114Y-2.7701
X1.6059Y-5.8291
X1.7004Y-3.5339
X1.7614Y-1.611
X1.7614Y-2.6701
X1.7941Y-4.2969
X1.8559Y-5.7291
X1.9504Y-3.4339
X1.9807Y-5.0614
X2.0441Y-4.1969
X2.2307Y-4.9614
X2.2732Y-2.7701
X2.5232Y-2.6701
X2.5626Y-5.8291
X2.6492Y-3.5339
X2.8126Y-5.7291
X2.8382Y-4.2976
X2.8992Y-3.4339
X3.035Y-1.711
X3.035Y-2.7701
X3.0882Y-4.1976
X3.222Y-5.0614
X3.285Y-1.611
X3.285Y-2.6701
X3.411Y-3.5339
X3.472Y-4.9614
X3.5232Y-5.8291
X3.6Y-4.2976
X3.661Y-3.4339
X3.7732Y-5.7291
X3.7969Y-1.711
X3.7969Y-2.7701
X3.85Y-4.1976
X3.9839Y-5.0614
X4.0469Y-1.611
X4.0469Y-2.6701
X4.1728Y-3.5339
X4.2339Y-4.9614
X4.3618Y-4.2976
X4.4228Y-3.4339
X4.5587Y-1.711
X4.5587Y-2.7701
X4.6118Y-4.1976
X4.7457Y-5.0614
X4.8087Y-1.611
X4.8087Y-2.6701
X4.9346Y-3.5339
X4.9957Y-4.9614
X5.1236Y-4.2976
X5.1846Y-3.4339
X5.3205Y-1.711
X5.3205Y-2.7701
X5.3736Y-4.1976
X5.5075Y-5.0614
X5.5705Y-1.611
X5.5705Y-2.6701
X5.6965Y-3.5339
X5.7575Y-4.9614
X5.8854Y-4.2976
X5.9465Y-3.4339
X6.0823Y-2.7701
X6.1354Y-4.1976
X6.2693Y-5.0614
X6.3323Y-2.6701
X6.3579Y-5.8308
X6.4583Y-3.5339
X6.4632Y-1.711
X6.5193Y-4.9614
X6.6079Y-5.7308
X6.6472Y-4.2976
X6.7083Y-3.4339
X6.7132Y-1.611
X6.8441Y-2.7701
X6.8972Y-4.1976
X7.0311Y-5.0614
X7.0941Y-2.6701
X7.2201Y-3.5339
X7.225Y-1.711
X7.2811Y-4.9614
X7.4091Y-4.2976
X7.4701Y-3.4339
X7.475Y-1.611
X7.6059Y-2.7701
X7.6591Y-4.1976
X7.7929Y-5.0614
X7.8559Y-2.6701
X7.9819Y-3.5339
X7.9868Y-1.711
X8.0429Y-4.9614
X8.1709Y-4.2976
X8.2319Y-3.4339
X8.2368Y-1.611
X8.3677Y-2.7701
X8.4209Y-4.1976
X8.5547Y-5.0614
X8.6177Y-2.6701
X8.7437Y-3.5339
X8.7486Y-1.711
X8.8047Y-4.9614
X8.9327Y-4.2976
X8.9937Y-3.4339
X8.9986Y-1.611
X9.1295Y-2.7701
X9.1827Y-4.1976
X9.1925Y-5.8331
X9.3165Y-5.0614
X9.3795Y-2.6701
X9.4425Y-5.7331
X9.5055Y-3.5339
X9.5665Y-4.9614
X9.6945Y-4.2976
X9.7555Y-3.4339
X9.8913Y-1.711
X9.8913Y-2.7701
X9.9445Y-4.1976
X10.0783Y-5.0614
X10.1413Y-1.611
X10.1413Y-2.6701
X10.1531Y-5.8331
X10.2673Y-3.5339
X10.3283Y-4.9614
X10.4031Y-5.7331
X10.4563Y-4.2976
X10.5173Y-3.4339
X10.6531Y-1.711
X10.6531Y-2.7701
X10.7063Y-4.1976
X10.9031Y-1.611
X10.9031Y-2.6701
X11.0291Y-3.5339
X11.1177Y-5.8331
X11.2791Y-3.4339
X11.3677Y-5.7331
X11.415Y-1.711
X11.5114Y-5.0638
X11.665Y-1.611
X11.6957Y-4.2976
X11.7614Y-4.9638
X11.7902Y-2.7701
X11.9457Y-4.1976
X11.976Y-3.5378
X12.0402Y-2.6701
X12.0744Y-5.8331
X12.1768Y-1.711
X12.226Y-3.4378
X12.3244Y-5.7331
X12.4268Y-1.611
T2
G00X6.9085Y-0.6132
M15
G01X6.9085Y-0.6388
M16
G05
G00X7.1841Y-0.6132
M15
G01X7.1841Y-0.6388
M16
G05
T3
G00X6.9419Y-0.7323
M15
G01X6.9537Y-0.7323
M16
G05
G00X7.1388Y-0.7323
M15
G01X7.1506Y-0.7323
M16
G05
M30
