%TF.GenerationSoftware,KiCad,Pcbnew,8.0.3*%
%TF.CreationDate,2024-06-19T10:52:00-07:00*%
%TF.ProjectId,CustomNumpad,43757374-6f6d-44e7-956d-7061642e6b69,rev?*%
%TF.SameCoordinates,Original*%
%TF.FileFunction,Legend,Bot*%
%TF.FilePolarity,Positive*%
%FSLAX46Y46*%
G04 Gerber Fmt 4.6, Leading zero omitted, Abs format (unit mm)*
G04 Created by KiCad (PCBNEW 8.0.3) date 2024-06-19 10:52:00*
%MOMM*%
%LPD*%
G01*
G04 APERTURE LIST*
%ADD10C,0.150000*%
%ADD11C,0.120000*%
G04 APERTURE END LIST*
D10*
X93926785Y-29774819D02*
X93926785Y-28774819D01*
X93926785Y-28774819D02*
X93688690Y-28774819D01*
X93688690Y-28774819D02*
X93545833Y-28822438D01*
X93545833Y-28822438D02*
X93450595Y-28917676D01*
X93450595Y-28917676D02*
X93402976Y-29012914D01*
X93402976Y-29012914D02*
X93355357Y-29203390D01*
X93355357Y-29203390D02*
X93355357Y-29346247D01*
X93355357Y-29346247D02*
X93402976Y-29536723D01*
X93402976Y-29536723D02*
X93450595Y-29631961D01*
X93450595Y-29631961D02*
X93545833Y-29727200D01*
X93545833Y-29727200D02*
X93688690Y-29774819D01*
X93688690Y-29774819D02*
X93926785Y-29774819D01*
X93022023Y-28774819D02*
X92402976Y-28774819D01*
X92402976Y-28774819D02*
X92736309Y-29155771D01*
X92736309Y-29155771D02*
X92593452Y-29155771D01*
X92593452Y-29155771D02*
X92498214Y-29203390D01*
X92498214Y-29203390D02*
X92450595Y-29251009D01*
X92450595Y-29251009D02*
X92402976Y-29346247D01*
X92402976Y-29346247D02*
X92402976Y-29584342D01*
X92402976Y-29584342D02*
X92450595Y-29679580D01*
X92450595Y-29679580D02*
X92498214Y-29727200D01*
X92498214Y-29727200D02*
X92593452Y-29774819D01*
X92593452Y-29774819D02*
X92879166Y-29774819D01*
X92879166Y-29774819D02*
X92974404Y-29727200D01*
X92974404Y-29727200D02*
X93022023Y-29679580D01*
X91545833Y-29108152D02*
X91545833Y-29774819D01*
X91783928Y-28727200D02*
X92022023Y-29441485D01*
X92022023Y-29441485D02*
X91402976Y-29441485D01*
X74214285Y-29024819D02*
X74214285Y-28024819D01*
X74214285Y-28024819D02*
X73976190Y-28024819D01*
X73976190Y-28024819D02*
X73833333Y-28072438D01*
X73833333Y-28072438D02*
X73738095Y-28167676D01*
X73738095Y-28167676D02*
X73690476Y-28262914D01*
X73690476Y-28262914D02*
X73642857Y-28453390D01*
X73642857Y-28453390D02*
X73642857Y-28596247D01*
X73642857Y-28596247D02*
X73690476Y-28786723D01*
X73690476Y-28786723D02*
X73738095Y-28881961D01*
X73738095Y-28881961D02*
X73833333Y-28977200D01*
X73833333Y-28977200D02*
X73976190Y-29024819D01*
X73976190Y-29024819D02*
X74214285Y-29024819D01*
X73309523Y-28024819D02*
X72690476Y-28024819D01*
X72690476Y-28024819D02*
X73023809Y-28405771D01*
X73023809Y-28405771D02*
X72880952Y-28405771D01*
X72880952Y-28405771D02*
X72785714Y-28453390D01*
X72785714Y-28453390D02*
X72738095Y-28501009D01*
X72738095Y-28501009D02*
X72690476Y-28596247D01*
X72690476Y-28596247D02*
X72690476Y-28834342D01*
X72690476Y-28834342D02*
X72738095Y-28929580D01*
X72738095Y-28929580D02*
X72785714Y-28977200D01*
X72785714Y-28977200D02*
X72880952Y-29024819D01*
X72880952Y-29024819D02*
X73166666Y-29024819D01*
X73166666Y-29024819D02*
X73261904Y-28977200D01*
X73261904Y-28977200D02*
X73309523Y-28929580D01*
X72357142Y-28024819D02*
X71738095Y-28024819D01*
X71738095Y-28024819D02*
X72071428Y-28405771D01*
X72071428Y-28405771D02*
X71928571Y-28405771D01*
X71928571Y-28405771D02*
X71833333Y-28453390D01*
X71833333Y-28453390D02*
X71785714Y-28501009D01*
X71785714Y-28501009D02*
X71738095Y-28596247D01*
X71738095Y-28596247D02*
X71738095Y-28834342D01*
X71738095Y-28834342D02*
X71785714Y-28929580D01*
X71785714Y-28929580D02*
X71833333Y-28977200D01*
X71833333Y-28977200D02*
X71928571Y-29024819D01*
X71928571Y-29024819D02*
X72214285Y-29024819D01*
X72214285Y-29024819D02*
X72309523Y-28977200D01*
X72309523Y-28977200D02*
X72357142Y-28929580D01*
X55001785Y-29274819D02*
X55001785Y-28274819D01*
X55001785Y-28274819D02*
X54763690Y-28274819D01*
X54763690Y-28274819D02*
X54620833Y-28322438D01*
X54620833Y-28322438D02*
X54525595Y-28417676D01*
X54525595Y-28417676D02*
X54477976Y-28512914D01*
X54477976Y-28512914D02*
X54430357Y-28703390D01*
X54430357Y-28703390D02*
X54430357Y-28846247D01*
X54430357Y-28846247D02*
X54477976Y-29036723D01*
X54477976Y-29036723D02*
X54525595Y-29131961D01*
X54525595Y-29131961D02*
X54620833Y-29227200D01*
X54620833Y-29227200D02*
X54763690Y-29274819D01*
X54763690Y-29274819D02*
X55001785Y-29274819D01*
X54097023Y-28274819D02*
X53477976Y-28274819D01*
X53477976Y-28274819D02*
X53811309Y-28655771D01*
X53811309Y-28655771D02*
X53668452Y-28655771D01*
X53668452Y-28655771D02*
X53573214Y-28703390D01*
X53573214Y-28703390D02*
X53525595Y-28751009D01*
X53525595Y-28751009D02*
X53477976Y-28846247D01*
X53477976Y-28846247D02*
X53477976Y-29084342D01*
X53477976Y-29084342D02*
X53525595Y-29179580D01*
X53525595Y-29179580D02*
X53573214Y-29227200D01*
X53573214Y-29227200D02*
X53668452Y-29274819D01*
X53668452Y-29274819D02*
X53954166Y-29274819D01*
X53954166Y-29274819D02*
X54049404Y-29227200D01*
X54049404Y-29227200D02*
X54097023Y-29179580D01*
X53097023Y-28370057D02*
X53049404Y-28322438D01*
X53049404Y-28322438D02*
X52954166Y-28274819D01*
X52954166Y-28274819D02*
X52716071Y-28274819D01*
X52716071Y-28274819D02*
X52620833Y-28322438D01*
X52620833Y-28322438D02*
X52573214Y-28370057D01*
X52573214Y-28370057D02*
X52525595Y-28465295D01*
X52525595Y-28465295D02*
X52525595Y-28560533D01*
X52525595Y-28560533D02*
X52573214Y-28703390D01*
X52573214Y-28703390D02*
X53144642Y-29274819D01*
X53144642Y-29274819D02*
X52525595Y-29274819D01*
X93751785Y-48524819D02*
X93751785Y-47524819D01*
X93751785Y-47524819D02*
X93513690Y-47524819D01*
X93513690Y-47524819D02*
X93370833Y-47572438D01*
X93370833Y-47572438D02*
X93275595Y-47667676D01*
X93275595Y-47667676D02*
X93227976Y-47762914D01*
X93227976Y-47762914D02*
X93180357Y-47953390D01*
X93180357Y-47953390D02*
X93180357Y-48096247D01*
X93180357Y-48096247D02*
X93227976Y-48286723D01*
X93227976Y-48286723D02*
X93275595Y-48381961D01*
X93275595Y-48381961D02*
X93370833Y-48477200D01*
X93370833Y-48477200D02*
X93513690Y-48524819D01*
X93513690Y-48524819D02*
X93751785Y-48524819D01*
X92847023Y-47524819D02*
X92227976Y-47524819D01*
X92227976Y-47524819D02*
X92561309Y-47905771D01*
X92561309Y-47905771D02*
X92418452Y-47905771D01*
X92418452Y-47905771D02*
X92323214Y-47953390D01*
X92323214Y-47953390D02*
X92275595Y-48001009D01*
X92275595Y-48001009D02*
X92227976Y-48096247D01*
X92227976Y-48096247D02*
X92227976Y-48334342D01*
X92227976Y-48334342D02*
X92275595Y-48429580D01*
X92275595Y-48429580D02*
X92323214Y-48477200D01*
X92323214Y-48477200D02*
X92418452Y-48524819D01*
X92418452Y-48524819D02*
X92704166Y-48524819D01*
X92704166Y-48524819D02*
X92799404Y-48477200D01*
X92799404Y-48477200D02*
X92847023Y-48429580D01*
X91275595Y-48524819D02*
X91847023Y-48524819D01*
X91561309Y-48524819D02*
X91561309Y-47524819D01*
X91561309Y-47524819D02*
X91656547Y-47667676D01*
X91656547Y-47667676D02*
X91751785Y-47762914D01*
X91751785Y-47762914D02*
X91847023Y-47810533D01*
X74251785Y-48524819D02*
X74251785Y-47524819D01*
X74251785Y-47524819D02*
X74013690Y-47524819D01*
X74013690Y-47524819D02*
X73870833Y-47572438D01*
X73870833Y-47572438D02*
X73775595Y-47667676D01*
X73775595Y-47667676D02*
X73727976Y-47762914D01*
X73727976Y-47762914D02*
X73680357Y-47953390D01*
X73680357Y-47953390D02*
X73680357Y-48096247D01*
X73680357Y-48096247D02*
X73727976Y-48286723D01*
X73727976Y-48286723D02*
X73775595Y-48381961D01*
X73775595Y-48381961D02*
X73870833Y-48477200D01*
X73870833Y-48477200D02*
X74013690Y-48524819D01*
X74013690Y-48524819D02*
X74251785Y-48524819D01*
X73347023Y-47524819D02*
X72727976Y-47524819D01*
X72727976Y-47524819D02*
X73061309Y-47905771D01*
X73061309Y-47905771D02*
X72918452Y-47905771D01*
X72918452Y-47905771D02*
X72823214Y-47953390D01*
X72823214Y-47953390D02*
X72775595Y-48001009D01*
X72775595Y-48001009D02*
X72727976Y-48096247D01*
X72727976Y-48096247D02*
X72727976Y-48334342D01*
X72727976Y-48334342D02*
X72775595Y-48429580D01*
X72775595Y-48429580D02*
X72823214Y-48477200D01*
X72823214Y-48477200D02*
X72918452Y-48524819D01*
X72918452Y-48524819D02*
X73204166Y-48524819D01*
X73204166Y-48524819D02*
X73299404Y-48477200D01*
X73299404Y-48477200D02*
X73347023Y-48429580D01*
X72108928Y-47524819D02*
X72013690Y-47524819D01*
X72013690Y-47524819D02*
X71918452Y-47572438D01*
X71918452Y-47572438D02*
X71870833Y-47620057D01*
X71870833Y-47620057D02*
X71823214Y-47715295D01*
X71823214Y-47715295D02*
X71775595Y-47905771D01*
X71775595Y-47905771D02*
X71775595Y-48143866D01*
X71775595Y-48143866D02*
X71823214Y-48334342D01*
X71823214Y-48334342D02*
X71870833Y-48429580D01*
X71870833Y-48429580D02*
X71918452Y-48477200D01*
X71918452Y-48477200D02*
X72013690Y-48524819D01*
X72013690Y-48524819D02*
X72108928Y-48524819D01*
X72108928Y-48524819D02*
X72204166Y-48477200D01*
X72204166Y-48477200D02*
X72251785Y-48429580D01*
X72251785Y-48429580D02*
X72299404Y-48334342D01*
X72299404Y-48334342D02*
X72347023Y-48143866D01*
X72347023Y-48143866D02*
X72347023Y-47905771D01*
X72347023Y-47905771D02*
X72299404Y-47715295D01*
X72299404Y-47715295D02*
X72251785Y-47620057D01*
X72251785Y-47620057D02*
X72204166Y-47572438D01*
X72204166Y-47572438D02*
X72108928Y-47524819D01*
X54926785Y-48524819D02*
X54926785Y-47524819D01*
X54926785Y-47524819D02*
X54688690Y-47524819D01*
X54688690Y-47524819D02*
X54545833Y-47572438D01*
X54545833Y-47572438D02*
X54450595Y-47667676D01*
X54450595Y-47667676D02*
X54402976Y-47762914D01*
X54402976Y-47762914D02*
X54355357Y-47953390D01*
X54355357Y-47953390D02*
X54355357Y-48096247D01*
X54355357Y-48096247D02*
X54402976Y-48286723D01*
X54402976Y-48286723D02*
X54450595Y-48381961D01*
X54450595Y-48381961D02*
X54545833Y-48477200D01*
X54545833Y-48477200D02*
X54688690Y-48524819D01*
X54688690Y-48524819D02*
X54926785Y-48524819D01*
X53974404Y-47620057D02*
X53926785Y-47572438D01*
X53926785Y-47572438D02*
X53831547Y-47524819D01*
X53831547Y-47524819D02*
X53593452Y-47524819D01*
X53593452Y-47524819D02*
X53498214Y-47572438D01*
X53498214Y-47572438D02*
X53450595Y-47620057D01*
X53450595Y-47620057D02*
X53402976Y-47715295D01*
X53402976Y-47715295D02*
X53402976Y-47810533D01*
X53402976Y-47810533D02*
X53450595Y-47953390D01*
X53450595Y-47953390D02*
X54022023Y-48524819D01*
X54022023Y-48524819D02*
X53402976Y-48524819D01*
X52926785Y-48524819D02*
X52736309Y-48524819D01*
X52736309Y-48524819D02*
X52641071Y-48477200D01*
X52641071Y-48477200D02*
X52593452Y-48429580D01*
X52593452Y-48429580D02*
X52498214Y-48286723D01*
X52498214Y-48286723D02*
X52450595Y-48096247D01*
X52450595Y-48096247D02*
X52450595Y-47715295D01*
X52450595Y-47715295D02*
X52498214Y-47620057D01*
X52498214Y-47620057D02*
X52545833Y-47572438D01*
X52545833Y-47572438D02*
X52641071Y-47524819D01*
X52641071Y-47524819D02*
X52831547Y-47524819D01*
X52831547Y-47524819D02*
X52926785Y-47572438D01*
X52926785Y-47572438D02*
X52974404Y-47620057D01*
X52974404Y-47620057D02*
X53022023Y-47715295D01*
X53022023Y-47715295D02*
X53022023Y-47953390D01*
X53022023Y-47953390D02*
X52974404Y-48048628D01*
X52974404Y-48048628D02*
X52926785Y-48096247D01*
X52926785Y-48096247D02*
X52831547Y-48143866D01*
X52831547Y-48143866D02*
X52641071Y-48143866D01*
X52641071Y-48143866D02*
X52545833Y-48096247D01*
X52545833Y-48096247D02*
X52498214Y-48048628D01*
X52498214Y-48048628D02*
X52450595Y-47953390D01*
X54926785Y-67774819D02*
X54926785Y-66774819D01*
X54926785Y-66774819D02*
X54688690Y-66774819D01*
X54688690Y-66774819D02*
X54545833Y-66822438D01*
X54545833Y-66822438D02*
X54450595Y-66917676D01*
X54450595Y-66917676D02*
X54402976Y-67012914D01*
X54402976Y-67012914D02*
X54355357Y-67203390D01*
X54355357Y-67203390D02*
X54355357Y-67346247D01*
X54355357Y-67346247D02*
X54402976Y-67536723D01*
X54402976Y-67536723D02*
X54450595Y-67631961D01*
X54450595Y-67631961D02*
X54545833Y-67727200D01*
X54545833Y-67727200D02*
X54688690Y-67774819D01*
X54688690Y-67774819D02*
X54926785Y-67774819D01*
X53974404Y-66870057D02*
X53926785Y-66822438D01*
X53926785Y-66822438D02*
X53831547Y-66774819D01*
X53831547Y-66774819D02*
X53593452Y-66774819D01*
X53593452Y-66774819D02*
X53498214Y-66822438D01*
X53498214Y-66822438D02*
X53450595Y-66870057D01*
X53450595Y-66870057D02*
X53402976Y-66965295D01*
X53402976Y-66965295D02*
X53402976Y-67060533D01*
X53402976Y-67060533D02*
X53450595Y-67203390D01*
X53450595Y-67203390D02*
X54022023Y-67774819D01*
X54022023Y-67774819D02*
X53402976Y-67774819D01*
X52831547Y-67203390D02*
X52926785Y-67155771D01*
X52926785Y-67155771D02*
X52974404Y-67108152D01*
X52974404Y-67108152D02*
X53022023Y-67012914D01*
X53022023Y-67012914D02*
X53022023Y-66965295D01*
X53022023Y-66965295D02*
X52974404Y-66870057D01*
X52974404Y-66870057D02*
X52926785Y-66822438D01*
X52926785Y-66822438D02*
X52831547Y-66774819D01*
X52831547Y-66774819D02*
X52641071Y-66774819D01*
X52641071Y-66774819D02*
X52545833Y-66822438D01*
X52545833Y-66822438D02*
X52498214Y-66870057D01*
X52498214Y-66870057D02*
X52450595Y-66965295D01*
X52450595Y-66965295D02*
X52450595Y-67012914D01*
X52450595Y-67012914D02*
X52498214Y-67108152D01*
X52498214Y-67108152D02*
X52545833Y-67155771D01*
X52545833Y-67155771D02*
X52641071Y-67203390D01*
X52641071Y-67203390D02*
X52831547Y-67203390D01*
X52831547Y-67203390D02*
X52926785Y-67251009D01*
X52926785Y-67251009D02*
X52974404Y-67298628D01*
X52974404Y-67298628D02*
X53022023Y-67393866D01*
X53022023Y-67393866D02*
X53022023Y-67584342D01*
X53022023Y-67584342D02*
X52974404Y-67679580D01*
X52974404Y-67679580D02*
X52926785Y-67727200D01*
X52926785Y-67727200D02*
X52831547Y-67774819D01*
X52831547Y-67774819D02*
X52641071Y-67774819D01*
X52641071Y-67774819D02*
X52545833Y-67727200D01*
X52545833Y-67727200D02*
X52498214Y-67679580D01*
X52498214Y-67679580D02*
X52450595Y-67584342D01*
X52450595Y-67584342D02*
X52450595Y-67393866D01*
X52450595Y-67393866D02*
X52498214Y-67298628D01*
X52498214Y-67298628D02*
X52545833Y-67251009D01*
X52545833Y-67251009D02*
X52641071Y-67203390D01*
X74251785Y-67774819D02*
X74251785Y-66774819D01*
X74251785Y-66774819D02*
X74013690Y-66774819D01*
X74013690Y-66774819D02*
X73870833Y-66822438D01*
X73870833Y-66822438D02*
X73775595Y-66917676D01*
X73775595Y-66917676D02*
X73727976Y-67012914D01*
X73727976Y-67012914D02*
X73680357Y-67203390D01*
X73680357Y-67203390D02*
X73680357Y-67346247D01*
X73680357Y-67346247D02*
X73727976Y-67536723D01*
X73727976Y-67536723D02*
X73775595Y-67631961D01*
X73775595Y-67631961D02*
X73870833Y-67727200D01*
X73870833Y-67727200D02*
X74013690Y-67774819D01*
X74013690Y-67774819D02*
X74251785Y-67774819D01*
X73299404Y-66870057D02*
X73251785Y-66822438D01*
X73251785Y-66822438D02*
X73156547Y-66774819D01*
X73156547Y-66774819D02*
X72918452Y-66774819D01*
X72918452Y-66774819D02*
X72823214Y-66822438D01*
X72823214Y-66822438D02*
X72775595Y-66870057D01*
X72775595Y-66870057D02*
X72727976Y-66965295D01*
X72727976Y-66965295D02*
X72727976Y-67060533D01*
X72727976Y-67060533D02*
X72775595Y-67203390D01*
X72775595Y-67203390D02*
X73347023Y-67774819D01*
X73347023Y-67774819D02*
X72727976Y-67774819D01*
X72394642Y-66774819D02*
X71727976Y-66774819D01*
X71727976Y-66774819D02*
X72156547Y-67774819D01*
X93464285Y-67774819D02*
X93464285Y-66774819D01*
X93464285Y-66774819D02*
X93226190Y-66774819D01*
X93226190Y-66774819D02*
X93083333Y-66822438D01*
X93083333Y-66822438D02*
X92988095Y-66917676D01*
X92988095Y-66917676D02*
X92940476Y-67012914D01*
X92940476Y-67012914D02*
X92892857Y-67203390D01*
X92892857Y-67203390D02*
X92892857Y-67346247D01*
X92892857Y-67346247D02*
X92940476Y-67536723D01*
X92940476Y-67536723D02*
X92988095Y-67631961D01*
X92988095Y-67631961D02*
X93083333Y-67727200D01*
X93083333Y-67727200D02*
X93226190Y-67774819D01*
X93226190Y-67774819D02*
X93464285Y-67774819D01*
X92511904Y-66870057D02*
X92464285Y-66822438D01*
X92464285Y-66822438D02*
X92369047Y-66774819D01*
X92369047Y-66774819D02*
X92130952Y-66774819D01*
X92130952Y-66774819D02*
X92035714Y-66822438D01*
X92035714Y-66822438D02*
X91988095Y-66870057D01*
X91988095Y-66870057D02*
X91940476Y-66965295D01*
X91940476Y-66965295D02*
X91940476Y-67060533D01*
X91940476Y-67060533D02*
X91988095Y-67203390D01*
X91988095Y-67203390D02*
X92559523Y-67774819D01*
X92559523Y-67774819D02*
X91940476Y-67774819D01*
X91083333Y-66774819D02*
X91273809Y-66774819D01*
X91273809Y-66774819D02*
X91369047Y-66822438D01*
X91369047Y-66822438D02*
X91416666Y-66870057D01*
X91416666Y-66870057D02*
X91511904Y-67012914D01*
X91511904Y-67012914D02*
X91559523Y-67203390D01*
X91559523Y-67203390D02*
X91559523Y-67584342D01*
X91559523Y-67584342D02*
X91511904Y-67679580D01*
X91511904Y-67679580D02*
X91464285Y-67727200D01*
X91464285Y-67727200D02*
X91369047Y-67774819D01*
X91369047Y-67774819D02*
X91178571Y-67774819D01*
X91178571Y-67774819D02*
X91083333Y-67727200D01*
X91083333Y-67727200D02*
X91035714Y-67679580D01*
X91035714Y-67679580D02*
X90988095Y-67584342D01*
X90988095Y-67584342D02*
X90988095Y-67346247D01*
X90988095Y-67346247D02*
X91035714Y-67251009D01*
X91035714Y-67251009D02*
X91083333Y-67203390D01*
X91083333Y-67203390D02*
X91178571Y-67155771D01*
X91178571Y-67155771D02*
X91369047Y-67155771D01*
X91369047Y-67155771D02*
X91464285Y-67203390D01*
X91464285Y-67203390D02*
X91511904Y-67251009D01*
X91511904Y-67251009D02*
X91559523Y-67346247D01*
X112833333Y-23704819D02*
X112833333Y-24419104D01*
X112833333Y-24419104D02*
X112880952Y-24561961D01*
X112880952Y-24561961D02*
X112976190Y-24657200D01*
X112976190Y-24657200D02*
X113119047Y-24704819D01*
X113119047Y-24704819D02*
X113214285Y-24704819D01*
X111833333Y-24704819D02*
X112404761Y-24704819D01*
X112119047Y-24704819D02*
X112119047Y-23704819D01*
X112119047Y-23704819D02*
X112214285Y-23847676D01*
X112214285Y-23847676D02*
X112309523Y-23942914D01*
X112309523Y-23942914D02*
X112404761Y-23990533D01*
X115238094Y-88024819D02*
X115238094Y-87024819D01*
X115238094Y-87024819D02*
X114999999Y-87024819D01*
X114999999Y-87024819D02*
X114857142Y-87072438D01*
X114857142Y-87072438D02*
X114761904Y-87167676D01*
X114761904Y-87167676D02*
X114714285Y-87262914D01*
X114714285Y-87262914D02*
X114666666Y-87453390D01*
X114666666Y-87453390D02*
X114666666Y-87596247D01*
X114666666Y-87596247D02*
X114714285Y-87786723D01*
X114714285Y-87786723D02*
X114761904Y-87881961D01*
X114761904Y-87881961D02*
X114857142Y-87977200D01*
X114857142Y-87977200D02*
X114999999Y-88024819D01*
X114999999Y-88024819D02*
X115238094Y-88024819D01*
X113809523Y-87358152D02*
X113809523Y-88024819D01*
X114047618Y-86977200D02*
X114285713Y-87691485D01*
X114285713Y-87691485D02*
X113666666Y-87691485D01*
X74426785Y-126024819D02*
X74426785Y-125024819D01*
X74426785Y-125024819D02*
X74188690Y-125024819D01*
X74188690Y-125024819D02*
X74045833Y-125072438D01*
X74045833Y-125072438D02*
X73950595Y-125167676D01*
X73950595Y-125167676D02*
X73902976Y-125262914D01*
X73902976Y-125262914D02*
X73855357Y-125453390D01*
X73855357Y-125453390D02*
X73855357Y-125596247D01*
X73855357Y-125596247D02*
X73902976Y-125786723D01*
X73902976Y-125786723D02*
X73950595Y-125881961D01*
X73950595Y-125881961D02*
X74045833Y-125977200D01*
X74045833Y-125977200D02*
X74188690Y-126024819D01*
X74188690Y-126024819D02*
X74426785Y-126024819D01*
X73474404Y-125120057D02*
X73426785Y-125072438D01*
X73426785Y-125072438D02*
X73331547Y-125024819D01*
X73331547Y-125024819D02*
X73093452Y-125024819D01*
X73093452Y-125024819D02*
X72998214Y-125072438D01*
X72998214Y-125072438D02*
X72950595Y-125120057D01*
X72950595Y-125120057D02*
X72902976Y-125215295D01*
X72902976Y-125215295D02*
X72902976Y-125310533D01*
X72902976Y-125310533D02*
X72950595Y-125453390D01*
X72950595Y-125453390D02*
X73522023Y-126024819D01*
X73522023Y-126024819D02*
X72902976Y-126024819D01*
X72569642Y-125024819D02*
X71950595Y-125024819D01*
X71950595Y-125024819D02*
X72283928Y-125405771D01*
X72283928Y-125405771D02*
X72141071Y-125405771D01*
X72141071Y-125405771D02*
X72045833Y-125453390D01*
X72045833Y-125453390D02*
X71998214Y-125501009D01*
X71998214Y-125501009D02*
X71950595Y-125596247D01*
X71950595Y-125596247D02*
X71950595Y-125834342D01*
X71950595Y-125834342D02*
X71998214Y-125929580D01*
X71998214Y-125929580D02*
X72045833Y-125977200D01*
X72045833Y-125977200D02*
X72141071Y-126024819D01*
X72141071Y-126024819D02*
X72426785Y-126024819D01*
X72426785Y-126024819D02*
X72522023Y-125977200D01*
X72522023Y-125977200D02*
X72569642Y-125929580D01*
X133950594Y-106524819D02*
X133950594Y-105524819D01*
X133950594Y-105524819D02*
X133712499Y-105524819D01*
X133712499Y-105524819D02*
X133569642Y-105572438D01*
X133569642Y-105572438D02*
X133474404Y-105667676D01*
X133474404Y-105667676D02*
X133426785Y-105762914D01*
X133426785Y-105762914D02*
X133379166Y-105953390D01*
X133379166Y-105953390D02*
X133379166Y-106096247D01*
X133379166Y-106096247D02*
X133426785Y-106286723D01*
X133426785Y-106286723D02*
X133474404Y-106381961D01*
X133474404Y-106381961D02*
X133569642Y-106477200D01*
X133569642Y-106477200D02*
X133712499Y-106524819D01*
X133712499Y-106524819D02*
X133950594Y-106524819D01*
X132998213Y-105620057D02*
X132950594Y-105572438D01*
X132950594Y-105572438D02*
X132855356Y-105524819D01*
X132855356Y-105524819D02*
X132617261Y-105524819D01*
X132617261Y-105524819D02*
X132522023Y-105572438D01*
X132522023Y-105572438D02*
X132474404Y-105620057D01*
X132474404Y-105620057D02*
X132426785Y-105715295D01*
X132426785Y-105715295D02*
X132426785Y-105810533D01*
X132426785Y-105810533D02*
X132474404Y-105953390D01*
X132474404Y-105953390D02*
X133045832Y-106524819D01*
X133045832Y-106524819D02*
X132426785Y-106524819D01*
X173214285Y-77524819D02*
X173214285Y-76524819D01*
X173214285Y-76524819D02*
X172976190Y-76524819D01*
X172976190Y-76524819D02*
X172833333Y-76572438D01*
X172833333Y-76572438D02*
X172738095Y-76667676D01*
X172738095Y-76667676D02*
X172690476Y-76762914D01*
X172690476Y-76762914D02*
X172642857Y-76953390D01*
X172642857Y-76953390D02*
X172642857Y-77096247D01*
X172642857Y-77096247D02*
X172690476Y-77286723D01*
X172690476Y-77286723D02*
X172738095Y-77381961D01*
X172738095Y-77381961D02*
X172833333Y-77477200D01*
X172833333Y-77477200D02*
X172976190Y-77524819D01*
X172976190Y-77524819D02*
X173214285Y-77524819D01*
X171690476Y-77524819D02*
X172261904Y-77524819D01*
X171976190Y-77524819D02*
X171976190Y-76524819D01*
X171976190Y-76524819D02*
X172071428Y-76667676D01*
X172071428Y-76667676D02*
X172166666Y-76762914D01*
X172166666Y-76762914D02*
X172261904Y-76810533D01*
X170833333Y-76858152D02*
X170833333Y-77524819D01*
X171071428Y-76477200D02*
X171309523Y-77191485D01*
X171309523Y-77191485D02*
X170690476Y-77191485D01*
X101259580Y-108533333D02*
X101307200Y-108485714D01*
X101307200Y-108485714D02*
X101354819Y-108342857D01*
X101354819Y-108342857D02*
X101354819Y-108247619D01*
X101354819Y-108247619D02*
X101307200Y-108104762D01*
X101307200Y-108104762D02*
X101211961Y-108009524D01*
X101211961Y-108009524D02*
X101116723Y-107961905D01*
X101116723Y-107961905D02*
X100926247Y-107914286D01*
X100926247Y-107914286D02*
X100783390Y-107914286D01*
X100783390Y-107914286D02*
X100592914Y-107961905D01*
X100592914Y-107961905D02*
X100497676Y-108009524D01*
X100497676Y-108009524D02*
X100402438Y-108104762D01*
X100402438Y-108104762D02*
X100354819Y-108247619D01*
X100354819Y-108247619D02*
X100354819Y-108342857D01*
X100354819Y-108342857D02*
X100402438Y-108485714D01*
X100402438Y-108485714D02*
X100450057Y-108533333D01*
X100354819Y-108866667D02*
X100354819Y-109485714D01*
X100354819Y-109485714D02*
X100735771Y-109152381D01*
X100735771Y-109152381D02*
X100735771Y-109295238D01*
X100735771Y-109295238D02*
X100783390Y-109390476D01*
X100783390Y-109390476D02*
X100831009Y-109438095D01*
X100831009Y-109438095D02*
X100926247Y-109485714D01*
X100926247Y-109485714D02*
X101164342Y-109485714D01*
X101164342Y-109485714D02*
X101259580Y-109438095D01*
X101259580Y-109438095D02*
X101307200Y-109390476D01*
X101307200Y-109390476D02*
X101354819Y-109295238D01*
X101354819Y-109295238D02*
X101354819Y-109009524D01*
X101354819Y-109009524D02*
X101307200Y-108914286D01*
X101307200Y-108914286D02*
X101259580Y-108866667D01*
X94566666Y-110759580D02*
X94614285Y-110807200D01*
X94614285Y-110807200D02*
X94757142Y-110854819D01*
X94757142Y-110854819D02*
X94852380Y-110854819D01*
X94852380Y-110854819D02*
X94995237Y-110807200D01*
X94995237Y-110807200D02*
X95090475Y-110711961D01*
X95090475Y-110711961D02*
X95138094Y-110616723D01*
X95138094Y-110616723D02*
X95185713Y-110426247D01*
X95185713Y-110426247D02*
X95185713Y-110283390D01*
X95185713Y-110283390D02*
X95138094Y-110092914D01*
X95138094Y-110092914D02*
X95090475Y-109997676D01*
X95090475Y-109997676D02*
X94995237Y-109902438D01*
X94995237Y-109902438D02*
X94852380Y-109854819D01*
X94852380Y-109854819D02*
X94757142Y-109854819D01*
X94757142Y-109854819D02*
X94614285Y-109902438D01*
X94614285Y-109902438D02*
X94566666Y-109950057D01*
X93995237Y-110283390D02*
X94090475Y-110235771D01*
X94090475Y-110235771D02*
X94138094Y-110188152D01*
X94138094Y-110188152D02*
X94185713Y-110092914D01*
X94185713Y-110092914D02*
X94185713Y-110045295D01*
X94185713Y-110045295D02*
X94138094Y-109950057D01*
X94138094Y-109950057D02*
X94090475Y-109902438D01*
X94090475Y-109902438D02*
X93995237Y-109854819D01*
X93995237Y-109854819D02*
X93804761Y-109854819D01*
X93804761Y-109854819D02*
X93709523Y-109902438D01*
X93709523Y-109902438D02*
X93661904Y-109950057D01*
X93661904Y-109950057D02*
X93614285Y-110045295D01*
X93614285Y-110045295D02*
X93614285Y-110092914D01*
X93614285Y-110092914D02*
X93661904Y-110188152D01*
X93661904Y-110188152D02*
X93709523Y-110235771D01*
X93709523Y-110235771D02*
X93804761Y-110283390D01*
X93804761Y-110283390D02*
X93995237Y-110283390D01*
X93995237Y-110283390D02*
X94090475Y-110331009D01*
X94090475Y-110331009D02*
X94138094Y-110378628D01*
X94138094Y-110378628D02*
X94185713Y-110473866D01*
X94185713Y-110473866D02*
X94185713Y-110664342D01*
X94185713Y-110664342D02*
X94138094Y-110759580D01*
X94138094Y-110759580D02*
X94090475Y-110807200D01*
X94090475Y-110807200D02*
X93995237Y-110854819D01*
X93995237Y-110854819D02*
X93804761Y-110854819D01*
X93804761Y-110854819D02*
X93709523Y-110807200D01*
X93709523Y-110807200D02*
X93661904Y-110759580D01*
X93661904Y-110759580D02*
X93614285Y-110664342D01*
X93614285Y-110664342D02*
X93614285Y-110473866D01*
X93614285Y-110473866D02*
X93661904Y-110378628D01*
X93661904Y-110378628D02*
X93709523Y-110331009D01*
X93709523Y-110331009D02*
X93804761Y-110283390D01*
X114926785Y-48024819D02*
X114926785Y-47024819D01*
X114926785Y-47024819D02*
X114688690Y-47024819D01*
X114688690Y-47024819D02*
X114545833Y-47072438D01*
X114545833Y-47072438D02*
X114450595Y-47167676D01*
X114450595Y-47167676D02*
X114402976Y-47262914D01*
X114402976Y-47262914D02*
X114355357Y-47453390D01*
X114355357Y-47453390D02*
X114355357Y-47596247D01*
X114355357Y-47596247D02*
X114402976Y-47786723D01*
X114402976Y-47786723D02*
X114450595Y-47881961D01*
X114450595Y-47881961D02*
X114545833Y-47977200D01*
X114545833Y-47977200D02*
X114688690Y-48024819D01*
X114688690Y-48024819D02*
X114926785Y-48024819D01*
X113402976Y-48024819D02*
X113974404Y-48024819D01*
X113688690Y-48024819D02*
X113688690Y-47024819D01*
X113688690Y-47024819D02*
X113783928Y-47167676D01*
X113783928Y-47167676D02*
X113879166Y-47262914D01*
X113879166Y-47262914D02*
X113974404Y-47310533D01*
X112783928Y-47024819D02*
X112688690Y-47024819D01*
X112688690Y-47024819D02*
X112593452Y-47072438D01*
X112593452Y-47072438D02*
X112545833Y-47120057D01*
X112545833Y-47120057D02*
X112498214Y-47215295D01*
X112498214Y-47215295D02*
X112450595Y-47405771D01*
X112450595Y-47405771D02*
X112450595Y-47643866D01*
X112450595Y-47643866D02*
X112498214Y-47834342D01*
X112498214Y-47834342D02*
X112545833Y-47929580D01*
X112545833Y-47929580D02*
X112593452Y-47977200D01*
X112593452Y-47977200D02*
X112688690Y-48024819D01*
X112688690Y-48024819D02*
X112783928Y-48024819D01*
X112783928Y-48024819D02*
X112879166Y-47977200D01*
X112879166Y-47977200D02*
X112926785Y-47929580D01*
X112926785Y-47929580D02*
X112974404Y-47834342D01*
X112974404Y-47834342D02*
X113022023Y-47643866D01*
X113022023Y-47643866D02*
X113022023Y-47405771D01*
X113022023Y-47405771D02*
X112974404Y-47215295D01*
X112974404Y-47215295D02*
X112926785Y-47120057D01*
X112926785Y-47120057D02*
X112879166Y-47072438D01*
X112879166Y-47072438D02*
X112783928Y-47024819D01*
X173764285Y-48544819D02*
X173764285Y-47544819D01*
X173764285Y-47544819D02*
X173526190Y-47544819D01*
X173526190Y-47544819D02*
X173383333Y-47592438D01*
X173383333Y-47592438D02*
X173288095Y-47687676D01*
X173288095Y-47687676D02*
X173240476Y-47782914D01*
X173240476Y-47782914D02*
X173192857Y-47973390D01*
X173192857Y-47973390D02*
X173192857Y-48116247D01*
X173192857Y-48116247D02*
X173240476Y-48306723D01*
X173240476Y-48306723D02*
X173288095Y-48401961D01*
X173288095Y-48401961D02*
X173383333Y-48497200D01*
X173383333Y-48497200D02*
X173526190Y-48544819D01*
X173526190Y-48544819D02*
X173764285Y-48544819D01*
X172240476Y-48544819D02*
X172811904Y-48544819D01*
X172526190Y-48544819D02*
X172526190Y-47544819D01*
X172526190Y-47544819D02*
X172621428Y-47687676D01*
X172621428Y-47687676D02*
X172716666Y-47782914D01*
X172716666Y-47782914D02*
X172811904Y-47830533D01*
X171907142Y-47544819D02*
X171288095Y-47544819D01*
X171288095Y-47544819D02*
X171621428Y-47925771D01*
X171621428Y-47925771D02*
X171478571Y-47925771D01*
X171478571Y-47925771D02*
X171383333Y-47973390D01*
X171383333Y-47973390D02*
X171335714Y-48021009D01*
X171335714Y-48021009D02*
X171288095Y-48116247D01*
X171288095Y-48116247D02*
X171288095Y-48354342D01*
X171288095Y-48354342D02*
X171335714Y-48449580D01*
X171335714Y-48449580D02*
X171383333Y-48497200D01*
X171383333Y-48497200D02*
X171478571Y-48544819D01*
X171478571Y-48544819D02*
X171764285Y-48544819D01*
X171764285Y-48544819D02*
X171859523Y-48497200D01*
X171859523Y-48497200D02*
X171907142Y-48449580D01*
X173214285Y-116024819D02*
X173214285Y-115024819D01*
X173214285Y-115024819D02*
X172976190Y-115024819D01*
X172976190Y-115024819D02*
X172833333Y-115072438D01*
X172833333Y-115072438D02*
X172738095Y-115167676D01*
X172738095Y-115167676D02*
X172690476Y-115262914D01*
X172690476Y-115262914D02*
X172642857Y-115453390D01*
X172642857Y-115453390D02*
X172642857Y-115596247D01*
X172642857Y-115596247D02*
X172690476Y-115786723D01*
X172690476Y-115786723D02*
X172738095Y-115881961D01*
X172738095Y-115881961D02*
X172833333Y-115977200D01*
X172833333Y-115977200D02*
X172976190Y-116024819D01*
X172976190Y-116024819D02*
X173214285Y-116024819D01*
X171690476Y-116024819D02*
X172261904Y-116024819D01*
X171976190Y-116024819D02*
X171976190Y-115024819D01*
X171976190Y-115024819D02*
X172071428Y-115167676D01*
X172071428Y-115167676D02*
X172166666Y-115262914D01*
X172166666Y-115262914D02*
X172261904Y-115310533D01*
X170785714Y-115024819D02*
X171261904Y-115024819D01*
X171261904Y-115024819D02*
X171309523Y-115501009D01*
X171309523Y-115501009D02*
X171261904Y-115453390D01*
X171261904Y-115453390D02*
X171166666Y-115405771D01*
X171166666Y-115405771D02*
X170928571Y-115405771D01*
X170928571Y-115405771D02*
X170833333Y-115453390D01*
X170833333Y-115453390D02*
X170785714Y-115501009D01*
X170785714Y-115501009D02*
X170738095Y-115596247D01*
X170738095Y-115596247D02*
X170738095Y-115834342D01*
X170738095Y-115834342D02*
X170785714Y-115929580D01*
X170785714Y-115929580D02*
X170833333Y-115977200D01*
X170833333Y-115977200D02*
X170928571Y-116024819D01*
X170928571Y-116024819D02*
X171166666Y-116024819D01*
X171166666Y-116024819D02*
X171261904Y-115977200D01*
X171261904Y-115977200D02*
X171309523Y-115929580D01*
X153450594Y-106524819D02*
X153450594Y-105524819D01*
X153450594Y-105524819D02*
X153212499Y-105524819D01*
X153212499Y-105524819D02*
X153069642Y-105572438D01*
X153069642Y-105572438D02*
X152974404Y-105667676D01*
X152974404Y-105667676D02*
X152926785Y-105762914D01*
X152926785Y-105762914D02*
X152879166Y-105953390D01*
X152879166Y-105953390D02*
X152879166Y-106096247D01*
X152879166Y-106096247D02*
X152926785Y-106286723D01*
X152926785Y-106286723D02*
X152974404Y-106381961D01*
X152974404Y-106381961D02*
X153069642Y-106477200D01*
X153069642Y-106477200D02*
X153212499Y-106524819D01*
X153212499Y-106524819D02*
X153450594Y-106524819D01*
X152545832Y-105524819D02*
X151926785Y-105524819D01*
X151926785Y-105524819D02*
X152260118Y-105905771D01*
X152260118Y-105905771D02*
X152117261Y-105905771D01*
X152117261Y-105905771D02*
X152022023Y-105953390D01*
X152022023Y-105953390D02*
X151974404Y-106001009D01*
X151974404Y-106001009D02*
X151926785Y-106096247D01*
X151926785Y-106096247D02*
X151926785Y-106334342D01*
X151926785Y-106334342D02*
X151974404Y-106429580D01*
X151974404Y-106429580D02*
X152022023Y-106477200D01*
X152022023Y-106477200D02*
X152117261Y-106524819D01*
X152117261Y-106524819D02*
X152402975Y-106524819D01*
X152402975Y-106524819D02*
X152498213Y-106477200D01*
X152498213Y-106477200D02*
X152545832Y-106429580D01*
X133738094Y-67524819D02*
X133738094Y-66524819D01*
X133738094Y-66524819D02*
X133499999Y-66524819D01*
X133499999Y-66524819D02*
X133357142Y-66572438D01*
X133357142Y-66572438D02*
X133261904Y-66667676D01*
X133261904Y-66667676D02*
X133214285Y-66762914D01*
X133214285Y-66762914D02*
X133166666Y-66953390D01*
X133166666Y-66953390D02*
X133166666Y-67096247D01*
X133166666Y-67096247D02*
X133214285Y-67286723D01*
X133214285Y-67286723D02*
X133261904Y-67381961D01*
X133261904Y-67381961D02*
X133357142Y-67477200D01*
X133357142Y-67477200D02*
X133499999Y-67524819D01*
X133499999Y-67524819D02*
X133738094Y-67524819D01*
X132595237Y-66953390D02*
X132690475Y-66905771D01*
X132690475Y-66905771D02*
X132738094Y-66858152D01*
X132738094Y-66858152D02*
X132785713Y-66762914D01*
X132785713Y-66762914D02*
X132785713Y-66715295D01*
X132785713Y-66715295D02*
X132738094Y-66620057D01*
X132738094Y-66620057D02*
X132690475Y-66572438D01*
X132690475Y-66572438D02*
X132595237Y-66524819D01*
X132595237Y-66524819D02*
X132404761Y-66524819D01*
X132404761Y-66524819D02*
X132309523Y-66572438D01*
X132309523Y-66572438D02*
X132261904Y-66620057D01*
X132261904Y-66620057D02*
X132214285Y-66715295D01*
X132214285Y-66715295D02*
X132214285Y-66762914D01*
X132214285Y-66762914D02*
X132261904Y-66858152D01*
X132261904Y-66858152D02*
X132309523Y-66905771D01*
X132309523Y-66905771D02*
X132404761Y-66953390D01*
X132404761Y-66953390D02*
X132595237Y-66953390D01*
X132595237Y-66953390D02*
X132690475Y-67001009D01*
X132690475Y-67001009D02*
X132738094Y-67048628D01*
X132738094Y-67048628D02*
X132785713Y-67143866D01*
X132785713Y-67143866D02*
X132785713Y-67334342D01*
X132785713Y-67334342D02*
X132738094Y-67429580D01*
X132738094Y-67429580D02*
X132690475Y-67477200D01*
X132690475Y-67477200D02*
X132595237Y-67524819D01*
X132595237Y-67524819D02*
X132404761Y-67524819D01*
X132404761Y-67524819D02*
X132309523Y-67477200D01*
X132309523Y-67477200D02*
X132261904Y-67429580D01*
X132261904Y-67429580D02*
X132214285Y-67334342D01*
X132214285Y-67334342D02*
X132214285Y-67143866D01*
X132214285Y-67143866D02*
X132261904Y-67048628D01*
X132261904Y-67048628D02*
X132309523Y-67001009D01*
X132309523Y-67001009D02*
X132404761Y-66953390D01*
X115001785Y-29024819D02*
X115001785Y-28024819D01*
X115001785Y-28024819D02*
X114763690Y-28024819D01*
X114763690Y-28024819D02*
X114620833Y-28072438D01*
X114620833Y-28072438D02*
X114525595Y-28167676D01*
X114525595Y-28167676D02*
X114477976Y-28262914D01*
X114477976Y-28262914D02*
X114430357Y-28453390D01*
X114430357Y-28453390D02*
X114430357Y-28596247D01*
X114430357Y-28596247D02*
X114477976Y-28786723D01*
X114477976Y-28786723D02*
X114525595Y-28881961D01*
X114525595Y-28881961D02*
X114620833Y-28977200D01*
X114620833Y-28977200D02*
X114763690Y-29024819D01*
X114763690Y-29024819D02*
X115001785Y-29024819D01*
X113477976Y-29024819D02*
X114049404Y-29024819D01*
X113763690Y-29024819D02*
X113763690Y-28024819D01*
X113763690Y-28024819D02*
X113858928Y-28167676D01*
X113858928Y-28167676D02*
X113954166Y-28262914D01*
X113954166Y-28262914D02*
X114049404Y-28310533D01*
X112906547Y-28453390D02*
X113001785Y-28405771D01*
X113001785Y-28405771D02*
X113049404Y-28358152D01*
X113049404Y-28358152D02*
X113097023Y-28262914D01*
X113097023Y-28262914D02*
X113097023Y-28215295D01*
X113097023Y-28215295D02*
X113049404Y-28120057D01*
X113049404Y-28120057D02*
X113001785Y-28072438D01*
X113001785Y-28072438D02*
X112906547Y-28024819D01*
X112906547Y-28024819D02*
X112716071Y-28024819D01*
X112716071Y-28024819D02*
X112620833Y-28072438D01*
X112620833Y-28072438D02*
X112573214Y-28120057D01*
X112573214Y-28120057D02*
X112525595Y-28215295D01*
X112525595Y-28215295D02*
X112525595Y-28262914D01*
X112525595Y-28262914D02*
X112573214Y-28358152D01*
X112573214Y-28358152D02*
X112620833Y-28405771D01*
X112620833Y-28405771D02*
X112716071Y-28453390D01*
X112716071Y-28453390D02*
X112906547Y-28453390D01*
X112906547Y-28453390D02*
X113001785Y-28501009D01*
X113001785Y-28501009D02*
X113049404Y-28548628D01*
X113049404Y-28548628D02*
X113097023Y-28643866D01*
X113097023Y-28643866D02*
X113097023Y-28834342D01*
X113097023Y-28834342D02*
X113049404Y-28929580D01*
X113049404Y-28929580D02*
X113001785Y-28977200D01*
X113001785Y-28977200D02*
X112906547Y-29024819D01*
X112906547Y-29024819D02*
X112716071Y-29024819D01*
X112716071Y-29024819D02*
X112620833Y-28977200D01*
X112620833Y-28977200D02*
X112573214Y-28929580D01*
X112573214Y-28929580D02*
X112525595Y-28834342D01*
X112525595Y-28834342D02*
X112525595Y-28643866D01*
X112525595Y-28643866D02*
X112573214Y-28548628D01*
X112573214Y-28548628D02*
X112620833Y-28501009D01*
X112620833Y-28501009D02*
X112716071Y-28453390D01*
X134714285Y-48524819D02*
X134714285Y-47524819D01*
X134714285Y-47524819D02*
X134476190Y-47524819D01*
X134476190Y-47524819D02*
X134333333Y-47572438D01*
X134333333Y-47572438D02*
X134238095Y-47667676D01*
X134238095Y-47667676D02*
X134190476Y-47762914D01*
X134190476Y-47762914D02*
X134142857Y-47953390D01*
X134142857Y-47953390D02*
X134142857Y-48096247D01*
X134142857Y-48096247D02*
X134190476Y-48286723D01*
X134190476Y-48286723D02*
X134238095Y-48381961D01*
X134238095Y-48381961D02*
X134333333Y-48477200D01*
X134333333Y-48477200D02*
X134476190Y-48524819D01*
X134476190Y-48524819D02*
X134714285Y-48524819D01*
X133190476Y-48524819D02*
X133761904Y-48524819D01*
X133476190Y-48524819D02*
X133476190Y-47524819D01*
X133476190Y-47524819D02*
X133571428Y-47667676D01*
X133571428Y-47667676D02*
X133666666Y-47762914D01*
X133666666Y-47762914D02*
X133761904Y-47810533D01*
X132238095Y-48524819D02*
X132809523Y-48524819D01*
X132523809Y-48524819D02*
X132523809Y-47524819D01*
X132523809Y-47524819D02*
X132619047Y-47667676D01*
X132619047Y-47667676D02*
X132714285Y-47762914D01*
X132714285Y-47762914D02*
X132809523Y-47810533D01*
X153714285Y-29024819D02*
X153714285Y-28024819D01*
X153714285Y-28024819D02*
X153476190Y-28024819D01*
X153476190Y-28024819D02*
X153333333Y-28072438D01*
X153333333Y-28072438D02*
X153238095Y-28167676D01*
X153238095Y-28167676D02*
X153190476Y-28262914D01*
X153190476Y-28262914D02*
X153142857Y-28453390D01*
X153142857Y-28453390D02*
X153142857Y-28596247D01*
X153142857Y-28596247D02*
X153190476Y-28786723D01*
X153190476Y-28786723D02*
X153238095Y-28881961D01*
X153238095Y-28881961D02*
X153333333Y-28977200D01*
X153333333Y-28977200D02*
X153476190Y-29024819D01*
X153476190Y-29024819D02*
X153714285Y-29024819D01*
X152761904Y-28120057D02*
X152714285Y-28072438D01*
X152714285Y-28072438D02*
X152619047Y-28024819D01*
X152619047Y-28024819D02*
X152380952Y-28024819D01*
X152380952Y-28024819D02*
X152285714Y-28072438D01*
X152285714Y-28072438D02*
X152238095Y-28120057D01*
X152238095Y-28120057D02*
X152190476Y-28215295D01*
X152190476Y-28215295D02*
X152190476Y-28310533D01*
X152190476Y-28310533D02*
X152238095Y-28453390D01*
X152238095Y-28453390D02*
X152809523Y-29024819D01*
X152809523Y-29024819D02*
X152190476Y-29024819D01*
X151571428Y-28024819D02*
X151476190Y-28024819D01*
X151476190Y-28024819D02*
X151380952Y-28072438D01*
X151380952Y-28072438D02*
X151333333Y-28120057D01*
X151333333Y-28120057D02*
X151285714Y-28215295D01*
X151285714Y-28215295D02*
X151238095Y-28405771D01*
X151238095Y-28405771D02*
X151238095Y-28643866D01*
X151238095Y-28643866D02*
X151285714Y-28834342D01*
X151285714Y-28834342D02*
X151333333Y-28929580D01*
X151333333Y-28929580D02*
X151380952Y-28977200D01*
X151380952Y-28977200D02*
X151476190Y-29024819D01*
X151476190Y-29024819D02*
X151571428Y-29024819D01*
X151571428Y-29024819D02*
X151666666Y-28977200D01*
X151666666Y-28977200D02*
X151714285Y-28929580D01*
X151714285Y-28929580D02*
X151761904Y-28834342D01*
X151761904Y-28834342D02*
X151809523Y-28643866D01*
X151809523Y-28643866D02*
X151809523Y-28405771D01*
X151809523Y-28405771D02*
X151761904Y-28215295D01*
X151761904Y-28215295D02*
X151714285Y-28120057D01*
X151714285Y-28120057D02*
X151666666Y-28072438D01*
X151666666Y-28072438D02*
X151571428Y-28024819D01*
X74426785Y-106524819D02*
X74426785Y-105524819D01*
X74426785Y-105524819D02*
X74188690Y-105524819D01*
X74188690Y-105524819D02*
X74045833Y-105572438D01*
X74045833Y-105572438D02*
X73950595Y-105667676D01*
X73950595Y-105667676D02*
X73902976Y-105762914D01*
X73902976Y-105762914D02*
X73855357Y-105953390D01*
X73855357Y-105953390D02*
X73855357Y-106096247D01*
X73855357Y-106096247D02*
X73902976Y-106286723D01*
X73902976Y-106286723D02*
X73950595Y-106381961D01*
X73950595Y-106381961D02*
X74045833Y-106477200D01*
X74045833Y-106477200D02*
X74188690Y-106524819D01*
X74188690Y-106524819D02*
X74426785Y-106524819D01*
X73474404Y-105620057D02*
X73426785Y-105572438D01*
X73426785Y-105572438D02*
X73331547Y-105524819D01*
X73331547Y-105524819D02*
X73093452Y-105524819D01*
X73093452Y-105524819D02*
X72998214Y-105572438D01*
X72998214Y-105572438D02*
X72950595Y-105620057D01*
X72950595Y-105620057D02*
X72902976Y-105715295D01*
X72902976Y-105715295D02*
X72902976Y-105810533D01*
X72902976Y-105810533D02*
X72950595Y-105953390D01*
X72950595Y-105953390D02*
X73522023Y-106524819D01*
X73522023Y-106524819D02*
X72902976Y-106524819D01*
X71998214Y-105524819D02*
X72474404Y-105524819D01*
X72474404Y-105524819D02*
X72522023Y-106001009D01*
X72522023Y-106001009D02*
X72474404Y-105953390D01*
X72474404Y-105953390D02*
X72379166Y-105905771D01*
X72379166Y-105905771D02*
X72141071Y-105905771D01*
X72141071Y-105905771D02*
X72045833Y-105953390D01*
X72045833Y-105953390D02*
X71998214Y-106001009D01*
X71998214Y-106001009D02*
X71950595Y-106096247D01*
X71950595Y-106096247D02*
X71950595Y-106334342D01*
X71950595Y-106334342D02*
X71998214Y-106429580D01*
X71998214Y-106429580D02*
X72045833Y-106477200D01*
X72045833Y-106477200D02*
X72141071Y-106524819D01*
X72141071Y-106524819D02*
X72379166Y-106524819D01*
X72379166Y-106524819D02*
X72474404Y-106477200D01*
X72474404Y-106477200D02*
X72522023Y-106429580D01*
X104484819Y-88557142D02*
X104008628Y-88223809D01*
X104484819Y-87985714D02*
X103484819Y-87985714D01*
X103484819Y-87985714D02*
X103484819Y-88366666D01*
X103484819Y-88366666D02*
X103532438Y-88461904D01*
X103532438Y-88461904D02*
X103580057Y-88509523D01*
X103580057Y-88509523D02*
X103675295Y-88557142D01*
X103675295Y-88557142D02*
X103818152Y-88557142D01*
X103818152Y-88557142D02*
X103913390Y-88509523D01*
X103913390Y-88509523D02*
X103961009Y-88461904D01*
X103961009Y-88461904D02*
X104008628Y-88366666D01*
X104008628Y-88366666D02*
X104008628Y-87985714D01*
X104484819Y-89509523D02*
X104484819Y-88938095D01*
X104484819Y-89223809D02*
X103484819Y-89223809D01*
X103484819Y-89223809D02*
X103627676Y-89128571D01*
X103627676Y-89128571D02*
X103722914Y-89033333D01*
X103722914Y-89033333D02*
X103770533Y-88938095D01*
X104484819Y-90461904D02*
X104484819Y-89890476D01*
X104484819Y-90176190D02*
X103484819Y-90176190D01*
X103484819Y-90176190D02*
X103627676Y-90080952D01*
X103627676Y-90080952D02*
X103722914Y-89985714D01*
X103722914Y-89985714D02*
X103770533Y-89890476D01*
X98166666Y-109159580D02*
X98214285Y-109207200D01*
X98214285Y-109207200D02*
X98357142Y-109254819D01*
X98357142Y-109254819D02*
X98452380Y-109254819D01*
X98452380Y-109254819D02*
X98595237Y-109207200D01*
X98595237Y-109207200D02*
X98690475Y-109111961D01*
X98690475Y-109111961D02*
X98738094Y-109016723D01*
X98738094Y-109016723D02*
X98785713Y-108826247D01*
X98785713Y-108826247D02*
X98785713Y-108683390D01*
X98785713Y-108683390D02*
X98738094Y-108492914D01*
X98738094Y-108492914D02*
X98690475Y-108397676D01*
X98690475Y-108397676D02*
X98595237Y-108302438D01*
X98595237Y-108302438D02*
X98452380Y-108254819D01*
X98452380Y-108254819D02*
X98357142Y-108254819D01*
X98357142Y-108254819D02*
X98214285Y-108302438D01*
X98214285Y-108302438D02*
X98166666Y-108350057D01*
X97833332Y-108254819D02*
X97166666Y-108254819D01*
X97166666Y-108254819D02*
X97595237Y-109254819D01*
X55001785Y-126024819D02*
X55001785Y-125024819D01*
X55001785Y-125024819D02*
X54763690Y-125024819D01*
X54763690Y-125024819D02*
X54620833Y-125072438D01*
X54620833Y-125072438D02*
X54525595Y-125167676D01*
X54525595Y-125167676D02*
X54477976Y-125262914D01*
X54477976Y-125262914D02*
X54430357Y-125453390D01*
X54430357Y-125453390D02*
X54430357Y-125596247D01*
X54430357Y-125596247D02*
X54477976Y-125786723D01*
X54477976Y-125786723D02*
X54525595Y-125881961D01*
X54525595Y-125881961D02*
X54620833Y-125977200D01*
X54620833Y-125977200D02*
X54763690Y-126024819D01*
X54763690Y-126024819D02*
X55001785Y-126024819D01*
X54049404Y-125120057D02*
X54001785Y-125072438D01*
X54001785Y-125072438D02*
X53906547Y-125024819D01*
X53906547Y-125024819D02*
X53668452Y-125024819D01*
X53668452Y-125024819D02*
X53573214Y-125072438D01*
X53573214Y-125072438D02*
X53525595Y-125120057D01*
X53525595Y-125120057D02*
X53477976Y-125215295D01*
X53477976Y-125215295D02*
X53477976Y-125310533D01*
X53477976Y-125310533D02*
X53525595Y-125453390D01*
X53525595Y-125453390D02*
X54097023Y-126024819D01*
X54097023Y-126024819D02*
X53477976Y-126024819D01*
X53097023Y-125120057D02*
X53049404Y-125072438D01*
X53049404Y-125072438D02*
X52954166Y-125024819D01*
X52954166Y-125024819D02*
X52716071Y-125024819D01*
X52716071Y-125024819D02*
X52620833Y-125072438D01*
X52620833Y-125072438D02*
X52573214Y-125120057D01*
X52573214Y-125120057D02*
X52525595Y-125215295D01*
X52525595Y-125215295D02*
X52525595Y-125310533D01*
X52525595Y-125310533D02*
X52573214Y-125453390D01*
X52573214Y-125453390D02*
X53144642Y-126024819D01*
X53144642Y-126024819D02*
X52525595Y-126024819D01*
X153714285Y-125024819D02*
X153714285Y-124024819D01*
X153714285Y-124024819D02*
X153476190Y-124024819D01*
X153476190Y-124024819D02*
X153333333Y-124072438D01*
X153333333Y-124072438D02*
X153238095Y-124167676D01*
X153238095Y-124167676D02*
X153190476Y-124262914D01*
X153190476Y-124262914D02*
X153142857Y-124453390D01*
X153142857Y-124453390D02*
X153142857Y-124596247D01*
X153142857Y-124596247D02*
X153190476Y-124786723D01*
X153190476Y-124786723D02*
X153238095Y-124881961D01*
X153238095Y-124881961D02*
X153333333Y-124977200D01*
X153333333Y-124977200D02*
X153476190Y-125024819D01*
X153476190Y-125024819D02*
X153714285Y-125024819D01*
X152190476Y-125024819D02*
X152761904Y-125024819D01*
X152476190Y-125024819D02*
X152476190Y-124024819D01*
X152476190Y-124024819D02*
X152571428Y-124167676D01*
X152571428Y-124167676D02*
X152666666Y-124262914D01*
X152666666Y-124262914D02*
X152761904Y-124310533D01*
X151333333Y-124024819D02*
X151523809Y-124024819D01*
X151523809Y-124024819D02*
X151619047Y-124072438D01*
X151619047Y-124072438D02*
X151666666Y-124120057D01*
X151666666Y-124120057D02*
X151761904Y-124262914D01*
X151761904Y-124262914D02*
X151809523Y-124453390D01*
X151809523Y-124453390D02*
X151809523Y-124834342D01*
X151809523Y-124834342D02*
X151761904Y-124929580D01*
X151761904Y-124929580D02*
X151714285Y-124977200D01*
X151714285Y-124977200D02*
X151619047Y-125024819D01*
X151619047Y-125024819D02*
X151428571Y-125024819D01*
X151428571Y-125024819D02*
X151333333Y-124977200D01*
X151333333Y-124977200D02*
X151285714Y-124929580D01*
X151285714Y-124929580D02*
X151238095Y-124834342D01*
X151238095Y-124834342D02*
X151238095Y-124596247D01*
X151238095Y-124596247D02*
X151285714Y-124501009D01*
X151285714Y-124501009D02*
X151333333Y-124453390D01*
X151333333Y-124453390D02*
X151428571Y-124405771D01*
X151428571Y-124405771D02*
X151619047Y-124405771D01*
X151619047Y-124405771D02*
X151714285Y-124453390D01*
X151714285Y-124453390D02*
X151761904Y-124501009D01*
X151761904Y-124501009D02*
X151809523Y-124596247D01*
X153450594Y-87024819D02*
X153450594Y-86024819D01*
X153450594Y-86024819D02*
X153212499Y-86024819D01*
X153212499Y-86024819D02*
X153069642Y-86072438D01*
X153069642Y-86072438D02*
X152974404Y-86167676D01*
X152974404Y-86167676D02*
X152926785Y-86262914D01*
X152926785Y-86262914D02*
X152879166Y-86453390D01*
X152879166Y-86453390D02*
X152879166Y-86596247D01*
X152879166Y-86596247D02*
X152926785Y-86786723D01*
X152926785Y-86786723D02*
X152974404Y-86881961D01*
X152974404Y-86881961D02*
X153069642Y-86977200D01*
X153069642Y-86977200D02*
X153212499Y-87024819D01*
X153212499Y-87024819D02*
X153450594Y-87024819D01*
X152022023Y-86024819D02*
X152212499Y-86024819D01*
X152212499Y-86024819D02*
X152307737Y-86072438D01*
X152307737Y-86072438D02*
X152355356Y-86120057D01*
X152355356Y-86120057D02*
X152450594Y-86262914D01*
X152450594Y-86262914D02*
X152498213Y-86453390D01*
X152498213Y-86453390D02*
X152498213Y-86834342D01*
X152498213Y-86834342D02*
X152450594Y-86929580D01*
X152450594Y-86929580D02*
X152402975Y-86977200D01*
X152402975Y-86977200D02*
X152307737Y-87024819D01*
X152307737Y-87024819D02*
X152117261Y-87024819D01*
X152117261Y-87024819D02*
X152022023Y-86977200D01*
X152022023Y-86977200D02*
X151974404Y-86929580D01*
X151974404Y-86929580D02*
X151926785Y-86834342D01*
X151926785Y-86834342D02*
X151926785Y-86596247D01*
X151926785Y-86596247D02*
X151974404Y-86501009D01*
X151974404Y-86501009D02*
X152022023Y-86453390D01*
X152022023Y-86453390D02*
X152117261Y-86405771D01*
X152117261Y-86405771D02*
X152307737Y-86405771D01*
X152307737Y-86405771D02*
X152402975Y-86453390D01*
X152402975Y-86453390D02*
X152450594Y-86501009D01*
X152450594Y-86501009D02*
X152498213Y-86596247D01*
X153238094Y-67524819D02*
X153238094Y-66524819D01*
X153238094Y-66524819D02*
X152999999Y-66524819D01*
X152999999Y-66524819D02*
X152857142Y-66572438D01*
X152857142Y-66572438D02*
X152761904Y-66667676D01*
X152761904Y-66667676D02*
X152714285Y-66762914D01*
X152714285Y-66762914D02*
X152666666Y-66953390D01*
X152666666Y-66953390D02*
X152666666Y-67096247D01*
X152666666Y-67096247D02*
X152714285Y-67286723D01*
X152714285Y-67286723D02*
X152761904Y-67381961D01*
X152761904Y-67381961D02*
X152857142Y-67477200D01*
X152857142Y-67477200D02*
X152999999Y-67524819D01*
X152999999Y-67524819D02*
X153238094Y-67524819D01*
X152190475Y-67524819D02*
X151999999Y-67524819D01*
X151999999Y-67524819D02*
X151904761Y-67477200D01*
X151904761Y-67477200D02*
X151857142Y-67429580D01*
X151857142Y-67429580D02*
X151761904Y-67286723D01*
X151761904Y-67286723D02*
X151714285Y-67096247D01*
X151714285Y-67096247D02*
X151714285Y-66715295D01*
X151714285Y-66715295D02*
X151761904Y-66620057D01*
X151761904Y-66620057D02*
X151809523Y-66572438D01*
X151809523Y-66572438D02*
X151904761Y-66524819D01*
X151904761Y-66524819D02*
X152095237Y-66524819D01*
X152095237Y-66524819D02*
X152190475Y-66572438D01*
X152190475Y-66572438D02*
X152238094Y-66620057D01*
X152238094Y-66620057D02*
X152285713Y-66715295D01*
X152285713Y-66715295D02*
X152285713Y-66953390D01*
X152285713Y-66953390D02*
X152238094Y-67048628D01*
X152238094Y-67048628D02*
X152190475Y-67096247D01*
X152190475Y-67096247D02*
X152095237Y-67143866D01*
X152095237Y-67143866D02*
X151904761Y-67143866D01*
X151904761Y-67143866D02*
X151809523Y-67096247D01*
X151809523Y-67096247D02*
X151761904Y-67048628D01*
X151761904Y-67048628D02*
X151714285Y-66953390D01*
X134450594Y-87524819D02*
X134450594Y-86524819D01*
X134450594Y-86524819D02*
X134212499Y-86524819D01*
X134212499Y-86524819D02*
X134069642Y-86572438D01*
X134069642Y-86572438D02*
X133974404Y-86667676D01*
X133974404Y-86667676D02*
X133926785Y-86762914D01*
X133926785Y-86762914D02*
X133879166Y-86953390D01*
X133879166Y-86953390D02*
X133879166Y-87096247D01*
X133879166Y-87096247D02*
X133926785Y-87286723D01*
X133926785Y-87286723D02*
X133974404Y-87381961D01*
X133974404Y-87381961D02*
X134069642Y-87477200D01*
X134069642Y-87477200D02*
X134212499Y-87524819D01*
X134212499Y-87524819D02*
X134450594Y-87524819D01*
X132974404Y-86524819D02*
X133450594Y-86524819D01*
X133450594Y-86524819D02*
X133498213Y-87001009D01*
X133498213Y-87001009D02*
X133450594Y-86953390D01*
X133450594Y-86953390D02*
X133355356Y-86905771D01*
X133355356Y-86905771D02*
X133117261Y-86905771D01*
X133117261Y-86905771D02*
X133022023Y-86953390D01*
X133022023Y-86953390D02*
X132974404Y-87001009D01*
X132974404Y-87001009D02*
X132926785Y-87096247D01*
X132926785Y-87096247D02*
X132926785Y-87334342D01*
X132926785Y-87334342D02*
X132974404Y-87429580D01*
X132974404Y-87429580D02*
X133022023Y-87477200D01*
X133022023Y-87477200D02*
X133117261Y-87524819D01*
X133117261Y-87524819D02*
X133355356Y-87524819D01*
X133355356Y-87524819D02*
X133450594Y-87477200D01*
X133450594Y-87477200D02*
X133498213Y-87429580D01*
X83972112Y-101536411D02*
X84039456Y-101536411D01*
X84039456Y-101536411D02*
X84174143Y-101469067D01*
X84174143Y-101469067D02*
X84241486Y-101401724D01*
X84241486Y-101401724D02*
X84308830Y-101267037D01*
X84308830Y-101267037D02*
X84308830Y-101132350D01*
X84308830Y-101132350D02*
X84275158Y-101031335D01*
X84275158Y-101031335D02*
X84174143Y-100862976D01*
X84174143Y-100862976D02*
X84073128Y-100761961D01*
X84073128Y-100761961D02*
X83904769Y-100660945D01*
X83904769Y-100660945D02*
X83803754Y-100627274D01*
X83803754Y-100627274D02*
X83669067Y-100627274D01*
X83669067Y-100627274D02*
X83534380Y-100694617D01*
X83534380Y-100694617D02*
X83467036Y-100761961D01*
X83467036Y-100761961D02*
X83399693Y-100896648D01*
X83399693Y-100896648D02*
X83399693Y-100963991D01*
X83130319Y-101233365D02*
X83062975Y-101233365D01*
X83062975Y-101233365D02*
X82961960Y-101267037D01*
X82961960Y-101267037D02*
X82793601Y-101435396D01*
X82793601Y-101435396D02*
X82759929Y-101536411D01*
X82759929Y-101536411D02*
X82759929Y-101603754D01*
X82759929Y-101603754D02*
X82793601Y-101704770D01*
X82793601Y-101704770D02*
X82860945Y-101772113D01*
X82860945Y-101772113D02*
X82995632Y-101839457D01*
X82995632Y-101839457D02*
X83803754Y-101839457D01*
X83803754Y-101839457D02*
X83366021Y-102277189D01*
X134426785Y-29024819D02*
X134426785Y-28024819D01*
X134426785Y-28024819D02*
X134188690Y-28024819D01*
X134188690Y-28024819D02*
X134045833Y-28072438D01*
X134045833Y-28072438D02*
X133950595Y-28167676D01*
X133950595Y-28167676D02*
X133902976Y-28262914D01*
X133902976Y-28262914D02*
X133855357Y-28453390D01*
X133855357Y-28453390D02*
X133855357Y-28596247D01*
X133855357Y-28596247D02*
X133902976Y-28786723D01*
X133902976Y-28786723D02*
X133950595Y-28881961D01*
X133950595Y-28881961D02*
X134045833Y-28977200D01*
X134045833Y-28977200D02*
X134188690Y-29024819D01*
X134188690Y-29024819D02*
X134426785Y-29024819D01*
X132902976Y-29024819D02*
X133474404Y-29024819D01*
X133188690Y-29024819D02*
X133188690Y-28024819D01*
X133188690Y-28024819D02*
X133283928Y-28167676D01*
X133283928Y-28167676D02*
X133379166Y-28262914D01*
X133379166Y-28262914D02*
X133474404Y-28310533D01*
X132426785Y-29024819D02*
X132236309Y-29024819D01*
X132236309Y-29024819D02*
X132141071Y-28977200D01*
X132141071Y-28977200D02*
X132093452Y-28929580D01*
X132093452Y-28929580D02*
X131998214Y-28786723D01*
X131998214Y-28786723D02*
X131950595Y-28596247D01*
X131950595Y-28596247D02*
X131950595Y-28215295D01*
X131950595Y-28215295D02*
X131998214Y-28120057D01*
X131998214Y-28120057D02*
X132045833Y-28072438D01*
X132045833Y-28072438D02*
X132141071Y-28024819D01*
X132141071Y-28024819D02*
X132331547Y-28024819D01*
X132331547Y-28024819D02*
X132426785Y-28072438D01*
X132426785Y-28072438D02*
X132474404Y-28120057D01*
X132474404Y-28120057D02*
X132522023Y-28215295D01*
X132522023Y-28215295D02*
X132522023Y-28453390D01*
X132522023Y-28453390D02*
X132474404Y-28548628D01*
X132474404Y-28548628D02*
X132426785Y-28596247D01*
X132426785Y-28596247D02*
X132331547Y-28643866D01*
X132331547Y-28643866D02*
X132141071Y-28643866D01*
X132141071Y-28643866D02*
X132045833Y-28596247D01*
X132045833Y-28596247D02*
X131998214Y-28548628D01*
X131998214Y-28548628D02*
X131950595Y-28453390D01*
X173214285Y-29024819D02*
X173214285Y-28024819D01*
X173214285Y-28024819D02*
X172976190Y-28024819D01*
X172976190Y-28024819D02*
X172833333Y-28072438D01*
X172833333Y-28072438D02*
X172738095Y-28167676D01*
X172738095Y-28167676D02*
X172690476Y-28262914D01*
X172690476Y-28262914D02*
X172642857Y-28453390D01*
X172642857Y-28453390D02*
X172642857Y-28596247D01*
X172642857Y-28596247D02*
X172690476Y-28786723D01*
X172690476Y-28786723D02*
X172738095Y-28881961D01*
X172738095Y-28881961D02*
X172833333Y-28977200D01*
X172833333Y-28977200D02*
X172976190Y-29024819D01*
X172976190Y-29024819D02*
X173214285Y-29024819D01*
X172261904Y-28120057D02*
X172214285Y-28072438D01*
X172214285Y-28072438D02*
X172119047Y-28024819D01*
X172119047Y-28024819D02*
X171880952Y-28024819D01*
X171880952Y-28024819D02*
X171785714Y-28072438D01*
X171785714Y-28072438D02*
X171738095Y-28120057D01*
X171738095Y-28120057D02*
X171690476Y-28215295D01*
X171690476Y-28215295D02*
X171690476Y-28310533D01*
X171690476Y-28310533D02*
X171738095Y-28453390D01*
X171738095Y-28453390D02*
X172309523Y-29024819D01*
X172309523Y-29024819D02*
X171690476Y-29024819D01*
X170738095Y-29024819D02*
X171309523Y-29024819D01*
X171023809Y-29024819D02*
X171023809Y-28024819D01*
X171023809Y-28024819D02*
X171119047Y-28167676D01*
X171119047Y-28167676D02*
X171214285Y-28262914D01*
X171214285Y-28262914D02*
X171309523Y-28310533D01*
X92366666Y-108959580D02*
X92414285Y-109007200D01*
X92414285Y-109007200D02*
X92557142Y-109054819D01*
X92557142Y-109054819D02*
X92652380Y-109054819D01*
X92652380Y-109054819D02*
X92795237Y-109007200D01*
X92795237Y-109007200D02*
X92890475Y-108911961D01*
X92890475Y-108911961D02*
X92938094Y-108816723D01*
X92938094Y-108816723D02*
X92985713Y-108626247D01*
X92985713Y-108626247D02*
X92985713Y-108483390D01*
X92985713Y-108483390D02*
X92938094Y-108292914D01*
X92938094Y-108292914D02*
X92890475Y-108197676D01*
X92890475Y-108197676D02*
X92795237Y-108102438D01*
X92795237Y-108102438D02*
X92652380Y-108054819D01*
X92652380Y-108054819D02*
X92557142Y-108054819D01*
X92557142Y-108054819D02*
X92414285Y-108102438D01*
X92414285Y-108102438D02*
X92366666Y-108150057D01*
X91461904Y-108054819D02*
X91938094Y-108054819D01*
X91938094Y-108054819D02*
X91985713Y-108531009D01*
X91985713Y-108531009D02*
X91938094Y-108483390D01*
X91938094Y-108483390D02*
X91842856Y-108435771D01*
X91842856Y-108435771D02*
X91604761Y-108435771D01*
X91604761Y-108435771D02*
X91509523Y-108483390D01*
X91509523Y-108483390D02*
X91461904Y-108531009D01*
X91461904Y-108531009D02*
X91414285Y-108626247D01*
X91414285Y-108626247D02*
X91414285Y-108864342D01*
X91414285Y-108864342D02*
X91461904Y-108959580D01*
X91461904Y-108959580D02*
X91509523Y-109007200D01*
X91509523Y-109007200D02*
X91604761Y-109054819D01*
X91604761Y-109054819D02*
X91842856Y-109054819D01*
X91842856Y-109054819D02*
X91938094Y-109007200D01*
X91938094Y-109007200D02*
X91985713Y-108959580D01*
X153926785Y-48524819D02*
X153926785Y-47524819D01*
X153926785Y-47524819D02*
X153688690Y-47524819D01*
X153688690Y-47524819D02*
X153545833Y-47572438D01*
X153545833Y-47572438D02*
X153450595Y-47667676D01*
X153450595Y-47667676D02*
X153402976Y-47762914D01*
X153402976Y-47762914D02*
X153355357Y-47953390D01*
X153355357Y-47953390D02*
X153355357Y-48096247D01*
X153355357Y-48096247D02*
X153402976Y-48286723D01*
X153402976Y-48286723D02*
X153450595Y-48381961D01*
X153450595Y-48381961D02*
X153545833Y-48477200D01*
X153545833Y-48477200D02*
X153688690Y-48524819D01*
X153688690Y-48524819D02*
X153926785Y-48524819D01*
X152402976Y-48524819D02*
X152974404Y-48524819D01*
X152688690Y-48524819D02*
X152688690Y-47524819D01*
X152688690Y-47524819D02*
X152783928Y-47667676D01*
X152783928Y-47667676D02*
X152879166Y-47762914D01*
X152879166Y-47762914D02*
X152974404Y-47810533D01*
X152022023Y-47620057D02*
X151974404Y-47572438D01*
X151974404Y-47572438D02*
X151879166Y-47524819D01*
X151879166Y-47524819D02*
X151641071Y-47524819D01*
X151641071Y-47524819D02*
X151545833Y-47572438D01*
X151545833Y-47572438D02*
X151498214Y-47620057D01*
X151498214Y-47620057D02*
X151450595Y-47715295D01*
X151450595Y-47715295D02*
X151450595Y-47810533D01*
X151450595Y-47810533D02*
X151498214Y-47953390D01*
X151498214Y-47953390D02*
X152069642Y-48524819D01*
X152069642Y-48524819D02*
X151450595Y-48524819D01*
X86496373Y-97132696D02*
X86159655Y-97469414D01*
X87102464Y-96998009D02*
X86496373Y-97132696D01*
X86496373Y-97132696D02*
X86631060Y-96526605D01*
X86361686Y-96391918D02*
X86361686Y-96324574D01*
X86361686Y-96324574D02*
X86328014Y-96223559D01*
X86328014Y-96223559D02*
X86159655Y-96055200D01*
X86159655Y-96055200D02*
X86058640Y-96021528D01*
X86058640Y-96021528D02*
X85991297Y-96021528D01*
X85991297Y-96021528D02*
X85890281Y-96055200D01*
X85890281Y-96055200D02*
X85822938Y-96122544D01*
X85822938Y-96122544D02*
X85755594Y-96257231D01*
X85755594Y-96257231D02*
X85755594Y-97065353D01*
X85755594Y-97065353D02*
X85317862Y-96627620D01*
X93426785Y-126024819D02*
X93426785Y-125024819D01*
X93426785Y-125024819D02*
X93188690Y-125024819D01*
X93188690Y-125024819D02*
X93045833Y-125072438D01*
X93045833Y-125072438D02*
X92950595Y-125167676D01*
X92950595Y-125167676D02*
X92902976Y-125262914D01*
X92902976Y-125262914D02*
X92855357Y-125453390D01*
X92855357Y-125453390D02*
X92855357Y-125596247D01*
X92855357Y-125596247D02*
X92902976Y-125786723D01*
X92902976Y-125786723D02*
X92950595Y-125881961D01*
X92950595Y-125881961D02*
X93045833Y-125977200D01*
X93045833Y-125977200D02*
X93188690Y-126024819D01*
X93188690Y-126024819D02*
X93426785Y-126024819D01*
X92474404Y-125120057D02*
X92426785Y-125072438D01*
X92426785Y-125072438D02*
X92331547Y-125024819D01*
X92331547Y-125024819D02*
X92093452Y-125024819D01*
X92093452Y-125024819D02*
X91998214Y-125072438D01*
X91998214Y-125072438D02*
X91950595Y-125120057D01*
X91950595Y-125120057D02*
X91902976Y-125215295D01*
X91902976Y-125215295D02*
X91902976Y-125310533D01*
X91902976Y-125310533D02*
X91950595Y-125453390D01*
X91950595Y-125453390D02*
X92522023Y-126024819D01*
X92522023Y-126024819D02*
X91902976Y-126024819D01*
X91045833Y-125358152D02*
X91045833Y-126024819D01*
X91283928Y-124977200D02*
X91522023Y-125691485D01*
X91522023Y-125691485D02*
X90902976Y-125691485D01*
X114738094Y-67454819D02*
X114738094Y-66454819D01*
X114738094Y-66454819D02*
X114499999Y-66454819D01*
X114499999Y-66454819D02*
X114357142Y-66502438D01*
X114357142Y-66502438D02*
X114261904Y-66597676D01*
X114261904Y-66597676D02*
X114214285Y-66692914D01*
X114214285Y-66692914D02*
X114166666Y-66883390D01*
X114166666Y-66883390D02*
X114166666Y-67026247D01*
X114166666Y-67026247D02*
X114214285Y-67216723D01*
X114214285Y-67216723D02*
X114261904Y-67311961D01*
X114261904Y-67311961D02*
X114357142Y-67407200D01*
X114357142Y-67407200D02*
X114499999Y-67454819D01*
X114499999Y-67454819D02*
X114738094Y-67454819D01*
X113833332Y-66454819D02*
X113166666Y-66454819D01*
X113166666Y-66454819D02*
X113595237Y-67454819D01*
X90166666Y-88929580D02*
X90214285Y-88977200D01*
X90214285Y-88977200D02*
X90357142Y-89024819D01*
X90357142Y-89024819D02*
X90452380Y-89024819D01*
X90452380Y-89024819D02*
X90595237Y-88977200D01*
X90595237Y-88977200D02*
X90690475Y-88881961D01*
X90690475Y-88881961D02*
X90738094Y-88786723D01*
X90738094Y-88786723D02*
X90785713Y-88596247D01*
X90785713Y-88596247D02*
X90785713Y-88453390D01*
X90785713Y-88453390D02*
X90738094Y-88262914D01*
X90738094Y-88262914D02*
X90690475Y-88167676D01*
X90690475Y-88167676D02*
X90595237Y-88072438D01*
X90595237Y-88072438D02*
X90452380Y-88024819D01*
X90452380Y-88024819D02*
X90357142Y-88024819D01*
X90357142Y-88024819D02*
X90214285Y-88072438D01*
X90214285Y-88072438D02*
X90166666Y-88120057D01*
X89309523Y-88358152D02*
X89309523Y-89024819D01*
X89547618Y-87977200D02*
X89785713Y-88691485D01*
X89785713Y-88691485D02*
X89166666Y-88691485D01*
X89242857Y-106454819D02*
X89576190Y-105978628D01*
X89814285Y-106454819D02*
X89814285Y-105454819D01*
X89814285Y-105454819D02*
X89433333Y-105454819D01*
X89433333Y-105454819D02*
X89338095Y-105502438D01*
X89338095Y-105502438D02*
X89290476Y-105550057D01*
X89290476Y-105550057D02*
X89242857Y-105645295D01*
X89242857Y-105645295D02*
X89242857Y-105788152D01*
X89242857Y-105788152D02*
X89290476Y-105883390D01*
X89290476Y-105883390D02*
X89338095Y-105931009D01*
X89338095Y-105931009D02*
X89433333Y-105978628D01*
X89433333Y-105978628D02*
X89814285Y-105978628D01*
X88290476Y-106454819D02*
X88861904Y-106454819D01*
X88576190Y-106454819D02*
X88576190Y-105454819D01*
X88576190Y-105454819D02*
X88671428Y-105597676D01*
X88671428Y-105597676D02*
X88766666Y-105692914D01*
X88766666Y-105692914D02*
X88861904Y-105740533D01*
X87671428Y-105454819D02*
X87576190Y-105454819D01*
X87576190Y-105454819D02*
X87480952Y-105502438D01*
X87480952Y-105502438D02*
X87433333Y-105550057D01*
X87433333Y-105550057D02*
X87385714Y-105645295D01*
X87385714Y-105645295D02*
X87338095Y-105835771D01*
X87338095Y-105835771D02*
X87338095Y-106073866D01*
X87338095Y-106073866D02*
X87385714Y-106264342D01*
X87385714Y-106264342D02*
X87433333Y-106359580D01*
X87433333Y-106359580D02*
X87480952Y-106407200D01*
X87480952Y-106407200D02*
X87576190Y-106454819D01*
X87576190Y-106454819D02*
X87671428Y-106454819D01*
X87671428Y-106454819D02*
X87766666Y-106407200D01*
X87766666Y-106407200D02*
X87814285Y-106359580D01*
X87814285Y-106359580D02*
X87861904Y-106264342D01*
X87861904Y-106264342D02*
X87909523Y-106073866D01*
X87909523Y-106073866D02*
X87909523Y-105835771D01*
X87909523Y-105835771D02*
X87861904Y-105645295D01*
X87861904Y-105645295D02*
X87814285Y-105550057D01*
X87814285Y-105550057D02*
X87766666Y-105502438D01*
X87766666Y-105502438D02*
X87671428Y-105454819D01*
X80372112Y-98936411D02*
X80439456Y-98936411D01*
X80439456Y-98936411D02*
X80574143Y-98869067D01*
X80574143Y-98869067D02*
X80641486Y-98801724D01*
X80641486Y-98801724D02*
X80708830Y-98667037D01*
X80708830Y-98667037D02*
X80708830Y-98532350D01*
X80708830Y-98532350D02*
X80675158Y-98431335D01*
X80675158Y-98431335D02*
X80574143Y-98262976D01*
X80574143Y-98262976D02*
X80473128Y-98161961D01*
X80473128Y-98161961D02*
X80304769Y-98060945D01*
X80304769Y-98060945D02*
X80203754Y-98027274D01*
X80203754Y-98027274D02*
X80069067Y-98027274D01*
X80069067Y-98027274D02*
X79934380Y-98094617D01*
X79934380Y-98094617D02*
X79867036Y-98161961D01*
X79867036Y-98161961D02*
X79799693Y-98296648D01*
X79799693Y-98296648D02*
X79799693Y-98363991D01*
X79766021Y-99677189D02*
X80170082Y-99273128D01*
X79968051Y-99475159D02*
X79260945Y-98768052D01*
X79260945Y-98768052D02*
X79429303Y-98801724D01*
X79429303Y-98801724D02*
X79563990Y-98801724D01*
X79563990Y-98801724D02*
X79665006Y-98768052D01*
X124501785Y-125524819D02*
X124501785Y-124524819D01*
X124501785Y-124524819D02*
X124263690Y-124524819D01*
X124263690Y-124524819D02*
X124120833Y-124572438D01*
X124120833Y-124572438D02*
X124025595Y-124667676D01*
X124025595Y-124667676D02*
X123977976Y-124762914D01*
X123977976Y-124762914D02*
X123930357Y-124953390D01*
X123930357Y-124953390D02*
X123930357Y-125096247D01*
X123930357Y-125096247D02*
X123977976Y-125286723D01*
X123977976Y-125286723D02*
X124025595Y-125381961D01*
X124025595Y-125381961D02*
X124120833Y-125477200D01*
X124120833Y-125477200D02*
X124263690Y-125524819D01*
X124263690Y-125524819D02*
X124501785Y-125524819D01*
X122977976Y-125524819D02*
X123549404Y-125524819D01*
X123263690Y-125524819D02*
X123263690Y-124524819D01*
X123263690Y-124524819D02*
X123358928Y-124667676D01*
X123358928Y-124667676D02*
X123454166Y-124762914D01*
X123454166Y-124762914D02*
X123549404Y-124810533D01*
X122644642Y-124524819D02*
X121977976Y-124524819D01*
X121977976Y-124524819D02*
X122406547Y-125524819D01*
X114950594Y-106524819D02*
X114950594Y-105524819D01*
X114950594Y-105524819D02*
X114712499Y-105524819D01*
X114712499Y-105524819D02*
X114569642Y-105572438D01*
X114569642Y-105572438D02*
X114474404Y-105667676D01*
X114474404Y-105667676D02*
X114426785Y-105762914D01*
X114426785Y-105762914D02*
X114379166Y-105953390D01*
X114379166Y-105953390D02*
X114379166Y-106096247D01*
X114379166Y-106096247D02*
X114426785Y-106286723D01*
X114426785Y-106286723D02*
X114474404Y-106381961D01*
X114474404Y-106381961D02*
X114569642Y-106477200D01*
X114569642Y-106477200D02*
X114712499Y-106524819D01*
X114712499Y-106524819D02*
X114950594Y-106524819D01*
X113426785Y-106524819D02*
X113998213Y-106524819D01*
X113712499Y-106524819D02*
X113712499Y-105524819D01*
X113712499Y-105524819D02*
X113807737Y-105667676D01*
X113807737Y-105667676D02*
X113902975Y-105762914D01*
X113902975Y-105762914D02*
X113998213Y-105810533D01*
X85429580Y-104633333D02*
X85477200Y-104585714D01*
X85477200Y-104585714D02*
X85524819Y-104442857D01*
X85524819Y-104442857D02*
X85524819Y-104347619D01*
X85524819Y-104347619D02*
X85477200Y-104204762D01*
X85477200Y-104204762D02*
X85381961Y-104109524D01*
X85381961Y-104109524D02*
X85286723Y-104061905D01*
X85286723Y-104061905D02*
X85096247Y-104014286D01*
X85096247Y-104014286D02*
X84953390Y-104014286D01*
X84953390Y-104014286D02*
X84762914Y-104061905D01*
X84762914Y-104061905D02*
X84667676Y-104109524D01*
X84667676Y-104109524D02*
X84572438Y-104204762D01*
X84572438Y-104204762D02*
X84524819Y-104347619D01*
X84524819Y-104347619D02*
X84524819Y-104442857D01*
X84524819Y-104442857D02*
X84572438Y-104585714D01*
X84572438Y-104585714D02*
X84620057Y-104633333D01*
X84524819Y-105490476D02*
X84524819Y-105300000D01*
X84524819Y-105300000D02*
X84572438Y-105204762D01*
X84572438Y-105204762D02*
X84620057Y-105157143D01*
X84620057Y-105157143D02*
X84762914Y-105061905D01*
X84762914Y-105061905D02*
X84953390Y-105014286D01*
X84953390Y-105014286D02*
X85334342Y-105014286D01*
X85334342Y-105014286D02*
X85429580Y-105061905D01*
X85429580Y-105061905D02*
X85477200Y-105109524D01*
X85477200Y-105109524D02*
X85524819Y-105204762D01*
X85524819Y-105204762D02*
X85524819Y-105395238D01*
X85524819Y-105395238D02*
X85477200Y-105490476D01*
X85477200Y-105490476D02*
X85429580Y-105538095D01*
X85429580Y-105538095D02*
X85334342Y-105585714D01*
X85334342Y-105585714D02*
X85096247Y-105585714D01*
X85096247Y-105585714D02*
X85001009Y-105538095D01*
X85001009Y-105538095D02*
X84953390Y-105490476D01*
X84953390Y-105490476D02*
X84905771Y-105395238D01*
X84905771Y-105395238D02*
X84905771Y-105204762D01*
X84905771Y-105204762D02*
X84953390Y-105109524D01*
X84953390Y-105109524D02*
X85001009Y-105061905D01*
X85001009Y-105061905D02*
X85096247Y-105014286D01*
D11*
%TO.C,D34*%
X94197500Y-31485000D02*
X94197500Y-30015000D01*
X91912500Y-31485000D02*
X94197500Y-31485000D01*
X94197500Y-30015000D02*
X91912500Y-30015000D01*
%TO.C,D33*%
X74485000Y-30735000D02*
X74485000Y-29265000D01*
X72200000Y-30735000D02*
X74485000Y-30735000D01*
X74485000Y-29265000D02*
X72200000Y-29265000D01*
%TO.C,D32*%
X55272500Y-30985000D02*
X55272500Y-29515000D01*
X52987500Y-30985000D02*
X55272500Y-30985000D01*
X55272500Y-29515000D02*
X52987500Y-29515000D01*
%TO.C,D31*%
X94022500Y-50235000D02*
X94022500Y-48765000D01*
X91737500Y-50235000D02*
X94022500Y-50235000D01*
X94022500Y-48765000D02*
X91737500Y-48765000D01*
%TO.C,D30*%
X74522500Y-48765000D02*
X72237500Y-48765000D01*
X72237500Y-50235000D02*
X74522500Y-50235000D01*
X74522500Y-50235000D02*
X74522500Y-48765000D01*
%TO.C,D29*%
X55197500Y-48765000D02*
X52912500Y-48765000D01*
X52912500Y-50235000D02*
X55197500Y-50235000D01*
X55197500Y-50235000D02*
X55197500Y-48765000D01*
%TO.C,D28*%
X55197500Y-69485000D02*
X55197500Y-68015000D01*
X52912500Y-69485000D02*
X55197500Y-69485000D01*
X55197500Y-68015000D02*
X52912500Y-68015000D01*
%TO.C,D27*%
X74522500Y-69485000D02*
X74522500Y-68015000D01*
X72237500Y-69485000D02*
X74522500Y-69485000D01*
X74522500Y-68015000D02*
X72237500Y-68015000D01*
%TO.C,D26*%
X93735000Y-69485000D02*
X93735000Y-68015000D01*
X91450000Y-69485000D02*
X93735000Y-69485000D01*
X93735000Y-68015000D02*
X91450000Y-68015000D01*
%TO.C,J1*%
X109160000Y-22410000D02*
X108740000Y-22410000D01*
X108740000Y-22410000D02*
X108740000Y-20430000D01*
X108740000Y-18460000D02*
X108740000Y-18060000D01*
X110740000Y-23090000D02*
X110740000Y-22640000D01*
X110740000Y-23090000D02*
X111190000Y-23090000D01*
X115840000Y-22410000D02*
X116260000Y-22410000D01*
X116260000Y-22410000D02*
X116260000Y-20430000D01*
X116260000Y-18060000D02*
X116260000Y-18460000D01*
%TO.C,D4*%
X113700000Y-89735000D02*
X115985000Y-89735000D01*
X115985000Y-88265000D02*
X113700000Y-88265000D01*
X115985000Y-89735000D02*
X115985000Y-88265000D01*
%TO.C,D23*%
X72412500Y-127735000D02*
X74697500Y-127735000D01*
X74697500Y-126265000D02*
X72412500Y-126265000D01*
X74697500Y-127735000D02*
X74697500Y-126265000D01*
%TO.C,D2*%
X132412500Y-108235000D02*
X134697500Y-108235000D01*
X134697500Y-106765000D02*
X132412500Y-106765000D01*
X134697500Y-108235000D02*
X134697500Y-106765000D01*
%TO.C,D14*%
X171200000Y-79235000D02*
X173485000Y-79235000D01*
X173485000Y-77765000D02*
X171200000Y-77765000D01*
X173485000Y-79235000D02*
X173485000Y-77765000D01*
%TO.C,C3*%
X99890000Y-106340580D02*
X99890000Y-106059420D01*
X100910000Y-106340580D02*
X100910000Y-106059420D01*
%TO.C,C8*%
X93490000Y-106259420D02*
X93490000Y-106540580D01*
X94510000Y-106259420D02*
X94510000Y-106540580D01*
%TO.C,D10*%
X112912500Y-49735000D02*
X115197500Y-49735000D01*
X115197500Y-48265000D02*
X112912500Y-48265000D01*
X115197500Y-49735000D02*
X115197500Y-48265000D01*
%TO.C,D13*%
X171700000Y-50235000D02*
X173985000Y-50235000D01*
X173985000Y-48765000D02*
X171700000Y-48765000D01*
X173985000Y-50235000D02*
X173985000Y-48765000D01*
%TO.C,D15*%
X171200000Y-117735000D02*
X173485000Y-117735000D01*
X173485000Y-116265000D02*
X171200000Y-116265000D01*
X173485000Y-117735000D02*
X173485000Y-116265000D01*
%TO.C,D3*%
X151912500Y-108235000D02*
X154197500Y-108235000D01*
X154197500Y-106765000D02*
X151912500Y-106765000D01*
X154197500Y-108235000D02*
X154197500Y-106765000D01*
%TO.C,D8*%
X132200000Y-69235000D02*
X134485000Y-69235000D01*
X134485000Y-67765000D02*
X132200000Y-67765000D01*
X134485000Y-69235000D02*
X134485000Y-67765000D01*
%TO.C,D18*%
X112987500Y-30735000D02*
X115272500Y-30735000D01*
X115272500Y-29265000D02*
X112987500Y-29265000D01*
X115272500Y-30735000D02*
X115272500Y-29265000D01*
%TO.C,D11*%
X132700000Y-50235000D02*
X134985000Y-50235000D01*
X134985000Y-48765000D02*
X132700000Y-48765000D01*
X134985000Y-50235000D02*
X134985000Y-48765000D01*
%TO.C,D20*%
X151700000Y-30735000D02*
X153985000Y-30735000D01*
X153985000Y-29265000D02*
X151700000Y-29265000D01*
X153985000Y-30735000D02*
X153985000Y-29265000D01*
%TO.C,D25*%
X72412500Y-108235000D02*
X74697500Y-108235000D01*
X74697500Y-106765000D02*
X72412500Y-106765000D01*
X74697500Y-108235000D02*
X74697500Y-106765000D01*
%TO.C,R11*%
X103122500Y-88962742D02*
X103122500Y-89437258D01*
X102077500Y-88962742D02*
X102077500Y-89437258D01*
%TO.C,C7*%
X99110000Y-106515580D02*
X99110000Y-106234420D01*
X98090000Y-106515580D02*
X98090000Y-106234420D01*
%TO.C,D22*%
X52987500Y-127735000D02*
X55272500Y-127735000D01*
X55272500Y-126265000D02*
X52987500Y-126265000D01*
X55272500Y-127735000D02*
X55272500Y-126265000D01*
%TO.C,D16*%
X151700000Y-126735000D02*
X153985000Y-126735000D01*
X153985000Y-125265000D02*
X151700000Y-125265000D01*
X153985000Y-126735000D02*
X153985000Y-125265000D01*
%TO.C,D6*%
X151912500Y-88735000D02*
X154197500Y-88735000D01*
X154197500Y-87265000D02*
X151912500Y-87265000D01*
X154197500Y-88735000D02*
X154197500Y-87265000D01*
%TO.C,D9*%
X151700000Y-69235000D02*
X153985000Y-69235000D01*
X153985000Y-67765000D02*
X151700000Y-67765000D01*
X153985000Y-69235000D02*
X153985000Y-67765000D01*
%TO.C,D5*%
X132912500Y-89235000D02*
X135197500Y-89235000D01*
X135197500Y-87765000D02*
X132912500Y-87765000D01*
X135197500Y-89235000D02*
X135197500Y-87765000D01*
D10*
%TO.C,U1*%
X88825000Y-93500000D02*
X88825000Y-92825000D01*
X88825000Y-102500000D02*
X88825000Y-103175000D01*
X89500000Y-92825000D02*
X88825000Y-92825000D01*
X89500000Y-103175000D02*
X88825000Y-103175000D01*
X98500000Y-92825000D02*
X99175000Y-92825000D01*
X98560000Y-103175000D02*
X99175000Y-103175000D01*
X99175000Y-93500000D02*
X99175000Y-92825000D01*
X99175000Y-102500000D02*
X99175000Y-103175000D01*
D11*
X99010000Y-104200000D02*
X98540000Y-103860000D01*
X99010000Y-103520000D01*
X99010000Y-104200000D01*
G36*
X99010000Y-104200000D02*
G01*
X98540000Y-103860000D01*
X99010000Y-103520000D01*
X99010000Y-104200000D01*
G37*
%TO.C,C2*%
X84938781Y-101739970D02*
X84739970Y-101938781D01*
X85660030Y-102461219D02*
X85461219Y-102660030D01*
%TO.C,D19*%
X132412500Y-30735000D02*
X134697500Y-30735000D01*
X134697500Y-29265000D02*
X132412500Y-29265000D01*
X134697500Y-30735000D02*
X134697500Y-29265000D01*
%TO.C,D21*%
X171200000Y-30735000D02*
X173485000Y-30735000D01*
X173485000Y-29265000D02*
X171200000Y-29265000D01*
X173485000Y-30735000D02*
X173485000Y-29265000D01*
%TO.C,C5*%
X91690000Y-106540580D02*
X91690000Y-106259420D01*
X92710000Y-106540580D02*
X92710000Y-106259420D01*
%TO.C,D12*%
X151912500Y-50235000D02*
X154197500Y-50235000D01*
X154197500Y-48765000D02*
X151912500Y-48765000D01*
X154197500Y-50235000D02*
X154197500Y-48765000D01*
%TO.C,Y2*%
X81866548Y-98260660D02*
X84694975Y-101089087D01*
X84694975Y-101089087D02*
X86957716Y-98826346D01*
%TO.C,D24*%
X91412500Y-127735000D02*
X93697500Y-127735000D01*
X93697500Y-126265000D02*
X91412500Y-126265000D01*
X93697500Y-127735000D02*
X93697500Y-126265000D01*
%TO.C,D7*%
X113200000Y-69735000D02*
X115485000Y-69735000D01*
X115485000Y-68265000D02*
X113200000Y-68265000D01*
X115485000Y-69735000D02*
X115485000Y-68265000D01*
%TO.C,C4*%
X89859420Y-89490000D02*
X90140580Y-89490000D01*
X89859420Y-90510000D02*
X90140580Y-90510000D01*
%TO.C,R10*%
X89187742Y-106977500D02*
X89662258Y-106977500D01*
X89187742Y-108022500D02*
X89662258Y-108022500D01*
%TO.C,C1*%
X81486789Y-96591962D02*
X81287978Y-96790773D01*
X82208038Y-97313211D02*
X82009227Y-97512022D01*
%TO.C,D17*%
X122487500Y-127235000D02*
X124772500Y-127235000D01*
X124772500Y-125765000D02*
X122487500Y-125765000D01*
X124772500Y-127235000D02*
X124772500Y-125765000D01*
%TO.C,D1*%
X113412500Y-108235000D02*
X115697500Y-108235000D01*
X115697500Y-106765000D02*
X113412500Y-106765000D01*
X115697500Y-108235000D02*
X115697500Y-106765000D01*
%TO.C,C6*%
X85990000Y-104390580D02*
X85990000Y-104109420D01*
X87010000Y-104390580D02*
X87010000Y-104109420D01*
%TD*%
M02*
