%TF.GenerationSoftware,KiCad,Pcbnew,8.0.3*%
%TF.CreationDate,2024-06-19T10:55:35-07:00*%
%TF.ProjectId,CustomNumpad,43757374-6f6d-44e7-956d-7061642e6b69,rev?*%
%TF.SameCoordinates,Original*%
%TF.FileFunction,Drillmap*%
%TF.FilePolarity,Positive*%
%FSLAX45Y45*%
G04 Gerber Fmt 4.5, Leading zero omitted, Abs format (unit mm)*
G04 Created by KiCad (PCBNEW 8.0.3) date 2024-06-19 10:55:35*
%MOMM*%
%LPD*%
G01*
G04 APERTURE LIST*
%ADD10C,0.050000*%
%ADD11C,0.200000*%
%ADD12C,0.175000*%
%ADD13C,0.400000*%
G04 APERTURE END LIST*
D10*
X4500000Y-14400000D02*
G75*
G02*
X3900000Y-14400000I-300000J0D01*
G01*
X3900000Y-14400000D02*
G75*
G02*
X4500000Y-14400000I300000J0D01*
G01*
X18880000Y-14380000D02*
G75*
G02*
X18280000Y-14380000I-300000J0D01*
G01*
X18280000Y-14380000D02*
G75*
G02*
X18880000Y-14380000I300000J0D01*
G01*
X18880000Y-2220000D02*
G75*
G02*
X18280000Y-2220000I-300000J0D01*
G01*
X18280000Y-2220000D02*
G75*
G02*
X18880000Y-2220000I300000J0D01*
G01*
X4520000Y-2220000D02*
G75*
G02*
X3920000Y-2220000I-300000J0D01*
G01*
X3920000Y-2220000D02*
G75*
G02*
X4520000Y-2220000I300000J0D01*
G01*
X3800000Y-1800000D02*
X19000000Y-1800000D01*
X19000000Y-14800000D01*
X3800000Y-14800000D01*
X3800000Y-1800000D01*
D11*
D12*
X4869500Y-3372500D02*
X5044500Y-3547500D01*
X5044500Y-3372500D02*
X4869500Y-3547500D01*
X4869500Y-5307500D02*
X5044500Y-5482500D01*
X5044500Y-5307500D02*
X4869500Y-5482500D01*
X4869500Y-7242500D02*
X5044500Y-7417500D01*
X5044500Y-7242500D02*
X4869500Y-7417500D01*
X4869500Y-13047500D02*
X5044500Y-13222500D01*
X5044500Y-13047500D02*
X4869500Y-13222500D01*
X5885500Y-3372500D02*
X6060500Y-3547500D01*
X6060500Y-3372500D02*
X5885500Y-3547500D01*
X5885500Y-5307500D02*
X6060500Y-5482500D01*
X6060500Y-5307500D02*
X5885500Y-5482500D01*
X5885500Y-7242500D02*
X6060500Y-7417500D01*
X6060500Y-7242500D02*
X5885500Y-7417500D01*
X5885500Y-13047500D02*
X6060500Y-13222500D01*
X6060500Y-13047500D02*
X5885500Y-13222500D01*
X6804500Y-3372500D02*
X6979500Y-3547500D01*
X6979500Y-3372500D02*
X6804500Y-3547500D01*
X6804500Y-5307500D02*
X6979500Y-5482500D01*
X6979500Y-5307500D02*
X6804500Y-5482500D01*
X6804500Y-7242500D02*
X6979500Y-7417500D01*
X6979500Y-7242500D02*
X6804500Y-7417500D01*
X6804500Y-11112500D02*
X6979500Y-11287500D01*
X6979500Y-11112500D02*
X6804500Y-11287500D01*
X6804500Y-13047500D02*
X6979500Y-13222500D01*
X6979500Y-13047500D02*
X6804500Y-13222500D01*
X7820500Y-3372500D02*
X7995500Y-3547500D01*
X7995500Y-3372500D02*
X7820500Y-3547500D01*
X7820500Y-5307500D02*
X7995500Y-5482500D01*
X7995500Y-5307500D02*
X7820500Y-5482500D01*
X7820500Y-7242500D02*
X7995500Y-7417500D01*
X7995500Y-7242500D02*
X7820500Y-7417500D01*
X7820500Y-11112500D02*
X7995500Y-11287500D01*
X7995500Y-11112500D02*
X7820500Y-11287500D01*
X7820500Y-13047500D02*
X7995500Y-13222500D01*
X7995500Y-13047500D02*
X7820500Y-13222500D01*
X8739500Y-3372500D02*
X8914500Y-3547500D01*
X8914500Y-3372500D02*
X8739500Y-3547500D01*
X8739500Y-5307500D02*
X8914500Y-5482500D01*
X8914500Y-5307500D02*
X8739500Y-5482500D01*
X8739500Y-7242500D02*
X8914500Y-7417500D01*
X8914500Y-7242500D02*
X8739500Y-7417500D01*
X8739500Y-13047500D02*
X8914500Y-13222500D01*
X8914500Y-13047500D02*
X8739500Y-13222500D01*
X9755500Y-3372500D02*
X9930500Y-3547500D01*
X9930500Y-3372500D02*
X9755500Y-3547500D01*
X9755500Y-5307500D02*
X9930500Y-5482500D01*
X9930500Y-5307500D02*
X9755500Y-5482500D01*
X9755500Y-7242500D02*
X9930500Y-7417500D01*
X9930500Y-7242500D02*
X9755500Y-7417500D01*
X9755500Y-13047500D02*
X9930500Y-13222500D01*
X9930500Y-13047500D02*
X9755500Y-13222500D01*
X10904500Y-3372500D02*
X11079500Y-3547500D01*
X11079500Y-3372500D02*
X10904500Y-3547500D01*
X10904500Y-5307500D02*
X11079500Y-5482500D01*
X11079500Y-5307500D02*
X10904500Y-5482500D01*
X10904500Y-7242500D02*
X11079500Y-7417500D01*
X11079500Y-7242500D02*
X10904500Y-7417500D01*
X10904500Y-9177500D02*
X11079500Y-9352500D01*
X11079500Y-9177500D02*
X10904500Y-9352500D01*
X10904500Y-11112500D02*
X11079500Y-11287500D01*
X11079500Y-11112500D02*
X10904500Y-11287500D01*
X11872000Y-13047500D02*
X12047000Y-13222500D01*
X12047000Y-13047500D02*
X11872000Y-13222500D01*
X11920500Y-3372500D02*
X12095500Y-3547500D01*
X12095500Y-3372500D02*
X11920500Y-3547500D01*
X11920500Y-5307500D02*
X12095500Y-5482500D01*
X12095500Y-5307500D02*
X11920500Y-5482500D01*
X11920500Y-7242500D02*
X12095500Y-7417500D01*
X12095500Y-7242500D02*
X11920500Y-7417500D01*
X11920500Y-9177500D02*
X12095500Y-9352500D01*
X12095500Y-9177500D02*
X11920500Y-9352500D01*
X11920500Y-11112500D02*
X12095500Y-11287500D01*
X12095500Y-11112500D02*
X11920500Y-11287500D01*
X12839500Y-3372500D02*
X13014500Y-3547500D01*
X13014500Y-3372500D02*
X12839500Y-3547500D01*
X12839500Y-5307500D02*
X13014500Y-5482500D01*
X13014500Y-5307500D02*
X12839500Y-5482500D01*
X12839500Y-7242500D02*
X13014500Y-7417500D01*
X13014500Y-7242500D02*
X12839500Y-7417500D01*
X12839500Y-9177500D02*
X13014500Y-9352500D01*
X13014500Y-9177500D02*
X12839500Y-9352500D01*
X12839500Y-11112500D02*
X13014500Y-11287500D01*
X13014500Y-11112500D02*
X12839500Y-11287500D01*
X12888000Y-13047500D02*
X13063000Y-13222500D01*
X13063000Y-13047500D02*
X12888000Y-13222500D01*
X13855500Y-3372500D02*
X14030500Y-3547500D01*
X14030500Y-3372500D02*
X13855500Y-3547500D01*
X13855500Y-5307500D02*
X14030500Y-5482500D01*
X14030500Y-5307500D02*
X13855500Y-5482500D01*
X13855500Y-7242500D02*
X14030500Y-7417500D01*
X14030500Y-7242500D02*
X13855500Y-7417500D01*
X13855500Y-9177500D02*
X14030500Y-9352500D01*
X14030500Y-9177500D02*
X13855500Y-9352500D01*
X13855500Y-11112500D02*
X14030500Y-11287500D01*
X14030500Y-11112500D02*
X13855500Y-11287500D01*
X14774500Y-3372500D02*
X14949500Y-3547500D01*
X14949500Y-3372500D02*
X14774500Y-3547500D01*
X14774500Y-5307500D02*
X14949500Y-5482500D01*
X14949500Y-5307500D02*
X14774500Y-5482500D01*
X14774500Y-7242500D02*
X14949500Y-7417500D01*
X14949500Y-7242500D02*
X14774500Y-7417500D01*
X14774500Y-9177500D02*
X14949500Y-9352500D01*
X14949500Y-9177500D02*
X14774500Y-9352500D01*
X14774500Y-11112500D02*
X14949500Y-11287500D01*
X14949500Y-11112500D02*
X14774500Y-11287500D01*
X14774500Y-13047500D02*
X14949500Y-13222500D01*
X14949500Y-13047500D02*
X14774500Y-13222500D01*
X15790500Y-3372500D02*
X15965500Y-3547500D01*
X15965500Y-3372500D02*
X15790500Y-3547500D01*
X15790500Y-5307500D02*
X15965500Y-5482500D01*
X15965500Y-5307500D02*
X15790500Y-5482500D01*
X15790500Y-7242500D02*
X15965500Y-7417500D01*
X15965500Y-7242500D02*
X15790500Y-7417500D01*
X15790500Y-9177500D02*
X15965500Y-9352500D01*
X15965500Y-9177500D02*
X15790500Y-9352500D01*
X15790500Y-11112500D02*
X15965500Y-11287500D01*
X15965500Y-11112500D02*
X15790500Y-11287500D01*
X15790500Y-13047500D02*
X15965500Y-13222500D01*
X15965500Y-13047500D02*
X15790500Y-13222500D01*
X16709500Y-3372500D02*
X16884500Y-3547500D01*
X16884500Y-3372500D02*
X16709500Y-3547500D01*
X16709500Y-5307500D02*
X16884500Y-5482500D01*
X16884500Y-5307500D02*
X16709500Y-5482500D01*
X16709500Y-8210000D02*
X16884500Y-8385000D01*
X16884500Y-8210000D02*
X16709500Y-8385000D01*
X16709500Y-12080000D02*
X16884500Y-12255000D01*
X16884500Y-12080000D02*
X16709500Y-12255000D01*
X17725500Y-3372500D02*
X17900500Y-3547500D01*
X17900500Y-3372500D02*
X17725500Y-3547500D01*
X17725500Y-5307500D02*
X17900500Y-5482500D01*
X17900500Y-5307500D02*
X17725500Y-5482500D01*
X17725500Y-8210000D02*
X17900500Y-8385000D01*
X17900500Y-8210000D02*
X17725500Y-8385000D01*
X17725500Y-12080000D02*
X17900500Y-12255000D01*
X17900500Y-12080000D02*
X17725500Y-12255000D01*
D13*
X5665000Y-3460000D02*
G75*
G02*
X5265000Y-3460000I-200000J0D01*
G01*
X5265000Y-3460000D02*
G75*
G02*
X5665000Y-3460000I200000J0D01*
G01*
X5665000Y-5395000D02*
G75*
G02*
X5265000Y-5395000I-200000J0D01*
G01*
X5265000Y-5395000D02*
G75*
G02*
X5665000Y-5395000I200000J0D01*
G01*
X5665000Y-7330000D02*
G75*
G02*
X5265000Y-7330000I-200000J0D01*
G01*
X5265000Y-7330000D02*
G75*
G02*
X5665000Y-7330000I200000J0D01*
G01*
X5665000Y-13135000D02*
G75*
G02*
X5265000Y-13135000I-200000J0D01*
G01*
X5265000Y-13135000D02*
G75*
G02*
X5665000Y-13135000I200000J0D01*
G01*
X7600000Y-3460000D02*
G75*
G02*
X7200000Y-3460000I-200000J0D01*
G01*
X7200000Y-3460000D02*
G75*
G02*
X7600000Y-3460000I200000J0D01*
G01*
X7600000Y-5395000D02*
G75*
G02*
X7200000Y-5395000I-200000J0D01*
G01*
X7200000Y-5395000D02*
G75*
G02*
X7600000Y-5395000I200000J0D01*
G01*
X7600000Y-7330000D02*
G75*
G02*
X7200000Y-7330000I-200000J0D01*
G01*
X7200000Y-7330000D02*
G75*
G02*
X7600000Y-7330000I200000J0D01*
G01*
X7600000Y-11200000D02*
G75*
G02*
X7200000Y-11200000I-200000J0D01*
G01*
X7200000Y-11200000D02*
G75*
G02*
X7600000Y-11200000I200000J0D01*
G01*
X7600000Y-13135000D02*
G75*
G02*
X7200000Y-13135000I-200000J0D01*
G01*
X7200000Y-13135000D02*
G75*
G02*
X7600000Y-13135000I200000J0D01*
G01*
X9535000Y-3460000D02*
G75*
G02*
X9135000Y-3460000I-200000J0D01*
G01*
X9135000Y-3460000D02*
G75*
G02*
X9535000Y-3460000I200000J0D01*
G01*
X9535000Y-5395000D02*
G75*
G02*
X9135000Y-5395000I-200000J0D01*
G01*
X9135000Y-5395000D02*
G75*
G02*
X9535000Y-5395000I200000J0D01*
G01*
X9535000Y-7330000D02*
G75*
G02*
X9135000Y-7330000I-200000J0D01*
G01*
X9135000Y-7330000D02*
G75*
G02*
X9535000Y-7330000I200000J0D01*
G01*
X9535000Y-13135000D02*
G75*
G02*
X9135000Y-13135000I-200000J0D01*
G01*
X9135000Y-13135000D02*
G75*
G02*
X9535000Y-13135000I200000J0D01*
G01*
X11700000Y-3460000D02*
G75*
G02*
X11300000Y-3460000I-200000J0D01*
G01*
X11300000Y-3460000D02*
G75*
G02*
X11700000Y-3460000I200000J0D01*
G01*
X11700000Y-5395000D02*
G75*
G02*
X11300000Y-5395000I-200000J0D01*
G01*
X11300000Y-5395000D02*
G75*
G02*
X11700000Y-5395000I200000J0D01*
G01*
X11700000Y-7330000D02*
G75*
G02*
X11300000Y-7330000I-200000J0D01*
G01*
X11300000Y-7330000D02*
G75*
G02*
X11700000Y-7330000I200000J0D01*
G01*
X11700000Y-9265000D02*
G75*
G02*
X11300000Y-9265000I-200000J0D01*
G01*
X11300000Y-9265000D02*
G75*
G02*
X11700000Y-9265000I200000J0D01*
G01*
X11700000Y-11200000D02*
G75*
G02*
X11300000Y-11200000I-200000J0D01*
G01*
X11300000Y-11200000D02*
G75*
G02*
X11700000Y-11200000I200000J0D01*
G01*
X12667500Y-13135000D02*
G75*
G02*
X12267500Y-13135000I-200000J0D01*
G01*
X12267500Y-13135000D02*
G75*
G02*
X12667500Y-13135000I200000J0D01*
G01*
X13635000Y-3460000D02*
G75*
G02*
X13235000Y-3460000I-200000J0D01*
G01*
X13235000Y-3460000D02*
G75*
G02*
X13635000Y-3460000I200000J0D01*
G01*
X13635000Y-5395000D02*
G75*
G02*
X13235000Y-5395000I-200000J0D01*
G01*
X13235000Y-5395000D02*
G75*
G02*
X13635000Y-5395000I200000J0D01*
G01*
X13635000Y-7330000D02*
G75*
G02*
X13235000Y-7330000I-200000J0D01*
G01*
X13235000Y-7330000D02*
G75*
G02*
X13635000Y-7330000I200000J0D01*
G01*
X13635000Y-9265000D02*
G75*
G02*
X13235000Y-9265000I-200000J0D01*
G01*
X13235000Y-9265000D02*
G75*
G02*
X13635000Y-9265000I200000J0D01*
G01*
X13635000Y-11200000D02*
G75*
G02*
X13235000Y-11200000I-200000J0D01*
G01*
X13235000Y-11200000D02*
G75*
G02*
X13635000Y-11200000I200000J0D01*
G01*
X15570000Y-3460000D02*
G75*
G02*
X15170000Y-3460000I-200000J0D01*
G01*
X15170000Y-3460000D02*
G75*
G02*
X15570000Y-3460000I200000J0D01*
G01*
X15570000Y-5395000D02*
G75*
G02*
X15170000Y-5395000I-200000J0D01*
G01*
X15170000Y-5395000D02*
G75*
G02*
X15570000Y-5395000I200000J0D01*
G01*
X15570000Y-7330000D02*
G75*
G02*
X15170000Y-7330000I-200000J0D01*
G01*
X15170000Y-7330000D02*
G75*
G02*
X15570000Y-7330000I200000J0D01*
G01*
X15570000Y-9265000D02*
G75*
G02*
X15170000Y-9265000I-200000J0D01*
G01*
X15170000Y-9265000D02*
G75*
G02*
X15570000Y-9265000I200000J0D01*
G01*
X15570000Y-11200000D02*
G75*
G02*
X15170000Y-11200000I-200000J0D01*
G01*
X15170000Y-11200000D02*
G75*
G02*
X15570000Y-11200000I200000J0D01*
G01*
X15570000Y-13135000D02*
G75*
G02*
X15170000Y-13135000I-200000J0D01*
G01*
X15170000Y-13135000D02*
G75*
G02*
X15570000Y-13135000I200000J0D01*
G01*
X17505000Y-3460000D02*
G75*
G02*
X17105000Y-3460000I-200000J0D01*
G01*
X17105000Y-3460000D02*
G75*
G02*
X17505000Y-3460000I200000J0D01*
G01*
X17505000Y-5395000D02*
G75*
G02*
X17105000Y-5395000I-200000J0D01*
G01*
X17105000Y-5395000D02*
G75*
G02*
X17505000Y-5395000I200000J0D01*
G01*
X17505000Y-8297500D02*
G75*
G02*
X17105000Y-8297500I-200000J0D01*
G01*
X17105000Y-8297500D02*
G75*
G02*
X17505000Y-8297500I200000J0D01*
G01*
X17505000Y-12167500D02*
G75*
G02*
X17105000Y-12167500I-200000J0D01*
G01*
X17105000Y-12167500D02*
G75*
G02*
X17505000Y-12167500I200000J0D01*
G01*
D11*
X4058277Y-15113984D02*
X4058277Y-14913984D01*
X4058277Y-14913984D02*
X4105896Y-14913984D01*
X4105896Y-14913984D02*
X4134467Y-14923508D01*
X4134467Y-14923508D02*
X4153515Y-14942555D01*
X4153515Y-14942555D02*
X4163039Y-14961603D01*
X4163039Y-14961603D02*
X4172562Y-14999698D01*
X4172562Y-14999698D02*
X4172562Y-15028269D01*
X4172562Y-15028269D02*
X4163039Y-15066365D01*
X4163039Y-15066365D02*
X4153515Y-15085412D01*
X4153515Y-15085412D02*
X4134467Y-15104460D01*
X4134467Y-15104460D02*
X4105896Y-15113984D01*
X4105896Y-15113984D02*
X4058277Y-15113984D01*
X4258277Y-15113984D02*
X4258277Y-14980650D01*
X4258277Y-15018746D02*
X4267801Y-14999698D01*
X4267801Y-14999698D02*
X4277324Y-14990174D01*
X4277324Y-14990174D02*
X4296372Y-14980650D01*
X4296372Y-14980650D02*
X4315420Y-14980650D01*
X4382086Y-15113984D02*
X4382086Y-14980650D01*
X4382086Y-14913984D02*
X4372563Y-14923508D01*
X4372563Y-14923508D02*
X4382086Y-14933031D01*
X4382086Y-14933031D02*
X4391610Y-14923508D01*
X4391610Y-14923508D02*
X4382086Y-14913984D01*
X4382086Y-14913984D02*
X4382086Y-14933031D01*
X4505896Y-15113984D02*
X4486848Y-15104460D01*
X4486848Y-15104460D02*
X4477324Y-15085412D01*
X4477324Y-15085412D02*
X4477324Y-14913984D01*
X4610658Y-15113984D02*
X4591610Y-15104460D01*
X4591610Y-15104460D02*
X4582086Y-15085412D01*
X4582086Y-15085412D02*
X4582086Y-14913984D01*
X4839229Y-15113984D02*
X4839229Y-14913984D01*
X4839229Y-14913984D02*
X4905896Y-15056841D01*
X4905896Y-15056841D02*
X4972563Y-14913984D01*
X4972563Y-14913984D02*
X4972563Y-15113984D01*
X5153515Y-15113984D02*
X5153515Y-15009222D01*
X5153515Y-15009222D02*
X5143991Y-14990174D01*
X5143991Y-14990174D02*
X5124944Y-14980650D01*
X5124944Y-14980650D02*
X5086848Y-14980650D01*
X5086848Y-14980650D02*
X5067801Y-14990174D01*
X5153515Y-15104460D02*
X5134467Y-15113984D01*
X5134467Y-15113984D02*
X5086848Y-15113984D01*
X5086848Y-15113984D02*
X5067801Y-15104460D01*
X5067801Y-15104460D02*
X5058277Y-15085412D01*
X5058277Y-15085412D02*
X5058277Y-15066365D01*
X5058277Y-15066365D02*
X5067801Y-15047317D01*
X5067801Y-15047317D02*
X5086848Y-15037793D01*
X5086848Y-15037793D02*
X5134467Y-15037793D01*
X5134467Y-15037793D02*
X5153515Y-15028269D01*
X5248753Y-14980650D02*
X5248753Y-15180650D01*
X5248753Y-14990174D02*
X5267801Y-14980650D01*
X5267801Y-14980650D02*
X5305896Y-14980650D01*
X5305896Y-14980650D02*
X5324944Y-14990174D01*
X5324944Y-14990174D02*
X5334467Y-14999698D01*
X5334467Y-14999698D02*
X5343991Y-15018746D01*
X5343991Y-15018746D02*
X5343991Y-15075888D01*
X5343991Y-15075888D02*
X5334467Y-15094936D01*
X5334467Y-15094936D02*
X5324944Y-15104460D01*
X5324944Y-15104460D02*
X5305896Y-15113984D01*
X5305896Y-15113984D02*
X5267801Y-15113984D01*
X5267801Y-15113984D02*
X5248753Y-15104460D01*
X5429705Y-15094936D02*
X5439229Y-15104460D01*
X5439229Y-15104460D02*
X5429705Y-15113984D01*
X5429705Y-15113984D02*
X5420182Y-15104460D01*
X5420182Y-15104460D02*
X5429705Y-15094936D01*
X5429705Y-15094936D02*
X5429705Y-15113984D01*
X5429705Y-14990174D02*
X5439229Y-14999698D01*
X5439229Y-14999698D02*
X5429705Y-15009222D01*
X5429705Y-15009222D02*
X5420182Y-14999698D01*
X5420182Y-14999698D02*
X5429705Y-14990174D01*
X5429705Y-14990174D02*
X5429705Y-15009222D01*
D12*
X3622500Y-15355000D02*
X3797500Y-15530000D01*
X3797500Y-15355000D02*
X3622500Y-15530000D01*
D11*
X4163039Y-15533984D02*
X4048753Y-15533984D01*
X4105896Y-15533984D02*
X4105896Y-15333984D01*
X4105896Y-15333984D02*
X4086848Y-15362555D01*
X4086848Y-15362555D02*
X4067801Y-15381603D01*
X4067801Y-15381603D02*
X4048753Y-15391127D01*
X4248753Y-15514936D02*
X4258277Y-15524460D01*
X4258277Y-15524460D02*
X4248753Y-15533984D01*
X4248753Y-15533984D02*
X4239229Y-15524460D01*
X4239229Y-15524460D02*
X4248753Y-15514936D01*
X4248753Y-15514936D02*
X4248753Y-15533984D01*
X4324944Y-15333984D02*
X4458277Y-15333984D01*
X4458277Y-15333984D02*
X4372563Y-15533984D01*
X4629705Y-15333984D02*
X4534467Y-15333984D01*
X4534467Y-15333984D02*
X4524944Y-15429222D01*
X4524944Y-15429222D02*
X4534467Y-15419698D01*
X4534467Y-15419698D02*
X4553515Y-15410174D01*
X4553515Y-15410174D02*
X4601134Y-15410174D01*
X4601134Y-15410174D02*
X4620182Y-15419698D01*
X4620182Y-15419698D02*
X4629705Y-15429222D01*
X4629705Y-15429222D02*
X4639229Y-15448269D01*
X4639229Y-15448269D02*
X4639229Y-15495888D01*
X4639229Y-15495888D02*
X4629705Y-15514936D01*
X4629705Y-15514936D02*
X4620182Y-15524460D01*
X4620182Y-15524460D02*
X4601134Y-15533984D01*
X4601134Y-15533984D02*
X4553515Y-15533984D01*
X4553515Y-15533984D02*
X4534467Y-15524460D01*
X4534467Y-15524460D02*
X4524944Y-15514936D01*
X4763039Y-15333984D02*
X4782086Y-15333984D01*
X4782086Y-15333984D02*
X4801134Y-15343508D01*
X4801134Y-15343508D02*
X4810658Y-15353031D01*
X4810658Y-15353031D02*
X4820182Y-15372079D01*
X4820182Y-15372079D02*
X4829705Y-15410174D01*
X4829705Y-15410174D02*
X4829705Y-15457793D01*
X4829705Y-15457793D02*
X4820182Y-15495888D01*
X4820182Y-15495888D02*
X4810658Y-15514936D01*
X4810658Y-15514936D02*
X4801134Y-15524460D01*
X4801134Y-15524460D02*
X4782086Y-15533984D01*
X4782086Y-15533984D02*
X4763039Y-15533984D01*
X4763039Y-15533984D02*
X4743991Y-15524460D01*
X4743991Y-15524460D02*
X4734467Y-15514936D01*
X4734467Y-15514936D02*
X4724944Y-15495888D01*
X4724944Y-15495888D02*
X4715420Y-15457793D01*
X4715420Y-15457793D02*
X4715420Y-15410174D01*
X4715420Y-15410174D02*
X4724944Y-15372079D01*
X4724944Y-15372079D02*
X4734467Y-15353031D01*
X4734467Y-15353031D02*
X4743991Y-15343508D01*
X4743991Y-15343508D02*
X4763039Y-15333984D01*
X4915420Y-15533984D02*
X4915420Y-15400650D01*
X4915420Y-15419698D02*
X4924944Y-15410174D01*
X4924944Y-15410174D02*
X4943991Y-15400650D01*
X4943991Y-15400650D02*
X4972563Y-15400650D01*
X4972563Y-15400650D02*
X4991610Y-15410174D01*
X4991610Y-15410174D02*
X5001134Y-15429222D01*
X5001134Y-15429222D02*
X5001134Y-15533984D01*
X5001134Y-15429222D02*
X5010658Y-15410174D01*
X5010658Y-15410174D02*
X5029705Y-15400650D01*
X5029705Y-15400650D02*
X5058277Y-15400650D01*
X5058277Y-15400650D02*
X5077325Y-15410174D01*
X5077325Y-15410174D02*
X5086848Y-15429222D01*
X5086848Y-15429222D02*
X5086848Y-15533984D01*
X5182086Y-15533984D02*
X5182086Y-15400650D01*
X5182086Y-15419698D02*
X5191610Y-15410174D01*
X5191610Y-15410174D02*
X5210658Y-15400650D01*
X5210658Y-15400650D02*
X5239229Y-15400650D01*
X5239229Y-15400650D02*
X5258277Y-15410174D01*
X5258277Y-15410174D02*
X5267801Y-15429222D01*
X5267801Y-15429222D02*
X5267801Y-15533984D01*
X5267801Y-15429222D02*
X5277325Y-15410174D01*
X5277325Y-15410174D02*
X5296372Y-15400650D01*
X5296372Y-15400650D02*
X5324944Y-15400650D01*
X5324944Y-15400650D02*
X5343991Y-15410174D01*
X5343991Y-15410174D02*
X5353515Y-15429222D01*
X5353515Y-15429222D02*
X5353515Y-15533984D01*
X5743991Y-15324460D02*
X5572563Y-15581603D01*
X6001134Y-15333984D02*
X6020182Y-15333984D01*
X6020182Y-15333984D02*
X6039229Y-15343508D01*
X6039229Y-15343508D02*
X6048753Y-15353031D01*
X6048753Y-15353031D02*
X6058277Y-15372079D01*
X6058277Y-15372079D02*
X6067801Y-15410174D01*
X6067801Y-15410174D02*
X6067801Y-15457793D01*
X6067801Y-15457793D02*
X6058277Y-15495888D01*
X6058277Y-15495888D02*
X6048753Y-15514936D01*
X6048753Y-15514936D02*
X6039229Y-15524460D01*
X6039229Y-15524460D02*
X6020182Y-15533984D01*
X6020182Y-15533984D02*
X6001134Y-15533984D01*
X6001134Y-15533984D02*
X5982086Y-15524460D01*
X5982086Y-15524460D02*
X5972563Y-15514936D01*
X5972563Y-15514936D02*
X5963039Y-15495888D01*
X5963039Y-15495888D02*
X5953515Y-15457793D01*
X5953515Y-15457793D02*
X5953515Y-15410174D01*
X5953515Y-15410174D02*
X5963039Y-15372079D01*
X5963039Y-15372079D02*
X5972563Y-15353031D01*
X5972563Y-15353031D02*
X5982086Y-15343508D01*
X5982086Y-15343508D02*
X6001134Y-15333984D01*
X6153515Y-15514936D02*
X6163039Y-15524460D01*
X6163039Y-15524460D02*
X6153515Y-15533984D01*
X6153515Y-15533984D02*
X6143991Y-15524460D01*
X6143991Y-15524460D02*
X6153515Y-15514936D01*
X6153515Y-15514936D02*
X6153515Y-15533984D01*
X6286848Y-15333984D02*
X6305896Y-15333984D01*
X6305896Y-15333984D02*
X6324944Y-15343508D01*
X6324944Y-15343508D02*
X6334467Y-15353031D01*
X6334467Y-15353031D02*
X6343991Y-15372079D01*
X6343991Y-15372079D02*
X6353515Y-15410174D01*
X6353515Y-15410174D02*
X6353515Y-15457793D01*
X6353515Y-15457793D02*
X6343991Y-15495888D01*
X6343991Y-15495888D02*
X6334467Y-15514936D01*
X6334467Y-15514936D02*
X6324944Y-15524460D01*
X6324944Y-15524460D02*
X6305896Y-15533984D01*
X6305896Y-15533984D02*
X6286848Y-15533984D01*
X6286848Y-15533984D02*
X6267801Y-15524460D01*
X6267801Y-15524460D02*
X6258277Y-15514936D01*
X6258277Y-15514936D02*
X6248753Y-15495888D01*
X6248753Y-15495888D02*
X6239229Y-15457793D01*
X6239229Y-15457793D02*
X6239229Y-15410174D01*
X6239229Y-15410174D02*
X6248753Y-15372079D01*
X6248753Y-15372079D02*
X6258277Y-15353031D01*
X6258277Y-15353031D02*
X6267801Y-15343508D01*
X6267801Y-15343508D02*
X6286848Y-15333984D01*
X6524944Y-15333984D02*
X6486848Y-15333984D01*
X6486848Y-15333984D02*
X6467801Y-15343508D01*
X6467801Y-15343508D02*
X6458277Y-15353031D01*
X6458277Y-15353031D02*
X6439229Y-15381603D01*
X6439229Y-15381603D02*
X6429706Y-15419698D01*
X6429706Y-15419698D02*
X6429706Y-15495888D01*
X6429706Y-15495888D02*
X6439229Y-15514936D01*
X6439229Y-15514936D02*
X6448753Y-15524460D01*
X6448753Y-15524460D02*
X6467801Y-15533984D01*
X6467801Y-15533984D02*
X6505896Y-15533984D01*
X6505896Y-15533984D02*
X6524944Y-15524460D01*
X6524944Y-15524460D02*
X6534467Y-15514936D01*
X6534467Y-15514936D02*
X6543991Y-15495888D01*
X6543991Y-15495888D02*
X6543991Y-15448269D01*
X6543991Y-15448269D02*
X6534467Y-15429222D01*
X6534467Y-15429222D02*
X6524944Y-15419698D01*
X6524944Y-15419698D02*
X6505896Y-15410174D01*
X6505896Y-15410174D02*
X6467801Y-15410174D01*
X6467801Y-15410174D02*
X6448753Y-15419698D01*
X6448753Y-15419698D02*
X6439229Y-15429222D01*
X6439229Y-15429222D02*
X6429706Y-15448269D01*
X6658277Y-15419698D02*
X6639229Y-15410174D01*
X6639229Y-15410174D02*
X6629706Y-15400650D01*
X6629706Y-15400650D02*
X6620182Y-15381603D01*
X6620182Y-15381603D02*
X6620182Y-15372079D01*
X6620182Y-15372079D02*
X6629706Y-15353031D01*
X6629706Y-15353031D02*
X6639229Y-15343508D01*
X6639229Y-15343508D02*
X6658277Y-15333984D01*
X6658277Y-15333984D02*
X6696372Y-15333984D01*
X6696372Y-15333984D02*
X6715420Y-15343508D01*
X6715420Y-15343508D02*
X6724944Y-15353031D01*
X6724944Y-15353031D02*
X6734467Y-15372079D01*
X6734467Y-15372079D02*
X6734467Y-15381603D01*
X6734467Y-15381603D02*
X6724944Y-15400650D01*
X6724944Y-15400650D02*
X6715420Y-15410174D01*
X6715420Y-15410174D02*
X6696372Y-15419698D01*
X6696372Y-15419698D02*
X6658277Y-15419698D01*
X6658277Y-15419698D02*
X6639229Y-15429222D01*
X6639229Y-15429222D02*
X6629706Y-15438746D01*
X6629706Y-15438746D02*
X6620182Y-15457793D01*
X6620182Y-15457793D02*
X6620182Y-15495888D01*
X6620182Y-15495888D02*
X6629706Y-15514936D01*
X6629706Y-15514936D02*
X6639229Y-15524460D01*
X6639229Y-15524460D02*
X6658277Y-15533984D01*
X6658277Y-15533984D02*
X6696372Y-15533984D01*
X6696372Y-15533984D02*
X6715420Y-15524460D01*
X6715420Y-15524460D02*
X6724944Y-15514936D01*
X6724944Y-15514936D02*
X6734467Y-15495888D01*
X6734467Y-15495888D02*
X6734467Y-15457793D01*
X6734467Y-15457793D02*
X6724944Y-15438746D01*
X6724944Y-15438746D02*
X6715420Y-15429222D01*
X6715420Y-15429222D02*
X6696372Y-15419698D01*
X6829706Y-15533984D02*
X6867801Y-15533984D01*
X6867801Y-15533984D02*
X6886848Y-15524460D01*
X6886848Y-15524460D02*
X6896372Y-15514936D01*
X6896372Y-15514936D02*
X6915420Y-15486365D01*
X6915420Y-15486365D02*
X6924944Y-15448269D01*
X6924944Y-15448269D02*
X6924944Y-15372079D01*
X6924944Y-15372079D02*
X6915420Y-15353031D01*
X6915420Y-15353031D02*
X6905896Y-15343508D01*
X6905896Y-15343508D02*
X6886848Y-15333984D01*
X6886848Y-15333984D02*
X6848753Y-15333984D01*
X6848753Y-15333984D02*
X6829706Y-15343508D01*
X6829706Y-15343508D02*
X6820182Y-15353031D01*
X6820182Y-15353031D02*
X6810658Y-15372079D01*
X6810658Y-15372079D02*
X6810658Y-15419698D01*
X6810658Y-15419698D02*
X6820182Y-15438746D01*
X6820182Y-15438746D02*
X6829706Y-15448269D01*
X6829706Y-15448269D02*
X6848753Y-15457793D01*
X6848753Y-15457793D02*
X6886848Y-15457793D01*
X6886848Y-15457793D02*
X6905896Y-15448269D01*
X6905896Y-15448269D02*
X6915420Y-15438746D01*
X6915420Y-15438746D02*
X6924944Y-15419698D01*
X7001134Y-15333984D02*
X7001134Y-15372079D01*
X7077325Y-15333984D02*
X7077325Y-15372079D01*
X7372563Y-15610174D02*
X7363039Y-15600650D01*
X7363039Y-15600650D02*
X7343991Y-15572079D01*
X7343991Y-15572079D02*
X7334468Y-15553031D01*
X7334468Y-15553031D02*
X7324944Y-15524460D01*
X7324944Y-15524460D02*
X7315420Y-15476841D01*
X7315420Y-15476841D02*
X7315420Y-15438746D01*
X7315420Y-15438746D02*
X7324944Y-15391127D01*
X7324944Y-15391127D02*
X7334468Y-15362555D01*
X7334468Y-15362555D02*
X7343991Y-15343508D01*
X7343991Y-15343508D02*
X7363039Y-15314936D01*
X7363039Y-15314936D02*
X7372563Y-15305412D01*
X7534468Y-15333984D02*
X7496372Y-15333984D01*
X7496372Y-15333984D02*
X7477325Y-15343508D01*
X7477325Y-15343508D02*
X7467801Y-15353031D01*
X7467801Y-15353031D02*
X7448753Y-15381603D01*
X7448753Y-15381603D02*
X7439229Y-15419698D01*
X7439229Y-15419698D02*
X7439229Y-15495888D01*
X7439229Y-15495888D02*
X7448753Y-15514936D01*
X7448753Y-15514936D02*
X7458277Y-15524460D01*
X7458277Y-15524460D02*
X7477325Y-15533984D01*
X7477325Y-15533984D02*
X7515420Y-15533984D01*
X7515420Y-15533984D02*
X7534468Y-15524460D01*
X7534468Y-15524460D02*
X7543991Y-15514936D01*
X7543991Y-15514936D02*
X7553515Y-15495888D01*
X7553515Y-15495888D02*
X7553515Y-15448269D01*
X7553515Y-15448269D02*
X7543991Y-15429222D01*
X7543991Y-15429222D02*
X7534468Y-15419698D01*
X7534468Y-15419698D02*
X7515420Y-15410174D01*
X7515420Y-15410174D02*
X7477325Y-15410174D01*
X7477325Y-15410174D02*
X7458277Y-15419698D01*
X7458277Y-15419698D02*
X7448753Y-15429222D01*
X7448753Y-15429222D02*
X7439229Y-15448269D01*
X7667801Y-15419698D02*
X7648753Y-15410174D01*
X7648753Y-15410174D02*
X7639229Y-15400650D01*
X7639229Y-15400650D02*
X7629706Y-15381603D01*
X7629706Y-15381603D02*
X7629706Y-15372079D01*
X7629706Y-15372079D02*
X7639229Y-15353031D01*
X7639229Y-15353031D02*
X7648753Y-15343508D01*
X7648753Y-15343508D02*
X7667801Y-15333984D01*
X7667801Y-15333984D02*
X7705896Y-15333984D01*
X7705896Y-15333984D02*
X7724944Y-15343508D01*
X7724944Y-15343508D02*
X7734468Y-15353031D01*
X7734468Y-15353031D02*
X7743991Y-15372079D01*
X7743991Y-15372079D02*
X7743991Y-15381603D01*
X7743991Y-15381603D02*
X7734468Y-15400650D01*
X7734468Y-15400650D02*
X7724944Y-15410174D01*
X7724944Y-15410174D02*
X7705896Y-15419698D01*
X7705896Y-15419698D02*
X7667801Y-15419698D01*
X7667801Y-15419698D02*
X7648753Y-15429222D01*
X7648753Y-15429222D02*
X7639229Y-15438746D01*
X7639229Y-15438746D02*
X7629706Y-15457793D01*
X7629706Y-15457793D02*
X7629706Y-15495888D01*
X7629706Y-15495888D02*
X7639229Y-15514936D01*
X7639229Y-15514936D02*
X7648753Y-15524460D01*
X7648753Y-15524460D02*
X7667801Y-15533984D01*
X7667801Y-15533984D02*
X7705896Y-15533984D01*
X7705896Y-15533984D02*
X7724944Y-15524460D01*
X7724944Y-15524460D02*
X7734468Y-15514936D01*
X7734468Y-15514936D02*
X7743991Y-15495888D01*
X7743991Y-15495888D02*
X7743991Y-15457793D01*
X7743991Y-15457793D02*
X7734468Y-15438746D01*
X7734468Y-15438746D02*
X7724944Y-15429222D01*
X7724944Y-15429222D02*
X7705896Y-15419698D01*
X7982087Y-15533984D02*
X7982087Y-15333984D01*
X8067801Y-15533984D02*
X8067801Y-15429222D01*
X8067801Y-15429222D02*
X8058277Y-15410174D01*
X8058277Y-15410174D02*
X8039230Y-15400650D01*
X8039230Y-15400650D02*
X8010658Y-15400650D01*
X8010658Y-15400650D02*
X7991610Y-15410174D01*
X7991610Y-15410174D02*
X7982087Y-15419698D01*
X8191610Y-15533984D02*
X8172563Y-15524460D01*
X8172563Y-15524460D02*
X8163039Y-15514936D01*
X8163039Y-15514936D02*
X8153515Y-15495888D01*
X8153515Y-15495888D02*
X8153515Y-15438746D01*
X8153515Y-15438746D02*
X8163039Y-15419698D01*
X8163039Y-15419698D02*
X8172563Y-15410174D01*
X8172563Y-15410174D02*
X8191610Y-15400650D01*
X8191610Y-15400650D02*
X8220182Y-15400650D01*
X8220182Y-15400650D02*
X8239230Y-15410174D01*
X8239230Y-15410174D02*
X8248753Y-15419698D01*
X8248753Y-15419698D02*
X8258277Y-15438746D01*
X8258277Y-15438746D02*
X8258277Y-15495888D01*
X8258277Y-15495888D02*
X8248753Y-15514936D01*
X8248753Y-15514936D02*
X8239230Y-15524460D01*
X8239230Y-15524460D02*
X8220182Y-15533984D01*
X8220182Y-15533984D02*
X8191610Y-15533984D01*
X8372563Y-15533984D02*
X8353515Y-15524460D01*
X8353515Y-15524460D02*
X8343991Y-15505412D01*
X8343991Y-15505412D02*
X8343991Y-15333984D01*
X8524944Y-15524460D02*
X8505896Y-15533984D01*
X8505896Y-15533984D02*
X8467801Y-15533984D01*
X8467801Y-15533984D02*
X8448753Y-15524460D01*
X8448753Y-15524460D02*
X8439230Y-15505412D01*
X8439230Y-15505412D02*
X8439230Y-15429222D01*
X8439230Y-15429222D02*
X8448753Y-15410174D01*
X8448753Y-15410174D02*
X8467801Y-15400650D01*
X8467801Y-15400650D02*
X8505896Y-15400650D01*
X8505896Y-15400650D02*
X8524944Y-15410174D01*
X8524944Y-15410174D02*
X8534468Y-15429222D01*
X8534468Y-15429222D02*
X8534468Y-15448269D01*
X8534468Y-15448269D02*
X8439230Y-15467317D01*
X8610658Y-15524460D02*
X8629706Y-15533984D01*
X8629706Y-15533984D02*
X8667801Y-15533984D01*
X8667801Y-15533984D02*
X8686849Y-15524460D01*
X8686849Y-15524460D02*
X8696373Y-15505412D01*
X8696373Y-15505412D02*
X8696373Y-15495888D01*
X8696373Y-15495888D02*
X8686849Y-15476841D01*
X8686849Y-15476841D02*
X8667801Y-15467317D01*
X8667801Y-15467317D02*
X8639230Y-15467317D01*
X8639230Y-15467317D02*
X8620182Y-15457793D01*
X8620182Y-15457793D02*
X8610658Y-15438746D01*
X8610658Y-15438746D02*
X8610658Y-15429222D01*
X8610658Y-15429222D02*
X8620182Y-15410174D01*
X8620182Y-15410174D02*
X8639230Y-15400650D01*
X8639230Y-15400650D02*
X8667801Y-15400650D01*
X8667801Y-15400650D02*
X8686849Y-15410174D01*
X8763039Y-15610174D02*
X8772563Y-15600650D01*
X8772563Y-15600650D02*
X8791611Y-15572079D01*
X8791611Y-15572079D02*
X8801134Y-15553031D01*
X8801134Y-15553031D02*
X8810658Y-15524460D01*
X8810658Y-15524460D02*
X8820182Y-15476841D01*
X8820182Y-15476841D02*
X8820182Y-15438746D01*
X8820182Y-15438746D02*
X8810658Y-15391127D01*
X8810658Y-15391127D02*
X8801134Y-15362555D01*
X8801134Y-15362555D02*
X8791611Y-15343508D01*
X8791611Y-15343508D02*
X8772563Y-15314936D01*
X8772563Y-15314936D02*
X8763039Y-15305412D01*
X9124944Y-15610174D02*
X9115420Y-15600650D01*
X9115420Y-15600650D02*
X9096373Y-15572079D01*
X9096373Y-15572079D02*
X9086849Y-15553031D01*
X9086849Y-15553031D02*
X9077325Y-15524460D01*
X9077325Y-15524460D02*
X9067801Y-15476841D01*
X9067801Y-15476841D02*
X9067801Y-15438746D01*
X9067801Y-15438746D02*
X9077325Y-15391127D01*
X9077325Y-15391127D02*
X9086849Y-15362555D01*
X9086849Y-15362555D02*
X9096373Y-15343508D01*
X9096373Y-15343508D02*
X9115420Y-15314936D01*
X9115420Y-15314936D02*
X9124944Y-15305412D01*
X9201134Y-15400650D02*
X9201134Y-15533984D01*
X9201134Y-15419698D02*
X9210658Y-15410174D01*
X9210658Y-15410174D02*
X9229706Y-15400650D01*
X9229706Y-15400650D02*
X9258277Y-15400650D01*
X9258277Y-15400650D02*
X9277325Y-15410174D01*
X9277325Y-15410174D02*
X9286849Y-15429222D01*
X9286849Y-15429222D02*
X9286849Y-15533984D01*
X9410658Y-15533984D02*
X9391611Y-15524460D01*
X9391611Y-15524460D02*
X9382087Y-15514936D01*
X9382087Y-15514936D02*
X9372563Y-15495888D01*
X9372563Y-15495888D02*
X9372563Y-15438746D01*
X9372563Y-15438746D02*
X9382087Y-15419698D01*
X9382087Y-15419698D02*
X9391611Y-15410174D01*
X9391611Y-15410174D02*
X9410658Y-15400650D01*
X9410658Y-15400650D02*
X9439230Y-15400650D01*
X9439230Y-15400650D02*
X9458277Y-15410174D01*
X9458277Y-15410174D02*
X9467801Y-15419698D01*
X9467801Y-15419698D02*
X9477325Y-15438746D01*
X9477325Y-15438746D02*
X9477325Y-15495888D01*
X9477325Y-15495888D02*
X9467801Y-15514936D01*
X9467801Y-15514936D02*
X9458277Y-15524460D01*
X9458277Y-15524460D02*
X9439230Y-15533984D01*
X9439230Y-15533984D02*
X9410658Y-15533984D01*
X9534468Y-15400650D02*
X9610658Y-15400650D01*
X9563039Y-15333984D02*
X9563039Y-15505412D01*
X9563039Y-15505412D02*
X9572563Y-15524460D01*
X9572563Y-15524460D02*
X9591611Y-15533984D01*
X9591611Y-15533984D02*
X9610658Y-15533984D01*
X9829706Y-15400650D02*
X9829706Y-15600650D01*
X9829706Y-15410174D02*
X9848754Y-15400650D01*
X9848754Y-15400650D02*
X9886849Y-15400650D01*
X9886849Y-15400650D02*
X9905896Y-15410174D01*
X9905896Y-15410174D02*
X9915420Y-15419698D01*
X9915420Y-15419698D02*
X9924944Y-15438746D01*
X9924944Y-15438746D02*
X9924944Y-15495888D01*
X9924944Y-15495888D02*
X9915420Y-15514936D01*
X9915420Y-15514936D02*
X9905896Y-15524460D01*
X9905896Y-15524460D02*
X9886849Y-15533984D01*
X9886849Y-15533984D02*
X9848754Y-15533984D01*
X9848754Y-15533984D02*
X9829706Y-15524460D01*
X10039230Y-15533984D02*
X10020182Y-15524460D01*
X10020182Y-15524460D02*
X10010658Y-15505412D01*
X10010658Y-15505412D02*
X10010658Y-15333984D01*
X10201135Y-15533984D02*
X10201135Y-15429222D01*
X10201135Y-15429222D02*
X10191611Y-15410174D01*
X10191611Y-15410174D02*
X10172563Y-15400650D01*
X10172563Y-15400650D02*
X10134468Y-15400650D01*
X10134468Y-15400650D02*
X10115420Y-15410174D01*
X10201135Y-15524460D02*
X10182087Y-15533984D01*
X10182087Y-15533984D02*
X10134468Y-15533984D01*
X10134468Y-15533984D02*
X10115420Y-15524460D01*
X10115420Y-15524460D02*
X10105896Y-15505412D01*
X10105896Y-15505412D02*
X10105896Y-15486365D01*
X10105896Y-15486365D02*
X10115420Y-15467317D01*
X10115420Y-15467317D02*
X10134468Y-15457793D01*
X10134468Y-15457793D02*
X10182087Y-15457793D01*
X10182087Y-15457793D02*
X10201135Y-15448269D01*
X10267801Y-15400650D02*
X10343992Y-15400650D01*
X10296373Y-15333984D02*
X10296373Y-15505412D01*
X10296373Y-15505412D02*
X10305896Y-15524460D01*
X10305896Y-15524460D02*
X10324944Y-15533984D01*
X10324944Y-15533984D02*
X10343992Y-15533984D01*
X10486849Y-15524460D02*
X10467801Y-15533984D01*
X10467801Y-15533984D02*
X10429706Y-15533984D01*
X10429706Y-15533984D02*
X10410658Y-15524460D01*
X10410658Y-15524460D02*
X10401135Y-15505412D01*
X10401135Y-15505412D02*
X10401135Y-15429222D01*
X10401135Y-15429222D02*
X10410658Y-15410174D01*
X10410658Y-15410174D02*
X10429706Y-15400650D01*
X10429706Y-15400650D02*
X10467801Y-15400650D01*
X10467801Y-15400650D02*
X10486849Y-15410174D01*
X10486849Y-15410174D02*
X10496373Y-15429222D01*
X10496373Y-15429222D02*
X10496373Y-15448269D01*
X10496373Y-15448269D02*
X10401135Y-15467317D01*
X10667801Y-15533984D02*
X10667801Y-15333984D01*
X10667801Y-15524460D02*
X10648754Y-15533984D01*
X10648754Y-15533984D02*
X10610658Y-15533984D01*
X10610658Y-15533984D02*
X10591611Y-15524460D01*
X10591611Y-15524460D02*
X10582087Y-15514936D01*
X10582087Y-15514936D02*
X10572563Y-15495888D01*
X10572563Y-15495888D02*
X10572563Y-15438746D01*
X10572563Y-15438746D02*
X10582087Y-15419698D01*
X10582087Y-15419698D02*
X10591611Y-15410174D01*
X10591611Y-15410174D02*
X10610658Y-15400650D01*
X10610658Y-15400650D02*
X10648754Y-15400650D01*
X10648754Y-15400650D02*
X10667801Y-15410174D01*
X10743992Y-15610174D02*
X10753516Y-15600650D01*
X10753516Y-15600650D02*
X10772563Y-15572079D01*
X10772563Y-15572079D02*
X10782087Y-15553031D01*
X10782087Y-15553031D02*
X10791611Y-15524460D01*
X10791611Y-15524460D02*
X10801135Y-15476841D01*
X10801135Y-15476841D02*
X10801135Y-15438746D01*
X10801135Y-15438746D02*
X10791611Y-15391127D01*
X10791611Y-15391127D02*
X10782087Y-15362555D01*
X10782087Y-15362555D02*
X10772563Y-15343508D01*
X10772563Y-15343508D02*
X10753516Y-15314936D01*
X10753516Y-15314936D02*
X10743992Y-15305412D01*
X3797500Y-15737500D02*
G75*
G02*
X3597500Y-15737500I-100000J0D01*
G01*
X3597500Y-15737500D02*
G75*
G02*
X3797500Y-15737500I100000J0D01*
G01*
X4143991Y-15695650D02*
X4143991Y-15828984D01*
X4096372Y-15619460D02*
X4048753Y-15762317D01*
X4048753Y-15762317D02*
X4172562Y-15762317D01*
X4248753Y-15809936D02*
X4258277Y-15819460D01*
X4258277Y-15819460D02*
X4248753Y-15828984D01*
X4248753Y-15828984D02*
X4239229Y-15819460D01*
X4239229Y-15819460D02*
X4248753Y-15809936D01*
X4248753Y-15809936D02*
X4248753Y-15828984D01*
X4382086Y-15628984D02*
X4401134Y-15628984D01*
X4401134Y-15628984D02*
X4420182Y-15638508D01*
X4420182Y-15638508D02*
X4429705Y-15648031D01*
X4429705Y-15648031D02*
X4439229Y-15667079D01*
X4439229Y-15667079D02*
X4448753Y-15705174D01*
X4448753Y-15705174D02*
X4448753Y-15752793D01*
X4448753Y-15752793D02*
X4439229Y-15790888D01*
X4439229Y-15790888D02*
X4429705Y-15809936D01*
X4429705Y-15809936D02*
X4420182Y-15819460D01*
X4420182Y-15819460D02*
X4401134Y-15828984D01*
X4401134Y-15828984D02*
X4382086Y-15828984D01*
X4382086Y-15828984D02*
X4363039Y-15819460D01*
X4363039Y-15819460D02*
X4353515Y-15809936D01*
X4353515Y-15809936D02*
X4343991Y-15790888D01*
X4343991Y-15790888D02*
X4334467Y-15752793D01*
X4334467Y-15752793D02*
X4334467Y-15705174D01*
X4334467Y-15705174D02*
X4343991Y-15667079D01*
X4343991Y-15667079D02*
X4353515Y-15648031D01*
X4353515Y-15648031D02*
X4363039Y-15638508D01*
X4363039Y-15638508D02*
X4382086Y-15628984D01*
X4572563Y-15628984D02*
X4591610Y-15628984D01*
X4591610Y-15628984D02*
X4610658Y-15638508D01*
X4610658Y-15638508D02*
X4620182Y-15648031D01*
X4620182Y-15648031D02*
X4629705Y-15667079D01*
X4629705Y-15667079D02*
X4639229Y-15705174D01*
X4639229Y-15705174D02*
X4639229Y-15752793D01*
X4639229Y-15752793D02*
X4629705Y-15790888D01*
X4629705Y-15790888D02*
X4620182Y-15809936D01*
X4620182Y-15809936D02*
X4610658Y-15819460D01*
X4610658Y-15819460D02*
X4591610Y-15828984D01*
X4591610Y-15828984D02*
X4572563Y-15828984D01*
X4572563Y-15828984D02*
X4553515Y-15819460D01*
X4553515Y-15819460D02*
X4543991Y-15809936D01*
X4543991Y-15809936D02*
X4534467Y-15790888D01*
X4534467Y-15790888D02*
X4524944Y-15752793D01*
X4524944Y-15752793D02*
X4524944Y-15705174D01*
X4524944Y-15705174D02*
X4534467Y-15667079D01*
X4534467Y-15667079D02*
X4543991Y-15648031D01*
X4543991Y-15648031D02*
X4553515Y-15638508D01*
X4553515Y-15638508D02*
X4572563Y-15628984D01*
X4763039Y-15628984D02*
X4782086Y-15628984D01*
X4782086Y-15628984D02*
X4801134Y-15638508D01*
X4801134Y-15638508D02*
X4810658Y-15648031D01*
X4810658Y-15648031D02*
X4820182Y-15667079D01*
X4820182Y-15667079D02*
X4829705Y-15705174D01*
X4829705Y-15705174D02*
X4829705Y-15752793D01*
X4829705Y-15752793D02*
X4820182Y-15790888D01*
X4820182Y-15790888D02*
X4810658Y-15809936D01*
X4810658Y-15809936D02*
X4801134Y-15819460D01*
X4801134Y-15819460D02*
X4782086Y-15828984D01*
X4782086Y-15828984D02*
X4763039Y-15828984D01*
X4763039Y-15828984D02*
X4743991Y-15819460D01*
X4743991Y-15819460D02*
X4734467Y-15809936D01*
X4734467Y-15809936D02*
X4724944Y-15790888D01*
X4724944Y-15790888D02*
X4715420Y-15752793D01*
X4715420Y-15752793D02*
X4715420Y-15705174D01*
X4715420Y-15705174D02*
X4724944Y-15667079D01*
X4724944Y-15667079D02*
X4734467Y-15648031D01*
X4734467Y-15648031D02*
X4743991Y-15638508D01*
X4743991Y-15638508D02*
X4763039Y-15628984D01*
X4915420Y-15828984D02*
X4915420Y-15695650D01*
X4915420Y-15714698D02*
X4924944Y-15705174D01*
X4924944Y-15705174D02*
X4943991Y-15695650D01*
X4943991Y-15695650D02*
X4972563Y-15695650D01*
X4972563Y-15695650D02*
X4991610Y-15705174D01*
X4991610Y-15705174D02*
X5001134Y-15724222D01*
X5001134Y-15724222D02*
X5001134Y-15828984D01*
X5001134Y-15724222D02*
X5010658Y-15705174D01*
X5010658Y-15705174D02*
X5029705Y-15695650D01*
X5029705Y-15695650D02*
X5058277Y-15695650D01*
X5058277Y-15695650D02*
X5077325Y-15705174D01*
X5077325Y-15705174D02*
X5086848Y-15724222D01*
X5086848Y-15724222D02*
X5086848Y-15828984D01*
X5182086Y-15828984D02*
X5182086Y-15695650D01*
X5182086Y-15714698D02*
X5191610Y-15705174D01*
X5191610Y-15705174D02*
X5210658Y-15695650D01*
X5210658Y-15695650D02*
X5239229Y-15695650D01*
X5239229Y-15695650D02*
X5258277Y-15705174D01*
X5258277Y-15705174D02*
X5267801Y-15724222D01*
X5267801Y-15724222D02*
X5267801Y-15828984D01*
X5267801Y-15724222D02*
X5277325Y-15705174D01*
X5277325Y-15705174D02*
X5296372Y-15695650D01*
X5296372Y-15695650D02*
X5324944Y-15695650D01*
X5324944Y-15695650D02*
X5343991Y-15705174D01*
X5343991Y-15705174D02*
X5353515Y-15724222D01*
X5353515Y-15724222D02*
X5353515Y-15828984D01*
X5743991Y-15619460D02*
X5572563Y-15876603D01*
X6001134Y-15628984D02*
X6020182Y-15628984D01*
X6020182Y-15628984D02*
X6039229Y-15638508D01*
X6039229Y-15638508D02*
X6048753Y-15648031D01*
X6048753Y-15648031D02*
X6058277Y-15667079D01*
X6058277Y-15667079D02*
X6067801Y-15705174D01*
X6067801Y-15705174D02*
X6067801Y-15752793D01*
X6067801Y-15752793D02*
X6058277Y-15790888D01*
X6058277Y-15790888D02*
X6048753Y-15809936D01*
X6048753Y-15809936D02*
X6039229Y-15819460D01*
X6039229Y-15819460D02*
X6020182Y-15828984D01*
X6020182Y-15828984D02*
X6001134Y-15828984D01*
X6001134Y-15828984D02*
X5982086Y-15819460D01*
X5982086Y-15819460D02*
X5972563Y-15809936D01*
X5972563Y-15809936D02*
X5963039Y-15790888D01*
X5963039Y-15790888D02*
X5953515Y-15752793D01*
X5953515Y-15752793D02*
X5953515Y-15705174D01*
X5953515Y-15705174D02*
X5963039Y-15667079D01*
X5963039Y-15667079D02*
X5972563Y-15648031D01*
X5972563Y-15648031D02*
X5982086Y-15638508D01*
X5982086Y-15638508D02*
X6001134Y-15628984D01*
X6153515Y-15809936D02*
X6163039Y-15819460D01*
X6163039Y-15819460D02*
X6153515Y-15828984D01*
X6153515Y-15828984D02*
X6143991Y-15819460D01*
X6143991Y-15819460D02*
X6153515Y-15809936D01*
X6153515Y-15809936D02*
X6153515Y-15828984D01*
X6353515Y-15828984D02*
X6239229Y-15828984D01*
X6296372Y-15828984D02*
X6296372Y-15628984D01*
X6296372Y-15628984D02*
X6277325Y-15657555D01*
X6277325Y-15657555D02*
X6258277Y-15676603D01*
X6258277Y-15676603D02*
X6239229Y-15686127D01*
X6534467Y-15628984D02*
X6439229Y-15628984D01*
X6439229Y-15628984D02*
X6429706Y-15724222D01*
X6429706Y-15724222D02*
X6439229Y-15714698D01*
X6439229Y-15714698D02*
X6458277Y-15705174D01*
X6458277Y-15705174D02*
X6505896Y-15705174D01*
X6505896Y-15705174D02*
X6524944Y-15714698D01*
X6524944Y-15714698D02*
X6534467Y-15724222D01*
X6534467Y-15724222D02*
X6543991Y-15743269D01*
X6543991Y-15743269D02*
X6543991Y-15790888D01*
X6543991Y-15790888D02*
X6534467Y-15809936D01*
X6534467Y-15809936D02*
X6524944Y-15819460D01*
X6524944Y-15819460D02*
X6505896Y-15828984D01*
X6505896Y-15828984D02*
X6458277Y-15828984D01*
X6458277Y-15828984D02*
X6439229Y-15819460D01*
X6439229Y-15819460D02*
X6429706Y-15809936D01*
X6610658Y-15628984D02*
X6743991Y-15628984D01*
X6743991Y-15628984D02*
X6658277Y-15828984D01*
X6915420Y-15628984D02*
X6820182Y-15628984D01*
X6820182Y-15628984D02*
X6810658Y-15724222D01*
X6810658Y-15724222D02*
X6820182Y-15714698D01*
X6820182Y-15714698D02*
X6839229Y-15705174D01*
X6839229Y-15705174D02*
X6886848Y-15705174D01*
X6886848Y-15705174D02*
X6905896Y-15714698D01*
X6905896Y-15714698D02*
X6915420Y-15724222D01*
X6915420Y-15724222D02*
X6924944Y-15743269D01*
X6924944Y-15743269D02*
X6924944Y-15790888D01*
X6924944Y-15790888D02*
X6915420Y-15809936D01*
X6915420Y-15809936D02*
X6905896Y-15819460D01*
X6905896Y-15819460D02*
X6886848Y-15828984D01*
X6886848Y-15828984D02*
X6839229Y-15828984D01*
X6839229Y-15828984D02*
X6820182Y-15819460D01*
X6820182Y-15819460D02*
X6810658Y-15809936D01*
X7001134Y-15628984D02*
X7001134Y-15667079D01*
X7077325Y-15628984D02*
X7077325Y-15667079D01*
X7372563Y-15905174D02*
X7363039Y-15895650D01*
X7363039Y-15895650D02*
X7343991Y-15867079D01*
X7343991Y-15867079D02*
X7334468Y-15848031D01*
X7334468Y-15848031D02*
X7324944Y-15819460D01*
X7324944Y-15819460D02*
X7315420Y-15771841D01*
X7315420Y-15771841D02*
X7315420Y-15733746D01*
X7315420Y-15733746D02*
X7324944Y-15686127D01*
X7324944Y-15686127D02*
X7334468Y-15657555D01*
X7334468Y-15657555D02*
X7343991Y-15638508D01*
X7343991Y-15638508D02*
X7363039Y-15609936D01*
X7363039Y-15609936D02*
X7372563Y-15600412D01*
X7429706Y-15628984D02*
X7553515Y-15628984D01*
X7553515Y-15628984D02*
X7486848Y-15705174D01*
X7486848Y-15705174D02*
X7515420Y-15705174D01*
X7515420Y-15705174D02*
X7534468Y-15714698D01*
X7534468Y-15714698D02*
X7543991Y-15724222D01*
X7543991Y-15724222D02*
X7553515Y-15743269D01*
X7553515Y-15743269D02*
X7553515Y-15790888D01*
X7553515Y-15790888D02*
X7543991Y-15809936D01*
X7543991Y-15809936D02*
X7534468Y-15819460D01*
X7534468Y-15819460D02*
X7515420Y-15828984D01*
X7515420Y-15828984D02*
X7458277Y-15828984D01*
X7458277Y-15828984D02*
X7439229Y-15819460D01*
X7439229Y-15819460D02*
X7429706Y-15809936D01*
X7724944Y-15695650D02*
X7724944Y-15828984D01*
X7677325Y-15619460D02*
X7629706Y-15762317D01*
X7629706Y-15762317D02*
X7753515Y-15762317D01*
X7982087Y-15828984D02*
X7982087Y-15628984D01*
X8067801Y-15828984D02*
X8067801Y-15724222D01*
X8067801Y-15724222D02*
X8058277Y-15705174D01*
X8058277Y-15705174D02*
X8039230Y-15695650D01*
X8039230Y-15695650D02*
X8010658Y-15695650D01*
X8010658Y-15695650D02*
X7991610Y-15705174D01*
X7991610Y-15705174D02*
X7982087Y-15714698D01*
X8191610Y-15828984D02*
X8172563Y-15819460D01*
X8172563Y-15819460D02*
X8163039Y-15809936D01*
X8163039Y-15809936D02*
X8153515Y-15790888D01*
X8153515Y-15790888D02*
X8153515Y-15733746D01*
X8153515Y-15733746D02*
X8163039Y-15714698D01*
X8163039Y-15714698D02*
X8172563Y-15705174D01*
X8172563Y-15705174D02*
X8191610Y-15695650D01*
X8191610Y-15695650D02*
X8220182Y-15695650D01*
X8220182Y-15695650D02*
X8239230Y-15705174D01*
X8239230Y-15705174D02*
X8248753Y-15714698D01*
X8248753Y-15714698D02*
X8258277Y-15733746D01*
X8258277Y-15733746D02*
X8258277Y-15790888D01*
X8258277Y-15790888D02*
X8248753Y-15809936D01*
X8248753Y-15809936D02*
X8239230Y-15819460D01*
X8239230Y-15819460D02*
X8220182Y-15828984D01*
X8220182Y-15828984D02*
X8191610Y-15828984D01*
X8372563Y-15828984D02*
X8353515Y-15819460D01*
X8353515Y-15819460D02*
X8343991Y-15800412D01*
X8343991Y-15800412D02*
X8343991Y-15628984D01*
X8524944Y-15819460D02*
X8505896Y-15828984D01*
X8505896Y-15828984D02*
X8467801Y-15828984D01*
X8467801Y-15828984D02*
X8448753Y-15819460D01*
X8448753Y-15819460D02*
X8439230Y-15800412D01*
X8439230Y-15800412D02*
X8439230Y-15724222D01*
X8439230Y-15724222D02*
X8448753Y-15705174D01*
X8448753Y-15705174D02*
X8467801Y-15695650D01*
X8467801Y-15695650D02*
X8505896Y-15695650D01*
X8505896Y-15695650D02*
X8524944Y-15705174D01*
X8524944Y-15705174D02*
X8534468Y-15724222D01*
X8534468Y-15724222D02*
X8534468Y-15743269D01*
X8534468Y-15743269D02*
X8439230Y-15762317D01*
X8610658Y-15819460D02*
X8629706Y-15828984D01*
X8629706Y-15828984D02*
X8667801Y-15828984D01*
X8667801Y-15828984D02*
X8686849Y-15819460D01*
X8686849Y-15819460D02*
X8696373Y-15800412D01*
X8696373Y-15800412D02*
X8696373Y-15790888D01*
X8696373Y-15790888D02*
X8686849Y-15771841D01*
X8686849Y-15771841D02*
X8667801Y-15762317D01*
X8667801Y-15762317D02*
X8639230Y-15762317D01*
X8639230Y-15762317D02*
X8620182Y-15752793D01*
X8620182Y-15752793D02*
X8610658Y-15733746D01*
X8610658Y-15733746D02*
X8610658Y-15724222D01*
X8610658Y-15724222D02*
X8620182Y-15705174D01*
X8620182Y-15705174D02*
X8639230Y-15695650D01*
X8639230Y-15695650D02*
X8667801Y-15695650D01*
X8667801Y-15695650D02*
X8686849Y-15705174D01*
X8763039Y-15905174D02*
X8772563Y-15895650D01*
X8772563Y-15895650D02*
X8791611Y-15867079D01*
X8791611Y-15867079D02*
X8801134Y-15848031D01*
X8801134Y-15848031D02*
X8810658Y-15819460D01*
X8810658Y-15819460D02*
X8820182Y-15771841D01*
X8820182Y-15771841D02*
X8820182Y-15733746D01*
X8820182Y-15733746D02*
X8810658Y-15686127D01*
X8810658Y-15686127D02*
X8801134Y-15657555D01*
X8801134Y-15657555D02*
X8791611Y-15638508D01*
X8791611Y-15638508D02*
X8772563Y-15609936D01*
X8772563Y-15609936D02*
X8763039Y-15600412D01*
X9124944Y-15905174D02*
X9115420Y-15895650D01*
X9115420Y-15895650D02*
X9096373Y-15867079D01*
X9096373Y-15867079D02*
X9086849Y-15848031D01*
X9086849Y-15848031D02*
X9077325Y-15819460D01*
X9077325Y-15819460D02*
X9067801Y-15771841D01*
X9067801Y-15771841D02*
X9067801Y-15733746D01*
X9067801Y-15733746D02*
X9077325Y-15686127D01*
X9077325Y-15686127D02*
X9086849Y-15657555D01*
X9086849Y-15657555D02*
X9096373Y-15638508D01*
X9096373Y-15638508D02*
X9115420Y-15609936D01*
X9115420Y-15609936D02*
X9124944Y-15600412D01*
X9201134Y-15695650D02*
X9201134Y-15828984D01*
X9201134Y-15714698D02*
X9210658Y-15705174D01*
X9210658Y-15705174D02*
X9229706Y-15695650D01*
X9229706Y-15695650D02*
X9258277Y-15695650D01*
X9258277Y-15695650D02*
X9277325Y-15705174D01*
X9277325Y-15705174D02*
X9286849Y-15724222D01*
X9286849Y-15724222D02*
X9286849Y-15828984D01*
X9410658Y-15828984D02*
X9391611Y-15819460D01*
X9391611Y-15819460D02*
X9382087Y-15809936D01*
X9382087Y-15809936D02*
X9372563Y-15790888D01*
X9372563Y-15790888D02*
X9372563Y-15733746D01*
X9372563Y-15733746D02*
X9382087Y-15714698D01*
X9382087Y-15714698D02*
X9391611Y-15705174D01*
X9391611Y-15705174D02*
X9410658Y-15695650D01*
X9410658Y-15695650D02*
X9439230Y-15695650D01*
X9439230Y-15695650D02*
X9458277Y-15705174D01*
X9458277Y-15705174D02*
X9467801Y-15714698D01*
X9467801Y-15714698D02*
X9477325Y-15733746D01*
X9477325Y-15733746D02*
X9477325Y-15790888D01*
X9477325Y-15790888D02*
X9467801Y-15809936D01*
X9467801Y-15809936D02*
X9458277Y-15819460D01*
X9458277Y-15819460D02*
X9439230Y-15828984D01*
X9439230Y-15828984D02*
X9410658Y-15828984D01*
X9534468Y-15695650D02*
X9610658Y-15695650D01*
X9563039Y-15628984D02*
X9563039Y-15800412D01*
X9563039Y-15800412D02*
X9572563Y-15819460D01*
X9572563Y-15819460D02*
X9591611Y-15828984D01*
X9591611Y-15828984D02*
X9610658Y-15828984D01*
X9829706Y-15695650D02*
X9829706Y-15895650D01*
X9829706Y-15705174D02*
X9848754Y-15695650D01*
X9848754Y-15695650D02*
X9886849Y-15695650D01*
X9886849Y-15695650D02*
X9905896Y-15705174D01*
X9905896Y-15705174D02*
X9915420Y-15714698D01*
X9915420Y-15714698D02*
X9924944Y-15733746D01*
X9924944Y-15733746D02*
X9924944Y-15790888D01*
X9924944Y-15790888D02*
X9915420Y-15809936D01*
X9915420Y-15809936D02*
X9905896Y-15819460D01*
X9905896Y-15819460D02*
X9886849Y-15828984D01*
X9886849Y-15828984D02*
X9848754Y-15828984D01*
X9848754Y-15828984D02*
X9829706Y-15819460D01*
X10039230Y-15828984D02*
X10020182Y-15819460D01*
X10020182Y-15819460D02*
X10010658Y-15800412D01*
X10010658Y-15800412D02*
X10010658Y-15628984D01*
X10201135Y-15828984D02*
X10201135Y-15724222D01*
X10201135Y-15724222D02*
X10191611Y-15705174D01*
X10191611Y-15705174D02*
X10172563Y-15695650D01*
X10172563Y-15695650D02*
X10134468Y-15695650D01*
X10134468Y-15695650D02*
X10115420Y-15705174D01*
X10201135Y-15819460D02*
X10182087Y-15828984D01*
X10182087Y-15828984D02*
X10134468Y-15828984D01*
X10134468Y-15828984D02*
X10115420Y-15819460D01*
X10115420Y-15819460D02*
X10105896Y-15800412D01*
X10105896Y-15800412D02*
X10105896Y-15781365D01*
X10105896Y-15781365D02*
X10115420Y-15762317D01*
X10115420Y-15762317D02*
X10134468Y-15752793D01*
X10134468Y-15752793D02*
X10182087Y-15752793D01*
X10182087Y-15752793D02*
X10201135Y-15743269D01*
X10267801Y-15695650D02*
X10343992Y-15695650D01*
X10296373Y-15628984D02*
X10296373Y-15800412D01*
X10296373Y-15800412D02*
X10305896Y-15819460D01*
X10305896Y-15819460D02*
X10324944Y-15828984D01*
X10324944Y-15828984D02*
X10343992Y-15828984D01*
X10486849Y-15819460D02*
X10467801Y-15828984D01*
X10467801Y-15828984D02*
X10429706Y-15828984D01*
X10429706Y-15828984D02*
X10410658Y-15819460D01*
X10410658Y-15819460D02*
X10401135Y-15800412D01*
X10401135Y-15800412D02*
X10401135Y-15724222D01*
X10401135Y-15724222D02*
X10410658Y-15705174D01*
X10410658Y-15705174D02*
X10429706Y-15695650D01*
X10429706Y-15695650D02*
X10467801Y-15695650D01*
X10467801Y-15695650D02*
X10486849Y-15705174D01*
X10486849Y-15705174D02*
X10496373Y-15724222D01*
X10496373Y-15724222D02*
X10496373Y-15743269D01*
X10496373Y-15743269D02*
X10401135Y-15762317D01*
X10667801Y-15828984D02*
X10667801Y-15628984D01*
X10667801Y-15819460D02*
X10648754Y-15828984D01*
X10648754Y-15828984D02*
X10610658Y-15828984D01*
X10610658Y-15828984D02*
X10591611Y-15819460D01*
X10591611Y-15819460D02*
X10582087Y-15809936D01*
X10582087Y-15809936D02*
X10572563Y-15790888D01*
X10572563Y-15790888D02*
X10572563Y-15733746D01*
X10572563Y-15733746D02*
X10582087Y-15714698D01*
X10582087Y-15714698D02*
X10591611Y-15705174D01*
X10591611Y-15705174D02*
X10610658Y-15695650D01*
X10610658Y-15695650D02*
X10648754Y-15695650D01*
X10648754Y-15695650D02*
X10667801Y-15705174D01*
X10743992Y-15905174D02*
X10753516Y-15895650D01*
X10753516Y-15895650D02*
X10772563Y-15867079D01*
X10772563Y-15867079D02*
X10782087Y-15848031D01*
X10782087Y-15848031D02*
X10791611Y-15819460D01*
X10791611Y-15819460D02*
X10801135Y-15771841D01*
X10801135Y-15771841D02*
X10801135Y-15733746D01*
X10801135Y-15733746D02*
X10791611Y-15686127D01*
X10791611Y-15686127D02*
X10782087Y-15657555D01*
X10782087Y-15657555D02*
X10772563Y-15638508D01*
X10772563Y-15638508D02*
X10753516Y-15609936D01*
X10753516Y-15609936D02*
X10743992Y-15600412D01*
M02*
