%TF.GenerationSoftware,KiCad,Pcbnew,8.0.3*%
%TF.CreationDate,2024-06-29T11:43:42-07:00*%
%TF.ProjectId,CustomKeyboard,43757374-6f6d-44b6-9579-626f6172642e,rev?*%
%TF.SameCoordinates,Original*%
%TF.FileFunction,Drillmap*%
%TF.FilePolarity,Positive*%
%FSLAX45Y45*%
G04 Gerber Fmt 4.5, Leading zero omitted, Abs format (unit mm)*
G04 Created by KiCad (PCBNEW 8.0.3) date 2024-06-29 11:43:42*
%MOMM*%
%LPD*%
G01*
G04 APERTURE LIST*
%ADD10C,0.050000*%
%ADD11C,0.200000*%
%ADD12C,0.170000*%
%ADD13C,0.175000*%
%ADD14C,0.305000*%
%ADD15C,0.400000*%
G04 APERTURE END LIST*
D10*
X32558000Y-16510000D02*
G75*
G02*
X31958000Y-16510000I-300000J0D01*
G01*
X31958000Y-16510000D02*
G75*
G02*
X32558000Y-16510000I300000J0D01*
G01*
X3856000Y-16510000D02*
G75*
G02*
X3256000Y-16510000I-300000J0D01*
G01*
X3256000Y-16510000D02*
G75*
G02*
X3856000Y-16510000I300000J0D01*
G01*
X32558000Y-2032000D02*
G75*
G02*
X31958000Y-2032000I-300000J0D01*
G01*
X31958000Y-2032000D02*
G75*
G02*
X32558000Y-2032000I300000J0D01*
G01*
X3856000Y-2032000D02*
G75*
G02*
X3256000Y-2032000I-300000J0D01*
G01*
X3256000Y-2032000D02*
G75*
G02*
X3856000Y-2032000I300000J0D01*
G01*
X2768600Y-1442600D02*
X33020000Y-1442600D01*
X33020000Y-17272000D01*
X2768600Y-17272000D01*
X2768600Y-1442600D01*
D11*
D12*
X3867000Y-14975000D02*
X4037000Y-15145000D01*
X4037000Y-14975000D02*
X3867000Y-15145000D01*
X4107000Y-9145000D02*
X4277000Y-9315000D01*
X4277000Y-9145000D02*
X4107000Y-9315000D01*
X4345000Y-11083000D02*
X4515000Y-11253000D01*
X4515000Y-11083000D02*
X4345000Y-11253000D01*
X4819000Y-13025000D02*
X4989000Y-13195000D01*
X4989000Y-13025000D02*
X4819000Y-13195000D01*
X4883000Y-14975000D02*
X5053000Y-15145000D01*
X5053000Y-14975000D02*
X4883000Y-15145000D01*
X5123000Y-9145000D02*
X5293000Y-9315000D01*
X5293000Y-9145000D02*
X5123000Y-9315000D01*
X5361000Y-11083000D02*
X5531000Y-11253000D01*
X5531000Y-11083000D02*
X5361000Y-11253000D01*
X5835000Y-13025000D02*
X6005000Y-13195000D01*
X6005000Y-13025000D02*
X5835000Y-13195000D01*
X6297000Y-14975000D02*
X6467000Y-15145000D01*
X6467000Y-14975000D02*
X6297000Y-15145000D01*
X7313000Y-14975000D02*
X7483000Y-15145000D01*
X7483000Y-14975000D02*
X7313000Y-15145000D01*
X8737000Y-14975000D02*
X8907000Y-15145000D01*
X8907000Y-14975000D02*
X8737000Y-15145000D01*
X9753000Y-14975000D02*
X9923000Y-15145000D01*
X9923000Y-14975000D02*
X9753000Y-15145000D01*
X15937000Y-14979250D02*
X16107000Y-15149250D01*
X16107000Y-14979250D02*
X15937000Y-15149250D01*
X16953000Y-14979250D02*
X17123000Y-15149250D01*
X17123000Y-14979250D02*
X16953000Y-15149250D01*
X23137000Y-14985000D02*
X23307000Y-15155000D01*
X23307000Y-14985000D02*
X23137000Y-15155000D01*
X24153000Y-14985000D02*
X24323000Y-15155000D01*
X24323000Y-14985000D02*
X24153000Y-15155000D01*
X25577000Y-14985000D02*
X25747000Y-15155000D01*
X25747000Y-14985000D02*
X25577000Y-15155000D01*
X26593000Y-14985000D02*
X26763000Y-15155000D01*
X26763000Y-14985000D02*
X26593000Y-15155000D01*
X28027000Y-14985000D02*
X28197000Y-15155000D01*
X28197000Y-14985000D02*
X28027000Y-15155000D01*
X29027000Y-13031000D02*
X29197000Y-13201000D01*
X29197000Y-13031000D02*
X29027000Y-13201000D01*
X29043000Y-14985000D02*
X29213000Y-15155000D01*
X29213000Y-14985000D02*
X29043000Y-15155000D01*
X29495000Y-11085000D02*
X29665000Y-11255000D01*
X29665000Y-11085000D02*
X29495000Y-11255000D01*
X29735000Y-7205000D02*
X29905000Y-7375000D01*
X29905000Y-7205000D02*
X29735000Y-7375000D01*
X30043000Y-13031000D02*
X30213000Y-13201000D01*
X30213000Y-13031000D02*
X30043000Y-13201000D01*
X30207000Y-9155000D02*
X30377000Y-9325000D01*
X30377000Y-9155000D02*
X30207000Y-9325000D01*
X30457000Y-14985000D02*
X30627000Y-15155000D01*
X30627000Y-14985000D02*
X30457000Y-15155000D01*
X30511000Y-11085000D02*
X30681000Y-11255000D01*
X30681000Y-11085000D02*
X30511000Y-11255000D01*
X30751000Y-7205000D02*
X30921000Y-7375000D01*
X30921000Y-7205000D02*
X30751000Y-7375000D01*
X31223000Y-9155000D02*
X31393000Y-9325000D01*
X31393000Y-9155000D02*
X31223000Y-9325000D01*
X31473000Y-14985000D02*
X31643000Y-15155000D01*
X31643000Y-14985000D02*
X31473000Y-15155000D01*
D13*
X3799500Y-4600000D02*
G75*
G02*
X3624500Y-4600000I-87500J0D01*
G01*
X3624500Y-4600000D02*
G75*
G02*
X3799500Y-4600000I87500J0D01*
G01*
X3799500Y-7290000D02*
G75*
G02*
X3624500Y-7290000I-87500J0D01*
G01*
X3624500Y-7290000D02*
G75*
G02*
X3799500Y-7290000I87500J0D01*
G01*
X4815500Y-4600000D02*
G75*
G02*
X4640500Y-4600000I-87500J0D01*
G01*
X4640500Y-4600000D02*
G75*
G02*
X4815500Y-4600000I87500J0D01*
G01*
X4815500Y-7290000D02*
G75*
G02*
X4640500Y-7290000I-87500J0D01*
G01*
X4640500Y-7290000D02*
G75*
G02*
X4815500Y-7290000I87500J0D01*
G01*
X5734500Y-7290000D02*
G75*
G02*
X5559500Y-7290000I-87500J0D01*
G01*
X5559500Y-7290000D02*
G75*
G02*
X5734500Y-7290000I87500J0D01*
G01*
X6689500Y-9230000D02*
G75*
G02*
X6514500Y-9230000I-87500J0D01*
G01*
X6514500Y-9230000D02*
G75*
G02*
X6689500Y-9230000I87500J0D01*
G01*
X6750500Y-7290000D02*
G75*
G02*
X6575500Y-7290000I-87500J0D01*
G01*
X6575500Y-7290000D02*
G75*
G02*
X6750500Y-7290000I87500J0D01*
G01*
X7169500Y-11170000D02*
G75*
G02*
X6994500Y-11170000I-87500J0D01*
G01*
X6994500Y-11170000D02*
G75*
G02*
X7169500Y-11170000I87500J0D01*
G01*
X7669500Y-4600000D02*
G75*
G02*
X7494500Y-4600000I-87500J0D01*
G01*
X7494500Y-4600000D02*
G75*
G02*
X7669500Y-4600000I87500J0D01*
G01*
X7669500Y-7290000D02*
G75*
G02*
X7494500Y-7290000I-87500J0D01*
G01*
X7494500Y-7290000D02*
G75*
G02*
X7669500Y-7290000I87500J0D01*
G01*
X7705500Y-9230000D02*
G75*
G02*
X7530500Y-9230000I-87500J0D01*
G01*
X7530500Y-9230000D02*
G75*
G02*
X7705500Y-9230000I87500J0D01*
G01*
X8144500Y-13110000D02*
G75*
G02*
X7969500Y-13110000I-87500J0D01*
G01*
X7969500Y-13110000D02*
G75*
G02*
X8144500Y-13110000I87500J0D01*
G01*
X8185500Y-11170000D02*
G75*
G02*
X8010500Y-11170000I-87500J0D01*
G01*
X8010500Y-11170000D02*
G75*
G02*
X8185500Y-11170000I87500J0D01*
G01*
X8624500Y-9230000D02*
G75*
G02*
X8449500Y-9230000I-87500J0D01*
G01*
X8449500Y-9230000D02*
G75*
G02*
X8624500Y-9230000I87500J0D01*
G01*
X8685500Y-4600000D02*
G75*
G02*
X8510500Y-4600000I-87500J0D01*
G01*
X8510500Y-4600000D02*
G75*
G02*
X8685500Y-4600000I87500J0D01*
G01*
X8685500Y-7290000D02*
G75*
G02*
X8510500Y-7290000I-87500J0D01*
G01*
X8510500Y-7290000D02*
G75*
G02*
X8685500Y-7290000I87500J0D01*
G01*
X9104500Y-11170000D02*
G75*
G02*
X8929500Y-11170000I-87500J0D01*
G01*
X8929500Y-11170000D02*
G75*
G02*
X9104500Y-11170000I87500J0D01*
G01*
X9160500Y-13110000D02*
G75*
G02*
X8985500Y-13110000I-87500J0D01*
G01*
X8985500Y-13110000D02*
G75*
G02*
X9160500Y-13110000I87500J0D01*
G01*
X9604500Y-4600000D02*
G75*
G02*
X9429500Y-4600000I-87500J0D01*
G01*
X9429500Y-4600000D02*
G75*
G02*
X9604500Y-4600000I87500J0D01*
G01*
X9604500Y-7290000D02*
G75*
G02*
X9429500Y-7290000I-87500J0D01*
G01*
X9429500Y-7290000D02*
G75*
G02*
X9604500Y-7290000I87500J0D01*
G01*
X9640500Y-9230000D02*
G75*
G02*
X9465500Y-9230000I-87500J0D01*
G01*
X9465500Y-9230000D02*
G75*
G02*
X9640500Y-9230000I87500J0D01*
G01*
X10079500Y-13110000D02*
G75*
G02*
X9904500Y-13110000I-87500J0D01*
G01*
X9904500Y-13110000D02*
G75*
G02*
X10079500Y-13110000I87500J0D01*
G01*
X10120500Y-11170000D02*
G75*
G02*
X9945500Y-11170000I-87500J0D01*
G01*
X9945500Y-11170000D02*
G75*
G02*
X10120500Y-11170000I87500J0D01*
G01*
X10559500Y-9230000D02*
G75*
G02*
X10384500Y-9230000I-87500J0D01*
G01*
X10384500Y-9230000D02*
G75*
G02*
X10559500Y-9230000I87500J0D01*
G01*
X10620500Y-4600000D02*
G75*
G02*
X10445500Y-4600000I-87500J0D01*
G01*
X10445500Y-4600000D02*
G75*
G02*
X10620500Y-4600000I87500J0D01*
G01*
X10620500Y-7290000D02*
G75*
G02*
X10445500Y-7290000I-87500J0D01*
G01*
X10445500Y-7290000D02*
G75*
G02*
X10620500Y-7290000I87500J0D01*
G01*
X11039500Y-11170000D02*
G75*
G02*
X10864500Y-11170000I-87500J0D01*
G01*
X10864500Y-11170000D02*
G75*
G02*
X11039500Y-11170000I87500J0D01*
G01*
X11095500Y-13110000D02*
G75*
G02*
X10920500Y-13110000I-87500J0D01*
G01*
X10920500Y-13110000D02*
G75*
G02*
X11095500Y-13110000I87500J0D01*
G01*
X11539500Y-4600000D02*
G75*
G02*
X11364500Y-4600000I-87500J0D01*
G01*
X11364500Y-4600000D02*
G75*
G02*
X11539500Y-4600000I87500J0D01*
G01*
X11539500Y-7290000D02*
G75*
G02*
X11364500Y-7290000I-87500J0D01*
G01*
X11364500Y-7290000D02*
G75*
G02*
X11539500Y-7290000I87500J0D01*
G01*
X11575500Y-9230000D02*
G75*
G02*
X11400500Y-9230000I-87500J0D01*
G01*
X11400500Y-9230000D02*
G75*
G02*
X11575500Y-9230000I87500J0D01*
G01*
X12014500Y-13110000D02*
G75*
G02*
X11839500Y-13110000I-87500J0D01*
G01*
X11839500Y-13110000D02*
G75*
G02*
X12014500Y-13110000I87500J0D01*
G01*
X12055500Y-11170000D02*
G75*
G02*
X11880500Y-11170000I-87500J0D01*
G01*
X11880500Y-11170000D02*
G75*
G02*
X12055500Y-11170000I87500J0D01*
G01*
X12494500Y-9230000D02*
G75*
G02*
X12319500Y-9230000I-87500J0D01*
G01*
X12319500Y-9230000D02*
G75*
G02*
X12494500Y-9230000I87500J0D01*
G01*
X12555500Y-4600000D02*
G75*
G02*
X12380500Y-4600000I-87500J0D01*
G01*
X12380500Y-4600000D02*
G75*
G02*
X12555500Y-4600000I87500J0D01*
G01*
X12555500Y-7290000D02*
G75*
G02*
X12380500Y-7290000I-87500J0D01*
G01*
X12380500Y-7290000D02*
G75*
G02*
X12555500Y-7290000I87500J0D01*
G01*
X12974500Y-11170000D02*
G75*
G02*
X12799500Y-11170000I-87500J0D01*
G01*
X12799500Y-11170000D02*
G75*
G02*
X12974500Y-11170000I87500J0D01*
G01*
X13030500Y-13110000D02*
G75*
G02*
X12855500Y-13110000I-87500J0D01*
G01*
X12855500Y-13110000D02*
G75*
G02*
X13030500Y-13110000I87500J0D01*
G01*
X13474500Y-4600000D02*
G75*
G02*
X13299500Y-4600000I-87500J0D01*
G01*
X13299500Y-4600000D02*
G75*
G02*
X13474500Y-4600000I87500J0D01*
G01*
X13474500Y-7290000D02*
G75*
G02*
X13299500Y-7290000I-87500J0D01*
G01*
X13299500Y-7290000D02*
G75*
G02*
X13474500Y-7290000I87500J0D01*
G01*
X13510500Y-9230000D02*
G75*
G02*
X13335500Y-9230000I-87500J0D01*
G01*
X13335500Y-9230000D02*
G75*
G02*
X13510500Y-9230000I87500J0D01*
G01*
X13949500Y-13110000D02*
G75*
G02*
X13774500Y-13110000I-87500J0D01*
G01*
X13774500Y-13110000D02*
G75*
G02*
X13949500Y-13110000I87500J0D01*
G01*
X13990500Y-11170000D02*
G75*
G02*
X13815500Y-11170000I-87500J0D01*
G01*
X13815500Y-11170000D02*
G75*
G02*
X13990500Y-11170000I87500J0D01*
G01*
X14429500Y-9230000D02*
G75*
G02*
X14254500Y-9230000I-87500J0D01*
G01*
X14254500Y-9230000D02*
G75*
G02*
X14429500Y-9230000I87500J0D01*
G01*
X14490500Y-4600000D02*
G75*
G02*
X14315500Y-4600000I-87500J0D01*
G01*
X14315500Y-4600000D02*
G75*
G02*
X14490500Y-4600000I87500J0D01*
G01*
X14490500Y-7290000D02*
G75*
G02*
X14315500Y-7290000I-87500J0D01*
G01*
X14315500Y-7290000D02*
G75*
G02*
X14490500Y-7290000I87500J0D01*
G01*
X14909500Y-11170000D02*
G75*
G02*
X14734500Y-11170000I-87500J0D01*
G01*
X14734500Y-11170000D02*
G75*
G02*
X14909500Y-11170000I87500J0D01*
G01*
X14965500Y-13110000D02*
G75*
G02*
X14790500Y-13110000I-87500J0D01*
G01*
X14790500Y-13110000D02*
G75*
G02*
X14965500Y-13110000I87500J0D01*
G01*
X15409500Y-7290000D02*
G75*
G02*
X15234500Y-7290000I-87500J0D01*
G01*
X15234500Y-7290000D02*
G75*
G02*
X15409500Y-7290000I87500J0D01*
G01*
X15445500Y-9230000D02*
G75*
G02*
X15270500Y-9230000I-87500J0D01*
G01*
X15270500Y-9230000D02*
G75*
G02*
X15445500Y-9230000I87500J0D01*
G01*
X15884500Y-13110000D02*
G75*
G02*
X15709500Y-13110000I-87500J0D01*
G01*
X15709500Y-13110000D02*
G75*
G02*
X15884500Y-13110000I87500J0D01*
G01*
X15925500Y-11170000D02*
G75*
G02*
X15750500Y-11170000I-87500J0D01*
G01*
X15750500Y-11170000D02*
G75*
G02*
X15925500Y-11170000I87500J0D01*
G01*
X16364500Y-9230000D02*
G75*
G02*
X16189500Y-9230000I-87500J0D01*
G01*
X16189500Y-9230000D02*
G75*
G02*
X16364500Y-9230000I87500J0D01*
G01*
X16377000Y-4600000D02*
G75*
G02*
X16202000Y-4600000I-87500J0D01*
G01*
X16202000Y-4600000D02*
G75*
G02*
X16377000Y-4600000I87500J0D01*
G01*
X16425500Y-7290000D02*
G75*
G02*
X16250500Y-7290000I-87500J0D01*
G01*
X16250500Y-7290000D02*
G75*
G02*
X16425500Y-7290000I87500J0D01*
G01*
X16844500Y-11170000D02*
G75*
G02*
X16669500Y-11170000I-87500J0D01*
G01*
X16669500Y-11170000D02*
G75*
G02*
X16844500Y-11170000I87500J0D01*
G01*
X16900500Y-13110000D02*
G75*
G02*
X16725500Y-13110000I-87500J0D01*
G01*
X16725500Y-13110000D02*
G75*
G02*
X16900500Y-13110000I87500J0D01*
G01*
X17344500Y-7290000D02*
G75*
G02*
X17169500Y-7290000I-87500J0D01*
G01*
X17169500Y-7290000D02*
G75*
G02*
X17344500Y-7290000I87500J0D01*
G01*
X17380500Y-9230000D02*
G75*
G02*
X17205500Y-9230000I-87500J0D01*
G01*
X17205500Y-9230000D02*
G75*
G02*
X17380500Y-9230000I87500J0D01*
G01*
X17393000Y-4600000D02*
G75*
G02*
X17218000Y-4600000I-87500J0D01*
G01*
X17218000Y-4600000D02*
G75*
G02*
X17393000Y-4600000I87500J0D01*
G01*
X17819500Y-13110000D02*
G75*
G02*
X17644500Y-13110000I-87500J0D01*
G01*
X17644500Y-13110000D02*
G75*
G02*
X17819500Y-13110000I87500J0D01*
G01*
X17860500Y-11170000D02*
G75*
G02*
X17685500Y-11170000I-87500J0D01*
G01*
X17685500Y-11170000D02*
G75*
G02*
X17860500Y-11170000I87500J0D01*
G01*
X18299500Y-9230000D02*
G75*
G02*
X18124500Y-9230000I-87500J0D01*
G01*
X18124500Y-9230000D02*
G75*
G02*
X18299500Y-9230000I87500J0D01*
G01*
X18312000Y-4600000D02*
G75*
G02*
X18137000Y-4600000I-87500J0D01*
G01*
X18137000Y-4600000D02*
G75*
G02*
X18312000Y-4600000I87500J0D01*
G01*
X18360500Y-7290000D02*
G75*
G02*
X18185500Y-7290000I-87500J0D01*
G01*
X18185500Y-7290000D02*
G75*
G02*
X18360500Y-7290000I87500J0D01*
G01*
X18779500Y-11170000D02*
G75*
G02*
X18604500Y-11170000I-87500J0D01*
G01*
X18604500Y-11170000D02*
G75*
G02*
X18779500Y-11170000I87500J0D01*
G01*
X18835500Y-13110000D02*
G75*
G02*
X18660500Y-13110000I-87500J0D01*
G01*
X18660500Y-13110000D02*
G75*
G02*
X18835500Y-13110000I87500J0D01*
G01*
X19279500Y-7290000D02*
G75*
G02*
X19104500Y-7290000I-87500J0D01*
G01*
X19104500Y-7290000D02*
G75*
G02*
X19279500Y-7290000I87500J0D01*
G01*
X19315500Y-9230000D02*
G75*
G02*
X19140500Y-9230000I-87500J0D01*
G01*
X19140500Y-9230000D02*
G75*
G02*
X19315500Y-9230000I87500J0D01*
G01*
X19328000Y-4600000D02*
G75*
G02*
X19153000Y-4600000I-87500J0D01*
G01*
X19153000Y-4600000D02*
G75*
G02*
X19328000Y-4600000I87500J0D01*
G01*
X19754500Y-13110000D02*
G75*
G02*
X19579500Y-13110000I-87500J0D01*
G01*
X19579500Y-13110000D02*
G75*
G02*
X19754500Y-13110000I87500J0D01*
G01*
X19795500Y-11170000D02*
G75*
G02*
X19620500Y-11170000I-87500J0D01*
G01*
X19620500Y-11170000D02*
G75*
G02*
X19795500Y-11170000I87500J0D01*
G01*
X20234500Y-9230000D02*
G75*
G02*
X20059500Y-9230000I-87500J0D01*
G01*
X20059500Y-9230000D02*
G75*
G02*
X20234500Y-9230000I87500J0D01*
G01*
X20247000Y-4600000D02*
G75*
G02*
X20072000Y-4600000I-87500J0D01*
G01*
X20072000Y-4600000D02*
G75*
G02*
X20247000Y-4600000I87500J0D01*
G01*
X20295500Y-7290000D02*
G75*
G02*
X20120500Y-7290000I-87500J0D01*
G01*
X20120500Y-7290000D02*
G75*
G02*
X20295500Y-7290000I87500J0D01*
G01*
X20714500Y-11170000D02*
G75*
G02*
X20539500Y-11170000I-87500J0D01*
G01*
X20539500Y-11170000D02*
G75*
G02*
X20714500Y-11170000I87500J0D01*
G01*
X20770500Y-13110000D02*
G75*
G02*
X20595500Y-13110000I-87500J0D01*
G01*
X20595500Y-13110000D02*
G75*
G02*
X20770500Y-13110000I87500J0D01*
G01*
X21214500Y-7290000D02*
G75*
G02*
X21039500Y-7290000I-87500J0D01*
G01*
X21039500Y-7290000D02*
G75*
G02*
X21214500Y-7290000I87500J0D01*
G01*
X21250500Y-9230000D02*
G75*
G02*
X21075500Y-9230000I-87500J0D01*
G01*
X21075500Y-9230000D02*
G75*
G02*
X21250500Y-9230000I87500J0D01*
G01*
X21263000Y-4600000D02*
G75*
G02*
X21088000Y-4600000I-87500J0D01*
G01*
X21088000Y-4600000D02*
G75*
G02*
X21263000Y-4600000I87500J0D01*
G01*
X21689500Y-13110000D02*
G75*
G02*
X21514500Y-13110000I-87500J0D01*
G01*
X21514500Y-13110000D02*
G75*
G02*
X21689500Y-13110000I87500J0D01*
G01*
X21730500Y-11170000D02*
G75*
G02*
X21555500Y-11170000I-87500J0D01*
G01*
X21555500Y-11170000D02*
G75*
G02*
X21730500Y-11170000I87500J0D01*
G01*
X22169500Y-9230000D02*
G75*
G02*
X21994500Y-9230000I-87500J0D01*
G01*
X21994500Y-9230000D02*
G75*
G02*
X22169500Y-9230000I87500J0D01*
G01*
X22182000Y-4600000D02*
G75*
G02*
X22007000Y-4600000I-87500J0D01*
G01*
X22007000Y-4600000D02*
G75*
G02*
X22182000Y-4600000I87500J0D01*
G01*
X22230500Y-7290000D02*
G75*
G02*
X22055500Y-7290000I-87500J0D01*
G01*
X22055500Y-7290000D02*
G75*
G02*
X22230500Y-7290000I87500J0D01*
G01*
X22649500Y-11170000D02*
G75*
G02*
X22474500Y-11170000I-87500J0D01*
G01*
X22474500Y-11170000D02*
G75*
G02*
X22649500Y-11170000I87500J0D01*
G01*
X22705500Y-13110000D02*
G75*
G02*
X22530500Y-13110000I-87500J0D01*
G01*
X22530500Y-13110000D02*
G75*
G02*
X22705500Y-13110000I87500J0D01*
G01*
X23149500Y-7290000D02*
G75*
G02*
X22974500Y-7290000I-87500J0D01*
G01*
X22974500Y-7290000D02*
G75*
G02*
X23149500Y-7290000I87500J0D01*
G01*
X23185500Y-9230000D02*
G75*
G02*
X23010500Y-9230000I-87500J0D01*
G01*
X23010500Y-9230000D02*
G75*
G02*
X23185500Y-9230000I87500J0D01*
G01*
X23198000Y-4600000D02*
G75*
G02*
X23023000Y-4600000I-87500J0D01*
G01*
X23023000Y-4600000D02*
G75*
G02*
X23198000Y-4600000I87500J0D01*
G01*
X23624500Y-13110000D02*
G75*
G02*
X23449500Y-13110000I-87500J0D01*
G01*
X23449500Y-13110000D02*
G75*
G02*
X23624500Y-13110000I87500J0D01*
G01*
X23665500Y-11170000D02*
G75*
G02*
X23490500Y-11170000I-87500J0D01*
G01*
X23490500Y-11170000D02*
G75*
G02*
X23665500Y-11170000I87500J0D01*
G01*
X24104500Y-9230000D02*
G75*
G02*
X23929500Y-9230000I-87500J0D01*
G01*
X23929500Y-9230000D02*
G75*
G02*
X24104500Y-9230000I87500J0D01*
G01*
X24165500Y-7290000D02*
G75*
G02*
X23990500Y-7290000I-87500J0D01*
G01*
X23990500Y-7290000D02*
G75*
G02*
X24165500Y-7290000I87500J0D01*
G01*
X24584500Y-11170000D02*
G75*
G02*
X24409500Y-11170000I-87500J0D01*
G01*
X24409500Y-11170000D02*
G75*
G02*
X24584500Y-11170000I87500J0D01*
G01*
X24640500Y-13110000D02*
G75*
G02*
X24465500Y-13110000I-87500J0D01*
G01*
X24465500Y-13110000D02*
G75*
G02*
X24640500Y-13110000I87500J0D01*
G01*
X25084500Y-4600000D02*
G75*
G02*
X24909500Y-4600000I-87500J0D01*
G01*
X24909500Y-4600000D02*
G75*
G02*
X25084500Y-4600000I87500J0D01*
G01*
X25084500Y-7290000D02*
G75*
G02*
X24909500Y-7290000I-87500J0D01*
G01*
X24909500Y-7290000D02*
G75*
G02*
X25084500Y-7290000I87500J0D01*
G01*
X25120500Y-9230000D02*
G75*
G02*
X24945500Y-9230000I-87500J0D01*
G01*
X24945500Y-9230000D02*
G75*
G02*
X25120500Y-9230000I87500J0D01*
G01*
X25559500Y-13110000D02*
G75*
G02*
X25384500Y-13110000I-87500J0D01*
G01*
X25384500Y-13110000D02*
G75*
G02*
X25559500Y-13110000I87500J0D01*
G01*
X25600500Y-11170000D02*
G75*
G02*
X25425500Y-11170000I-87500J0D01*
G01*
X25425500Y-11170000D02*
G75*
G02*
X25600500Y-11170000I87500J0D01*
G01*
X26039500Y-9230000D02*
G75*
G02*
X25864500Y-9230000I-87500J0D01*
G01*
X25864500Y-9230000D02*
G75*
G02*
X26039500Y-9230000I87500J0D01*
G01*
X26100500Y-4600000D02*
G75*
G02*
X25925500Y-4600000I-87500J0D01*
G01*
X25925500Y-4600000D02*
G75*
G02*
X26100500Y-4600000I87500J0D01*
G01*
X26100500Y-7290000D02*
G75*
G02*
X25925500Y-7290000I-87500J0D01*
G01*
X25925500Y-7290000D02*
G75*
G02*
X26100500Y-7290000I87500J0D01*
G01*
X26519500Y-11170000D02*
G75*
G02*
X26344500Y-11170000I-87500J0D01*
G01*
X26344500Y-11170000D02*
G75*
G02*
X26519500Y-11170000I87500J0D01*
G01*
X26575500Y-13110000D02*
G75*
G02*
X26400500Y-13110000I-87500J0D01*
G01*
X26400500Y-13110000D02*
G75*
G02*
X26575500Y-13110000I87500J0D01*
G01*
X27019500Y-4600000D02*
G75*
G02*
X26844500Y-4600000I-87500J0D01*
G01*
X26844500Y-4600000D02*
G75*
G02*
X27019500Y-4600000I87500J0D01*
G01*
X27019500Y-7290000D02*
G75*
G02*
X26844500Y-7290000I-87500J0D01*
G01*
X26844500Y-7290000D02*
G75*
G02*
X27019500Y-7290000I87500J0D01*
G01*
X27055500Y-9230000D02*
G75*
G02*
X26880500Y-9230000I-87500J0D01*
G01*
X26880500Y-9230000D02*
G75*
G02*
X27055500Y-9230000I87500J0D01*
G01*
X27535500Y-11170000D02*
G75*
G02*
X27360500Y-11170000I-87500J0D01*
G01*
X27360500Y-11170000D02*
G75*
G02*
X27535500Y-11170000I87500J0D01*
G01*
X27974500Y-9230000D02*
G75*
G02*
X27799500Y-9230000I-87500J0D01*
G01*
X27799500Y-9230000D02*
G75*
G02*
X27974500Y-9230000I87500J0D01*
G01*
X28035500Y-4600000D02*
G75*
G02*
X27860500Y-4600000I-87500J0D01*
G01*
X27860500Y-4600000D02*
G75*
G02*
X28035500Y-4600000I87500J0D01*
G01*
X28035500Y-7290000D02*
G75*
G02*
X27860500Y-7290000I-87500J0D01*
G01*
X27860500Y-7290000D02*
G75*
G02*
X28035500Y-7290000I87500J0D01*
G01*
X28954500Y-4600000D02*
G75*
G02*
X28779500Y-4600000I-87500J0D01*
G01*
X28779500Y-4600000D02*
G75*
G02*
X28954500Y-4600000I87500J0D01*
G01*
X28990500Y-9230000D02*
G75*
G02*
X28815500Y-9230000I-87500J0D01*
G01*
X28815500Y-9230000D02*
G75*
G02*
X28990500Y-9230000I87500J0D01*
G01*
X29970500Y-4600000D02*
G75*
G02*
X29795500Y-4600000I-87500J0D01*
G01*
X29795500Y-4600000D02*
G75*
G02*
X29970500Y-4600000I87500J0D01*
G01*
X30889500Y-4600000D02*
G75*
G02*
X30714500Y-4600000I-87500J0D01*
G01*
X30714500Y-4600000D02*
G75*
G02*
X30889500Y-4600000I87500J0D01*
G01*
X31905500Y-4600000D02*
G75*
G02*
X31730500Y-4600000I-87500J0D01*
G01*
X31730500Y-4600000D02*
G75*
G02*
X31905500Y-4600000I87500J0D01*
G01*
D14*
X4222000Y-12257500D02*
X4222000Y-12562500D01*
X4069500Y-12410000D02*
X4374500Y-12410000D01*
X6602000Y-12257500D02*
X6602000Y-12562500D01*
X6449500Y-12410000D02*
X6754500Y-12410000D01*
X11530000Y-14211750D02*
X11530000Y-14516750D01*
X11377500Y-14364250D02*
X11682500Y-14364250D01*
X21530000Y-14211750D02*
X21530000Y-14516750D01*
X21377500Y-14364250D02*
X21682500Y-14364250D01*
X28430000Y-12263500D02*
X28430000Y-12568500D01*
X28277500Y-12416000D02*
X28582500Y-12416000D01*
X28898000Y-10317500D02*
X28898000Y-10622500D01*
X28745500Y-10470000D02*
X29050500Y-10470000D01*
X29138000Y-6437500D02*
X29138000Y-6742500D01*
X28985500Y-6590000D02*
X29290500Y-6590000D01*
X30810000Y-12263500D02*
X30810000Y-12568500D01*
X30657500Y-12416000D02*
X30962500Y-12416000D01*
X31278000Y-10317500D02*
X31278000Y-10622500D01*
X31125500Y-10470000D02*
X31430500Y-10470000D01*
X31518000Y-6437500D02*
X31518000Y-6742500D01*
X31365500Y-6590000D02*
X31670500Y-6590000D01*
D15*
X4361423Y-4741423D02*
X4361423Y-4458577D01*
X4078577Y-4458577D01*
X4078577Y-4741423D01*
X4361423Y-4741423D01*
X4361423Y-7431423D02*
X4361423Y-7148577D01*
X4078577Y-7148577D01*
X4078577Y-7431423D01*
X4361423Y-7431423D01*
X4363423Y-14075423D02*
X4363423Y-13792577D01*
X4080577Y-13792577D01*
X4080577Y-14075423D01*
X4363423Y-14075423D01*
X4601423Y-15201423D02*
X4601423Y-14918577D01*
X4318577Y-14918577D01*
X4318577Y-15201423D01*
X4601423Y-15201423D01*
X4841423Y-9371423D02*
X4841423Y-9088577D01*
X4558577Y-9088577D01*
X4558577Y-9371423D01*
X4841423Y-9371423D01*
X5079423Y-11309423D02*
X5079423Y-11026577D01*
X4796577Y-11026577D01*
X4796577Y-11309423D01*
X5079423Y-11309423D01*
X5553423Y-13251423D02*
X5553423Y-12968577D01*
X5270577Y-12968577D01*
X5270577Y-13251423D01*
X5553423Y-13251423D01*
X6296423Y-7431423D02*
X6296423Y-7148577D01*
X6013577Y-7148577D01*
X6013577Y-7431423D01*
X6296423Y-7431423D01*
X6743423Y-14075423D02*
X6743423Y-13792577D01*
X6460577Y-13792577D01*
X6460577Y-14075423D01*
X6743423Y-14075423D01*
X7031423Y-15201423D02*
X7031423Y-14918577D01*
X6748577Y-14918577D01*
X6748577Y-15201423D01*
X7031423Y-15201423D01*
X7251423Y-9371423D02*
X7251423Y-9088577D01*
X6968577Y-9088577D01*
X6968577Y-9371423D01*
X7251423Y-9371423D01*
X7731423Y-11311423D02*
X7731423Y-11028577D01*
X7448577Y-11028577D01*
X7448577Y-11311423D01*
X7731423Y-11311423D01*
X8231423Y-4741423D02*
X8231423Y-4458577D01*
X7948577Y-4458577D01*
X7948577Y-4741423D01*
X8231423Y-4741423D01*
X8231423Y-7431423D02*
X8231423Y-7148577D01*
X7948577Y-7148577D01*
X7948577Y-7431423D01*
X8231423Y-7431423D01*
X8706423Y-13251423D02*
X8706423Y-12968577D01*
X8423577Y-12968577D01*
X8423577Y-13251423D01*
X8706423Y-13251423D01*
X9186423Y-9371423D02*
X9186423Y-9088577D01*
X8903577Y-9088577D01*
X8903577Y-9371423D01*
X9186423Y-9371423D01*
X9471423Y-15201423D02*
X9471423Y-14918577D01*
X9188577Y-14918577D01*
X9188577Y-15201423D01*
X9471423Y-15201423D01*
X9666423Y-11311423D02*
X9666423Y-11028577D01*
X9383577Y-11028577D01*
X9383577Y-11311423D01*
X9666423Y-11311423D01*
X10166423Y-4741423D02*
X10166423Y-4458577D01*
X9883577Y-4458577D01*
X9883577Y-4741423D01*
X10166423Y-4741423D01*
X10166423Y-7431423D02*
X10166423Y-7148577D01*
X9883577Y-7148577D01*
X9883577Y-7431423D01*
X10166423Y-7431423D01*
X10641423Y-13251423D02*
X10641423Y-12968577D01*
X10358577Y-12968577D01*
X10358577Y-13251423D01*
X10641423Y-13251423D01*
X11121423Y-9371423D02*
X11121423Y-9088577D01*
X10838577Y-9088577D01*
X10838577Y-9371423D01*
X11121423Y-9371423D01*
X11601423Y-11311423D02*
X11601423Y-11028577D01*
X11318577Y-11028577D01*
X11318577Y-11311423D01*
X11601423Y-11311423D01*
X11671423Y-16029673D02*
X11671423Y-15746827D01*
X11388577Y-15746827D01*
X11388577Y-16029673D01*
X11671423Y-16029673D01*
X12101423Y-4741423D02*
X12101423Y-4458577D01*
X11818577Y-4458577D01*
X11818577Y-4741423D01*
X12101423Y-4741423D01*
X12101423Y-7431423D02*
X12101423Y-7148577D01*
X11818577Y-7148577D01*
X11818577Y-7431423D01*
X12101423Y-7431423D01*
X12576423Y-13251423D02*
X12576423Y-12968577D01*
X12293577Y-12968577D01*
X12293577Y-13251423D01*
X12576423Y-13251423D01*
X13056423Y-9371423D02*
X13056423Y-9088577D01*
X12773577Y-9088577D01*
X12773577Y-9371423D01*
X13056423Y-9371423D01*
X13536423Y-11311423D02*
X13536423Y-11028577D01*
X13253577Y-11028577D01*
X13253577Y-11311423D01*
X13536423Y-11311423D01*
X14036423Y-4741423D02*
X14036423Y-4458577D01*
X13753577Y-4458577D01*
X13753577Y-4741423D01*
X14036423Y-4741423D01*
X14036423Y-7431423D02*
X14036423Y-7148577D01*
X13753577Y-7148577D01*
X13753577Y-7431423D01*
X14036423Y-7431423D01*
X14511423Y-13251423D02*
X14511423Y-12968577D01*
X14228577Y-12968577D01*
X14228577Y-13251423D01*
X14511423Y-13251423D01*
X14991423Y-9371423D02*
X14991423Y-9088577D01*
X14708577Y-9088577D01*
X14708577Y-9371423D01*
X14991423Y-9371423D01*
X15471423Y-11311423D02*
X15471423Y-11028577D01*
X15188577Y-11028577D01*
X15188577Y-11311423D01*
X15471423Y-11311423D01*
X15971423Y-7431423D02*
X15971423Y-7148577D01*
X15688577Y-7148577D01*
X15688577Y-7431423D01*
X15971423Y-7431423D01*
X16446423Y-13251423D02*
X16446423Y-12968577D01*
X16163577Y-12968577D01*
X16163577Y-13251423D01*
X16446423Y-13251423D01*
X16671423Y-15205673D02*
X16671423Y-14922827D01*
X16388577Y-14922827D01*
X16388577Y-15205673D01*
X16671423Y-15205673D01*
X16926423Y-9371423D02*
X16926423Y-9088577D01*
X16643577Y-9088577D01*
X16643577Y-9371423D01*
X16926423Y-9371423D01*
X16938923Y-4741423D02*
X16938923Y-4458577D01*
X16656077Y-4458577D01*
X16656077Y-4741423D01*
X16938923Y-4741423D01*
X17406423Y-11311423D02*
X17406423Y-11028577D01*
X17123577Y-11028577D01*
X17123577Y-11311423D01*
X17406423Y-11311423D01*
X17906423Y-7431423D02*
X17906423Y-7148577D01*
X17623577Y-7148577D01*
X17623577Y-7431423D01*
X17906423Y-7431423D01*
X18381423Y-13251423D02*
X18381423Y-12968577D01*
X18098577Y-12968577D01*
X18098577Y-13251423D01*
X18381423Y-13251423D01*
X18861423Y-9371423D02*
X18861423Y-9088577D01*
X18578577Y-9088577D01*
X18578577Y-9371423D01*
X18861423Y-9371423D01*
X18873923Y-4741423D02*
X18873923Y-4458577D01*
X18591077Y-4458577D01*
X18591077Y-4741423D01*
X18873923Y-4741423D01*
X19341423Y-11311423D02*
X19341423Y-11028577D01*
X19058577Y-11028577D01*
X19058577Y-11311423D01*
X19341423Y-11311423D01*
X19841423Y-7431423D02*
X19841423Y-7148577D01*
X19558577Y-7148577D01*
X19558577Y-7431423D01*
X19841423Y-7431423D01*
X20316423Y-13251423D02*
X20316423Y-12968577D01*
X20033577Y-12968577D01*
X20033577Y-13251423D01*
X20316423Y-13251423D01*
X20796423Y-9371423D02*
X20796423Y-9088577D01*
X20513577Y-9088577D01*
X20513577Y-9371423D01*
X20796423Y-9371423D01*
X20808923Y-4741423D02*
X20808923Y-4458577D01*
X20526077Y-4458577D01*
X20526077Y-4741423D01*
X20808923Y-4741423D01*
X21276423Y-11311423D02*
X21276423Y-11028577D01*
X20993577Y-11028577D01*
X20993577Y-11311423D01*
X21276423Y-11311423D01*
X21671423Y-16029673D02*
X21671423Y-15746827D01*
X21388577Y-15746827D01*
X21388577Y-16029673D01*
X21671423Y-16029673D01*
X21776423Y-7431423D02*
X21776423Y-7148577D01*
X21493577Y-7148577D01*
X21493577Y-7431423D01*
X21776423Y-7431423D01*
X22251423Y-13251423D02*
X22251423Y-12968577D01*
X21968577Y-12968577D01*
X21968577Y-13251423D01*
X22251423Y-13251423D01*
X22731423Y-9371423D02*
X22731423Y-9088577D01*
X22448577Y-9088577D01*
X22448577Y-9371423D01*
X22731423Y-9371423D01*
X22743923Y-4741423D02*
X22743923Y-4458577D01*
X22461077Y-4458577D01*
X22461077Y-4741423D01*
X22743923Y-4741423D01*
X23211423Y-11311423D02*
X23211423Y-11028577D01*
X22928577Y-11028577D01*
X22928577Y-11311423D01*
X23211423Y-11311423D01*
X23711423Y-7431423D02*
X23711423Y-7148577D01*
X23428577Y-7148577D01*
X23428577Y-7431423D01*
X23711423Y-7431423D01*
X23871423Y-15211423D02*
X23871423Y-14928577D01*
X23588577Y-14928577D01*
X23588577Y-15211423D01*
X23871423Y-15211423D01*
X24186423Y-13251423D02*
X24186423Y-12968577D01*
X23903577Y-12968577D01*
X23903577Y-13251423D01*
X24186423Y-13251423D01*
X24666423Y-9371423D02*
X24666423Y-9088577D01*
X24383577Y-9088577D01*
X24383577Y-9371423D01*
X24666423Y-9371423D01*
X25146423Y-11311423D02*
X25146423Y-11028577D01*
X24863577Y-11028577D01*
X24863577Y-11311423D01*
X25146423Y-11311423D01*
X25646423Y-4741423D02*
X25646423Y-4458577D01*
X25363577Y-4458577D01*
X25363577Y-4741423D01*
X25646423Y-4741423D01*
X25646423Y-7431423D02*
X25646423Y-7148577D01*
X25363577Y-7148577D01*
X25363577Y-7431423D01*
X25646423Y-7431423D01*
X26121423Y-13251423D02*
X26121423Y-12968577D01*
X25838577Y-12968577D01*
X25838577Y-13251423D01*
X26121423Y-13251423D01*
X26311423Y-15211423D02*
X26311423Y-14928577D01*
X26028577Y-14928577D01*
X26028577Y-15211423D01*
X26311423Y-15211423D01*
X26601423Y-9371423D02*
X26601423Y-9088577D01*
X26318577Y-9088577D01*
X26318577Y-9371423D01*
X26601423Y-9371423D01*
X27081423Y-11311423D02*
X27081423Y-11028577D01*
X26798577Y-11028577D01*
X26798577Y-11311423D01*
X27081423Y-11311423D01*
X27581423Y-4741423D02*
X27581423Y-4458577D01*
X27298577Y-4458577D01*
X27298577Y-4741423D01*
X27581423Y-4741423D01*
X27581423Y-7431423D02*
X27581423Y-7148577D01*
X27298577Y-7148577D01*
X27298577Y-7431423D01*
X27581423Y-7431423D01*
X28536423Y-9371423D02*
X28536423Y-9088577D01*
X28253577Y-9088577D01*
X28253577Y-9371423D01*
X28536423Y-9371423D01*
X28571423Y-14081423D02*
X28571423Y-13798577D01*
X28288577Y-13798577D01*
X28288577Y-14081423D01*
X28571423Y-14081423D01*
X28761423Y-15211423D02*
X28761423Y-14928577D01*
X28478577Y-14928577D01*
X28478577Y-15211423D01*
X28761423Y-15211423D01*
X29039423Y-12135423D02*
X29039423Y-11852577D01*
X28756577Y-11852577D01*
X28756577Y-12135423D01*
X29039423Y-12135423D01*
X29279423Y-8255423D02*
X29279423Y-7972577D01*
X28996577Y-7972577D01*
X28996577Y-8255423D01*
X29279423Y-8255423D01*
X29516423Y-4741423D02*
X29516423Y-4458577D01*
X29233577Y-4458577D01*
X29233577Y-4741423D01*
X29516423Y-4741423D01*
X29761423Y-13257423D02*
X29761423Y-12974577D01*
X29478577Y-12974577D01*
X29478577Y-13257423D01*
X29761423Y-13257423D01*
X30229423Y-11311423D02*
X30229423Y-11028577D01*
X29946577Y-11028577D01*
X29946577Y-11311423D01*
X30229423Y-11311423D01*
X30469423Y-7431423D02*
X30469423Y-7148577D01*
X30186577Y-7148577D01*
X30186577Y-7431423D01*
X30469423Y-7431423D01*
X30941423Y-9381423D02*
X30941423Y-9098577D01*
X30658577Y-9098577D01*
X30658577Y-9381423D01*
X30941423Y-9381423D01*
X30951423Y-14081423D02*
X30951423Y-13798577D01*
X30668577Y-13798577D01*
X30668577Y-14081423D01*
X30951423Y-14081423D01*
X31191423Y-15211423D02*
X31191423Y-14928577D01*
X30908577Y-14928577D01*
X30908577Y-15211423D01*
X31191423Y-15211423D01*
X31419423Y-12135423D02*
X31419423Y-11852577D01*
X31136577Y-11852577D01*
X31136577Y-12135423D01*
X31419423Y-12135423D01*
X31451423Y-4741423D02*
X31451423Y-4458577D01*
X31168577Y-4458577D01*
X31168577Y-4741423D01*
X31451423Y-4741423D01*
X31659423Y-8255423D02*
X31659423Y-7972577D01*
X31376577Y-7972577D01*
X31376577Y-8255423D01*
X31659423Y-8255423D01*
D11*
X3026877Y-17585984D02*
X3026877Y-17385984D01*
X3026877Y-17385984D02*
X3074496Y-17385984D01*
X3074496Y-17385984D02*
X3103067Y-17395508D01*
X3103067Y-17395508D02*
X3122115Y-17414555D01*
X3122115Y-17414555D02*
X3131639Y-17433603D01*
X3131639Y-17433603D02*
X3141162Y-17471698D01*
X3141162Y-17471698D02*
X3141162Y-17500270D01*
X3141162Y-17500270D02*
X3131639Y-17538365D01*
X3131639Y-17538365D02*
X3122115Y-17557412D01*
X3122115Y-17557412D02*
X3103067Y-17576460D01*
X3103067Y-17576460D02*
X3074496Y-17585984D01*
X3074496Y-17585984D02*
X3026877Y-17585984D01*
X3226877Y-17585984D02*
X3226877Y-17452650D01*
X3226877Y-17490746D02*
X3236401Y-17471698D01*
X3236401Y-17471698D02*
X3245924Y-17462174D01*
X3245924Y-17462174D02*
X3264972Y-17452650D01*
X3264972Y-17452650D02*
X3284020Y-17452650D01*
X3350686Y-17585984D02*
X3350686Y-17452650D01*
X3350686Y-17385984D02*
X3341162Y-17395508D01*
X3341162Y-17395508D02*
X3350686Y-17405031D01*
X3350686Y-17405031D02*
X3360210Y-17395508D01*
X3360210Y-17395508D02*
X3350686Y-17385984D01*
X3350686Y-17385984D02*
X3350686Y-17405031D01*
X3474496Y-17585984D02*
X3455448Y-17576460D01*
X3455448Y-17576460D02*
X3445924Y-17557412D01*
X3445924Y-17557412D02*
X3445924Y-17385984D01*
X3579258Y-17585984D02*
X3560210Y-17576460D01*
X3560210Y-17576460D02*
X3550686Y-17557412D01*
X3550686Y-17557412D02*
X3550686Y-17385984D01*
X3807829Y-17585984D02*
X3807829Y-17385984D01*
X3807829Y-17385984D02*
X3874496Y-17528841D01*
X3874496Y-17528841D02*
X3941162Y-17385984D01*
X3941162Y-17385984D02*
X3941162Y-17585984D01*
X4122115Y-17585984D02*
X4122115Y-17481222D01*
X4122115Y-17481222D02*
X4112591Y-17462174D01*
X4112591Y-17462174D02*
X4093543Y-17452650D01*
X4093543Y-17452650D02*
X4055448Y-17452650D01*
X4055448Y-17452650D02*
X4036401Y-17462174D01*
X4122115Y-17576460D02*
X4103067Y-17585984D01*
X4103067Y-17585984D02*
X4055448Y-17585984D01*
X4055448Y-17585984D02*
X4036401Y-17576460D01*
X4036401Y-17576460D02*
X4026877Y-17557412D01*
X4026877Y-17557412D02*
X4026877Y-17538365D01*
X4026877Y-17538365D02*
X4036401Y-17519317D01*
X4036401Y-17519317D02*
X4055448Y-17509793D01*
X4055448Y-17509793D02*
X4103067Y-17509793D01*
X4103067Y-17509793D02*
X4122115Y-17500270D01*
X4217353Y-17452650D02*
X4217353Y-17652650D01*
X4217353Y-17462174D02*
X4236401Y-17452650D01*
X4236401Y-17452650D02*
X4274496Y-17452650D01*
X4274496Y-17452650D02*
X4293544Y-17462174D01*
X4293544Y-17462174D02*
X4303067Y-17471698D01*
X4303067Y-17471698D02*
X4312591Y-17490746D01*
X4312591Y-17490746D02*
X4312591Y-17547889D01*
X4312591Y-17547889D02*
X4303067Y-17566936D01*
X4303067Y-17566936D02*
X4293544Y-17576460D01*
X4293544Y-17576460D02*
X4274496Y-17585984D01*
X4274496Y-17585984D02*
X4236401Y-17585984D01*
X4236401Y-17585984D02*
X4217353Y-17576460D01*
X4398305Y-17566936D02*
X4407829Y-17576460D01*
X4407829Y-17576460D02*
X4398305Y-17585984D01*
X4398305Y-17585984D02*
X4388782Y-17576460D01*
X4388782Y-17576460D02*
X4398305Y-17566936D01*
X4398305Y-17566936D02*
X4398305Y-17585984D01*
X4398305Y-17462174D02*
X4407829Y-17471698D01*
X4407829Y-17471698D02*
X4398305Y-17481222D01*
X4398305Y-17481222D02*
X4388782Y-17471698D01*
X4388782Y-17471698D02*
X4398305Y-17462174D01*
X4398305Y-17462174D02*
X4398305Y-17481222D01*
D12*
X2596100Y-17829500D02*
X2766100Y-17999500D01*
X2766100Y-17829500D02*
X2596100Y-17999500D01*
D11*
X3131639Y-18005984D02*
X3017353Y-18005984D01*
X3074496Y-18005984D02*
X3074496Y-17805984D01*
X3074496Y-17805984D02*
X3055448Y-17834555D01*
X3055448Y-17834555D02*
X3036401Y-17853603D01*
X3036401Y-17853603D02*
X3017353Y-17863127D01*
X3217353Y-17986936D02*
X3226877Y-17996460D01*
X3226877Y-17996460D02*
X3217353Y-18005984D01*
X3217353Y-18005984D02*
X3207829Y-17996460D01*
X3207829Y-17996460D02*
X3217353Y-17986936D01*
X3217353Y-17986936D02*
X3217353Y-18005984D01*
X3293543Y-17805984D02*
X3426877Y-17805984D01*
X3426877Y-17805984D02*
X3341162Y-18005984D01*
X3541162Y-17805984D02*
X3560210Y-17805984D01*
X3560210Y-17805984D02*
X3579258Y-17815508D01*
X3579258Y-17815508D02*
X3588782Y-17825031D01*
X3588782Y-17825031D02*
X3598305Y-17844079D01*
X3598305Y-17844079D02*
X3607829Y-17882174D01*
X3607829Y-17882174D02*
X3607829Y-17929793D01*
X3607829Y-17929793D02*
X3598305Y-17967889D01*
X3598305Y-17967889D02*
X3588782Y-17986936D01*
X3588782Y-17986936D02*
X3579258Y-17996460D01*
X3579258Y-17996460D02*
X3560210Y-18005984D01*
X3560210Y-18005984D02*
X3541162Y-18005984D01*
X3541162Y-18005984D02*
X3522115Y-17996460D01*
X3522115Y-17996460D02*
X3512591Y-17986936D01*
X3512591Y-17986936D02*
X3503067Y-17967889D01*
X3503067Y-17967889D02*
X3493543Y-17929793D01*
X3493543Y-17929793D02*
X3493543Y-17882174D01*
X3493543Y-17882174D02*
X3503067Y-17844079D01*
X3503067Y-17844079D02*
X3512591Y-17825031D01*
X3512591Y-17825031D02*
X3522115Y-17815508D01*
X3522115Y-17815508D02*
X3541162Y-17805984D01*
X3731639Y-17805984D02*
X3750686Y-17805984D01*
X3750686Y-17805984D02*
X3769734Y-17815508D01*
X3769734Y-17815508D02*
X3779258Y-17825031D01*
X3779258Y-17825031D02*
X3788782Y-17844079D01*
X3788782Y-17844079D02*
X3798305Y-17882174D01*
X3798305Y-17882174D02*
X3798305Y-17929793D01*
X3798305Y-17929793D02*
X3788782Y-17967889D01*
X3788782Y-17967889D02*
X3779258Y-17986936D01*
X3779258Y-17986936D02*
X3769734Y-17996460D01*
X3769734Y-17996460D02*
X3750686Y-18005984D01*
X3750686Y-18005984D02*
X3731639Y-18005984D01*
X3731639Y-18005984D02*
X3712591Y-17996460D01*
X3712591Y-17996460D02*
X3703067Y-17986936D01*
X3703067Y-17986936D02*
X3693543Y-17967889D01*
X3693543Y-17967889D02*
X3684020Y-17929793D01*
X3684020Y-17929793D02*
X3684020Y-17882174D01*
X3684020Y-17882174D02*
X3693543Y-17844079D01*
X3693543Y-17844079D02*
X3703067Y-17825031D01*
X3703067Y-17825031D02*
X3712591Y-17815508D01*
X3712591Y-17815508D02*
X3731639Y-17805984D01*
X3884020Y-18005984D02*
X3884020Y-17872650D01*
X3884020Y-17891698D02*
X3893543Y-17882174D01*
X3893543Y-17882174D02*
X3912591Y-17872650D01*
X3912591Y-17872650D02*
X3941163Y-17872650D01*
X3941163Y-17872650D02*
X3960210Y-17882174D01*
X3960210Y-17882174D02*
X3969734Y-17901222D01*
X3969734Y-17901222D02*
X3969734Y-18005984D01*
X3969734Y-17901222D02*
X3979258Y-17882174D01*
X3979258Y-17882174D02*
X3998305Y-17872650D01*
X3998305Y-17872650D02*
X4026877Y-17872650D01*
X4026877Y-17872650D02*
X4045924Y-17882174D01*
X4045924Y-17882174D02*
X4055448Y-17901222D01*
X4055448Y-17901222D02*
X4055448Y-18005984D01*
X4150686Y-18005984D02*
X4150686Y-17872650D01*
X4150686Y-17891698D02*
X4160210Y-17882174D01*
X4160210Y-17882174D02*
X4179258Y-17872650D01*
X4179258Y-17872650D02*
X4207829Y-17872650D01*
X4207829Y-17872650D02*
X4226877Y-17882174D01*
X4226877Y-17882174D02*
X4236401Y-17901222D01*
X4236401Y-17901222D02*
X4236401Y-18005984D01*
X4236401Y-17901222D02*
X4245925Y-17882174D01*
X4245925Y-17882174D02*
X4264972Y-17872650D01*
X4264972Y-17872650D02*
X4293544Y-17872650D01*
X4293544Y-17872650D02*
X4312591Y-17882174D01*
X4312591Y-17882174D02*
X4322115Y-17901222D01*
X4322115Y-17901222D02*
X4322115Y-18005984D01*
X4712591Y-17796460D02*
X4541163Y-18053603D01*
X4969734Y-17805984D02*
X4988782Y-17805984D01*
X4988782Y-17805984D02*
X5007829Y-17815508D01*
X5007829Y-17815508D02*
X5017353Y-17825031D01*
X5017353Y-17825031D02*
X5026877Y-17844079D01*
X5026877Y-17844079D02*
X5036401Y-17882174D01*
X5036401Y-17882174D02*
X5036401Y-17929793D01*
X5036401Y-17929793D02*
X5026877Y-17967889D01*
X5026877Y-17967889D02*
X5017353Y-17986936D01*
X5017353Y-17986936D02*
X5007829Y-17996460D01*
X5007829Y-17996460D02*
X4988782Y-18005984D01*
X4988782Y-18005984D02*
X4969734Y-18005984D01*
X4969734Y-18005984D02*
X4950687Y-17996460D01*
X4950687Y-17996460D02*
X4941163Y-17986936D01*
X4941163Y-17986936D02*
X4931639Y-17967889D01*
X4931639Y-17967889D02*
X4922115Y-17929793D01*
X4922115Y-17929793D02*
X4922115Y-17882174D01*
X4922115Y-17882174D02*
X4931639Y-17844079D01*
X4931639Y-17844079D02*
X4941163Y-17825031D01*
X4941163Y-17825031D02*
X4950687Y-17815508D01*
X4950687Y-17815508D02*
X4969734Y-17805984D01*
X5122115Y-17986936D02*
X5131639Y-17996460D01*
X5131639Y-17996460D02*
X5122115Y-18005984D01*
X5122115Y-18005984D02*
X5112591Y-17996460D01*
X5112591Y-17996460D02*
X5122115Y-17986936D01*
X5122115Y-17986936D02*
X5122115Y-18005984D01*
X5255448Y-17805984D02*
X5274496Y-17805984D01*
X5274496Y-17805984D02*
X5293544Y-17815508D01*
X5293544Y-17815508D02*
X5303068Y-17825031D01*
X5303068Y-17825031D02*
X5312591Y-17844079D01*
X5312591Y-17844079D02*
X5322115Y-17882174D01*
X5322115Y-17882174D02*
X5322115Y-17929793D01*
X5322115Y-17929793D02*
X5312591Y-17967889D01*
X5312591Y-17967889D02*
X5303068Y-17986936D01*
X5303068Y-17986936D02*
X5293544Y-17996460D01*
X5293544Y-17996460D02*
X5274496Y-18005984D01*
X5274496Y-18005984D02*
X5255448Y-18005984D01*
X5255448Y-18005984D02*
X5236401Y-17996460D01*
X5236401Y-17996460D02*
X5226877Y-17986936D01*
X5226877Y-17986936D02*
X5217353Y-17967889D01*
X5217353Y-17967889D02*
X5207829Y-17929793D01*
X5207829Y-17929793D02*
X5207829Y-17882174D01*
X5207829Y-17882174D02*
X5217353Y-17844079D01*
X5217353Y-17844079D02*
X5226877Y-17825031D01*
X5226877Y-17825031D02*
X5236401Y-17815508D01*
X5236401Y-17815508D02*
X5255448Y-17805984D01*
X5493544Y-17805984D02*
X5455448Y-17805984D01*
X5455448Y-17805984D02*
X5436401Y-17815508D01*
X5436401Y-17815508D02*
X5426877Y-17825031D01*
X5426877Y-17825031D02*
X5407829Y-17853603D01*
X5407829Y-17853603D02*
X5398306Y-17891698D01*
X5398306Y-17891698D02*
X5398306Y-17967889D01*
X5398306Y-17967889D02*
X5407829Y-17986936D01*
X5407829Y-17986936D02*
X5417353Y-17996460D01*
X5417353Y-17996460D02*
X5436401Y-18005984D01*
X5436401Y-18005984D02*
X5474496Y-18005984D01*
X5474496Y-18005984D02*
X5493544Y-17996460D01*
X5493544Y-17996460D02*
X5503068Y-17986936D01*
X5503068Y-17986936D02*
X5512591Y-17967889D01*
X5512591Y-17967889D02*
X5512591Y-17920270D01*
X5512591Y-17920270D02*
X5503068Y-17901222D01*
X5503068Y-17901222D02*
X5493544Y-17891698D01*
X5493544Y-17891698D02*
X5474496Y-17882174D01*
X5474496Y-17882174D02*
X5436401Y-17882174D01*
X5436401Y-17882174D02*
X5417353Y-17891698D01*
X5417353Y-17891698D02*
X5407829Y-17901222D01*
X5407829Y-17901222D02*
X5398306Y-17920270D01*
X5684020Y-17805984D02*
X5645925Y-17805984D01*
X5645925Y-17805984D02*
X5626877Y-17815508D01*
X5626877Y-17815508D02*
X5617353Y-17825031D01*
X5617353Y-17825031D02*
X5598306Y-17853603D01*
X5598306Y-17853603D02*
X5588782Y-17891698D01*
X5588782Y-17891698D02*
X5588782Y-17967889D01*
X5588782Y-17967889D02*
X5598306Y-17986936D01*
X5598306Y-17986936D02*
X5607829Y-17996460D01*
X5607829Y-17996460D02*
X5626877Y-18005984D01*
X5626877Y-18005984D02*
X5664972Y-18005984D01*
X5664972Y-18005984D02*
X5684020Y-17996460D01*
X5684020Y-17996460D02*
X5693544Y-17986936D01*
X5693544Y-17986936D02*
X5703067Y-17967889D01*
X5703067Y-17967889D02*
X5703067Y-17920270D01*
X5703067Y-17920270D02*
X5693544Y-17901222D01*
X5693544Y-17901222D02*
X5684020Y-17891698D01*
X5684020Y-17891698D02*
X5664972Y-17882174D01*
X5664972Y-17882174D02*
X5626877Y-17882174D01*
X5626877Y-17882174D02*
X5607829Y-17891698D01*
X5607829Y-17891698D02*
X5598306Y-17901222D01*
X5598306Y-17901222D02*
X5588782Y-17920270D01*
X5798306Y-18005984D02*
X5836401Y-18005984D01*
X5836401Y-18005984D02*
X5855448Y-17996460D01*
X5855448Y-17996460D02*
X5864972Y-17986936D01*
X5864972Y-17986936D02*
X5884020Y-17958365D01*
X5884020Y-17958365D02*
X5893544Y-17920270D01*
X5893544Y-17920270D02*
X5893544Y-17844079D01*
X5893544Y-17844079D02*
X5884020Y-17825031D01*
X5884020Y-17825031D02*
X5874496Y-17815508D01*
X5874496Y-17815508D02*
X5855448Y-17805984D01*
X5855448Y-17805984D02*
X5817353Y-17805984D01*
X5817353Y-17805984D02*
X5798306Y-17815508D01*
X5798306Y-17815508D02*
X5788782Y-17825031D01*
X5788782Y-17825031D02*
X5779258Y-17844079D01*
X5779258Y-17844079D02*
X5779258Y-17891698D01*
X5779258Y-17891698D02*
X5788782Y-17910746D01*
X5788782Y-17910746D02*
X5798306Y-17920270D01*
X5798306Y-17920270D02*
X5817353Y-17929793D01*
X5817353Y-17929793D02*
X5855448Y-17929793D01*
X5855448Y-17929793D02*
X5874496Y-17920270D01*
X5874496Y-17920270D02*
X5884020Y-17910746D01*
X5884020Y-17910746D02*
X5893544Y-17891698D01*
X5969734Y-17805984D02*
X5969734Y-17844079D01*
X6045925Y-17805984D02*
X6045925Y-17844079D01*
X6341163Y-18082174D02*
X6331639Y-18072650D01*
X6331639Y-18072650D02*
X6312591Y-18044079D01*
X6312591Y-18044079D02*
X6303068Y-18025031D01*
X6303068Y-18025031D02*
X6293544Y-17996460D01*
X6293544Y-17996460D02*
X6284020Y-17948841D01*
X6284020Y-17948841D02*
X6284020Y-17910746D01*
X6284020Y-17910746D02*
X6293544Y-17863127D01*
X6293544Y-17863127D02*
X6303068Y-17834555D01*
X6303068Y-17834555D02*
X6312591Y-17815508D01*
X6312591Y-17815508D02*
X6331639Y-17786936D01*
X6331639Y-17786936D02*
X6341163Y-17777412D01*
X6398306Y-17805984D02*
X6522115Y-17805984D01*
X6522115Y-17805984D02*
X6455448Y-17882174D01*
X6455448Y-17882174D02*
X6484020Y-17882174D01*
X6484020Y-17882174D02*
X6503068Y-17891698D01*
X6503068Y-17891698D02*
X6512591Y-17901222D01*
X6512591Y-17901222D02*
X6522115Y-17920270D01*
X6522115Y-17920270D02*
X6522115Y-17967889D01*
X6522115Y-17967889D02*
X6512591Y-17986936D01*
X6512591Y-17986936D02*
X6503068Y-17996460D01*
X6503068Y-17996460D02*
X6484020Y-18005984D01*
X6484020Y-18005984D02*
X6426877Y-18005984D01*
X6426877Y-18005984D02*
X6407829Y-17996460D01*
X6407829Y-17996460D02*
X6398306Y-17986936D01*
X6645925Y-17805984D02*
X6664972Y-17805984D01*
X6664972Y-17805984D02*
X6684020Y-17815508D01*
X6684020Y-17815508D02*
X6693544Y-17825031D01*
X6693544Y-17825031D02*
X6703068Y-17844079D01*
X6703068Y-17844079D02*
X6712591Y-17882174D01*
X6712591Y-17882174D02*
X6712591Y-17929793D01*
X6712591Y-17929793D02*
X6703068Y-17967889D01*
X6703068Y-17967889D02*
X6693544Y-17986936D01*
X6693544Y-17986936D02*
X6684020Y-17996460D01*
X6684020Y-17996460D02*
X6664972Y-18005984D01*
X6664972Y-18005984D02*
X6645925Y-18005984D01*
X6645925Y-18005984D02*
X6626877Y-17996460D01*
X6626877Y-17996460D02*
X6617353Y-17986936D01*
X6617353Y-17986936D02*
X6607829Y-17967889D01*
X6607829Y-17967889D02*
X6598306Y-17929793D01*
X6598306Y-17929793D02*
X6598306Y-17882174D01*
X6598306Y-17882174D02*
X6607829Y-17844079D01*
X6607829Y-17844079D02*
X6617353Y-17825031D01*
X6617353Y-17825031D02*
X6626877Y-17815508D01*
X6626877Y-17815508D02*
X6645925Y-17805984D01*
X6950687Y-18005984D02*
X6950687Y-17805984D01*
X7036401Y-18005984D02*
X7036401Y-17901222D01*
X7036401Y-17901222D02*
X7026877Y-17882174D01*
X7026877Y-17882174D02*
X7007830Y-17872650D01*
X7007830Y-17872650D02*
X6979258Y-17872650D01*
X6979258Y-17872650D02*
X6960210Y-17882174D01*
X6960210Y-17882174D02*
X6950687Y-17891698D01*
X7160210Y-18005984D02*
X7141163Y-17996460D01*
X7141163Y-17996460D02*
X7131639Y-17986936D01*
X7131639Y-17986936D02*
X7122115Y-17967889D01*
X7122115Y-17967889D02*
X7122115Y-17910746D01*
X7122115Y-17910746D02*
X7131639Y-17891698D01*
X7131639Y-17891698D02*
X7141163Y-17882174D01*
X7141163Y-17882174D02*
X7160210Y-17872650D01*
X7160210Y-17872650D02*
X7188782Y-17872650D01*
X7188782Y-17872650D02*
X7207830Y-17882174D01*
X7207830Y-17882174D02*
X7217353Y-17891698D01*
X7217353Y-17891698D02*
X7226877Y-17910746D01*
X7226877Y-17910746D02*
X7226877Y-17967889D01*
X7226877Y-17967889D02*
X7217353Y-17986936D01*
X7217353Y-17986936D02*
X7207830Y-17996460D01*
X7207830Y-17996460D02*
X7188782Y-18005984D01*
X7188782Y-18005984D02*
X7160210Y-18005984D01*
X7341163Y-18005984D02*
X7322115Y-17996460D01*
X7322115Y-17996460D02*
X7312591Y-17977412D01*
X7312591Y-17977412D02*
X7312591Y-17805984D01*
X7493544Y-17996460D02*
X7474496Y-18005984D01*
X7474496Y-18005984D02*
X7436401Y-18005984D01*
X7436401Y-18005984D02*
X7417353Y-17996460D01*
X7417353Y-17996460D02*
X7407830Y-17977412D01*
X7407830Y-17977412D02*
X7407830Y-17901222D01*
X7407830Y-17901222D02*
X7417353Y-17882174D01*
X7417353Y-17882174D02*
X7436401Y-17872650D01*
X7436401Y-17872650D02*
X7474496Y-17872650D01*
X7474496Y-17872650D02*
X7493544Y-17882174D01*
X7493544Y-17882174D02*
X7503068Y-17901222D01*
X7503068Y-17901222D02*
X7503068Y-17920270D01*
X7503068Y-17920270D02*
X7407830Y-17939317D01*
X7579258Y-17996460D02*
X7598306Y-18005984D01*
X7598306Y-18005984D02*
X7636401Y-18005984D01*
X7636401Y-18005984D02*
X7655449Y-17996460D01*
X7655449Y-17996460D02*
X7664972Y-17977412D01*
X7664972Y-17977412D02*
X7664972Y-17967889D01*
X7664972Y-17967889D02*
X7655449Y-17948841D01*
X7655449Y-17948841D02*
X7636401Y-17939317D01*
X7636401Y-17939317D02*
X7607830Y-17939317D01*
X7607830Y-17939317D02*
X7588782Y-17929793D01*
X7588782Y-17929793D02*
X7579258Y-17910746D01*
X7579258Y-17910746D02*
X7579258Y-17901222D01*
X7579258Y-17901222D02*
X7588782Y-17882174D01*
X7588782Y-17882174D02*
X7607830Y-17872650D01*
X7607830Y-17872650D02*
X7636401Y-17872650D01*
X7636401Y-17872650D02*
X7655449Y-17882174D01*
X7731639Y-18082174D02*
X7741163Y-18072650D01*
X7741163Y-18072650D02*
X7760211Y-18044079D01*
X7760211Y-18044079D02*
X7769734Y-18025031D01*
X7769734Y-18025031D02*
X7779258Y-17996460D01*
X7779258Y-17996460D02*
X7788782Y-17948841D01*
X7788782Y-17948841D02*
X7788782Y-17910746D01*
X7788782Y-17910746D02*
X7779258Y-17863127D01*
X7779258Y-17863127D02*
X7769734Y-17834555D01*
X7769734Y-17834555D02*
X7760211Y-17815508D01*
X7760211Y-17815508D02*
X7741163Y-17786936D01*
X7741163Y-17786936D02*
X7731639Y-17777412D01*
X8093544Y-18082174D02*
X8084020Y-18072650D01*
X8084020Y-18072650D02*
X8064972Y-18044079D01*
X8064972Y-18044079D02*
X8055449Y-18025031D01*
X8055449Y-18025031D02*
X8045925Y-17996460D01*
X8045925Y-17996460D02*
X8036401Y-17948841D01*
X8036401Y-17948841D02*
X8036401Y-17910746D01*
X8036401Y-17910746D02*
X8045925Y-17863127D01*
X8045925Y-17863127D02*
X8055449Y-17834555D01*
X8055449Y-17834555D02*
X8064972Y-17815508D01*
X8064972Y-17815508D02*
X8084020Y-17786936D01*
X8084020Y-17786936D02*
X8093544Y-17777412D01*
X8169734Y-17872650D02*
X8169734Y-18005984D01*
X8169734Y-17891698D02*
X8179258Y-17882174D01*
X8179258Y-17882174D02*
X8198306Y-17872650D01*
X8198306Y-17872650D02*
X8226877Y-17872650D01*
X8226877Y-17872650D02*
X8245925Y-17882174D01*
X8245925Y-17882174D02*
X8255449Y-17901222D01*
X8255449Y-17901222D02*
X8255449Y-18005984D01*
X8379258Y-18005984D02*
X8360211Y-17996460D01*
X8360211Y-17996460D02*
X8350687Y-17986936D01*
X8350687Y-17986936D02*
X8341163Y-17967889D01*
X8341163Y-17967889D02*
X8341163Y-17910746D01*
X8341163Y-17910746D02*
X8350687Y-17891698D01*
X8350687Y-17891698D02*
X8360211Y-17882174D01*
X8360211Y-17882174D02*
X8379258Y-17872650D01*
X8379258Y-17872650D02*
X8407830Y-17872650D01*
X8407830Y-17872650D02*
X8426877Y-17882174D01*
X8426877Y-17882174D02*
X8436401Y-17891698D01*
X8436401Y-17891698D02*
X8445925Y-17910746D01*
X8445925Y-17910746D02*
X8445925Y-17967889D01*
X8445925Y-17967889D02*
X8436401Y-17986936D01*
X8436401Y-17986936D02*
X8426877Y-17996460D01*
X8426877Y-17996460D02*
X8407830Y-18005984D01*
X8407830Y-18005984D02*
X8379258Y-18005984D01*
X8503068Y-17872650D02*
X8579258Y-17872650D01*
X8531639Y-17805984D02*
X8531639Y-17977412D01*
X8531639Y-17977412D02*
X8541163Y-17996460D01*
X8541163Y-17996460D02*
X8560211Y-18005984D01*
X8560211Y-18005984D02*
X8579258Y-18005984D01*
X8798306Y-17872650D02*
X8798306Y-18072650D01*
X8798306Y-17882174D02*
X8817354Y-17872650D01*
X8817354Y-17872650D02*
X8855449Y-17872650D01*
X8855449Y-17872650D02*
X8874496Y-17882174D01*
X8874496Y-17882174D02*
X8884020Y-17891698D01*
X8884020Y-17891698D02*
X8893544Y-17910746D01*
X8893544Y-17910746D02*
X8893544Y-17967889D01*
X8893544Y-17967889D02*
X8884020Y-17986936D01*
X8884020Y-17986936D02*
X8874496Y-17996460D01*
X8874496Y-17996460D02*
X8855449Y-18005984D01*
X8855449Y-18005984D02*
X8817354Y-18005984D01*
X8817354Y-18005984D02*
X8798306Y-17996460D01*
X9007830Y-18005984D02*
X8988782Y-17996460D01*
X8988782Y-17996460D02*
X8979258Y-17977412D01*
X8979258Y-17977412D02*
X8979258Y-17805984D01*
X9169735Y-18005984D02*
X9169735Y-17901222D01*
X9169735Y-17901222D02*
X9160211Y-17882174D01*
X9160211Y-17882174D02*
X9141163Y-17872650D01*
X9141163Y-17872650D02*
X9103068Y-17872650D01*
X9103068Y-17872650D02*
X9084020Y-17882174D01*
X9169735Y-17996460D02*
X9150687Y-18005984D01*
X9150687Y-18005984D02*
X9103068Y-18005984D01*
X9103068Y-18005984D02*
X9084020Y-17996460D01*
X9084020Y-17996460D02*
X9074496Y-17977412D01*
X9074496Y-17977412D02*
X9074496Y-17958365D01*
X9074496Y-17958365D02*
X9084020Y-17939317D01*
X9084020Y-17939317D02*
X9103068Y-17929793D01*
X9103068Y-17929793D02*
X9150687Y-17929793D01*
X9150687Y-17929793D02*
X9169735Y-17920270D01*
X9236401Y-17872650D02*
X9312592Y-17872650D01*
X9264973Y-17805984D02*
X9264973Y-17977412D01*
X9264973Y-17977412D02*
X9274496Y-17996460D01*
X9274496Y-17996460D02*
X9293544Y-18005984D01*
X9293544Y-18005984D02*
X9312592Y-18005984D01*
X9455449Y-17996460D02*
X9436401Y-18005984D01*
X9436401Y-18005984D02*
X9398306Y-18005984D01*
X9398306Y-18005984D02*
X9379258Y-17996460D01*
X9379258Y-17996460D02*
X9369735Y-17977412D01*
X9369735Y-17977412D02*
X9369735Y-17901222D01*
X9369735Y-17901222D02*
X9379258Y-17882174D01*
X9379258Y-17882174D02*
X9398306Y-17872650D01*
X9398306Y-17872650D02*
X9436401Y-17872650D01*
X9436401Y-17872650D02*
X9455449Y-17882174D01*
X9455449Y-17882174D02*
X9464973Y-17901222D01*
X9464973Y-17901222D02*
X9464973Y-17920270D01*
X9464973Y-17920270D02*
X9369735Y-17939317D01*
X9636401Y-18005984D02*
X9636401Y-17805984D01*
X9636401Y-17996460D02*
X9617354Y-18005984D01*
X9617354Y-18005984D02*
X9579258Y-18005984D01*
X9579258Y-18005984D02*
X9560211Y-17996460D01*
X9560211Y-17996460D02*
X9550687Y-17986936D01*
X9550687Y-17986936D02*
X9541163Y-17967889D01*
X9541163Y-17967889D02*
X9541163Y-17910746D01*
X9541163Y-17910746D02*
X9550687Y-17891698D01*
X9550687Y-17891698D02*
X9560211Y-17882174D01*
X9560211Y-17882174D02*
X9579258Y-17872650D01*
X9579258Y-17872650D02*
X9617354Y-17872650D01*
X9617354Y-17872650D02*
X9636401Y-17882174D01*
X9712592Y-18082174D02*
X9722116Y-18072650D01*
X9722116Y-18072650D02*
X9741163Y-18044079D01*
X9741163Y-18044079D02*
X9750687Y-18025031D01*
X9750687Y-18025031D02*
X9760211Y-17996460D01*
X9760211Y-17996460D02*
X9769735Y-17948841D01*
X9769735Y-17948841D02*
X9769735Y-17910746D01*
X9769735Y-17910746D02*
X9760211Y-17863127D01*
X9760211Y-17863127D02*
X9750687Y-17834555D01*
X9750687Y-17834555D02*
X9741163Y-17815508D01*
X9741163Y-17815508D02*
X9722116Y-17786936D01*
X9722116Y-17786936D02*
X9712592Y-17777412D01*
D13*
X2766100Y-18204500D02*
G75*
G02*
X2591100Y-18204500I-87500J0D01*
G01*
X2591100Y-18204500D02*
G75*
G02*
X2766100Y-18204500I87500J0D01*
G01*
D11*
X3131639Y-18295984D02*
X3017353Y-18295984D01*
X3074496Y-18295984D02*
X3074496Y-18095984D01*
X3074496Y-18095984D02*
X3055448Y-18124555D01*
X3055448Y-18124555D02*
X3036401Y-18143603D01*
X3036401Y-18143603D02*
X3017353Y-18153127D01*
X3217353Y-18276936D02*
X3226877Y-18286460D01*
X3226877Y-18286460D02*
X3217353Y-18295984D01*
X3217353Y-18295984D02*
X3207829Y-18286460D01*
X3207829Y-18286460D02*
X3217353Y-18276936D01*
X3217353Y-18276936D02*
X3217353Y-18295984D01*
X3293543Y-18095984D02*
X3426877Y-18095984D01*
X3426877Y-18095984D02*
X3341162Y-18295984D01*
X3598305Y-18095984D02*
X3503067Y-18095984D01*
X3503067Y-18095984D02*
X3493543Y-18191222D01*
X3493543Y-18191222D02*
X3503067Y-18181698D01*
X3503067Y-18181698D02*
X3522115Y-18172174D01*
X3522115Y-18172174D02*
X3569734Y-18172174D01*
X3569734Y-18172174D02*
X3588782Y-18181698D01*
X3588782Y-18181698D02*
X3598305Y-18191222D01*
X3598305Y-18191222D02*
X3607829Y-18210270D01*
X3607829Y-18210270D02*
X3607829Y-18257889D01*
X3607829Y-18257889D02*
X3598305Y-18276936D01*
X3598305Y-18276936D02*
X3588782Y-18286460D01*
X3588782Y-18286460D02*
X3569734Y-18295984D01*
X3569734Y-18295984D02*
X3522115Y-18295984D01*
X3522115Y-18295984D02*
X3503067Y-18286460D01*
X3503067Y-18286460D02*
X3493543Y-18276936D01*
X3731639Y-18095984D02*
X3750686Y-18095984D01*
X3750686Y-18095984D02*
X3769734Y-18105508D01*
X3769734Y-18105508D02*
X3779258Y-18115031D01*
X3779258Y-18115031D02*
X3788782Y-18134079D01*
X3788782Y-18134079D02*
X3798305Y-18172174D01*
X3798305Y-18172174D02*
X3798305Y-18219793D01*
X3798305Y-18219793D02*
X3788782Y-18257889D01*
X3788782Y-18257889D02*
X3779258Y-18276936D01*
X3779258Y-18276936D02*
X3769734Y-18286460D01*
X3769734Y-18286460D02*
X3750686Y-18295984D01*
X3750686Y-18295984D02*
X3731639Y-18295984D01*
X3731639Y-18295984D02*
X3712591Y-18286460D01*
X3712591Y-18286460D02*
X3703067Y-18276936D01*
X3703067Y-18276936D02*
X3693543Y-18257889D01*
X3693543Y-18257889D02*
X3684020Y-18219793D01*
X3684020Y-18219793D02*
X3684020Y-18172174D01*
X3684020Y-18172174D02*
X3693543Y-18134079D01*
X3693543Y-18134079D02*
X3703067Y-18115031D01*
X3703067Y-18115031D02*
X3712591Y-18105508D01*
X3712591Y-18105508D02*
X3731639Y-18095984D01*
X3884020Y-18295984D02*
X3884020Y-18162650D01*
X3884020Y-18181698D02*
X3893543Y-18172174D01*
X3893543Y-18172174D02*
X3912591Y-18162650D01*
X3912591Y-18162650D02*
X3941163Y-18162650D01*
X3941163Y-18162650D02*
X3960210Y-18172174D01*
X3960210Y-18172174D02*
X3969734Y-18191222D01*
X3969734Y-18191222D02*
X3969734Y-18295984D01*
X3969734Y-18191222D02*
X3979258Y-18172174D01*
X3979258Y-18172174D02*
X3998305Y-18162650D01*
X3998305Y-18162650D02*
X4026877Y-18162650D01*
X4026877Y-18162650D02*
X4045924Y-18172174D01*
X4045924Y-18172174D02*
X4055448Y-18191222D01*
X4055448Y-18191222D02*
X4055448Y-18295984D01*
X4150686Y-18295984D02*
X4150686Y-18162650D01*
X4150686Y-18181698D02*
X4160210Y-18172174D01*
X4160210Y-18172174D02*
X4179258Y-18162650D01*
X4179258Y-18162650D02*
X4207829Y-18162650D01*
X4207829Y-18162650D02*
X4226877Y-18172174D01*
X4226877Y-18172174D02*
X4236401Y-18191222D01*
X4236401Y-18191222D02*
X4236401Y-18295984D01*
X4236401Y-18191222D02*
X4245925Y-18172174D01*
X4245925Y-18172174D02*
X4264972Y-18162650D01*
X4264972Y-18162650D02*
X4293544Y-18162650D01*
X4293544Y-18162650D02*
X4312591Y-18172174D01*
X4312591Y-18172174D02*
X4322115Y-18191222D01*
X4322115Y-18191222D02*
X4322115Y-18295984D01*
X4712591Y-18086460D02*
X4541163Y-18343603D01*
X4969734Y-18095984D02*
X4988782Y-18095984D01*
X4988782Y-18095984D02*
X5007829Y-18105508D01*
X5007829Y-18105508D02*
X5017353Y-18115031D01*
X5017353Y-18115031D02*
X5026877Y-18134079D01*
X5026877Y-18134079D02*
X5036401Y-18172174D01*
X5036401Y-18172174D02*
X5036401Y-18219793D01*
X5036401Y-18219793D02*
X5026877Y-18257889D01*
X5026877Y-18257889D02*
X5017353Y-18276936D01*
X5017353Y-18276936D02*
X5007829Y-18286460D01*
X5007829Y-18286460D02*
X4988782Y-18295984D01*
X4988782Y-18295984D02*
X4969734Y-18295984D01*
X4969734Y-18295984D02*
X4950687Y-18286460D01*
X4950687Y-18286460D02*
X4941163Y-18276936D01*
X4941163Y-18276936D02*
X4931639Y-18257889D01*
X4931639Y-18257889D02*
X4922115Y-18219793D01*
X4922115Y-18219793D02*
X4922115Y-18172174D01*
X4922115Y-18172174D02*
X4931639Y-18134079D01*
X4931639Y-18134079D02*
X4941163Y-18115031D01*
X4941163Y-18115031D02*
X4950687Y-18105508D01*
X4950687Y-18105508D02*
X4969734Y-18095984D01*
X5122115Y-18276936D02*
X5131639Y-18286460D01*
X5131639Y-18286460D02*
X5122115Y-18295984D01*
X5122115Y-18295984D02*
X5112591Y-18286460D01*
X5112591Y-18286460D02*
X5122115Y-18276936D01*
X5122115Y-18276936D02*
X5122115Y-18295984D01*
X5255448Y-18095984D02*
X5274496Y-18095984D01*
X5274496Y-18095984D02*
X5293544Y-18105508D01*
X5293544Y-18105508D02*
X5303068Y-18115031D01*
X5303068Y-18115031D02*
X5312591Y-18134079D01*
X5312591Y-18134079D02*
X5322115Y-18172174D01*
X5322115Y-18172174D02*
X5322115Y-18219793D01*
X5322115Y-18219793D02*
X5312591Y-18257889D01*
X5312591Y-18257889D02*
X5303068Y-18276936D01*
X5303068Y-18276936D02*
X5293544Y-18286460D01*
X5293544Y-18286460D02*
X5274496Y-18295984D01*
X5274496Y-18295984D02*
X5255448Y-18295984D01*
X5255448Y-18295984D02*
X5236401Y-18286460D01*
X5236401Y-18286460D02*
X5226877Y-18276936D01*
X5226877Y-18276936D02*
X5217353Y-18257889D01*
X5217353Y-18257889D02*
X5207829Y-18219793D01*
X5207829Y-18219793D02*
X5207829Y-18172174D01*
X5207829Y-18172174D02*
X5217353Y-18134079D01*
X5217353Y-18134079D02*
X5226877Y-18115031D01*
X5226877Y-18115031D02*
X5236401Y-18105508D01*
X5236401Y-18105508D02*
X5255448Y-18095984D01*
X5493544Y-18095984D02*
X5455448Y-18095984D01*
X5455448Y-18095984D02*
X5436401Y-18105508D01*
X5436401Y-18105508D02*
X5426877Y-18115031D01*
X5426877Y-18115031D02*
X5407829Y-18143603D01*
X5407829Y-18143603D02*
X5398306Y-18181698D01*
X5398306Y-18181698D02*
X5398306Y-18257889D01*
X5398306Y-18257889D02*
X5407829Y-18276936D01*
X5407829Y-18276936D02*
X5417353Y-18286460D01*
X5417353Y-18286460D02*
X5436401Y-18295984D01*
X5436401Y-18295984D02*
X5474496Y-18295984D01*
X5474496Y-18295984D02*
X5493544Y-18286460D01*
X5493544Y-18286460D02*
X5503068Y-18276936D01*
X5503068Y-18276936D02*
X5512591Y-18257889D01*
X5512591Y-18257889D02*
X5512591Y-18210270D01*
X5512591Y-18210270D02*
X5503068Y-18191222D01*
X5503068Y-18191222D02*
X5493544Y-18181698D01*
X5493544Y-18181698D02*
X5474496Y-18172174D01*
X5474496Y-18172174D02*
X5436401Y-18172174D01*
X5436401Y-18172174D02*
X5417353Y-18181698D01*
X5417353Y-18181698D02*
X5407829Y-18191222D01*
X5407829Y-18191222D02*
X5398306Y-18210270D01*
X5626877Y-18181698D02*
X5607829Y-18172174D01*
X5607829Y-18172174D02*
X5598306Y-18162650D01*
X5598306Y-18162650D02*
X5588782Y-18143603D01*
X5588782Y-18143603D02*
X5588782Y-18134079D01*
X5588782Y-18134079D02*
X5598306Y-18115031D01*
X5598306Y-18115031D02*
X5607829Y-18105508D01*
X5607829Y-18105508D02*
X5626877Y-18095984D01*
X5626877Y-18095984D02*
X5664972Y-18095984D01*
X5664972Y-18095984D02*
X5684020Y-18105508D01*
X5684020Y-18105508D02*
X5693544Y-18115031D01*
X5693544Y-18115031D02*
X5703067Y-18134079D01*
X5703067Y-18134079D02*
X5703067Y-18143603D01*
X5703067Y-18143603D02*
X5693544Y-18162650D01*
X5693544Y-18162650D02*
X5684020Y-18172174D01*
X5684020Y-18172174D02*
X5664972Y-18181698D01*
X5664972Y-18181698D02*
X5626877Y-18181698D01*
X5626877Y-18181698D02*
X5607829Y-18191222D01*
X5607829Y-18191222D02*
X5598306Y-18200746D01*
X5598306Y-18200746D02*
X5588782Y-18219793D01*
X5588782Y-18219793D02*
X5588782Y-18257889D01*
X5588782Y-18257889D02*
X5598306Y-18276936D01*
X5598306Y-18276936D02*
X5607829Y-18286460D01*
X5607829Y-18286460D02*
X5626877Y-18295984D01*
X5626877Y-18295984D02*
X5664972Y-18295984D01*
X5664972Y-18295984D02*
X5684020Y-18286460D01*
X5684020Y-18286460D02*
X5693544Y-18276936D01*
X5693544Y-18276936D02*
X5703067Y-18257889D01*
X5703067Y-18257889D02*
X5703067Y-18219793D01*
X5703067Y-18219793D02*
X5693544Y-18200746D01*
X5693544Y-18200746D02*
X5684020Y-18191222D01*
X5684020Y-18191222D02*
X5664972Y-18181698D01*
X5798306Y-18295984D02*
X5836401Y-18295984D01*
X5836401Y-18295984D02*
X5855448Y-18286460D01*
X5855448Y-18286460D02*
X5864972Y-18276936D01*
X5864972Y-18276936D02*
X5884020Y-18248365D01*
X5884020Y-18248365D02*
X5893544Y-18210270D01*
X5893544Y-18210270D02*
X5893544Y-18134079D01*
X5893544Y-18134079D02*
X5884020Y-18115031D01*
X5884020Y-18115031D02*
X5874496Y-18105508D01*
X5874496Y-18105508D02*
X5855448Y-18095984D01*
X5855448Y-18095984D02*
X5817353Y-18095984D01*
X5817353Y-18095984D02*
X5798306Y-18105508D01*
X5798306Y-18105508D02*
X5788782Y-18115031D01*
X5788782Y-18115031D02*
X5779258Y-18134079D01*
X5779258Y-18134079D02*
X5779258Y-18181698D01*
X5779258Y-18181698D02*
X5788782Y-18200746D01*
X5788782Y-18200746D02*
X5798306Y-18210270D01*
X5798306Y-18210270D02*
X5817353Y-18219793D01*
X5817353Y-18219793D02*
X5855448Y-18219793D01*
X5855448Y-18219793D02*
X5874496Y-18210270D01*
X5874496Y-18210270D02*
X5884020Y-18200746D01*
X5884020Y-18200746D02*
X5893544Y-18181698D01*
X5969734Y-18095984D02*
X5969734Y-18134079D01*
X6045925Y-18095984D02*
X6045925Y-18134079D01*
X6341163Y-18372174D02*
X6331639Y-18362650D01*
X6331639Y-18362650D02*
X6312591Y-18334079D01*
X6312591Y-18334079D02*
X6303068Y-18315031D01*
X6303068Y-18315031D02*
X6293544Y-18286460D01*
X6293544Y-18286460D02*
X6284020Y-18238841D01*
X6284020Y-18238841D02*
X6284020Y-18200746D01*
X6284020Y-18200746D02*
X6293544Y-18153127D01*
X6293544Y-18153127D02*
X6303068Y-18124555D01*
X6303068Y-18124555D02*
X6312591Y-18105508D01*
X6312591Y-18105508D02*
X6331639Y-18076936D01*
X6331639Y-18076936D02*
X6341163Y-18067412D01*
X6522115Y-18295984D02*
X6407829Y-18295984D01*
X6464972Y-18295984D02*
X6464972Y-18095984D01*
X6464972Y-18095984D02*
X6445925Y-18124555D01*
X6445925Y-18124555D02*
X6426877Y-18143603D01*
X6426877Y-18143603D02*
X6407829Y-18153127D01*
X6712591Y-18295984D02*
X6598306Y-18295984D01*
X6655448Y-18295984D02*
X6655448Y-18095984D01*
X6655448Y-18095984D02*
X6636401Y-18124555D01*
X6636401Y-18124555D02*
X6617353Y-18143603D01*
X6617353Y-18143603D02*
X6598306Y-18153127D01*
X6826877Y-18181698D02*
X6807829Y-18172174D01*
X6807829Y-18172174D02*
X6798306Y-18162650D01*
X6798306Y-18162650D02*
X6788782Y-18143603D01*
X6788782Y-18143603D02*
X6788782Y-18134079D01*
X6788782Y-18134079D02*
X6798306Y-18115031D01*
X6798306Y-18115031D02*
X6807829Y-18105508D01*
X6807829Y-18105508D02*
X6826877Y-18095984D01*
X6826877Y-18095984D02*
X6864972Y-18095984D01*
X6864972Y-18095984D02*
X6884020Y-18105508D01*
X6884020Y-18105508D02*
X6893544Y-18115031D01*
X6893544Y-18115031D02*
X6903068Y-18134079D01*
X6903068Y-18134079D02*
X6903068Y-18143603D01*
X6903068Y-18143603D02*
X6893544Y-18162650D01*
X6893544Y-18162650D02*
X6884020Y-18172174D01*
X6884020Y-18172174D02*
X6864972Y-18181698D01*
X6864972Y-18181698D02*
X6826877Y-18181698D01*
X6826877Y-18181698D02*
X6807829Y-18191222D01*
X6807829Y-18191222D02*
X6798306Y-18200746D01*
X6798306Y-18200746D02*
X6788782Y-18219793D01*
X6788782Y-18219793D02*
X6788782Y-18257889D01*
X6788782Y-18257889D02*
X6798306Y-18276936D01*
X6798306Y-18276936D02*
X6807829Y-18286460D01*
X6807829Y-18286460D02*
X6826877Y-18295984D01*
X6826877Y-18295984D02*
X6864972Y-18295984D01*
X6864972Y-18295984D02*
X6884020Y-18286460D01*
X6884020Y-18286460D02*
X6893544Y-18276936D01*
X6893544Y-18276936D02*
X6903068Y-18257889D01*
X6903068Y-18257889D02*
X6903068Y-18219793D01*
X6903068Y-18219793D02*
X6893544Y-18200746D01*
X6893544Y-18200746D02*
X6884020Y-18191222D01*
X6884020Y-18191222D02*
X6864972Y-18181698D01*
X7141163Y-18295984D02*
X7141163Y-18095984D01*
X7226877Y-18295984D02*
X7226877Y-18191222D01*
X7226877Y-18191222D02*
X7217353Y-18172174D01*
X7217353Y-18172174D02*
X7198306Y-18162650D01*
X7198306Y-18162650D02*
X7169734Y-18162650D01*
X7169734Y-18162650D02*
X7150687Y-18172174D01*
X7150687Y-18172174D02*
X7141163Y-18181698D01*
X7350687Y-18295984D02*
X7331639Y-18286460D01*
X7331639Y-18286460D02*
X7322115Y-18276936D01*
X7322115Y-18276936D02*
X7312591Y-18257889D01*
X7312591Y-18257889D02*
X7312591Y-18200746D01*
X7312591Y-18200746D02*
X7322115Y-18181698D01*
X7322115Y-18181698D02*
X7331639Y-18172174D01*
X7331639Y-18172174D02*
X7350687Y-18162650D01*
X7350687Y-18162650D02*
X7379258Y-18162650D01*
X7379258Y-18162650D02*
X7398306Y-18172174D01*
X7398306Y-18172174D02*
X7407830Y-18181698D01*
X7407830Y-18181698D02*
X7417353Y-18200746D01*
X7417353Y-18200746D02*
X7417353Y-18257889D01*
X7417353Y-18257889D02*
X7407830Y-18276936D01*
X7407830Y-18276936D02*
X7398306Y-18286460D01*
X7398306Y-18286460D02*
X7379258Y-18295984D01*
X7379258Y-18295984D02*
X7350687Y-18295984D01*
X7531639Y-18295984D02*
X7512591Y-18286460D01*
X7512591Y-18286460D02*
X7503068Y-18267412D01*
X7503068Y-18267412D02*
X7503068Y-18095984D01*
X7684020Y-18286460D02*
X7664972Y-18295984D01*
X7664972Y-18295984D02*
X7626877Y-18295984D01*
X7626877Y-18295984D02*
X7607830Y-18286460D01*
X7607830Y-18286460D02*
X7598306Y-18267412D01*
X7598306Y-18267412D02*
X7598306Y-18191222D01*
X7598306Y-18191222D02*
X7607830Y-18172174D01*
X7607830Y-18172174D02*
X7626877Y-18162650D01*
X7626877Y-18162650D02*
X7664972Y-18162650D01*
X7664972Y-18162650D02*
X7684020Y-18172174D01*
X7684020Y-18172174D02*
X7693544Y-18191222D01*
X7693544Y-18191222D02*
X7693544Y-18210270D01*
X7693544Y-18210270D02*
X7598306Y-18229317D01*
X7769734Y-18286460D02*
X7788782Y-18295984D01*
X7788782Y-18295984D02*
X7826877Y-18295984D01*
X7826877Y-18295984D02*
X7845925Y-18286460D01*
X7845925Y-18286460D02*
X7855449Y-18267412D01*
X7855449Y-18267412D02*
X7855449Y-18257889D01*
X7855449Y-18257889D02*
X7845925Y-18238841D01*
X7845925Y-18238841D02*
X7826877Y-18229317D01*
X7826877Y-18229317D02*
X7798306Y-18229317D01*
X7798306Y-18229317D02*
X7779258Y-18219793D01*
X7779258Y-18219793D02*
X7769734Y-18200746D01*
X7769734Y-18200746D02*
X7769734Y-18191222D01*
X7769734Y-18191222D02*
X7779258Y-18172174D01*
X7779258Y-18172174D02*
X7798306Y-18162650D01*
X7798306Y-18162650D02*
X7826877Y-18162650D01*
X7826877Y-18162650D02*
X7845925Y-18172174D01*
X7922115Y-18372174D02*
X7931639Y-18362650D01*
X7931639Y-18362650D02*
X7950687Y-18334079D01*
X7950687Y-18334079D02*
X7960211Y-18315031D01*
X7960211Y-18315031D02*
X7969734Y-18286460D01*
X7969734Y-18286460D02*
X7979258Y-18238841D01*
X7979258Y-18238841D02*
X7979258Y-18200746D01*
X7979258Y-18200746D02*
X7969734Y-18153127D01*
X7969734Y-18153127D02*
X7960211Y-18124555D01*
X7960211Y-18124555D02*
X7950687Y-18105508D01*
X7950687Y-18105508D02*
X7931639Y-18076936D01*
X7931639Y-18076936D02*
X7922115Y-18067412D01*
X8284020Y-18372174D02*
X8274496Y-18362650D01*
X8274496Y-18362650D02*
X8255449Y-18334079D01*
X8255449Y-18334079D02*
X8245925Y-18315031D01*
X8245925Y-18315031D02*
X8236401Y-18286460D01*
X8236401Y-18286460D02*
X8226877Y-18238841D01*
X8226877Y-18238841D02*
X8226877Y-18200746D01*
X8226877Y-18200746D02*
X8236401Y-18153127D01*
X8236401Y-18153127D02*
X8245925Y-18124555D01*
X8245925Y-18124555D02*
X8255449Y-18105508D01*
X8255449Y-18105508D02*
X8274496Y-18076936D01*
X8274496Y-18076936D02*
X8284020Y-18067412D01*
X8360211Y-18162650D02*
X8360211Y-18295984D01*
X8360211Y-18181698D02*
X8369734Y-18172174D01*
X8369734Y-18172174D02*
X8388782Y-18162650D01*
X8388782Y-18162650D02*
X8417354Y-18162650D01*
X8417354Y-18162650D02*
X8436401Y-18172174D01*
X8436401Y-18172174D02*
X8445925Y-18191222D01*
X8445925Y-18191222D02*
X8445925Y-18295984D01*
X8569734Y-18295984D02*
X8550687Y-18286460D01*
X8550687Y-18286460D02*
X8541163Y-18276936D01*
X8541163Y-18276936D02*
X8531639Y-18257889D01*
X8531639Y-18257889D02*
X8531639Y-18200746D01*
X8531639Y-18200746D02*
X8541163Y-18181698D01*
X8541163Y-18181698D02*
X8550687Y-18172174D01*
X8550687Y-18172174D02*
X8569734Y-18162650D01*
X8569734Y-18162650D02*
X8598306Y-18162650D01*
X8598306Y-18162650D02*
X8617354Y-18172174D01*
X8617354Y-18172174D02*
X8626877Y-18181698D01*
X8626877Y-18181698D02*
X8636401Y-18200746D01*
X8636401Y-18200746D02*
X8636401Y-18257889D01*
X8636401Y-18257889D02*
X8626877Y-18276936D01*
X8626877Y-18276936D02*
X8617354Y-18286460D01*
X8617354Y-18286460D02*
X8598306Y-18295984D01*
X8598306Y-18295984D02*
X8569734Y-18295984D01*
X8693544Y-18162650D02*
X8769734Y-18162650D01*
X8722115Y-18095984D02*
X8722115Y-18267412D01*
X8722115Y-18267412D02*
X8731639Y-18286460D01*
X8731639Y-18286460D02*
X8750687Y-18295984D01*
X8750687Y-18295984D02*
X8769734Y-18295984D01*
X8988782Y-18162650D02*
X8988782Y-18362650D01*
X8988782Y-18172174D02*
X9007830Y-18162650D01*
X9007830Y-18162650D02*
X9045925Y-18162650D01*
X9045925Y-18162650D02*
X9064973Y-18172174D01*
X9064973Y-18172174D02*
X9074496Y-18181698D01*
X9074496Y-18181698D02*
X9084020Y-18200746D01*
X9084020Y-18200746D02*
X9084020Y-18257889D01*
X9084020Y-18257889D02*
X9074496Y-18276936D01*
X9074496Y-18276936D02*
X9064973Y-18286460D01*
X9064973Y-18286460D02*
X9045925Y-18295984D01*
X9045925Y-18295984D02*
X9007830Y-18295984D01*
X9007830Y-18295984D02*
X8988782Y-18286460D01*
X9198306Y-18295984D02*
X9179258Y-18286460D01*
X9179258Y-18286460D02*
X9169735Y-18267412D01*
X9169735Y-18267412D02*
X9169735Y-18095984D01*
X9360211Y-18295984D02*
X9360211Y-18191222D01*
X9360211Y-18191222D02*
X9350687Y-18172174D01*
X9350687Y-18172174D02*
X9331639Y-18162650D01*
X9331639Y-18162650D02*
X9293544Y-18162650D01*
X9293544Y-18162650D02*
X9274496Y-18172174D01*
X9360211Y-18286460D02*
X9341163Y-18295984D01*
X9341163Y-18295984D02*
X9293544Y-18295984D01*
X9293544Y-18295984D02*
X9274496Y-18286460D01*
X9274496Y-18286460D02*
X9264973Y-18267412D01*
X9264973Y-18267412D02*
X9264973Y-18248365D01*
X9264973Y-18248365D02*
X9274496Y-18229317D01*
X9274496Y-18229317D02*
X9293544Y-18219793D01*
X9293544Y-18219793D02*
X9341163Y-18219793D01*
X9341163Y-18219793D02*
X9360211Y-18210270D01*
X9426877Y-18162650D02*
X9503068Y-18162650D01*
X9455449Y-18095984D02*
X9455449Y-18267412D01*
X9455449Y-18267412D02*
X9464973Y-18286460D01*
X9464973Y-18286460D02*
X9484020Y-18295984D01*
X9484020Y-18295984D02*
X9503068Y-18295984D01*
X9645925Y-18286460D02*
X9626877Y-18295984D01*
X9626877Y-18295984D02*
X9588782Y-18295984D01*
X9588782Y-18295984D02*
X9569735Y-18286460D01*
X9569735Y-18286460D02*
X9560211Y-18267412D01*
X9560211Y-18267412D02*
X9560211Y-18191222D01*
X9560211Y-18191222D02*
X9569735Y-18172174D01*
X9569735Y-18172174D02*
X9588782Y-18162650D01*
X9588782Y-18162650D02*
X9626877Y-18162650D01*
X9626877Y-18162650D02*
X9645925Y-18172174D01*
X9645925Y-18172174D02*
X9655449Y-18191222D01*
X9655449Y-18191222D02*
X9655449Y-18210270D01*
X9655449Y-18210270D02*
X9560211Y-18229317D01*
X9826877Y-18295984D02*
X9826877Y-18095984D01*
X9826877Y-18286460D02*
X9807830Y-18295984D01*
X9807830Y-18295984D02*
X9769735Y-18295984D01*
X9769735Y-18295984D02*
X9750687Y-18286460D01*
X9750687Y-18286460D02*
X9741163Y-18276936D01*
X9741163Y-18276936D02*
X9731639Y-18257889D01*
X9731639Y-18257889D02*
X9731639Y-18200746D01*
X9731639Y-18200746D02*
X9741163Y-18181698D01*
X9741163Y-18181698D02*
X9750687Y-18172174D01*
X9750687Y-18172174D02*
X9769735Y-18162650D01*
X9769735Y-18162650D02*
X9807830Y-18162650D01*
X9807830Y-18162650D02*
X9826877Y-18172174D01*
X9903068Y-18372174D02*
X9912592Y-18362650D01*
X9912592Y-18362650D02*
X9931639Y-18334079D01*
X9931639Y-18334079D02*
X9941163Y-18315031D01*
X9941163Y-18315031D02*
X9950687Y-18286460D01*
X9950687Y-18286460D02*
X9960211Y-18238841D01*
X9960211Y-18238841D02*
X9960211Y-18200746D01*
X9960211Y-18200746D02*
X9950687Y-18153127D01*
X9950687Y-18153127D02*
X9941163Y-18124555D01*
X9941163Y-18124555D02*
X9931639Y-18105508D01*
X9931639Y-18105508D02*
X9912592Y-18076936D01*
X9912592Y-18076936D02*
X9903068Y-18067412D01*
X2666100Y-18399500D02*
X2666100Y-18599500D01*
X2566100Y-18499500D02*
X2766100Y-18499500D01*
X3007829Y-18390984D02*
X3131639Y-18390984D01*
X3131639Y-18390984D02*
X3064972Y-18467174D01*
X3064972Y-18467174D02*
X3093543Y-18467174D01*
X3093543Y-18467174D02*
X3112591Y-18476698D01*
X3112591Y-18476698D02*
X3122115Y-18486222D01*
X3122115Y-18486222D02*
X3131639Y-18505270D01*
X3131639Y-18505270D02*
X3131639Y-18552889D01*
X3131639Y-18552889D02*
X3122115Y-18571936D01*
X3122115Y-18571936D02*
X3112591Y-18581460D01*
X3112591Y-18581460D02*
X3093543Y-18590984D01*
X3093543Y-18590984D02*
X3036401Y-18590984D01*
X3036401Y-18590984D02*
X3017353Y-18581460D01*
X3017353Y-18581460D02*
X3007829Y-18571936D01*
X3217353Y-18571936D02*
X3226877Y-18581460D01*
X3226877Y-18581460D02*
X3217353Y-18590984D01*
X3217353Y-18590984D02*
X3207829Y-18581460D01*
X3207829Y-18581460D02*
X3217353Y-18571936D01*
X3217353Y-18571936D02*
X3217353Y-18590984D01*
X3350686Y-18390984D02*
X3369734Y-18390984D01*
X3369734Y-18390984D02*
X3388782Y-18400508D01*
X3388782Y-18400508D02*
X3398305Y-18410031D01*
X3398305Y-18410031D02*
X3407829Y-18429079D01*
X3407829Y-18429079D02*
X3417353Y-18467174D01*
X3417353Y-18467174D02*
X3417353Y-18514793D01*
X3417353Y-18514793D02*
X3407829Y-18552889D01*
X3407829Y-18552889D02*
X3398305Y-18571936D01*
X3398305Y-18571936D02*
X3388782Y-18581460D01*
X3388782Y-18581460D02*
X3369734Y-18590984D01*
X3369734Y-18590984D02*
X3350686Y-18590984D01*
X3350686Y-18590984D02*
X3331639Y-18581460D01*
X3331639Y-18581460D02*
X3322115Y-18571936D01*
X3322115Y-18571936D02*
X3312591Y-18552889D01*
X3312591Y-18552889D02*
X3303067Y-18514793D01*
X3303067Y-18514793D02*
X3303067Y-18467174D01*
X3303067Y-18467174D02*
X3312591Y-18429079D01*
X3312591Y-18429079D02*
X3322115Y-18410031D01*
X3322115Y-18410031D02*
X3331639Y-18400508D01*
X3331639Y-18400508D02*
X3350686Y-18390984D01*
X3598305Y-18390984D02*
X3503067Y-18390984D01*
X3503067Y-18390984D02*
X3493543Y-18486222D01*
X3493543Y-18486222D02*
X3503067Y-18476698D01*
X3503067Y-18476698D02*
X3522115Y-18467174D01*
X3522115Y-18467174D02*
X3569734Y-18467174D01*
X3569734Y-18467174D02*
X3588782Y-18476698D01*
X3588782Y-18476698D02*
X3598305Y-18486222D01*
X3598305Y-18486222D02*
X3607829Y-18505270D01*
X3607829Y-18505270D02*
X3607829Y-18552889D01*
X3607829Y-18552889D02*
X3598305Y-18571936D01*
X3598305Y-18571936D02*
X3588782Y-18581460D01*
X3588782Y-18581460D02*
X3569734Y-18590984D01*
X3569734Y-18590984D02*
X3522115Y-18590984D01*
X3522115Y-18590984D02*
X3503067Y-18581460D01*
X3503067Y-18581460D02*
X3493543Y-18571936D01*
X3731639Y-18390984D02*
X3750686Y-18390984D01*
X3750686Y-18390984D02*
X3769734Y-18400508D01*
X3769734Y-18400508D02*
X3779258Y-18410031D01*
X3779258Y-18410031D02*
X3788782Y-18429079D01*
X3788782Y-18429079D02*
X3798305Y-18467174D01*
X3798305Y-18467174D02*
X3798305Y-18514793D01*
X3798305Y-18514793D02*
X3788782Y-18552889D01*
X3788782Y-18552889D02*
X3779258Y-18571936D01*
X3779258Y-18571936D02*
X3769734Y-18581460D01*
X3769734Y-18581460D02*
X3750686Y-18590984D01*
X3750686Y-18590984D02*
X3731639Y-18590984D01*
X3731639Y-18590984D02*
X3712591Y-18581460D01*
X3712591Y-18581460D02*
X3703067Y-18571936D01*
X3703067Y-18571936D02*
X3693543Y-18552889D01*
X3693543Y-18552889D02*
X3684020Y-18514793D01*
X3684020Y-18514793D02*
X3684020Y-18467174D01*
X3684020Y-18467174D02*
X3693543Y-18429079D01*
X3693543Y-18429079D02*
X3703067Y-18410031D01*
X3703067Y-18410031D02*
X3712591Y-18400508D01*
X3712591Y-18400508D02*
X3731639Y-18390984D01*
X3884020Y-18590984D02*
X3884020Y-18457650D01*
X3884020Y-18476698D02*
X3893543Y-18467174D01*
X3893543Y-18467174D02*
X3912591Y-18457650D01*
X3912591Y-18457650D02*
X3941163Y-18457650D01*
X3941163Y-18457650D02*
X3960210Y-18467174D01*
X3960210Y-18467174D02*
X3969734Y-18486222D01*
X3969734Y-18486222D02*
X3969734Y-18590984D01*
X3969734Y-18486222D02*
X3979258Y-18467174D01*
X3979258Y-18467174D02*
X3998305Y-18457650D01*
X3998305Y-18457650D02*
X4026877Y-18457650D01*
X4026877Y-18457650D02*
X4045924Y-18467174D01*
X4045924Y-18467174D02*
X4055448Y-18486222D01*
X4055448Y-18486222D02*
X4055448Y-18590984D01*
X4150686Y-18590984D02*
X4150686Y-18457650D01*
X4150686Y-18476698D02*
X4160210Y-18467174D01*
X4160210Y-18467174D02*
X4179258Y-18457650D01*
X4179258Y-18457650D02*
X4207829Y-18457650D01*
X4207829Y-18457650D02*
X4226877Y-18467174D01*
X4226877Y-18467174D02*
X4236401Y-18486222D01*
X4236401Y-18486222D02*
X4236401Y-18590984D01*
X4236401Y-18486222D02*
X4245925Y-18467174D01*
X4245925Y-18467174D02*
X4264972Y-18457650D01*
X4264972Y-18457650D02*
X4293544Y-18457650D01*
X4293544Y-18457650D02*
X4312591Y-18467174D01*
X4312591Y-18467174D02*
X4322115Y-18486222D01*
X4322115Y-18486222D02*
X4322115Y-18590984D01*
X4712591Y-18381460D02*
X4541163Y-18638603D01*
X4969734Y-18390984D02*
X4988782Y-18390984D01*
X4988782Y-18390984D02*
X5007829Y-18400508D01*
X5007829Y-18400508D02*
X5017353Y-18410031D01*
X5017353Y-18410031D02*
X5026877Y-18429079D01*
X5026877Y-18429079D02*
X5036401Y-18467174D01*
X5036401Y-18467174D02*
X5036401Y-18514793D01*
X5036401Y-18514793D02*
X5026877Y-18552889D01*
X5026877Y-18552889D02*
X5017353Y-18571936D01*
X5017353Y-18571936D02*
X5007829Y-18581460D01*
X5007829Y-18581460D02*
X4988782Y-18590984D01*
X4988782Y-18590984D02*
X4969734Y-18590984D01*
X4969734Y-18590984D02*
X4950687Y-18581460D01*
X4950687Y-18581460D02*
X4941163Y-18571936D01*
X4941163Y-18571936D02*
X4931639Y-18552889D01*
X4931639Y-18552889D02*
X4922115Y-18514793D01*
X4922115Y-18514793D02*
X4922115Y-18467174D01*
X4922115Y-18467174D02*
X4931639Y-18429079D01*
X4931639Y-18429079D02*
X4941163Y-18410031D01*
X4941163Y-18410031D02*
X4950687Y-18400508D01*
X4950687Y-18400508D02*
X4969734Y-18390984D01*
X5122115Y-18571936D02*
X5131639Y-18581460D01*
X5131639Y-18581460D02*
X5122115Y-18590984D01*
X5122115Y-18590984D02*
X5112591Y-18581460D01*
X5112591Y-18581460D02*
X5122115Y-18571936D01*
X5122115Y-18571936D02*
X5122115Y-18590984D01*
X5322115Y-18590984D02*
X5207829Y-18590984D01*
X5264972Y-18590984D02*
X5264972Y-18390984D01*
X5264972Y-18390984D02*
X5245925Y-18419555D01*
X5245925Y-18419555D02*
X5226877Y-18438603D01*
X5226877Y-18438603D02*
X5207829Y-18448127D01*
X5398306Y-18410031D02*
X5407829Y-18400508D01*
X5407829Y-18400508D02*
X5426877Y-18390984D01*
X5426877Y-18390984D02*
X5474496Y-18390984D01*
X5474496Y-18390984D02*
X5493544Y-18400508D01*
X5493544Y-18400508D02*
X5503068Y-18410031D01*
X5503068Y-18410031D02*
X5512591Y-18429079D01*
X5512591Y-18429079D02*
X5512591Y-18448127D01*
X5512591Y-18448127D02*
X5503068Y-18476698D01*
X5503068Y-18476698D02*
X5388782Y-18590984D01*
X5388782Y-18590984D02*
X5512591Y-18590984D01*
X5636401Y-18390984D02*
X5655448Y-18390984D01*
X5655448Y-18390984D02*
X5674496Y-18400508D01*
X5674496Y-18400508D02*
X5684020Y-18410031D01*
X5684020Y-18410031D02*
X5693544Y-18429079D01*
X5693544Y-18429079D02*
X5703067Y-18467174D01*
X5703067Y-18467174D02*
X5703067Y-18514793D01*
X5703067Y-18514793D02*
X5693544Y-18552889D01*
X5693544Y-18552889D02*
X5684020Y-18571936D01*
X5684020Y-18571936D02*
X5674496Y-18581460D01*
X5674496Y-18581460D02*
X5655448Y-18590984D01*
X5655448Y-18590984D02*
X5636401Y-18590984D01*
X5636401Y-18590984D02*
X5617353Y-18581460D01*
X5617353Y-18581460D02*
X5607829Y-18571936D01*
X5607829Y-18571936D02*
X5598306Y-18552889D01*
X5598306Y-18552889D02*
X5588782Y-18514793D01*
X5588782Y-18514793D02*
X5588782Y-18467174D01*
X5588782Y-18467174D02*
X5598306Y-18429079D01*
X5598306Y-18429079D02*
X5607829Y-18410031D01*
X5607829Y-18410031D02*
X5617353Y-18400508D01*
X5617353Y-18400508D02*
X5636401Y-18390984D01*
X5893544Y-18590984D02*
X5779258Y-18590984D01*
X5836401Y-18590984D02*
X5836401Y-18390984D01*
X5836401Y-18390984D02*
X5817353Y-18419555D01*
X5817353Y-18419555D02*
X5798306Y-18438603D01*
X5798306Y-18438603D02*
X5779258Y-18448127D01*
X5969734Y-18390984D02*
X5969734Y-18429079D01*
X6045925Y-18390984D02*
X6045925Y-18429079D01*
X6341163Y-18667174D02*
X6331639Y-18657650D01*
X6331639Y-18657650D02*
X6312591Y-18629079D01*
X6312591Y-18629079D02*
X6303068Y-18610031D01*
X6303068Y-18610031D02*
X6293544Y-18581460D01*
X6293544Y-18581460D02*
X6284020Y-18533841D01*
X6284020Y-18533841D02*
X6284020Y-18495746D01*
X6284020Y-18495746D02*
X6293544Y-18448127D01*
X6293544Y-18448127D02*
X6303068Y-18419555D01*
X6303068Y-18419555D02*
X6312591Y-18400508D01*
X6312591Y-18400508D02*
X6331639Y-18371936D01*
X6331639Y-18371936D02*
X6341163Y-18362412D01*
X6522115Y-18590984D02*
X6407829Y-18590984D01*
X6464972Y-18590984D02*
X6464972Y-18390984D01*
X6464972Y-18390984D02*
X6445925Y-18419555D01*
X6445925Y-18419555D02*
X6426877Y-18438603D01*
X6426877Y-18438603D02*
X6407829Y-18448127D01*
X6645925Y-18390984D02*
X6664972Y-18390984D01*
X6664972Y-18390984D02*
X6684020Y-18400508D01*
X6684020Y-18400508D02*
X6693544Y-18410031D01*
X6693544Y-18410031D02*
X6703068Y-18429079D01*
X6703068Y-18429079D02*
X6712591Y-18467174D01*
X6712591Y-18467174D02*
X6712591Y-18514793D01*
X6712591Y-18514793D02*
X6703068Y-18552889D01*
X6703068Y-18552889D02*
X6693544Y-18571936D01*
X6693544Y-18571936D02*
X6684020Y-18581460D01*
X6684020Y-18581460D02*
X6664972Y-18590984D01*
X6664972Y-18590984D02*
X6645925Y-18590984D01*
X6645925Y-18590984D02*
X6626877Y-18581460D01*
X6626877Y-18581460D02*
X6617353Y-18571936D01*
X6617353Y-18571936D02*
X6607829Y-18552889D01*
X6607829Y-18552889D02*
X6598306Y-18514793D01*
X6598306Y-18514793D02*
X6598306Y-18467174D01*
X6598306Y-18467174D02*
X6607829Y-18429079D01*
X6607829Y-18429079D02*
X6617353Y-18410031D01*
X6617353Y-18410031D02*
X6626877Y-18400508D01*
X6626877Y-18400508D02*
X6645925Y-18390984D01*
X6950687Y-18590984D02*
X6950687Y-18390984D01*
X7036401Y-18590984D02*
X7036401Y-18486222D01*
X7036401Y-18486222D02*
X7026877Y-18467174D01*
X7026877Y-18467174D02*
X7007830Y-18457650D01*
X7007830Y-18457650D02*
X6979258Y-18457650D01*
X6979258Y-18457650D02*
X6960210Y-18467174D01*
X6960210Y-18467174D02*
X6950687Y-18476698D01*
X7160210Y-18590984D02*
X7141163Y-18581460D01*
X7141163Y-18581460D02*
X7131639Y-18571936D01*
X7131639Y-18571936D02*
X7122115Y-18552889D01*
X7122115Y-18552889D02*
X7122115Y-18495746D01*
X7122115Y-18495746D02*
X7131639Y-18476698D01*
X7131639Y-18476698D02*
X7141163Y-18467174D01*
X7141163Y-18467174D02*
X7160210Y-18457650D01*
X7160210Y-18457650D02*
X7188782Y-18457650D01*
X7188782Y-18457650D02*
X7207830Y-18467174D01*
X7207830Y-18467174D02*
X7217353Y-18476698D01*
X7217353Y-18476698D02*
X7226877Y-18495746D01*
X7226877Y-18495746D02*
X7226877Y-18552889D01*
X7226877Y-18552889D02*
X7217353Y-18571936D01*
X7217353Y-18571936D02*
X7207830Y-18581460D01*
X7207830Y-18581460D02*
X7188782Y-18590984D01*
X7188782Y-18590984D02*
X7160210Y-18590984D01*
X7341163Y-18590984D02*
X7322115Y-18581460D01*
X7322115Y-18581460D02*
X7312591Y-18562412D01*
X7312591Y-18562412D02*
X7312591Y-18390984D01*
X7493544Y-18581460D02*
X7474496Y-18590984D01*
X7474496Y-18590984D02*
X7436401Y-18590984D01*
X7436401Y-18590984D02*
X7417353Y-18581460D01*
X7417353Y-18581460D02*
X7407830Y-18562412D01*
X7407830Y-18562412D02*
X7407830Y-18486222D01*
X7407830Y-18486222D02*
X7417353Y-18467174D01*
X7417353Y-18467174D02*
X7436401Y-18457650D01*
X7436401Y-18457650D02*
X7474496Y-18457650D01*
X7474496Y-18457650D02*
X7493544Y-18467174D01*
X7493544Y-18467174D02*
X7503068Y-18486222D01*
X7503068Y-18486222D02*
X7503068Y-18505270D01*
X7503068Y-18505270D02*
X7407830Y-18524317D01*
X7579258Y-18581460D02*
X7598306Y-18590984D01*
X7598306Y-18590984D02*
X7636401Y-18590984D01*
X7636401Y-18590984D02*
X7655449Y-18581460D01*
X7655449Y-18581460D02*
X7664972Y-18562412D01*
X7664972Y-18562412D02*
X7664972Y-18552889D01*
X7664972Y-18552889D02*
X7655449Y-18533841D01*
X7655449Y-18533841D02*
X7636401Y-18524317D01*
X7636401Y-18524317D02*
X7607830Y-18524317D01*
X7607830Y-18524317D02*
X7588782Y-18514793D01*
X7588782Y-18514793D02*
X7579258Y-18495746D01*
X7579258Y-18495746D02*
X7579258Y-18486222D01*
X7579258Y-18486222D02*
X7588782Y-18467174D01*
X7588782Y-18467174D02*
X7607830Y-18457650D01*
X7607830Y-18457650D02*
X7636401Y-18457650D01*
X7636401Y-18457650D02*
X7655449Y-18467174D01*
X7731639Y-18667174D02*
X7741163Y-18657650D01*
X7741163Y-18657650D02*
X7760211Y-18629079D01*
X7760211Y-18629079D02*
X7769734Y-18610031D01*
X7769734Y-18610031D02*
X7779258Y-18581460D01*
X7779258Y-18581460D02*
X7788782Y-18533841D01*
X7788782Y-18533841D02*
X7788782Y-18495746D01*
X7788782Y-18495746D02*
X7779258Y-18448127D01*
X7779258Y-18448127D02*
X7769734Y-18419555D01*
X7769734Y-18419555D02*
X7760211Y-18400508D01*
X7760211Y-18400508D02*
X7741163Y-18371936D01*
X7741163Y-18371936D02*
X7731639Y-18362412D01*
X8093544Y-18667174D02*
X8084020Y-18657650D01*
X8084020Y-18657650D02*
X8064972Y-18629079D01*
X8064972Y-18629079D02*
X8055449Y-18610031D01*
X8055449Y-18610031D02*
X8045925Y-18581460D01*
X8045925Y-18581460D02*
X8036401Y-18533841D01*
X8036401Y-18533841D02*
X8036401Y-18495746D01*
X8036401Y-18495746D02*
X8045925Y-18448127D01*
X8045925Y-18448127D02*
X8055449Y-18419555D01*
X8055449Y-18419555D02*
X8064972Y-18400508D01*
X8064972Y-18400508D02*
X8084020Y-18371936D01*
X8084020Y-18371936D02*
X8093544Y-18362412D01*
X8169734Y-18457650D02*
X8169734Y-18590984D01*
X8169734Y-18476698D02*
X8179258Y-18467174D01*
X8179258Y-18467174D02*
X8198306Y-18457650D01*
X8198306Y-18457650D02*
X8226877Y-18457650D01*
X8226877Y-18457650D02*
X8245925Y-18467174D01*
X8245925Y-18467174D02*
X8255449Y-18486222D01*
X8255449Y-18486222D02*
X8255449Y-18590984D01*
X8379258Y-18590984D02*
X8360211Y-18581460D01*
X8360211Y-18581460D02*
X8350687Y-18571936D01*
X8350687Y-18571936D02*
X8341163Y-18552889D01*
X8341163Y-18552889D02*
X8341163Y-18495746D01*
X8341163Y-18495746D02*
X8350687Y-18476698D01*
X8350687Y-18476698D02*
X8360211Y-18467174D01*
X8360211Y-18467174D02*
X8379258Y-18457650D01*
X8379258Y-18457650D02*
X8407830Y-18457650D01*
X8407830Y-18457650D02*
X8426877Y-18467174D01*
X8426877Y-18467174D02*
X8436401Y-18476698D01*
X8436401Y-18476698D02*
X8445925Y-18495746D01*
X8445925Y-18495746D02*
X8445925Y-18552889D01*
X8445925Y-18552889D02*
X8436401Y-18571936D01*
X8436401Y-18571936D02*
X8426877Y-18581460D01*
X8426877Y-18581460D02*
X8407830Y-18590984D01*
X8407830Y-18590984D02*
X8379258Y-18590984D01*
X8503068Y-18457650D02*
X8579258Y-18457650D01*
X8531639Y-18390984D02*
X8531639Y-18562412D01*
X8531639Y-18562412D02*
X8541163Y-18581460D01*
X8541163Y-18581460D02*
X8560211Y-18590984D01*
X8560211Y-18590984D02*
X8579258Y-18590984D01*
X8798306Y-18457650D02*
X8798306Y-18657650D01*
X8798306Y-18467174D02*
X8817354Y-18457650D01*
X8817354Y-18457650D02*
X8855449Y-18457650D01*
X8855449Y-18457650D02*
X8874496Y-18467174D01*
X8874496Y-18467174D02*
X8884020Y-18476698D01*
X8884020Y-18476698D02*
X8893544Y-18495746D01*
X8893544Y-18495746D02*
X8893544Y-18552889D01*
X8893544Y-18552889D02*
X8884020Y-18571936D01*
X8884020Y-18571936D02*
X8874496Y-18581460D01*
X8874496Y-18581460D02*
X8855449Y-18590984D01*
X8855449Y-18590984D02*
X8817354Y-18590984D01*
X8817354Y-18590984D02*
X8798306Y-18581460D01*
X9007830Y-18590984D02*
X8988782Y-18581460D01*
X8988782Y-18581460D02*
X8979258Y-18562412D01*
X8979258Y-18562412D02*
X8979258Y-18390984D01*
X9169735Y-18590984D02*
X9169735Y-18486222D01*
X9169735Y-18486222D02*
X9160211Y-18467174D01*
X9160211Y-18467174D02*
X9141163Y-18457650D01*
X9141163Y-18457650D02*
X9103068Y-18457650D01*
X9103068Y-18457650D02*
X9084020Y-18467174D01*
X9169735Y-18581460D02*
X9150687Y-18590984D01*
X9150687Y-18590984D02*
X9103068Y-18590984D01*
X9103068Y-18590984D02*
X9084020Y-18581460D01*
X9084020Y-18581460D02*
X9074496Y-18562412D01*
X9074496Y-18562412D02*
X9074496Y-18543365D01*
X9074496Y-18543365D02*
X9084020Y-18524317D01*
X9084020Y-18524317D02*
X9103068Y-18514793D01*
X9103068Y-18514793D02*
X9150687Y-18514793D01*
X9150687Y-18514793D02*
X9169735Y-18505270D01*
X9236401Y-18457650D02*
X9312592Y-18457650D01*
X9264973Y-18390984D02*
X9264973Y-18562412D01*
X9264973Y-18562412D02*
X9274496Y-18581460D01*
X9274496Y-18581460D02*
X9293544Y-18590984D01*
X9293544Y-18590984D02*
X9312592Y-18590984D01*
X9455449Y-18581460D02*
X9436401Y-18590984D01*
X9436401Y-18590984D02*
X9398306Y-18590984D01*
X9398306Y-18590984D02*
X9379258Y-18581460D01*
X9379258Y-18581460D02*
X9369735Y-18562412D01*
X9369735Y-18562412D02*
X9369735Y-18486222D01*
X9369735Y-18486222D02*
X9379258Y-18467174D01*
X9379258Y-18467174D02*
X9398306Y-18457650D01*
X9398306Y-18457650D02*
X9436401Y-18457650D01*
X9436401Y-18457650D02*
X9455449Y-18467174D01*
X9455449Y-18467174D02*
X9464973Y-18486222D01*
X9464973Y-18486222D02*
X9464973Y-18505270D01*
X9464973Y-18505270D02*
X9369735Y-18524317D01*
X9636401Y-18590984D02*
X9636401Y-18390984D01*
X9636401Y-18581460D02*
X9617354Y-18590984D01*
X9617354Y-18590984D02*
X9579258Y-18590984D01*
X9579258Y-18590984D02*
X9560211Y-18581460D01*
X9560211Y-18581460D02*
X9550687Y-18571936D01*
X9550687Y-18571936D02*
X9541163Y-18552889D01*
X9541163Y-18552889D02*
X9541163Y-18495746D01*
X9541163Y-18495746D02*
X9550687Y-18476698D01*
X9550687Y-18476698D02*
X9560211Y-18467174D01*
X9560211Y-18467174D02*
X9579258Y-18457650D01*
X9579258Y-18457650D02*
X9617354Y-18457650D01*
X9617354Y-18457650D02*
X9636401Y-18467174D01*
X9712592Y-18667174D02*
X9722116Y-18657650D01*
X9722116Y-18657650D02*
X9741163Y-18629079D01*
X9741163Y-18629079D02*
X9750687Y-18610031D01*
X9750687Y-18610031D02*
X9760211Y-18581460D01*
X9760211Y-18581460D02*
X9769735Y-18533841D01*
X9769735Y-18533841D02*
X9769735Y-18495746D01*
X9769735Y-18495746D02*
X9760211Y-18448127D01*
X9760211Y-18448127D02*
X9750687Y-18419555D01*
X9750687Y-18419555D02*
X9741163Y-18400508D01*
X9741163Y-18400508D02*
X9722116Y-18371936D01*
X9722116Y-18371936D02*
X9712592Y-18362412D01*
X2736811Y-18890211D02*
X2736811Y-18748789D01*
X2595389Y-18748789D01*
X2595389Y-18890211D01*
X2736811Y-18890211D01*
X3112591Y-18777650D02*
X3112591Y-18910984D01*
X3064972Y-18701460D02*
X3017353Y-18844317D01*
X3017353Y-18844317D02*
X3141162Y-18844317D01*
X3217353Y-18891936D02*
X3226877Y-18901460D01*
X3226877Y-18901460D02*
X3217353Y-18910984D01*
X3217353Y-18910984D02*
X3207829Y-18901460D01*
X3207829Y-18901460D02*
X3217353Y-18891936D01*
X3217353Y-18891936D02*
X3217353Y-18910984D01*
X3350686Y-18710984D02*
X3369734Y-18710984D01*
X3369734Y-18710984D02*
X3388782Y-18720508D01*
X3388782Y-18720508D02*
X3398305Y-18730031D01*
X3398305Y-18730031D02*
X3407829Y-18749079D01*
X3407829Y-18749079D02*
X3417353Y-18787174D01*
X3417353Y-18787174D02*
X3417353Y-18834793D01*
X3417353Y-18834793D02*
X3407829Y-18872889D01*
X3407829Y-18872889D02*
X3398305Y-18891936D01*
X3398305Y-18891936D02*
X3388782Y-18901460D01*
X3388782Y-18901460D02*
X3369734Y-18910984D01*
X3369734Y-18910984D02*
X3350686Y-18910984D01*
X3350686Y-18910984D02*
X3331639Y-18901460D01*
X3331639Y-18901460D02*
X3322115Y-18891936D01*
X3322115Y-18891936D02*
X3312591Y-18872889D01*
X3312591Y-18872889D02*
X3303067Y-18834793D01*
X3303067Y-18834793D02*
X3303067Y-18787174D01*
X3303067Y-18787174D02*
X3312591Y-18749079D01*
X3312591Y-18749079D02*
X3322115Y-18730031D01*
X3322115Y-18730031D02*
X3331639Y-18720508D01*
X3331639Y-18720508D02*
X3350686Y-18710984D01*
X3541162Y-18710984D02*
X3560210Y-18710984D01*
X3560210Y-18710984D02*
X3579258Y-18720508D01*
X3579258Y-18720508D02*
X3588782Y-18730031D01*
X3588782Y-18730031D02*
X3598305Y-18749079D01*
X3598305Y-18749079D02*
X3607829Y-18787174D01*
X3607829Y-18787174D02*
X3607829Y-18834793D01*
X3607829Y-18834793D02*
X3598305Y-18872889D01*
X3598305Y-18872889D02*
X3588782Y-18891936D01*
X3588782Y-18891936D02*
X3579258Y-18901460D01*
X3579258Y-18901460D02*
X3560210Y-18910984D01*
X3560210Y-18910984D02*
X3541162Y-18910984D01*
X3541162Y-18910984D02*
X3522115Y-18901460D01*
X3522115Y-18901460D02*
X3512591Y-18891936D01*
X3512591Y-18891936D02*
X3503067Y-18872889D01*
X3503067Y-18872889D02*
X3493543Y-18834793D01*
X3493543Y-18834793D02*
X3493543Y-18787174D01*
X3493543Y-18787174D02*
X3503067Y-18749079D01*
X3503067Y-18749079D02*
X3512591Y-18730031D01*
X3512591Y-18730031D02*
X3522115Y-18720508D01*
X3522115Y-18720508D02*
X3541162Y-18710984D01*
X3731639Y-18710984D02*
X3750686Y-18710984D01*
X3750686Y-18710984D02*
X3769734Y-18720508D01*
X3769734Y-18720508D02*
X3779258Y-18730031D01*
X3779258Y-18730031D02*
X3788782Y-18749079D01*
X3788782Y-18749079D02*
X3798305Y-18787174D01*
X3798305Y-18787174D02*
X3798305Y-18834793D01*
X3798305Y-18834793D02*
X3788782Y-18872889D01*
X3788782Y-18872889D02*
X3779258Y-18891936D01*
X3779258Y-18891936D02*
X3769734Y-18901460D01*
X3769734Y-18901460D02*
X3750686Y-18910984D01*
X3750686Y-18910984D02*
X3731639Y-18910984D01*
X3731639Y-18910984D02*
X3712591Y-18901460D01*
X3712591Y-18901460D02*
X3703067Y-18891936D01*
X3703067Y-18891936D02*
X3693543Y-18872889D01*
X3693543Y-18872889D02*
X3684020Y-18834793D01*
X3684020Y-18834793D02*
X3684020Y-18787174D01*
X3684020Y-18787174D02*
X3693543Y-18749079D01*
X3693543Y-18749079D02*
X3703067Y-18730031D01*
X3703067Y-18730031D02*
X3712591Y-18720508D01*
X3712591Y-18720508D02*
X3731639Y-18710984D01*
X3884020Y-18910984D02*
X3884020Y-18777650D01*
X3884020Y-18796698D02*
X3893543Y-18787174D01*
X3893543Y-18787174D02*
X3912591Y-18777650D01*
X3912591Y-18777650D02*
X3941163Y-18777650D01*
X3941163Y-18777650D02*
X3960210Y-18787174D01*
X3960210Y-18787174D02*
X3969734Y-18806222D01*
X3969734Y-18806222D02*
X3969734Y-18910984D01*
X3969734Y-18806222D02*
X3979258Y-18787174D01*
X3979258Y-18787174D02*
X3998305Y-18777650D01*
X3998305Y-18777650D02*
X4026877Y-18777650D01*
X4026877Y-18777650D02*
X4045924Y-18787174D01*
X4045924Y-18787174D02*
X4055448Y-18806222D01*
X4055448Y-18806222D02*
X4055448Y-18910984D01*
X4150686Y-18910984D02*
X4150686Y-18777650D01*
X4150686Y-18796698D02*
X4160210Y-18787174D01*
X4160210Y-18787174D02*
X4179258Y-18777650D01*
X4179258Y-18777650D02*
X4207829Y-18777650D01*
X4207829Y-18777650D02*
X4226877Y-18787174D01*
X4226877Y-18787174D02*
X4236401Y-18806222D01*
X4236401Y-18806222D02*
X4236401Y-18910984D01*
X4236401Y-18806222D02*
X4245925Y-18787174D01*
X4245925Y-18787174D02*
X4264972Y-18777650D01*
X4264972Y-18777650D02*
X4293544Y-18777650D01*
X4293544Y-18777650D02*
X4312591Y-18787174D01*
X4312591Y-18787174D02*
X4322115Y-18806222D01*
X4322115Y-18806222D02*
X4322115Y-18910984D01*
X4712591Y-18701460D02*
X4541163Y-18958603D01*
X4969734Y-18710984D02*
X4988782Y-18710984D01*
X4988782Y-18710984D02*
X5007829Y-18720508D01*
X5007829Y-18720508D02*
X5017353Y-18730031D01*
X5017353Y-18730031D02*
X5026877Y-18749079D01*
X5026877Y-18749079D02*
X5036401Y-18787174D01*
X5036401Y-18787174D02*
X5036401Y-18834793D01*
X5036401Y-18834793D02*
X5026877Y-18872889D01*
X5026877Y-18872889D02*
X5017353Y-18891936D01*
X5017353Y-18891936D02*
X5007829Y-18901460D01*
X5007829Y-18901460D02*
X4988782Y-18910984D01*
X4988782Y-18910984D02*
X4969734Y-18910984D01*
X4969734Y-18910984D02*
X4950687Y-18901460D01*
X4950687Y-18901460D02*
X4941163Y-18891936D01*
X4941163Y-18891936D02*
X4931639Y-18872889D01*
X4931639Y-18872889D02*
X4922115Y-18834793D01*
X4922115Y-18834793D02*
X4922115Y-18787174D01*
X4922115Y-18787174D02*
X4931639Y-18749079D01*
X4931639Y-18749079D02*
X4941163Y-18730031D01*
X4941163Y-18730031D02*
X4950687Y-18720508D01*
X4950687Y-18720508D02*
X4969734Y-18710984D01*
X5122115Y-18891936D02*
X5131639Y-18901460D01*
X5131639Y-18901460D02*
X5122115Y-18910984D01*
X5122115Y-18910984D02*
X5112591Y-18901460D01*
X5112591Y-18901460D02*
X5122115Y-18891936D01*
X5122115Y-18891936D02*
X5122115Y-18910984D01*
X5322115Y-18910984D02*
X5207829Y-18910984D01*
X5264972Y-18910984D02*
X5264972Y-18710984D01*
X5264972Y-18710984D02*
X5245925Y-18739555D01*
X5245925Y-18739555D02*
X5226877Y-18758603D01*
X5226877Y-18758603D02*
X5207829Y-18768127D01*
X5503068Y-18710984D02*
X5407829Y-18710984D01*
X5407829Y-18710984D02*
X5398306Y-18806222D01*
X5398306Y-18806222D02*
X5407829Y-18796698D01*
X5407829Y-18796698D02*
X5426877Y-18787174D01*
X5426877Y-18787174D02*
X5474496Y-18787174D01*
X5474496Y-18787174D02*
X5493544Y-18796698D01*
X5493544Y-18796698D02*
X5503068Y-18806222D01*
X5503068Y-18806222D02*
X5512591Y-18825270D01*
X5512591Y-18825270D02*
X5512591Y-18872889D01*
X5512591Y-18872889D02*
X5503068Y-18891936D01*
X5503068Y-18891936D02*
X5493544Y-18901460D01*
X5493544Y-18901460D02*
X5474496Y-18910984D01*
X5474496Y-18910984D02*
X5426877Y-18910984D01*
X5426877Y-18910984D02*
X5407829Y-18901460D01*
X5407829Y-18901460D02*
X5398306Y-18891936D01*
X5579258Y-18710984D02*
X5712591Y-18710984D01*
X5712591Y-18710984D02*
X5626877Y-18910984D01*
X5884020Y-18710984D02*
X5788782Y-18710984D01*
X5788782Y-18710984D02*
X5779258Y-18806222D01*
X5779258Y-18806222D02*
X5788782Y-18796698D01*
X5788782Y-18796698D02*
X5807829Y-18787174D01*
X5807829Y-18787174D02*
X5855448Y-18787174D01*
X5855448Y-18787174D02*
X5874496Y-18796698D01*
X5874496Y-18796698D02*
X5884020Y-18806222D01*
X5884020Y-18806222D02*
X5893544Y-18825270D01*
X5893544Y-18825270D02*
X5893544Y-18872889D01*
X5893544Y-18872889D02*
X5884020Y-18891936D01*
X5884020Y-18891936D02*
X5874496Y-18901460D01*
X5874496Y-18901460D02*
X5855448Y-18910984D01*
X5855448Y-18910984D02*
X5807829Y-18910984D01*
X5807829Y-18910984D02*
X5788782Y-18901460D01*
X5788782Y-18901460D02*
X5779258Y-18891936D01*
X5969734Y-18710984D02*
X5969734Y-18749079D01*
X6045925Y-18710984D02*
X6045925Y-18749079D01*
X6341163Y-18987174D02*
X6331639Y-18977650D01*
X6331639Y-18977650D02*
X6312591Y-18949079D01*
X6312591Y-18949079D02*
X6303068Y-18930031D01*
X6303068Y-18930031D02*
X6293544Y-18901460D01*
X6293544Y-18901460D02*
X6284020Y-18853841D01*
X6284020Y-18853841D02*
X6284020Y-18815746D01*
X6284020Y-18815746D02*
X6293544Y-18768127D01*
X6293544Y-18768127D02*
X6303068Y-18739555D01*
X6303068Y-18739555D02*
X6312591Y-18720508D01*
X6312591Y-18720508D02*
X6331639Y-18691936D01*
X6331639Y-18691936D02*
X6341163Y-18682412D01*
X6445925Y-18796698D02*
X6426877Y-18787174D01*
X6426877Y-18787174D02*
X6417353Y-18777650D01*
X6417353Y-18777650D02*
X6407829Y-18758603D01*
X6407829Y-18758603D02*
X6407829Y-18749079D01*
X6407829Y-18749079D02*
X6417353Y-18730031D01*
X6417353Y-18730031D02*
X6426877Y-18720508D01*
X6426877Y-18720508D02*
X6445925Y-18710984D01*
X6445925Y-18710984D02*
X6484020Y-18710984D01*
X6484020Y-18710984D02*
X6503068Y-18720508D01*
X6503068Y-18720508D02*
X6512591Y-18730031D01*
X6512591Y-18730031D02*
X6522115Y-18749079D01*
X6522115Y-18749079D02*
X6522115Y-18758603D01*
X6522115Y-18758603D02*
X6512591Y-18777650D01*
X6512591Y-18777650D02*
X6503068Y-18787174D01*
X6503068Y-18787174D02*
X6484020Y-18796698D01*
X6484020Y-18796698D02*
X6445925Y-18796698D01*
X6445925Y-18796698D02*
X6426877Y-18806222D01*
X6426877Y-18806222D02*
X6417353Y-18815746D01*
X6417353Y-18815746D02*
X6407829Y-18834793D01*
X6407829Y-18834793D02*
X6407829Y-18872889D01*
X6407829Y-18872889D02*
X6417353Y-18891936D01*
X6417353Y-18891936D02*
X6426877Y-18901460D01*
X6426877Y-18901460D02*
X6445925Y-18910984D01*
X6445925Y-18910984D02*
X6484020Y-18910984D01*
X6484020Y-18910984D02*
X6503068Y-18901460D01*
X6503068Y-18901460D02*
X6512591Y-18891936D01*
X6512591Y-18891936D02*
X6522115Y-18872889D01*
X6522115Y-18872889D02*
X6522115Y-18834793D01*
X6522115Y-18834793D02*
X6512591Y-18815746D01*
X6512591Y-18815746D02*
X6503068Y-18806222D01*
X6503068Y-18806222D02*
X6484020Y-18796698D01*
X6693544Y-18777650D02*
X6693544Y-18910984D01*
X6645925Y-18701460D02*
X6598306Y-18844317D01*
X6598306Y-18844317D02*
X6722115Y-18844317D01*
X6950687Y-18910984D02*
X6950687Y-18710984D01*
X7036401Y-18910984D02*
X7036401Y-18806222D01*
X7036401Y-18806222D02*
X7026877Y-18787174D01*
X7026877Y-18787174D02*
X7007830Y-18777650D01*
X7007830Y-18777650D02*
X6979258Y-18777650D01*
X6979258Y-18777650D02*
X6960210Y-18787174D01*
X6960210Y-18787174D02*
X6950687Y-18796698D01*
X7160210Y-18910984D02*
X7141163Y-18901460D01*
X7141163Y-18901460D02*
X7131639Y-18891936D01*
X7131639Y-18891936D02*
X7122115Y-18872889D01*
X7122115Y-18872889D02*
X7122115Y-18815746D01*
X7122115Y-18815746D02*
X7131639Y-18796698D01*
X7131639Y-18796698D02*
X7141163Y-18787174D01*
X7141163Y-18787174D02*
X7160210Y-18777650D01*
X7160210Y-18777650D02*
X7188782Y-18777650D01*
X7188782Y-18777650D02*
X7207830Y-18787174D01*
X7207830Y-18787174D02*
X7217353Y-18796698D01*
X7217353Y-18796698D02*
X7226877Y-18815746D01*
X7226877Y-18815746D02*
X7226877Y-18872889D01*
X7226877Y-18872889D02*
X7217353Y-18891936D01*
X7217353Y-18891936D02*
X7207830Y-18901460D01*
X7207830Y-18901460D02*
X7188782Y-18910984D01*
X7188782Y-18910984D02*
X7160210Y-18910984D01*
X7341163Y-18910984D02*
X7322115Y-18901460D01*
X7322115Y-18901460D02*
X7312591Y-18882412D01*
X7312591Y-18882412D02*
X7312591Y-18710984D01*
X7493544Y-18901460D02*
X7474496Y-18910984D01*
X7474496Y-18910984D02*
X7436401Y-18910984D01*
X7436401Y-18910984D02*
X7417353Y-18901460D01*
X7417353Y-18901460D02*
X7407830Y-18882412D01*
X7407830Y-18882412D02*
X7407830Y-18806222D01*
X7407830Y-18806222D02*
X7417353Y-18787174D01*
X7417353Y-18787174D02*
X7436401Y-18777650D01*
X7436401Y-18777650D02*
X7474496Y-18777650D01*
X7474496Y-18777650D02*
X7493544Y-18787174D01*
X7493544Y-18787174D02*
X7503068Y-18806222D01*
X7503068Y-18806222D02*
X7503068Y-18825270D01*
X7503068Y-18825270D02*
X7407830Y-18844317D01*
X7579258Y-18901460D02*
X7598306Y-18910984D01*
X7598306Y-18910984D02*
X7636401Y-18910984D01*
X7636401Y-18910984D02*
X7655449Y-18901460D01*
X7655449Y-18901460D02*
X7664972Y-18882412D01*
X7664972Y-18882412D02*
X7664972Y-18872889D01*
X7664972Y-18872889D02*
X7655449Y-18853841D01*
X7655449Y-18853841D02*
X7636401Y-18844317D01*
X7636401Y-18844317D02*
X7607830Y-18844317D01*
X7607830Y-18844317D02*
X7588782Y-18834793D01*
X7588782Y-18834793D02*
X7579258Y-18815746D01*
X7579258Y-18815746D02*
X7579258Y-18806222D01*
X7579258Y-18806222D02*
X7588782Y-18787174D01*
X7588782Y-18787174D02*
X7607830Y-18777650D01*
X7607830Y-18777650D02*
X7636401Y-18777650D01*
X7636401Y-18777650D02*
X7655449Y-18787174D01*
X7731639Y-18987174D02*
X7741163Y-18977650D01*
X7741163Y-18977650D02*
X7760211Y-18949079D01*
X7760211Y-18949079D02*
X7769734Y-18930031D01*
X7769734Y-18930031D02*
X7779258Y-18901460D01*
X7779258Y-18901460D02*
X7788782Y-18853841D01*
X7788782Y-18853841D02*
X7788782Y-18815746D01*
X7788782Y-18815746D02*
X7779258Y-18768127D01*
X7779258Y-18768127D02*
X7769734Y-18739555D01*
X7769734Y-18739555D02*
X7760211Y-18720508D01*
X7760211Y-18720508D02*
X7741163Y-18691936D01*
X7741163Y-18691936D02*
X7731639Y-18682412D01*
X8093544Y-18987174D02*
X8084020Y-18977650D01*
X8084020Y-18977650D02*
X8064972Y-18949079D01*
X8064972Y-18949079D02*
X8055449Y-18930031D01*
X8055449Y-18930031D02*
X8045925Y-18901460D01*
X8045925Y-18901460D02*
X8036401Y-18853841D01*
X8036401Y-18853841D02*
X8036401Y-18815746D01*
X8036401Y-18815746D02*
X8045925Y-18768127D01*
X8045925Y-18768127D02*
X8055449Y-18739555D01*
X8055449Y-18739555D02*
X8064972Y-18720508D01*
X8064972Y-18720508D02*
X8084020Y-18691936D01*
X8084020Y-18691936D02*
X8093544Y-18682412D01*
X8169734Y-18777650D02*
X8169734Y-18910984D01*
X8169734Y-18796698D02*
X8179258Y-18787174D01*
X8179258Y-18787174D02*
X8198306Y-18777650D01*
X8198306Y-18777650D02*
X8226877Y-18777650D01*
X8226877Y-18777650D02*
X8245925Y-18787174D01*
X8245925Y-18787174D02*
X8255449Y-18806222D01*
X8255449Y-18806222D02*
X8255449Y-18910984D01*
X8379258Y-18910984D02*
X8360211Y-18901460D01*
X8360211Y-18901460D02*
X8350687Y-18891936D01*
X8350687Y-18891936D02*
X8341163Y-18872889D01*
X8341163Y-18872889D02*
X8341163Y-18815746D01*
X8341163Y-18815746D02*
X8350687Y-18796698D01*
X8350687Y-18796698D02*
X8360211Y-18787174D01*
X8360211Y-18787174D02*
X8379258Y-18777650D01*
X8379258Y-18777650D02*
X8407830Y-18777650D01*
X8407830Y-18777650D02*
X8426877Y-18787174D01*
X8426877Y-18787174D02*
X8436401Y-18796698D01*
X8436401Y-18796698D02*
X8445925Y-18815746D01*
X8445925Y-18815746D02*
X8445925Y-18872889D01*
X8445925Y-18872889D02*
X8436401Y-18891936D01*
X8436401Y-18891936D02*
X8426877Y-18901460D01*
X8426877Y-18901460D02*
X8407830Y-18910984D01*
X8407830Y-18910984D02*
X8379258Y-18910984D01*
X8503068Y-18777650D02*
X8579258Y-18777650D01*
X8531639Y-18710984D02*
X8531639Y-18882412D01*
X8531639Y-18882412D02*
X8541163Y-18901460D01*
X8541163Y-18901460D02*
X8560211Y-18910984D01*
X8560211Y-18910984D02*
X8579258Y-18910984D01*
X8798306Y-18777650D02*
X8798306Y-18977650D01*
X8798306Y-18787174D02*
X8817354Y-18777650D01*
X8817354Y-18777650D02*
X8855449Y-18777650D01*
X8855449Y-18777650D02*
X8874496Y-18787174D01*
X8874496Y-18787174D02*
X8884020Y-18796698D01*
X8884020Y-18796698D02*
X8893544Y-18815746D01*
X8893544Y-18815746D02*
X8893544Y-18872889D01*
X8893544Y-18872889D02*
X8884020Y-18891936D01*
X8884020Y-18891936D02*
X8874496Y-18901460D01*
X8874496Y-18901460D02*
X8855449Y-18910984D01*
X8855449Y-18910984D02*
X8817354Y-18910984D01*
X8817354Y-18910984D02*
X8798306Y-18901460D01*
X9007830Y-18910984D02*
X8988782Y-18901460D01*
X8988782Y-18901460D02*
X8979258Y-18882412D01*
X8979258Y-18882412D02*
X8979258Y-18710984D01*
X9169735Y-18910984D02*
X9169735Y-18806222D01*
X9169735Y-18806222D02*
X9160211Y-18787174D01*
X9160211Y-18787174D02*
X9141163Y-18777650D01*
X9141163Y-18777650D02*
X9103068Y-18777650D01*
X9103068Y-18777650D02*
X9084020Y-18787174D01*
X9169735Y-18901460D02*
X9150687Y-18910984D01*
X9150687Y-18910984D02*
X9103068Y-18910984D01*
X9103068Y-18910984D02*
X9084020Y-18901460D01*
X9084020Y-18901460D02*
X9074496Y-18882412D01*
X9074496Y-18882412D02*
X9074496Y-18863365D01*
X9074496Y-18863365D02*
X9084020Y-18844317D01*
X9084020Y-18844317D02*
X9103068Y-18834793D01*
X9103068Y-18834793D02*
X9150687Y-18834793D01*
X9150687Y-18834793D02*
X9169735Y-18825270D01*
X9236401Y-18777650D02*
X9312592Y-18777650D01*
X9264973Y-18710984D02*
X9264973Y-18882412D01*
X9264973Y-18882412D02*
X9274496Y-18901460D01*
X9274496Y-18901460D02*
X9293544Y-18910984D01*
X9293544Y-18910984D02*
X9312592Y-18910984D01*
X9455449Y-18901460D02*
X9436401Y-18910984D01*
X9436401Y-18910984D02*
X9398306Y-18910984D01*
X9398306Y-18910984D02*
X9379258Y-18901460D01*
X9379258Y-18901460D02*
X9369735Y-18882412D01*
X9369735Y-18882412D02*
X9369735Y-18806222D01*
X9369735Y-18806222D02*
X9379258Y-18787174D01*
X9379258Y-18787174D02*
X9398306Y-18777650D01*
X9398306Y-18777650D02*
X9436401Y-18777650D01*
X9436401Y-18777650D02*
X9455449Y-18787174D01*
X9455449Y-18787174D02*
X9464973Y-18806222D01*
X9464973Y-18806222D02*
X9464973Y-18825270D01*
X9464973Y-18825270D02*
X9369735Y-18844317D01*
X9636401Y-18910984D02*
X9636401Y-18710984D01*
X9636401Y-18901460D02*
X9617354Y-18910984D01*
X9617354Y-18910984D02*
X9579258Y-18910984D01*
X9579258Y-18910984D02*
X9560211Y-18901460D01*
X9560211Y-18901460D02*
X9550687Y-18891936D01*
X9550687Y-18891936D02*
X9541163Y-18872889D01*
X9541163Y-18872889D02*
X9541163Y-18815746D01*
X9541163Y-18815746D02*
X9550687Y-18796698D01*
X9550687Y-18796698D02*
X9560211Y-18787174D01*
X9560211Y-18787174D02*
X9579258Y-18777650D01*
X9579258Y-18777650D02*
X9617354Y-18777650D01*
X9617354Y-18777650D02*
X9636401Y-18787174D01*
X9712592Y-18987174D02*
X9722116Y-18977650D01*
X9722116Y-18977650D02*
X9741163Y-18949079D01*
X9741163Y-18949079D02*
X9750687Y-18930031D01*
X9750687Y-18930031D02*
X9760211Y-18901460D01*
X9760211Y-18901460D02*
X9769735Y-18853841D01*
X9769735Y-18853841D02*
X9769735Y-18815746D01*
X9769735Y-18815746D02*
X9760211Y-18768127D01*
X9760211Y-18768127D02*
X9750687Y-18739555D01*
X9750687Y-18739555D02*
X9741163Y-18720508D01*
X9741163Y-18720508D02*
X9722116Y-18691936D01*
X9722116Y-18691936D02*
X9712592Y-18682412D01*
M02*
