%TF.GenerationSoftware,KiCad,Pcbnew,8.0.3*%
%TF.CreationDate,2024-06-29T11:43:42-07:00*%
%TF.ProjectId,CustomKeyboard,43757374-6f6d-44b6-9579-626f6172642e,rev?*%
%TF.SameCoordinates,Original*%
%TF.FileFunction,Drillmap*%
%TF.FilePolarity,Positive*%
%FSLAX45Y45*%
G04 Gerber Fmt 4.5, Leading zero omitted, Abs format (unit mm)*
G04 Created by KiCad (PCBNEW 8.0.3) date 2024-06-29 11:43:42*
%MOMM*%
%LPD*%
G01*
G04 APERTURE LIST*
%ADD10C,0.050000*%
%ADD11C,0.200000*%
%ADD12C,0.100000*%
%ADD13C,0.150000*%
G04 APERTURE END LIST*
D10*
X32558000Y-16510000D02*
G75*
G02*
X31958000Y-16510000I-300000J0D01*
G01*
X31958000Y-16510000D02*
G75*
G02*
X32558000Y-16510000I300000J0D01*
G01*
X3856000Y-16510000D02*
G75*
G02*
X3256000Y-16510000I-300000J0D01*
G01*
X3256000Y-16510000D02*
G75*
G02*
X3856000Y-16510000I300000J0D01*
G01*
X32558000Y-2032000D02*
G75*
G02*
X31958000Y-2032000I-300000J0D01*
G01*
X31958000Y-2032000D02*
G75*
G02*
X32558000Y-2032000I300000J0D01*
G01*
X3856000Y-2032000D02*
G75*
G02*
X3256000Y-2032000I-300000J0D01*
G01*
X3256000Y-2032000D02*
G75*
G02*
X3856000Y-2032000I300000J0D01*
G01*
X2768600Y-1442600D02*
X33020000Y-1442600D01*
X33020000Y-17272000D01*
X2768600Y-17272000D01*
X2768600Y-1442600D01*
D11*
D12*
X3755000Y-9635000D02*
X3785000Y-9665000D01*
X3785000Y-9635000D02*
X3755000Y-9665000D01*
X4085000Y-7715000D02*
X4115000Y-7745000D01*
X4115000Y-7715000D02*
X4085000Y-7745000D01*
X4185000Y-5055000D02*
X4215000Y-5085000D01*
X4215000Y-5055000D02*
X4185000Y-5085000D01*
X4405000Y-3165000D02*
X4435000Y-3195000D01*
X4435000Y-3165000D02*
X4405000Y-3195000D01*
X4495000Y-15445000D02*
X4525000Y-15475000D01*
X4525000Y-15445000D02*
X4495000Y-15475000D01*
X4745000Y-9585000D02*
X4775000Y-9615000D01*
X4775000Y-9585000D02*
X4745000Y-9615000D01*
X5225000Y-7795000D02*
X5255000Y-7825000D01*
X5255000Y-7795000D02*
X5225000Y-7825000D01*
X6025000Y-7695000D02*
X6055000Y-7725000D01*
X6055000Y-7695000D02*
X6025000Y-7725000D01*
X6045000Y-5865000D02*
X6075000Y-5895000D01*
X6075000Y-5865000D02*
X6045000Y-5895000D01*
X6055000Y-9595000D02*
X6085000Y-9625000D01*
X6085000Y-9595000D02*
X6055000Y-9625000D01*
X6105000Y-3075000D02*
X6135000Y-3105000D01*
X6135000Y-3075000D02*
X6105000Y-3105000D01*
X6615000Y-13315000D02*
X6645000Y-13345000D01*
X6645000Y-13315000D02*
X6615000Y-13345000D01*
X6775000Y-9615000D02*
X6805000Y-9645000D01*
X6805000Y-9615000D02*
X6775000Y-9645000D01*
X6865000Y-5905000D02*
X6895000Y-5935000D01*
X6895000Y-5905000D02*
X6865000Y-5935000D01*
X7345000Y-15735000D02*
X7375000Y-15765000D01*
X7375000Y-15735000D02*
X7345000Y-15765000D01*
X7945000Y-3085000D02*
X7975000Y-3115000D01*
X7975000Y-3085000D02*
X7945000Y-3115000D01*
X8025000Y-9525000D02*
X8055000Y-9555000D01*
X8055000Y-9525000D02*
X8025000Y-9555000D01*
X8045000Y-7595000D02*
X8075000Y-7625000D01*
X8075000Y-7595000D02*
X8045000Y-7625000D01*
X8055000Y-5035000D02*
X8085000Y-5065000D01*
X8085000Y-5035000D02*
X8055000Y-5065000D01*
X8495000Y-13695000D02*
X8525000Y-13725000D01*
X8525000Y-13695000D02*
X8495000Y-13725000D01*
X9015000Y-9795000D02*
X9045000Y-9825000D01*
X9045000Y-9795000D02*
X9015000Y-9825000D01*
X9065000Y-5895000D02*
X9095000Y-5925000D01*
X9095000Y-5895000D02*
X9065000Y-5925000D01*
X9545000Y-15565000D02*
X9575000Y-15595000D01*
X9575000Y-15565000D02*
X9545000Y-15595000D01*
X9875000Y-7675000D02*
X9905000Y-7705000D01*
X9905000Y-7675000D02*
X9875000Y-7705000D01*
X9875000Y-12635000D02*
X9905000Y-12665000D01*
X9905000Y-12635000D02*
X9875000Y-12665000D01*
X9885000Y-12455000D02*
X9915000Y-12485000D01*
X9915000Y-12455000D02*
X9885000Y-12485000D01*
X9945000Y-9565000D02*
X9975000Y-9595000D01*
X9975000Y-9565000D02*
X9945000Y-9595000D01*
X10055000Y-4985000D02*
X10085000Y-5015000D01*
X10085000Y-4985000D02*
X10055000Y-5015000D01*
X10115000Y-3155000D02*
X10145000Y-3185000D01*
X10145000Y-3155000D02*
X10115000Y-3185000D01*
X10115000Y-13385000D02*
X10145000Y-13415000D01*
X10145000Y-13385000D02*
X10115000Y-13415000D01*
X10135000Y-8607500D02*
X10165000Y-8637500D01*
X10165000Y-8607500D02*
X10135000Y-8637500D01*
X10135000Y-8795000D02*
X10165000Y-8825000D01*
X10165000Y-8795000D02*
X10135000Y-8825000D01*
X10135000Y-10755000D02*
X10165000Y-10785000D01*
X10165000Y-10755000D02*
X10135000Y-10785000D01*
X10215000Y-10915000D02*
X10245000Y-10945000D01*
X10245000Y-10915000D02*
X10215000Y-10945000D01*
X10385000Y-12295000D02*
X10415000Y-12325000D01*
X10415000Y-12295000D02*
X10385000Y-12325000D01*
X10595000Y-10335000D02*
X10625000Y-10365000D01*
X10625000Y-10335000D02*
X10595000Y-10365000D01*
X10785000Y-8335000D02*
X10815000Y-8365000D01*
X10815000Y-8335000D02*
X10785000Y-8365000D01*
X11005000Y-4155000D02*
X11035000Y-4185000D01*
X11035000Y-4155000D02*
X11005000Y-4185000D01*
X11005000Y-4365000D02*
X11035000Y-4395000D01*
X11035000Y-4365000D02*
X11005000Y-4395000D01*
X11005000Y-6855000D02*
X11035000Y-6885000D01*
X11035000Y-6855000D02*
X11005000Y-6885000D01*
X11005000Y-7045000D02*
X11035000Y-7075000D01*
X11035000Y-7045000D02*
X11005000Y-7075000D01*
X11065000Y-9605000D02*
X11095000Y-9635000D01*
X11095000Y-9605000D02*
X11065000Y-9635000D01*
X11145000Y-11555000D02*
X11175000Y-11585000D01*
X11175000Y-11555000D02*
X11145000Y-11585000D01*
X11745000Y-7765000D02*
X11775000Y-7795000D01*
X11775000Y-7765000D02*
X11745000Y-7795000D01*
X11935000Y-10725000D02*
X11965000Y-10755000D01*
X11965000Y-10725000D02*
X11935000Y-10755000D01*
X11975000Y-8585000D02*
X12005000Y-8615000D01*
X12005000Y-8585000D02*
X11975000Y-8615000D01*
X11975000Y-8795000D02*
X12005000Y-8825000D01*
X12005000Y-8795000D02*
X11975000Y-8825000D01*
X12065000Y-5975000D02*
X12095000Y-6005000D01*
X12095000Y-5975000D02*
X12065000Y-6005000D01*
X12095000Y-8595000D02*
X12125000Y-8625000D01*
X12125000Y-8595000D02*
X12095000Y-8625000D01*
X12095000Y-8795000D02*
X12125000Y-8825000D01*
X12125000Y-8795000D02*
X12095000Y-8825000D01*
X12145000Y-10935000D02*
X12175000Y-10965000D01*
X12175000Y-10935000D02*
X12145000Y-10965000D01*
X12385000Y-13635000D02*
X12415000Y-13665000D01*
X12415000Y-13635000D02*
X12385000Y-13665000D01*
X12695000Y-8295000D02*
X12725000Y-8325000D01*
X12725000Y-8295000D02*
X12695000Y-8325000D01*
X12735000Y-7035000D02*
X12765000Y-7065000D01*
X12765000Y-7035000D02*
X12735000Y-7065000D01*
X12745000Y-6845000D02*
X12775000Y-6875000D01*
X12775000Y-6845000D02*
X12745000Y-6875000D01*
X12795000Y-3325000D02*
X12825000Y-3355000D01*
X12825000Y-3325000D02*
X12795000Y-3355000D01*
X12795000Y-4105000D02*
X12825000Y-4135000D01*
X12825000Y-4105000D02*
X12795000Y-4135000D01*
X12795000Y-4395000D02*
X12825000Y-4425000D01*
X12825000Y-4395000D02*
X12795000Y-4425000D01*
X12845000Y-7025000D02*
X12875000Y-7055000D01*
X12875000Y-7025000D02*
X12845000Y-7055000D01*
X12855000Y-6845000D02*
X12885000Y-6875000D01*
X12885000Y-6845000D02*
X12855000Y-6875000D01*
X12865000Y-9705000D02*
X12895000Y-9735000D01*
X12895000Y-9705000D02*
X12865000Y-9735000D01*
X12885000Y-4115000D02*
X12915000Y-4145000D01*
X12915000Y-4115000D02*
X12885000Y-4145000D01*
X12885000Y-4395000D02*
X12915000Y-4425000D01*
X12915000Y-4395000D02*
X12885000Y-4425000D01*
X12965000Y-6865000D02*
X12995000Y-6895000D01*
X12995000Y-6865000D02*
X12965000Y-6895000D01*
X12965000Y-7035000D02*
X12995000Y-7065000D01*
X12995000Y-7035000D02*
X12965000Y-7065000D01*
X12995000Y-4405000D02*
X13025000Y-4435000D01*
X13025000Y-4405000D02*
X12995000Y-4435000D01*
X13005000Y-4125000D02*
X13035000Y-4155000D01*
X13035000Y-4125000D02*
X13005000Y-4155000D01*
X13105000Y-4145000D02*
X13135000Y-4175000D01*
X13135000Y-4145000D02*
X13105000Y-4175000D01*
X13105000Y-4395000D02*
X13135000Y-4425000D01*
X13135000Y-4395000D02*
X13105000Y-4425000D01*
X13265000Y-11965000D02*
X13295000Y-11995000D01*
X13295000Y-11965000D02*
X13265000Y-11995000D01*
X13285000Y-15025000D02*
X13315000Y-15055000D01*
X13315000Y-15025000D02*
X13285000Y-15055000D01*
X13905000Y-7795000D02*
X13935000Y-7825000D01*
X13935000Y-7795000D02*
X13905000Y-7825000D01*
X13915000Y-9565000D02*
X13945000Y-9595000D01*
X13945000Y-9565000D02*
X13915000Y-9595000D01*
X14525000Y-13925000D02*
X14555000Y-13955000D01*
X14555000Y-13925000D02*
X14525000Y-13955000D01*
X14755000Y-9645000D02*
X14785000Y-9675000D01*
X14785000Y-9645000D02*
X14755000Y-9675000D01*
X14955000Y-2825000D02*
X14985000Y-2855000D01*
X14985000Y-2825000D02*
X14955000Y-2855000D01*
X15035000Y-15055000D02*
X15065000Y-15085000D01*
X15065000Y-15055000D02*
X15035000Y-15085000D01*
X15045000Y-3025000D02*
X15075000Y-3055000D01*
X15075000Y-3025000D02*
X15045000Y-3055000D01*
X15115000Y-3285000D02*
X15145000Y-3315000D01*
X15145000Y-3285000D02*
X15115000Y-3315000D01*
X15145000Y-2905000D02*
X15175000Y-2935000D01*
X15175000Y-2905000D02*
X15145000Y-2935000D01*
X15237426Y-4007426D02*
X15267426Y-4037426D01*
X15267426Y-4007426D02*
X15237426Y-4037426D01*
X15265000Y-3325000D02*
X15295000Y-3355000D01*
X15295000Y-3325000D02*
X15265000Y-3355000D01*
X15265000Y-3895000D02*
X15295000Y-3925000D01*
X15295000Y-3895000D02*
X15265000Y-3925000D01*
X15285000Y-2715000D02*
X15315000Y-2745000D01*
X15315000Y-2715000D02*
X15285000Y-2745000D01*
X15295000Y-3045000D02*
X15325000Y-3075000D01*
X15325000Y-3045000D02*
X15295000Y-3075000D01*
X15305000Y-11755000D02*
X15335000Y-11785000D01*
X15335000Y-11755000D02*
X15305000Y-11785000D01*
X15345000Y-3835000D02*
X15375000Y-3865000D01*
X15375000Y-3835000D02*
X15345000Y-3865000D01*
X15505000Y-2425000D02*
X15535000Y-2455000D01*
X15535000Y-2425000D02*
X15505000Y-2455000D01*
X15525000Y-3185000D02*
X15555000Y-3215000D01*
X15555000Y-3185000D02*
X15525000Y-3215000D01*
X15585000Y-2415000D02*
X15615000Y-2445000D01*
X15615000Y-2415000D02*
X15585000Y-2445000D01*
X15625000Y-7775000D02*
X15655000Y-7805000D01*
X15655000Y-7775000D02*
X15625000Y-7805000D01*
X15665000Y-2415000D02*
X15695000Y-2445000D01*
X15695000Y-2415000D02*
X15665000Y-2445000D01*
X15745000Y-2415000D02*
X15775000Y-2445000D01*
X15775000Y-2415000D02*
X15745000Y-2445000D01*
X15765000Y-3035000D02*
X15795000Y-3065000D01*
X15795000Y-3035000D02*
X15765000Y-3065000D01*
X15795000Y-9725000D02*
X15825000Y-9755000D01*
X15825000Y-9725000D02*
X15795000Y-9755000D01*
X16045000Y-13585000D02*
X16075000Y-13615000D01*
X16075000Y-13585000D02*
X16045000Y-13615000D01*
X16063200Y-2956800D02*
X16093200Y-2986800D01*
X16093200Y-2956800D02*
X16063200Y-2986800D01*
X16075000Y-2645000D02*
X16105000Y-2675000D01*
X16105000Y-2645000D02*
X16075000Y-2675000D01*
X16095000Y-2880600D02*
X16125000Y-2910600D01*
X16125000Y-2880600D02*
X16095000Y-2910600D01*
X16105000Y-3135000D02*
X16135000Y-3165000D01*
X16135000Y-3135000D02*
X16105000Y-3165000D01*
X16105000Y-3765000D02*
X16135000Y-3795000D01*
X16135000Y-3765000D02*
X16105000Y-3795000D01*
X16415000Y-9655000D02*
X16445000Y-9685000D01*
X16445000Y-9655000D02*
X16415000Y-9685000D01*
X17385000Y-2865000D02*
X17415000Y-2895000D01*
X17415000Y-2865000D02*
X17385000Y-2895000D01*
X17685000Y-9635000D02*
X17715000Y-9665000D01*
X17715000Y-9635000D02*
X17685000Y-9665000D01*
X17745000Y-7665000D02*
X17775000Y-7695000D01*
X17775000Y-7665000D02*
X17745000Y-7695000D01*
X17765000Y-2695000D02*
X17795000Y-2725000D01*
X17795000Y-2695000D02*
X17765000Y-2725000D01*
X17835000Y-2775000D02*
X17865000Y-2805000D01*
X17865000Y-2775000D02*
X17835000Y-2805000D01*
X17955000Y-2865000D02*
X17985000Y-2895000D01*
X17985000Y-2865000D02*
X17955000Y-2895000D01*
X18045000Y-2965000D02*
X18075000Y-2995000D01*
X18075000Y-2965000D02*
X18045000Y-2995000D01*
X18165000Y-3085000D02*
X18195000Y-3115000D01*
X18195000Y-3085000D02*
X18165000Y-3115000D01*
X18375000Y-15075000D02*
X18405000Y-15105000D01*
X18405000Y-15075000D02*
X18375000Y-15105000D01*
X18405000Y-9635000D02*
X18435000Y-9665000D01*
X18435000Y-9635000D02*
X18405000Y-9665000D01*
X18565000Y-13595000D02*
X18595000Y-13625000D01*
X18595000Y-13595000D02*
X18565000Y-13625000D01*
X19245000Y-11855000D02*
X19275000Y-11885000D01*
X19275000Y-11855000D02*
X19245000Y-11885000D01*
X19695000Y-7815000D02*
X19725000Y-7845000D01*
X19725000Y-7815000D02*
X19695000Y-7845000D01*
X20325000Y-13655000D02*
X20355000Y-13685000D01*
X20355000Y-13655000D02*
X20325000Y-13685000D01*
X20535000Y-9765000D02*
X20565000Y-9795000D01*
X20565000Y-9765000D02*
X20535000Y-9795000D01*
X20775000Y-14945000D02*
X20805000Y-14975000D01*
X20805000Y-14945000D02*
X20775000Y-14975000D01*
X21165000Y-11885000D02*
X21195000Y-11915000D01*
X21195000Y-11885000D02*
X21165000Y-11915000D01*
X21695000Y-9665000D02*
X21725000Y-9695000D01*
X21725000Y-9665000D02*
X21695000Y-9695000D01*
X21735000Y-7755000D02*
X21765000Y-7785000D01*
X21765000Y-7755000D02*
X21735000Y-7785000D01*
X22005000Y-13775000D02*
X22035000Y-13805000D01*
X22035000Y-13775000D02*
X22005000Y-13805000D01*
X22155000Y-15175000D02*
X22185000Y-15205000D01*
X22185000Y-15175000D02*
X22155000Y-15205000D01*
X22225000Y-9585000D02*
X22255000Y-9615000D01*
X22255000Y-9585000D02*
X22225000Y-9615000D01*
X22975000Y-11895000D02*
X23005000Y-11925000D01*
X23005000Y-11895000D02*
X22975000Y-11925000D01*
X23495000Y-7745000D02*
X23525000Y-7775000D01*
X23525000Y-7745000D02*
X23495000Y-7775000D01*
X23625000Y-9685000D02*
X23655000Y-9715000D01*
X23655000Y-9685000D02*
X23625000Y-9715000D01*
X23845000Y-15455000D02*
X23875000Y-15485000D01*
X23875000Y-15455000D02*
X23845000Y-15485000D01*
X24115000Y-13645000D02*
X24145000Y-13675000D01*
X24145000Y-13645000D02*
X24115000Y-13675000D01*
X24525000Y-9725000D02*
X24555000Y-9755000D01*
X24555000Y-9725000D02*
X24525000Y-9755000D01*
X24935000Y-11755000D02*
X24965000Y-11785000D01*
X24965000Y-11755000D02*
X24935000Y-11785000D01*
X25525000Y-9605000D02*
X25555000Y-9635000D01*
X25555000Y-9605000D02*
X25525000Y-9635000D01*
X25535000Y-7685000D02*
X25565000Y-7715000D01*
X25565000Y-7685000D02*
X25535000Y-7715000D01*
X25985000Y-13645000D02*
X26015000Y-13675000D01*
X26015000Y-13645000D02*
X25985000Y-13675000D01*
X26025000Y-15555000D02*
X26055000Y-15585000D01*
X26055000Y-15555000D02*
X26025000Y-15585000D01*
X26515000Y-9705000D02*
X26545000Y-9735000D01*
X26545000Y-9705000D02*
X26515000Y-9735000D01*
X26845000Y-11845000D02*
X26875000Y-11875000D01*
X26875000Y-11845000D02*
X26845000Y-11875000D01*
X27185000Y-13425000D02*
X27215000Y-13455000D01*
X27215000Y-13425000D02*
X27185000Y-13455000D01*
X27725000Y-9725000D02*
X27755000Y-9755000D01*
X27755000Y-9725000D02*
X27725000Y-9755000D01*
X28125000Y-11395000D02*
X28155000Y-11425000D01*
X28155000Y-11395000D02*
X28125000Y-11425000D01*
X28705000Y-13475000D02*
X28735000Y-13505000D01*
X28735000Y-13475000D02*
X28705000Y-13505000D01*
X28725000Y-15495000D02*
X28755000Y-15525000D01*
X28755000Y-15495000D02*
X28725000Y-15525000D01*
X28945000Y-11365000D02*
X28975000Y-11395000D01*
X28975000Y-11365000D02*
X28945000Y-11395000D01*
X29085000Y-7525000D02*
X29115000Y-7555000D01*
X29115000Y-7525000D02*
X29085000Y-7555000D01*
X30115000Y-13585000D02*
X30145000Y-13615000D01*
X30145000Y-13585000D02*
X30115000Y-13615000D01*
X30235000Y-11655000D02*
X30265000Y-11685000D01*
X30265000Y-11655000D02*
X30235000Y-11685000D01*
X30645000Y-7745000D02*
X30675000Y-7775000D01*
X30675000Y-7745000D02*
X30645000Y-7775000D01*
X30665000Y-9745000D02*
X30695000Y-9775000D01*
X30695000Y-9745000D02*
X30665000Y-9775000D01*
X30675000Y-15545000D02*
X30705000Y-15575000D01*
X30705000Y-15545000D02*
X30675000Y-15575000D01*
X31085000Y-13135000D02*
X31115000Y-13165000D01*
X31115000Y-13135000D02*
X31085000Y-13165000D01*
X31365000Y-11255000D02*
X31395000Y-11285000D01*
X31395000Y-11255000D02*
X31365000Y-11285000D01*
X17572500Y-1590000D02*
G75*
G02*
X17522500Y-1590000I-25000J0D01*
G01*
X17522500Y-1590000D02*
G75*
G02*
X17572500Y-1590000I25000J0D01*
G01*
X17522500Y-1557500D02*
X17522500Y-1622500D01*
X17572500Y-1622500D02*
G75*
G02*
X17522500Y-1622500I-25000J0D01*
G01*
X17572500Y-1622500D02*
X17572500Y-1557500D01*
X17572500Y-1557500D02*
G75*
G03*
X17522500Y-1557500I-25000J0D01*
G01*
X18272500Y-1590000D02*
G75*
G02*
X18222500Y-1590000I-25000J0D01*
G01*
X18222500Y-1590000D02*
G75*
G02*
X18272500Y-1590000I25000J0D01*
G01*
X18222500Y-1557500D02*
X18222500Y-1622500D01*
X18272500Y-1622500D02*
G75*
G02*
X18222500Y-1622500I-25000J0D01*
G01*
X18272500Y-1622500D02*
X18272500Y-1557500D01*
X18272500Y-1557500D02*
G75*
G03*
X18222500Y-1557500I-25000J0D01*
G01*
X17647500Y-1832500D02*
X17647500Y-1887500D01*
X17620000Y-1860000D02*
X17675000Y-1860000D01*
X17632500Y-1887500D02*
X17662500Y-1887500D01*
X17662500Y-1832500D02*
G75*
G02*
X17662500Y-1887500I0J-27500D01*
G01*
X17662500Y-1832500D02*
X17632500Y-1832500D01*
X17632500Y-1832500D02*
G75*
G03*
X17632500Y-1887500I0J-27500D01*
G01*
X18147500Y-1832500D02*
X18147500Y-1887500D01*
X18120000Y-1860000D02*
X18175000Y-1860000D01*
X18132500Y-1887500D02*
X18162500Y-1887500D01*
X18162500Y-1832500D02*
G75*
G02*
X18162500Y-1887500I0J-27500D01*
G01*
X18162500Y-1832500D02*
X18132500Y-1832500D01*
X18132500Y-1832500D02*
G75*
G03*
X18132500Y-1887500I0J-27500D01*
G01*
X15761213Y-2771213D02*
X15761213Y-2728787D01*
X15718787Y-2728787D01*
X15718787Y-2771213D01*
X15761213Y-2771213D01*
X15931213Y-2611213D02*
X15931213Y-2568787D01*
X15888787Y-2568787D01*
X15888787Y-2611213D01*
X15931213Y-2611213D01*
D13*
X3839000Y-4421000D02*
X3914000Y-4346000D01*
X3839000Y-4271000D01*
X3764000Y-4346000D01*
X3839000Y-4421000D01*
X3839000Y-7111000D02*
X3914000Y-7036000D01*
X3839000Y-6961000D01*
X3764000Y-7036000D01*
X3839000Y-7111000D01*
X4079000Y-14881000D02*
X4154000Y-14806000D01*
X4079000Y-14731000D01*
X4004000Y-14806000D01*
X4079000Y-14881000D01*
X4319000Y-9051000D02*
X4394000Y-8976000D01*
X4319000Y-8901000D01*
X4244000Y-8976000D01*
X4319000Y-9051000D01*
X4474000Y-4167000D02*
X4549000Y-4092000D01*
X4474000Y-4017000D01*
X4399000Y-4092000D01*
X4474000Y-4167000D01*
X4474000Y-6857000D02*
X4549000Y-6782000D01*
X4474000Y-6707000D01*
X4399000Y-6782000D01*
X4474000Y-6857000D01*
X4557000Y-10989000D02*
X4632000Y-10914000D01*
X4557000Y-10839000D01*
X4482000Y-10914000D01*
X4557000Y-10989000D01*
X4714000Y-14627000D02*
X4789000Y-14552000D01*
X4714000Y-14477000D01*
X4639000Y-14552000D01*
X4714000Y-14627000D01*
X4954000Y-8797000D02*
X5029000Y-8722000D01*
X4954000Y-8647000D01*
X4879000Y-8722000D01*
X4954000Y-8797000D01*
X5031000Y-12931000D02*
X5106000Y-12856000D01*
X5031000Y-12781000D01*
X4956000Y-12856000D01*
X5031000Y-12931000D01*
X5192000Y-10735000D02*
X5267000Y-10660000D01*
X5192000Y-10585000D01*
X5117000Y-10660000D01*
X5192000Y-10735000D01*
X5666000Y-12677000D02*
X5741000Y-12602000D01*
X5666000Y-12527000D01*
X5591000Y-12602000D01*
X5666000Y-12677000D01*
X5774000Y-7111000D02*
X5849000Y-7036000D01*
X5774000Y-6961000D01*
X5699000Y-7036000D01*
X5774000Y-7111000D01*
X6409000Y-6857000D02*
X6484000Y-6782000D01*
X6409000Y-6707000D01*
X6334000Y-6782000D01*
X6409000Y-6857000D01*
X6509000Y-14881000D02*
X6584000Y-14806000D01*
X6509000Y-14731000D01*
X6434000Y-14806000D01*
X6509000Y-14881000D01*
X6729000Y-9051000D02*
X6804000Y-8976000D01*
X6729000Y-8901000D01*
X6654000Y-8976000D01*
X6729000Y-9051000D01*
X7144000Y-14627000D02*
X7219000Y-14552000D01*
X7144000Y-14477000D01*
X7069000Y-14552000D01*
X7144000Y-14627000D01*
X7209000Y-10991000D02*
X7284000Y-10916000D01*
X7209000Y-10841000D01*
X7134000Y-10916000D01*
X7209000Y-10991000D01*
X7364000Y-8797000D02*
X7439000Y-8722000D01*
X7364000Y-8647000D01*
X7289000Y-8722000D01*
X7364000Y-8797000D01*
X7709000Y-4421000D02*
X7784000Y-4346000D01*
X7709000Y-4271000D01*
X7634000Y-4346000D01*
X7709000Y-4421000D01*
X7709000Y-7111000D02*
X7784000Y-7036000D01*
X7709000Y-6961000D01*
X7634000Y-7036000D01*
X7709000Y-7111000D01*
X7844000Y-10737000D02*
X7919000Y-10662000D01*
X7844000Y-10587000D01*
X7769000Y-10662000D01*
X7844000Y-10737000D01*
X8184000Y-12931000D02*
X8259000Y-12856000D01*
X8184000Y-12781000D01*
X8109000Y-12856000D01*
X8184000Y-12931000D01*
X8344000Y-4167000D02*
X8419000Y-4092000D01*
X8344000Y-4017000D01*
X8269000Y-4092000D01*
X8344000Y-4167000D01*
X8344000Y-6857000D02*
X8419000Y-6782000D01*
X8344000Y-6707000D01*
X8269000Y-6782000D01*
X8344000Y-6857000D01*
X8664000Y-9051000D02*
X8739000Y-8976000D01*
X8664000Y-8901000D01*
X8589000Y-8976000D01*
X8664000Y-9051000D01*
X8819000Y-12677000D02*
X8894000Y-12602000D01*
X8819000Y-12527000D01*
X8744000Y-12602000D01*
X8819000Y-12677000D01*
X8949000Y-14881000D02*
X9024000Y-14806000D01*
X8949000Y-14731000D01*
X8874000Y-14806000D01*
X8949000Y-14881000D01*
X9144000Y-10991000D02*
X9219000Y-10916000D01*
X9144000Y-10841000D01*
X9069000Y-10916000D01*
X9144000Y-10991000D01*
X9299000Y-8797000D02*
X9374000Y-8722000D01*
X9299000Y-8647000D01*
X9224000Y-8722000D01*
X9299000Y-8797000D01*
X9584000Y-14627000D02*
X9659000Y-14552000D01*
X9584000Y-14477000D01*
X9509000Y-14552000D01*
X9584000Y-14627000D01*
X9644000Y-4421000D02*
X9719000Y-4346000D01*
X9644000Y-4271000D01*
X9569000Y-4346000D01*
X9644000Y-4421000D01*
X9644000Y-7111000D02*
X9719000Y-7036000D01*
X9644000Y-6961000D01*
X9569000Y-7036000D01*
X9644000Y-7111000D01*
X9779000Y-10737000D02*
X9854000Y-10662000D01*
X9779000Y-10587000D01*
X9704000Y-10662000D01*
X9779000Y-10737000D01*
X10119000Y-12931000D02*
X10194000Y-12856000D01*
X10119000Y-12781000D01*
X10044000Y-12856000D01*
X10119000Y-12931000D01*
X10279000Y-4167000D02*
X10354000Y-4092000D01*
X10279000Y-4017000D01*
X10204000Y-4092000D01*
X10279000Y-4167000D01*
X10279000Y-6857000D02*
X10354000Y-6782000D01*
X10279000Y-6707000D01*
X10204000Y-6782000D01*
X10279000Y-6857000D01*
X10599000Y-9051000D02*
X10674000Y-8976000D01*
X10599000Y-8901000D01*
X10524000Y-8976000D01*
X10599000Y-9051000D01*
X10754000Y-12677000D02*
X10829000Y-12602000D01*
X10754000Y-12527000D01*
X10679000Y-12602000D01*
X10754000Y-12677000D01*
X11079000Y-10991000D02*
X11154000Y-10916000D01*
X11079000Y-10841000D01*
X11004000Y-10916000D01*
X11079000Y-10991000D01*
X11234000Y-8797000D02*
X11309000Y-8722000D01*
X11234000Y-8647000D01*
X11159000Y-8722000D01*
X11234000Y-8797000D01*
X11579000Y-4421000D02*
X11654000Y-4346000D01*
X11579000Y-4271000D01*
X11504000Y-4346000D01*
X11579000Y-4421000D01*
X11579000Y-7111000D02*
X11654000Y-7036000D01*
X11579000Y-6961000D01*
X11504000Y-7036000D01*
X11579000Y-7111000D01*
X11714000Y-10737000D02*
X11789000Y-10662000D01*
X11714000Y-10587000D01*
X11639000Y-10662000D01*
X11714000Y-10737000D01*
X12054000Y-12931000D02*
X12129000Y-12856000D01*
X12054000Y-12781000D01*
X11979000Y-12856000D01*
X12054000Y-12931000D01*
X12214000Y-4167000D02*
X12289000Y-4092000D01*
X12214000Y-4017000D01*
X12139000Y-4092000D01*
X12214000Y-4167000D01*
X12214000Y-6857000D02*
X12289000Y-6782000D01*
X12214000Y-6707000D01*
X12139000Y-6782000D01*
X12214000Y-6857000D01*
X12534000Y-9051000D02*
X12609000Y-8976000D01*
X12534000Y-8901000D01*
X12459000Y-8976000D01*
X12534000Y-9051000D01*
X12689000Y-12677000D02*
X12764000Y-12602000D01*
X12689000Y-12527000D01*
X12614000Y-12602000D01*
X12689000Y-12677000D01*
X13014000Y-10991000D02*
X13089000Y-10916000D01*
X13014000Y-10841000D01*
X12939000Y-10916000D01*
X13014000Y-10991000D01*
X13169000Y-8797000D02*
X13244000Y-8722000D01*
X13169000Y-8647000D01*
X13094000Y-8722000D01*
X13169000Y-8797000D01*
X13514000Y-4421000D02*
X13589000Y-4346000D01*
X13514000Y-4271000D01*
X13439000Y-4346000D01*
X13514000Y-4421000D01*
X13514000Y-7111000D02*
X13589000Y-7036000D01*
X13514000Y-6961000D01*
X13439000Y-7036000D01*
X13514000Y-7111000D01*
X13649000Y-10737000D02*
X13724000Y-10662000D01*
X13649000Y-10587000D01*
X13574000Y-10662000D01*
X13649000Y-10737000D01*
X13989000Y-12931000D02*
X14064000Y-12856000D01*
X13989000Y-12781000D01*
X13914000Y-12856000D01*
X13989000Y-12931000D01*
X14149000Y-4167000D02*
X14224000Y-4092000D01*
X14149000Y-4017000D01*
X14074000Y-4092000D01*
X14149000Y-4167000D01*
X14149000Y-6857000D02*
X14224000Y-6782000D01*
X14149000Y-6707000D01*
X14074000Y-6782000D01*
X14149000Y-6857000D01*
X14469000Y-9051000D02*
X14544000Y-8976000D01*
X14469000Y-8901000D01*
X14394000Y-8976000D01*
X14469000Y-9051000D01*
X14624000Y-12677000D02*
X14699000Y-12602000D01*
X14624000Y-12527000D01*
X14549000Y-12602000D01*
X14624000Y-12677000D01*
X14949000Y-10991000D02*
X15024000Y-10916000D01*
X14949000Y-10841000D01*
X14874000Y-10916000D01*
X14949000Y-10991000D01*
X15104000Y-8797000D02*
X15179000Y-8722000D01*
X15104000Y-8647000D01*
X15029000Y-8722000D01*
X15104000Y-8797000D01*
X15449000Y-7111000D02*
X15524000Y-7036000D01*
X15449000Y-6961000D01*
X15374000Y-7036000D01*
X15449000Y-7111000D01*
X15584000Y-10737000D02*
X15659000Y-10662000D01*
X15584000Y-10587000D01*
X15509000Y-10662000D01*
X15584000Y-10737000D01*
X15924000Y-12931000D02*
X15999000Y-12856000D01*
X15924000Y-12781000D01*
X15849000Y-12856000D01*
X15924000Y-12931000D01*
X16084000Y-6857000D02*
X16159000Y-6782000D01*
X16084000Y-6707000D01*
X16009000Y-6782000D01*
X16084000Y-6857000D01*
X16149000Y-14885250D02*
X16224000Y-14810250D01*
X16149000Y-14735250D01*
X16074000Y-14810250D01*
X16149000Y-14885250D01*
X16404000Y-9051000D02*
X16479000Y-8976000D01*
X16404000Y-8901000D01*
X16329000Y-8976000D01*
X16404000Y-9051000D01*
X16416500Y-4421000D02*
X16491500Y-4346000D01*
X16416500Y-4271000D01*
X16341500Y-4346000D01*
X16416500Y-4421000D01*
X16559000Y-12677000D02*
X16634000Y-12602000D01*
X16559000Y-12527000D01*
X16484000Y-12602000D01*
X16559000Y-12677000D01*
X16784000Y-14631250D02*
X16859000Y-14556250D01*
X16784000Y-14481250D01*
X16709000Y-14556250D01*
X16784000Y-14631250D01*
X16884000Y-10991000D02*
X16959000Y-10916000D01*
X16884000Y-10841000D01*
X16809000Y-10916000D01*
X16884000Y-10991000D01*
X17039000Y-8797000D02*
X17114000Y-8722000D01*
X17039000Y-8647000D01*
X16964000Y-8722000D01*
X17039000Y-8797000D01*
X17051500Y-4167000D02*
X17126500Y-4092000D01*
X17051500Y-4017000D01*
X16976500Y-4092000D01*
X17051500Y-4167000D01*
X17384000Y-7111000D02*
X17459000Y-7036000D01*
X17384000Y-6961000D01*
X17309000Y-7036000D01*
X17384000Y-7111000D01*
X17519000Y-10737000D02*
X17594000Y-10662000D01*
X17519000Y-10587000D01*
X17444000Y-10662000D01*
X17519000Y-10737000D01*
X17859000Y-12931000D02*
X17934000Y-12856000D01*
X17859000Y-12781000D01*
X17784000Y-12856000D01*
X17859000Y-12931000D01*
X18019000Y-6857000D02*
X18094000Y-6782000D01*
X18019000Y-6707000D01*
X17944000Y-6782000D01*
X18019000Y-6857000D01*
X18339000Y-9051000D02*
X18414000Y-8976000D01*
X18339000Y-8901000D01*
X18264000Y-8976000D01*
X18339000Y-9051000D01*
X18351500Y-4421000D02*
X18426500Y-4346000D01*
X18351500Y-4271000D01*
X18276500Y-4346000D01*
X18351500Y-4421000D01*
X18494000Y-12677000D02*
X18569000Y-12602000D01*
X18494000Y-12527000D01*
X18419000Y-12602000D01*
X18494000Y-12677000D01*
X18819000Y-10991000D02*
X18894000Y-10916000D01*
X18819000Y-10841000D01*
X18744000Y-10916000D01*
X18819000Y-10991000D01*
X18974000Y-8797000D02*
X19049000Y-8722000D01*
X18974000Y-8647000D01*
X18899000Y-8722000D01*
X18974000Y-8797000D01*
X18986500Y-4167000D02*
X19061500Y-4092000D01*
X18986500Y-4017000D01*
X18911500Y-4092000D01*
X18986500Y-4167000D01*
X19319000Y-7111000D02*
X19394000Y-7036000D01*
X19319000Y-6961000D01*
X19244000Y-7036000D01*
X19319000Y-7111000D01*
X19454000Y-10737000D02*
X19529000Y-10662000D01*
X19454000Y-10587000D01*
X19379000Y-10662000D01*
X19454000Y-10737000D01*
X19794000Y-12931000D02*
X19869000Y-12856000D01*
X19794000Y-12781000D01*
X19719000Y-12856000D01*
X19794000Y-12931000D01*
X19954000Y-6857000D02*
X20029000Y-6782000D01*
X19954000Y-6707000D01*
X19879000Y-6782000D01*
X19954000Y-6857000D01*
X20274000Y-9051000D02*
X20349000Y-8976000D01*
X20274000Y-8901000D01*
X20199000Y-8976000D01*
X20274000Y-9051000D01*
X20286500Y-4421000D02*
X20361500Y-4346000D01*
X20286500Y-4271000D01*
X20211500Y-4346000D01*
X20286500Y-4421000D01*
X20429000Y-12677000D02*
X20504000Y-12602000D01*
X20429000Y-12527000D01*
X20354000Y-12602000D01*
X20429000Y-12677000D01*
X20754000Y-10991000D02*
X20829000Y-10916000D01*
X20754000Y-10841000D01*
X20679000Y-10916000D01*
X20754000Y-10991000D01*
X20909000Y-8797000D02*
X20984000Y-8722000D01*
X20909000Y-8647000D01*
X20834000Y-8722000D01*
X20909000Y-8797000D01*
X20921500Y-4167000D02*
X20996500Y-4092000D01*
X20921500Y-4017000D01*
X20846500Y-4092000D01*
X20921500Y-4167000D01*
X21254000Y-7111000D02*
X21329000Y-7036000D01*
X21254000Y-6961000D01*
X21179000Y-7036000D01*
X21254000Y-7111000D01*
X21389000Y-10737000D02*
X21464000Y-10662000D01*
X21389000Y-10587000D01*
X21314000Y-10662000D01*
X21389000Y-10737000D01*
X21729000Y-12931000D02*
X21804000Y-12856000D01*
X21729000Y-12781000D01*
X21654000Y-12856000D01*
X21729000Y-12931000D01*
X21889000Y-6857000D02*
X21964000Y-6782000D01*
X21889000Y-6707000D01*
X21814000Y-6782000D01*
X21889000Y-6857000D01*
X22209000Y-9051000D02*
X22284000Y-8976000D01*
X22209000Y-8901000D01*
X22134000Y-8976000D01*
X22209000Y-9051000D01*
X22221500Y-4421000D02*
X22296500Y-4346000D01*
X22221500Y-4271000D01*
X22146500Y-4346000D01*
X22221500Y-4421000D01*
X22364000Y-12677000D02*
X22439000Y-12602000D01*
X22364000Y-12527000D01*
X22289000Y-12602000D01*
X22364000Y-12677000D01*
X22689000Y-10991000D02*
X22764000Y-10916000D01*
X22689000Y-10841000D01*
X22614000Y-10916000D01*
X22689000Y-10991000D01*
X22844000Y-8797000D02*
X22919000Y-8722000D01*
X22844000Y-8647000D01*
X22769000Y-8722000D01*
X22844000Y-8797000D01*
X22856500Y-4167000D02*
X22931500Y-4092000D01*
X22856500Y-4017000D01*
X22781500Y-4092000D01*
X22856500Y-4167000D01*
X23189000Y-7111000D02*
X23264000Y-7036000D01*
X23189000Y-6961000D01*
X23114000Y-7036000D01*
X23189000Y-7111000D01*
X23324000Y-10737000D02*
X23399000Y-10662000D01*
X23324000Y-10587000D01*
X23249000Y-10662000D01*
X23324000Y-10737000D01*
X23349000Y-14891000D02*
X23424000Y-14816000D01*
X23349000Y-14741000D01*
X23274000Y-14816000D01*
X23349000Y-14891000D01*
X23664000Y-12931000D02*
X23739000Y-12856000D01*
X23664000Y-12781000D01*
X23589000Y-12856000D01*
X23664000Y-12931000D01*
X23824000Y-6857000D02*
X23899000Y-6782000D01*
X23824000Y-6707000D01*
X23749000Y-6782000D01*
X23824000Y-6857000D01*
X23984000Y-14637000D02*
X24059000Y-14562000D01*
X23984000Y-14487000D01*
X23909000Y-14562000D01*
X23984000Y-14637000D01*
X24144000Y-9051000D02*
X24219000Y-8976000D01*
X24144000Y-8901000D01*
X24069000Y-8976000D01*
X24144000Y-9051000D01*
X24299000Y-12677000D02*
X24374000Y-12602000D01*
X24299000Y-12527000D01*
X24224000Y-12602000D01*
X24299000Y-12677000D01*
X24624000Y-10991000D02*
X24699000Y-10916000D01*
X24624000Y-10841000D01*
X24549000Y-10916000D01*
X24624000Y-10991000D01*
X24779000Y-8797000D02*
X24854000Y-8722000D01*
X24779000Y-8647000D01*
X24704000Y-8722000D01*
X24779000Y-8797000D01*
X25124000Y-4421000D02*
X25199000Y-4346000D01*
X25124000Y-4271000D01*
X25049000Y-4346000D01*
X25124000Y-4421000D01*
X25124000Y-7111000D02*
X25199000Y-7036000D01*
X25124000Y-6961000D01*
X25049000Y-7036000D01*
X25124000Y-7111000D01*
X25259000Y-10737000D02*
X25334000Y-10662000D01*
X25259000Y-10587000D01*
X25184000Y-10662000D01*
X25259000Y-10737000D01*
X25599000Y-12931000D02*
X25674000Y-12856000D01*
X25599000Y-12781000D01*
X25524000Y-12856000D01*
X25599000Y-12931000D01*
X25759000Y-4167000D02*
X25834000Y-4092000D01*
X25759000Y-4017000D01*
X25684000Y-4092000D01*
X25759000Y-4167000D01*
X25759000Y-6857000D02*
X25834000Y-6782000D01*
X25759000Y-6707000D01*
X25684000Y-6782000D01*
X25759000Y-6857000D01*
X25789000Y-14891000D02*
X25864000Y-14816000D01*
X25789000Y-14741000D01*
X25714000Y-14816000D01*
X25789000Y-14891000D01*
X26079000Y-9051000D02*
X26154000Y-8976000D01*
X26079000Y-8901000D01*
X26004000Y-8976000D01*
X26079000Y-9051000D01*
X26234000Y-12677000D02*
X26309000Y-12602000D01*
X26234000Y-12527000D01*
X26159000Y-12602000D01*
X26234000Y-12677000D01*
X26424000Y-14637000D02*
X26499000Y-14562000D01*
X26424000Y-14487000D01*
X26349000Y-14562000D01*
X26424000Y-14637000D01*
X26559000Y-10991000D02*
X26634000Y-10916000D01*
X26559000Y-10841000D01*
X26484000Y-10916000D01*
X26559000Y-10991000D01*
X26714000Y-8797000D02*
X26789000Y-8722000D01*
X26714000Y-8647000D01*
X26639000Y-8722000D01*
X26714000Y-8797000D01*
X27059000Y-4421000D02*
X27134000Y-4346000D01*
X27059000Y-4271000D01*
X26984000Y-4346000D01*
X27059000Y-4421000D01*
X27059000Y-7111000D02*
X27134000Y-7036000D01*
X27059000Y-6961000D01*
X26984000Y-7036000D01*
X27059000Y-7111000D01*
X27194000Y-10737000D02*
X27269000Y-10662000D01*
X27194000Y-10587000D01*
X27119000Y-10662000D01*
X27194000Y-10737000D01*
X27694000Y-4167000D02*
X27769000Y-4092000D01*
X27694000Y-4017000D01*
X27619000Y-4092000D01*
X27694000Y-4167000D01*
X27694000Y-6857000D02*
X27769000Y-6782000D01*
X27694000Y-6707000D01*
X27619000Y-6782000D01*
X27694000Y-6857000D01*
X28014000Y-9051000D02*
X28089000Y-8976000D01*
X28014000Y-8901000D01*
X27939000Y-8976000D01*
X28014000Y-9051000D01*
X28239000Y-14891000D02*
X28314000Y-14816000D01*
X28239000Y-14741000D01*
X28164000Y-14816000D01*
X28239000Y-14891000D01*
X28649000Y-8797000D02*
X28724000Y-8722000D01*
X28649000Y-8647000D01*
X28574000Y-8722000D01*
X28649000Y-8797000D01*
X28874000Y-14637000D02*
X28949000Y-14562000D01*
X28874000Y-14487000D01*
X28799000Y-14562000D01*
X28874000Y-14637000D01*
X28994000Y-4421000D02*
X29069000Y-4346000D01*
X28994000Y-4271000D01*
X28919000Y-4346000D01*
X28994000Y-4421000D01*
X29239000Y-12937000D02*
X29314000Y-12862000D01*
X29239000Y-12787000D01*
X29164000Y-12862000D01*
X29239000Y-12937000D01*
X29629000Y-4167000D02*
X29704000Y-4092000D01*
X29629000Y-4017000D01*
X29554000Y-4092000D01*
X29629000Y-4167000D01*
X29707000Y-10991000D02*
X29782000Y-10916000D01*
X29707000Y-10841000D01*
X29632000Y-10916000D01*
X29707000Y-10991000D01*
X29874000Y-12683000D02*
X29949000Y-12608000D01*
X29874000Y-12533000D01*
X29799000Y-12608000D01*
X29874000Y-12683000D01*
X29947000Y-7111000D02*
X30022000Y-7036000D01*
X29947000Y-6961000D01*
X29872000Y-7036000D01*
X29947000Y-7111000D01*
X30342000Y-10737000D02*
X30417000Y-10662000D01*
X30342000Y-10587000D01*
X30267000Y-10662000D01*
X30342000Y-10737000D01*
X30419000Y-9061000D02*
X30494000Y-8986000D01*
X30419000Y-8911000D01*
X30344000Y-8986000D01*
X30419000Y-9061000D01*
X30582000Y-6857000D02*
X30657000Y-6782000D01*
X30582000Y-6707000D01*
X30507000Y-6782000D01*
X30582000Y-6857000D01*
X30669000Y-14891000D02*
X30744000Y-14816000D01*
X30669000Y-14741000D01*
X30594000Y-14816000D01*
X30669000Y-14891000D01*
X30929000Y-4421000D02*
X31004000Y-4346000D01*
X30929000Y-4271000D01*
X30854000Y-4346000D01*
X30929000Y-4421000D01*
X31054000Y-8807000D02*
X31129000Y-8732000D01*
X31054000Y-8657000D01*
X30979000Y-8732000D01*
X31054000Y-8807000D01*
X31304000Y-14637000D02*
X31379000Y-14562000D01*
X31304000Y-14487000D01*
X31229000Y-14562000D01*
X31304000Y-14637000D01*
X31564000Y-4167000D02*
X31639000Y-4092000D01*
X31564000Y-4017000D01*
X31489000Y-4092000D01*
X31564000Y-4167000D01*
D11*
X3026877Y-17585984D02*
X3026877Y-17385984D01*
X3026877Y-17385984D02*
X3074496Y-17385984D01*
X3074496Y-17385984D02*
X3103067Y-17395508D01*
X3103067Y-17395508D02*
X3122115Y-17414555D01*
X3122115Y-17414555D02*
X3131639Y-17433603D01*
X3131639Y-17433603D02*
X3141162Y-17471698D01*
X3141162Y-17471698D02*
X3141162Y-17500270D01*
X3141162Y-17500270D02*
X3131639Y-17538365D01*
X3131639Y-17538365D02*
X3122115Y-17557412D01*
X3122115Y-17557412D02*
X3103067Y-17576460D01*
X3103067Y-17576460D02*
X3074496Y-17585984D01*
X3074496Y-17585984D02*
X3026877Y-17585984D01*
X3226877Y-17585984D02*
X3226877Y-17452650D01*
X3226877Y-17490746D02*
X3236401Y-17471698D01*
X3236401Y-17471698D02*
X3245924Y-17462174D01*
X3245924Y-17462174D02*
X3264972Y-17452650D01*
X3264972Y-17452650D02*
X3284020Y-17452650D01*
X3350686Y-17585984D02*
X3350686Y-17452650D01*
X3350686Y-17385984D02*
X3341162Y-17395508D01*
X3341162Y-17395508D02*
X3350686Y-17405031D01*
X3350686Y-17405031D02*
X3360210Y-17395508D01*
X3360210Y-17395508D02*
X3350686Y-17385984D01*
X3350686Y-17385984D02*
X3350686Y-17405031D01*
X3474496Y-17585984D02*
X3455448Y-17576460D01*
X3455448Y-17576460D02*
X3445924Y-17557412D01*
X3445924Y-17557412D02*
X3445924Y-17385984D01*
X3579258Y-17585984D02*
X3560210Y-17576460D01*
X3560210Y-17576460D02*
X3550686Y-17557412D01*
X3550686Y-17557412D02*
X3550686Y-17385984D01*
X3807829Y-17585984D02*
X3807829Y-17385984D01*
X3807829Y-17385984D02*
X3874496Y-17528841D01*
X3874496Y-17528841D02*
X3941162Y-17385984D01*
X3941162Y-17385984D02*
X3941162Y-17585984D01*
X4122115Y-17585984D02*
X4122115Y-17481222D01*
X4122115Y-17481222D02*
X4112591Y-17462174D01*
X4112591Y-17462174D02*
X4093543Y-17452650D01*
X4093543Y-17452650D02*
X4055448Y-17452650D01*
X4055448Y-17452650D02*
X4036401Y-17462174D01*
X4122115Y-17576460D02*
X4103067Y-17585984D01*
X4103067Y-17585984D02*
X4055448Y-17585984D01*
X4055448Y-17585984D02*
X4036401Y-17576460D01*
X4036401Y-17576460D02*
X4026877Y-17557412D01*
X4026877Y-17557412D02*
X4026877Y-17538365D01*
X4026877Y-17538365D02*
X4036401Y-17519317D01*
X4036401Y-17519317D02*
X4055448Y-17509793D01*
X4055448Y-17509793D02*
X4103067Y-17509793D01*
X4103067Y-17509793D02*
X4122115Y-17500270D01*
X4217353Y-17452650D02*
X4217353Y-17652650D01*
X4217353Y-17462174D02*
X4236401Y-17452650D01*
X4236401Y-17452650D02*
X4274496Y-17452650D01*
X4274496Y-17452650D02*
X4293544Y-17462174D01*
X4293544Y-17462174D02*
X4303067Y-17471698D01*
X4303067Y-17471698D02*
X4312591Y-17490746D01*
X4312591Y-17490746D02*
X4312591Y-17547889D01*
X4312591Y-17547889D02*
X4303067Y-17566936D01*
X4303067Y-17566936D02*
X4293544Y-17576460D01*
X4293544Y-17576460D02*
X4274496Y-17585984D01*
X4274496Y-17585984D02*
X4236401Y-17585984D01*
X4236401Y-17585984D02*
X4217353Y-17576460D01*
X4398305Y-17566936D02*
X4407829Y-17576460D01*
X4407829Y-17576460D02*
X4398305Y-17585984D01*
X4398305Y-17585984D02*
X4388782Y-17576460D01*
X4388782Y-17576460D02*
X4398305Y-17566936D01*
X4398305Y-17566936D02*
X4398305Y-17585984D01*
X4398305Y-17462174D02*
X4407829Y-17471698D01*
X4407829Y-17471698D02*
X4398305Y-17481222D01*
X4398305Y-17481222D02*
X4388782Y-17471698D01*
X4388782Y-17471698D02*
X4398305Y-17462174D01*
X4398305Y-17462174D02*
X4398305Y-17481222D01*
D12*
X2736100Y-17899500D02*
X2766100Y-17929500D01*
X2766100Y-17899500D02*
X2736100Y-17929500D01*
D11*
X3064972Y-17805984D02*
X3084020Y-17805984D01*
X3084020Y-17805984D02*
X3103067Y-17815508D01*
X3103067Y-17815508D02*
X3112591Y-17825031D01*
X3112591Y-17825031D02*
X3122115Y-17844079D01*
X3122115Y-17844079D02*
X3131639Y-17882174D01*
X3131639Y-17882174D02*
X3131639Y-17929793D01*
X3131639Y-17929793D02*
X3122115Y-17967889D01*
X3122115Y-17967889D02*
X3112591Y-17986936D01*
X3112591Y-17986936D02*
X3103067Y-17996460D01*
X3103067Y-17996460D02*
X3084020Y-18005984D01*
X3084020Y-18005984D02*
X3064972Y-18005984D01*
X3064972Y-18005984D02*
X3045924Y-17996460D01*
X3045924Y-17996460D02*
X3036401Y-17986936D01*
X3036401Y-17986936D02*
X3026877Y-17967889D01*
X3026877Y-17967889D02*
X3017353Y-17929793D01*
X3017353Y-17929793D02*
X3017353Y-17882174D01*
X3017353Y-17882174D02*
X3026877Y-17844079D01*
X3026877Y-17844079D02*
X3036401Y-17825031D01*
X3036401Y-17825031D02*
X3045924Y-17815508D01*
X3045924Y-17815508D02*
X3064972Y-17805984D01*
X3217353Y-17986936D02*
X3226877Y-17996460D01*
X3226877Y-17996460D02*
X3217353Y-18005984D01*
X3217353Y-18005984D02*
X3207829Y-17996460D01*
X3207829Y-17996460D02*
X3217353Y-17986936D01*
X3217353Y-17986936D02*
X3217353Y-18005984D01*
X3293543Y-17805984D02*
X3417353Y-17805984D01*
X3417353Y-17805984D02*
X3350686Y-17882174D01*
X3350686Y-17882174D02*
X3379258Y-17882174D01*
X3379258Y-17882174D02*
X3398305Y-17891698D01*
X3398305Y-17891698D02*
X3407829Y-17901222D01*
X3407829Y-17901222D02*
X3417353Y-17920270D01*
X3417353Y-17920270D02*
X3417353Y-17967889D01*
X3417353Y-17967889D02*
X3407829Y-17986936D01*
X3407829Y-17986936D02*
X3398305Y-17996460D01*
X3398305Y-17996460D02*
X3379258Y-18005984D01*
X3379258Y-18005984D02*
X3322115Y-18005984D01*
X3322115Y-18005984D02*
X3303067Y-17996460D01*
X3303067Y-17996460D02*
X3293543Y-17986936D01*
X3541162Y-17805984D02*
X3560210Y-17805984D01*
X3560210Y-17805984D02*
X3579258Y-17815508D01*
X3579258Y-17815508D02*
X3588782Y-17825031D01*
X3588782Y-17825031D02*
X3598305Y-17844079D01*
X3598305Y-17844079D02*
X3607829Y-17882174D01*
X3607829Y-17882174D02*
X3607829Y-17929793D01*
X3607829Y-17929793D02*
X3598305Y-17967889D01*
X3598305Y-17967889D02*
X3588782Y-17986936D01*
X3588782Y-17986936D02*
X3579258Y-17996460D01*
X3579258Y-17996460D02*
X3560210Y-18005984D01*
X3560210Y-18005984D02*
X3541162Y-18005984D01*
X3541162Y-18005984D02*
X3522115Y-17996460D01*
X3522115Y-17996460D02*
X3512591Y-17986936D01*
X3512591Y-17986936D02*
X3503067Y-17967889D01*
X3503067Y-17967889D02*
X3493543Y-17929793D01*
X3493543Y-17929793D02*
X3493543Y-17882174D01*
X3493543Y-17882174D02*
X3503067Y-17844079D01*
X3503067Y-17844079D02*
X3512591Y-17825031D01*
X3512591Y-17825031D02*
X3522115Y-17815508D01*
X3522115Y-17815508D02*
X3541162Y-17805984D01*
X3731639Y-17805984D02*
X3750686Y-17805984D01*
X3750686Y-17805984D02*
X3769734Y-17815508D01*
X3769734Y-17815508D02*
X3779258Y-17825031D01*
X3779258Y-17825031D02*
X3788782Y-17844079D01*
X3788782Y-17844079D02*
X3798305Y-17882174D01*
X3798305Y-17882174D02*
X3798305Y-17929793D01*
X3798305Y-17929793D02*
X3788782Y-17967889D01*
X3788782Y-17967889D02*
X3779258Y-17986936D01*
X3779258Y-17986936D02*
X3769734Y-17996460D01*
X3769734Y-17996460D02*
X3750686Y-18005984D01*
X3750686Y-18005984D02*
X3731639Y-18005984D01*
X3731639Y-18005984D02*
X3712591Y-17996460D01*
X3712591Y-17996460D02*
X3703067Y-17986936D01*
X3703067Y-17986936D02*
X3693543Y-17967889D01*
X3693543Y-17967889D02*
X3684020Y-17929793D01*
X3684020Y-17929793D02*
X3684020Y-17882174D01*
X3684020Y-17882174D02*
X3693543Y-17844079D01*
X3693543Y-17844079D02*
X3703067Y-17825031D01*
X3703067Y-17825031D02*
X3712591Y-17815508D01*
X3712591Y-17815508D02*
X3731639Y-17805984D01*
X3884020Y-18005984D02*
X3884020Y-17872650D01*
X3884020Y-17891698D02*
X3893543Y-17882174D01*
X3893543Y-17882174D02*
X3912591Y-17872650D01*
X3912591Y-17872650D02*
X3941163Y-17872650D01*
X3941163Y-17872650D02*
X3960210Y-17882174D01*
X3960210Y-17882174D02*
X3969734Y-17901222D01*
X3969734Y-17901222D02*
X3969734Y-18005984D01*
X3969734Y-17901222D02*
X3979258Y-17882174D01*
X3979258Y-17882174D02*
X3998305Y-17872650D01*
X3998305Y-17872650D02*
X4026877Y-17872650D01*
X4026877Y-17872650D02*
X4045924Y-17882174D01*
X4045924Y-17882174D02*
X4055448Y-17901222D01*
X4055448Y-17901222D02*
X4055448Y-18005984D01*
X4150686Y-18005984D02*
X4150686Y-17872650D01*
X4150686Y-17891698D02*
X4160210Y-17882174D01*
X4160210Y-17882174D02*
X4179258Y-17872650D01*
X4179258Y-17872650D02*
X4207829Y-17872650D01*
X4207829Y-17872650D02*
X4226877Y-17882174D01*
X4226877Y-17882174D02*
X4236401Y-17901222D01*
X4236401Y-17901222D02*
X4236401Y-18005984D01*
X4236401Y-17901222D02*
X4245925Y-17882174D01*
X4245925Y-17882174D02*
X4264972Y-17872650D01*
X4264972Y-17872650D02*
X4293544Y-17872650D01*
X4293544Y-17872650D02*
X4312591Y-17882174D01*
X4312591Y-17882174D02*
X4322115Y-17901222D01*
X4322115Y-17901222D02*
X4322115Y-18005984D01*
X4712591Y-17796460D02*
X4541163Y-18053603D01*
X4969734Y-17805984D02*
X4988782Y-17805984D01*
X4988782Y-17805984D02*
X5007829Y-17815508D01*
X5007829Y-17815508D02*
X5017353Y-17825031D01*
X5017353Y-17825031D02*
X5026877Y-17844079D01*
X5026877Y-17844079D02*
X5036401Y-17882174D01*
X5036401Y-17882174D02*
X5036401Y-17929793D01*
X5036401Y-17929793D02*
X5026877Y-17967889D01*
X5026877Y-17967889D02*
X5017353Y-17986936D01*
X5017353Y-17986936D02*
X5007829Y-17996460D01*
X5007829Y-17996460D02*
X4988782Y-18005984D01*
X4988782Y-18005984D02*
X4969734Y-18005984D01*
X4969734Y-18005984D02*
X4950687Y-17996460D01*
X4950687Y-17996460D02*
X4941163Y-17986936D01*
X4941163Y-17986936D02*
X4931639Y-17967889D01*
X4931639Y-17967889D02*
X4922115Y-17929793D01*
X4922115Y-17929793D02*
X4922115Y-17882174D01*
X4922115Y-17882174D02*
X4931639Y-17844079D01*
X4931639Y-17844079D02*
X4941163Y-17825031D01*
X4941163Y-17825031D02*
X4950687Y-17815508D01*
X4950687Y-17815508D02*
X4969734Y-17805984D01*
X5122115Y-17986936D02*
X5131639Y-17996460D01*
X5131639Y-17996460D02*
X5122115Y-18005984D01*
X5122115Y-18005984D02*
X5112591Y-17996460D01*
X5112591Y-17996460D02*
X5122115Y-17986936D01*
X5122115Y-17986936D02*
X5122115Y-18005984D01*
X5255448Y-17805984D02*
X5274496Y-17805984D01*
X5274496Y-17805984D02*
X5293544Y-17815508D01*
X5293544Y-17815508D02*
X5303068Y-17825031D01*
X5303068Y-17825031D02*
X5312591Y-17844079D01*
X5312591Y-17844079D02*
X5322115Y-17882174D01*
X5322115Y-17882174D02*
X5322115Y-17929793D01*
X5322115Y-17929793D02*
X5312591Y-17967889D01*
X5312591Y-17967889D02*
X5303068Y-17986936D01*
X5303068Y-17986936D02*
X5293544Y-17996460D01*
X5293544Y-17996460D02*
X5274496Y-18005984D01*
X5274496Y-18005984D02*
X5255448Y-18005984D01*
X5255448Y-18005984D02*
X5236401Y-17996460D01*
X5236401Y-17996460D02*
X5226877Y-17986936D01*
X5226877Y-17986936D02*
X5217353Y-17967889D01*
X5217353Y-17967889D02*
X5207829Y-17929793D01*
X5207829Y-17929793D02*
X5207829Y-17882174D01*
X5207829Y-17882174D02*
X5217353Y-17844079D01*
X5217353Y-17844079D02*
X5226877Y-17825031D01*
X5226877Y-17825031D02*
X5236401Y-17815508D01*
X5236401Y-17815508D02*
X5255448Y-17805984D01*
X5512591Y-18005984D02*
X5398306Y-18005984D01*
X5455448Y-18005984D02*
X5455448Y-17805984D01*
X5455448Y-17805984D02*
X5436401Y-17834555D01*
X5436401Y-17834555D02*
X5417353Y-17853603D01*
X5417353Y-17853603D02*
X5398306Y-17863127D01*
X5703067Y-18005984D02*
X5588782Y-18005984D01*
X5645925Y-18005984D02*
X5645925Y-17805984D01*
X5645925Y-17805984D02*
X5626877Y-17834555D01*
X5626877Y-17834555D02*
X5607829Y-17853603D01*
X5607829Y-17853603D02*
X5588782Y-17863127D01*
X5817353Y-17891698D02*
X5798306Y-17882174D01*
X5798306Y-17882174D02*
X5788782Y-17872650D01*
X5788782Y-17872650D02*
X5779258Y-17853603D01*
X5779258Y-17853603D02*
X5779258Y-17844079D01*
X5779258Y-17844079D02*
X5788782Y-17825031D01*
X5788782Y-17825031D02*
X5798306Y-17815508D01*
X5798306Y-17815508D02*
X5817353Y-17805984D01*
X5817353Y-17805984D02*
X5855448Y-17805984D01*
X5855448Y-17805984D02*
X5874496Y-17815508D01*
X5874496Y-17815508D02*
X5884020Y-17825031D01*
X5884020Y-17825031D02*
X5893544Y-17844079D01*
X5893544Y-17844079D02*
X5893544Y-17853603D01*
X5893544Y-17853603D02*
X5884020Y-17872650D01*
X5884020Y-17872650D02*
X5874496Y-17882174D01*
X5874496Y-17882174D02*
X5855448Y-17891698D01*
X5855448Y-17891698D02*
X5817353Y-17891698D01*
X5817353Y-17891698D02*
X5798306Y-17901222D01*
X5798306Y-17901222D02*
X5788782Y-17910746D01*
X5788782Y-17910746D02*
X5779258Y-17929793D01*
X5779258Y-17929793D02*
X5779258Y-17967889D01*
X5779258Y-17967889D02*
X5788782Y-17986936D01*
X5788782Y-17986936D02*
X5798306Y-17996460D01*
X5798306Y-17996460D02*
X5817353Y-18005984D01*
X5817353Y-18005984D02*
X5855448Y-18005984D01*
X5855448Y-18005984D02*
X5874496Y-17996460D01*
X5874496Y-17996460D02*
X5884020Y-17986936D01*
X5884020Y-17986936D02*
X5893544Y-17967889D01*
X5893544Y-17967889D02*
X5893544Y-17929793D01*
X5893544Y-17929793D02*
X5884020Y-17910746D01*
X5884020Y-17910746D02*
X5874496Y-17901222D01*
X5874496Y-17901222D02*
X5855448Y-17891698D01*
X5969734Y-17805984D02*
X5969734Y-17844079D01*
X6045925Y-17805984D02*
X6045925Y-17844079D01*
X6341163Y-18082174D02*
X6331639Y-18072650D01*
X6331639Y-18072650D02*
X6312591Y-18044079D01*
X6312591Y-18044079D02*
X6303068Y-18025031D01*
X6303068Y-18025031D02*
X6293544Y-17996460D01*
X6293544Y-17996460D02*
X6284020Y-17948841D01*
X6284020Y-17948841D02*
X6284020Y-17910746D01*
X6284020Y-17910746D02*
X6293544Y-17863127D01*
X6293544Y-17863127D02*
X6303068Y-17834555D01*
X6303068Y-17834555D02*
X6312591Y-17815508D01*
X6312591Y-17815508D02*
X6331639Y-17786936D01*
X6331639Y-17786936D02*
X6341163Y-17777412D01*
X6522115Y-18005984D02*
X6407829Y-18005984D01*
X6464972Y-18005984D02*
X6464972Y-17805984D01*
X6464972Y-17805984D02*
X6445925Y-17834555D01*
X6445925Y-17834555D02*
X6426877Y-17853603D01*
X6426877Y-17853603D02*
X6407829Y-17863127D01*
X6703068Y-17805984D02*
X6607829Y-17805984D01*
X6607829Y-17805984D02*
X6598306Y-17901222D01*
X6598306Y-17901222D02*
X6607829Y-17891698D01*
X6607829Y-17891698D02*
X6626877Y-17882174D01*
X6626877Y-17882174D02*
X6674496Y-17882174D01*
X6674496Y-17882174D02*
X6693544Y-17891698D01*
X6693544Y-17891698D02*
X6703068Y-17901222D01*
X6703068Y-17901222D02*
X6712591Y-17920270D01*
X6712591Y-17920270D02*
X6712591Y-17967889D01*
X6712591Y-17967889D02*
X6703068Y-17986936D01*
X6703068Y-17986936D02*
X6693544Y-17996460D01*
X6693544Y-17996460D02*
X6674496Y-18005984D01*
X6674496Y-18005984D02*
X6626877Y-18005984D01*
X6626877Y-18005984D02*
X6607829Y-17996460D01*
X6607829Y-17996460D02*
X6598306Y-17986936D01*
X6903068Y-18005984D02*
X6788782Y-18005984D01*
X6845925Y-18005984D02*
X6845925Y-17805984D01*
X6845925Y-17805984D02*
X6826877Y-17834555D01*
X6826877Y-17834555D02*
X6807829Y-17853603D01*
X6807829Y-17853603D02*
X6788782Y-17863127D01*
X7141163Y-18005984D02*
X7141163Y-17805984D01*
X7226877Y-18005984D02*
X7226877Y-17901222D01*
X7226877Y-17901222D02*
X7217353Y-17882174D01*
X7217353Y-17882174D02*
X7198306Y-17872650D01*
X7198306Y-17872650D02*
X7169734Y-17872650D01*
X7169734Y-17872650D02*
X7150687Y-17882174D01*
X7150687Y-17882174D02*
X7141163Y-17891698D01*
X7350687Y-18005984D02*
X7331639Y-17996460D01*
X7331639Y-17996460D02*
X7322115Y-17986936D01*
X7322115Y-17986936D02*
X7312591Y-17967889D01*
X7312591Y-17967889D02*
X7312591Y-17910746D01*
X7312591Y-17910746D02*
X7322115Y-17891698D01*
X7322115Y-17891698D02*
X7331639Y-17882174D01*
X7331639Y-17882174D02*
X7350687Y-17872650D01*
X7350687Y-17872650D02*
X7379258Y-17872650D01*
X7379258Y-17872650D02*
X7398306Y-17882174D01*
X7398306Y-17882174D02*
X7407830Y-17891698D01*
X7407830Y-17891698D02*
X7417353Y-17910746D01*
X7417353Y-17910746D02*
X7417353Y-17967889D01*
X7417353Y-17967889D02*
X7407830Y-17986936D01*
X7407830Y-17986936D02*
X7398306Y-17996460D01*
X7398306Y-17996460D02*
X7379258Y-18005984D01*
X7379258Y-18005984D02*
X7350687Y-18005984D01*
X7531639Y-18005984D02*
X7512591Y-17996460D01*
X7512591Y-17996460D02*
X7503068Y-17977412D01*
X7503068Y-17977412D02*
X7503068Y-17805984D01*
X7684020Y-17996460D02*
X7664972Y-18005984D01*
X7664972Y-18005984D02*
X7626877Y-18005984D01*
X7626877Y-18005984D02*
X7607830Y-17996460D01*
X7607830Y-17996460D02*
X7598306Y-17977412D01*
X7598306Y-17977412D02*
X7598306Y-17901222D01*
X7598306Y-17901222D02*
X7607830Y-17882174D01*
X7607830Y-17882174D02*
X7626877Y-17872650D01*
X7626877Y-17872650D02*
X7664972Y-17872650D01*
X7664972Y-17872650D02*
X7684020Y-17882174D01*
X7684020Y-17882174D02*
X7693544Y-17901222D01*
X7693544Y-17901222D02*
X7693544Y-17920270D01*
X7693544Y-17920270D02*
X7598306Y-17939317D01*
X7769734Y-17996460D02*
X7788782Y-18005984D01*
X7788782Y-18005984D02*
X7826877Y-18005984D01*
X7826877Y-18005984D02*
X7845925Y-17996460D01*
X7845925Y-17996460D02*
X7855449Y-17977412D01*
X7855449Y-17977412D02*
X7855449Y-17967889D01*
X7855449Y-17967889D02*
X7845925Y-17948841D01*
X7845925Y-17948841D02*
X7826877Y-17939317D01*
X7826877Y-17939317D02*
X7798306Y-17939317D01*
X7798306Y-17939317D02*
X7779258Y-17929793D01*
X7779258Y-17929793D02*
X7769734Y-17910746D01*
X7769734Y-17910746D02*
X7769734Y-17901222D01*
X7769734Y-17901222D02*
X7779258Y-17882174D01*
X7779258Y-17882174D02*
X7798306Y-17872650D01*
X7798306Y-17872650D02*
X7826877Y-17872650D01*
X7826877Y-17872650D02*
X7845925Y-17882174D01*
X7922115Y-18082174D02*
X7931639Y-18072650D01*
X7931639Y-18072650D02*
X7950687Y-18044079D01*
X7950687Y-18044079D02*
X7960211Y-18025031D01*
X7960211Y-18025031D02*
X7969734Y-17996460D01*
X7969734Y-17996460D02*
X7979258Y-17948841D01*
X7979258Y-17948841D02*
X7979258Y-17910746D01*
X7979258Y-17910746D02*
X7969734Y-17863127D01*
X7969734Y-17863127D02*
X7960211Y-17834555D01*
X7960211Y-17834555D02*
X7950687Y-17815508D01*
X7950687Y-17815508D02*
X7931639Y-17786936D01*
X7931639Y-17786936D02*
X7922115Y-17777412D01*
D12*
X2766100Y-18178500D02*
G75*
G02*
X2716100Y-18178500I-25000J0D01*
G01*
X2716100Y-18178500D02*
G75*
G02*
X2766100Y-18178500I25000J0D01*
G01*
D11*
X3064972Y-18069984D02*
X3084020Y-18069984D01*
X3084020Y-18069984D02*
X3103067Y-18079508D01*
X3103067Y-18079508D02*
X3112591Y-18089031D01*
X3112591Y-18089031D02*
X3122115Y-18108079D01*
X3122115Y-18108079D02*
X3131639Y-18146174D01*
X3131639Y-18146174D02*
X3131639Y-18193793D01*
X3131639Y-18193793D02*
X3122115Y-18231889D01*
X3122115Y-18231889D02*
X3112591Y-18250936D01*
X3112591Y-18250936D02*
X3103067Y-18260460D01*
X3103067Y-18260460D02*
X3084020Y-18269984D01*
X3084020Y-18269984D02*
X3064972Y-18269984D01*
X3064972Y-18269984D02*
X3045924Y-18260460D01*
X3045924Y-18260460D02*
X3036401Y-18250936D01*
X3036401Y-18250936D02*
X3026877Y-18231889D01*
X3026877Y-18231889D02*
X3017353Y-18193793D01*
X3017353Y-18193793D02*
X3017353Y-18146174D01*
X3017353Y-18146174D02*
X3026877Y-18108079D01*
X3026877Y-18108079D02*
X3036401Y-18089031D01*
X3036401Y-18089031D02*
X3045924Y-18079508D01*
X3045924Y-18079508D02*
X3064972Y-18069984D01*
X3217353Y-18250936D02*
X3226877Y-18260460D01*
X3226877Y-18260460D02*
X3217353Y-18269984D01*
X3217353Y-18269984D02*
X3207829Y-18260460D01*
X3207829Y-18260460D02*
X3217353Y-18250936D01*
X3217353Y-18250936D02*
X3217353Y-18269984D01*
X3407829Y-18069984D02*
X3312591Y-18069984D01*
X3312591Y-18069984D02*
X3303067Y-18165222D01*
X3303067Y-18165222D02*
X3312591Y-18155698D01*
X3312591Y-18155698D02*
X3331639Y-18146174D01*
X3331639Y-18146174D02*
X3379258Y-18146174D01*
X3379258Y-18146174D02*
X3398305Y-18155698D01*
X3398305Y-18155698D02*
X3407829Y-18165222D01*
X3407829Y-18165222D02*
X3417353Y-18184270D01*
X3417353Y-18184270D02*
X3417353Y-18231889D01*
X3417353Y-18231889D02*
X3407829Y-18250936D01*
X3407829Y-18250936D02*
X3398305Y-18260460D01*
X3398305Y-18260460D02*
X3379258Y-18269984D01*
X3379258Y-18269984D02*
X3331639Y-18269984D01*
X3331639Y-18269984D02*
X3312591Y-18260460D01*
X3312591Y-18260460D02*
X3303067Y-18250936D01*
X3541162Y-18069984D02*
X3560210Y-18069984D01*
X3560210Y-18069984D02*
X3579258Y-18079508D01*
X3579258Y-18079508D02*
X3588782Y-18089031D01*
X3588782Y-18089031D02*
X3598305Y-18108079D01*
X3598305Y-18108079D02*
X3607829Y-18146174D01*
X3607829Y-18146174D02*
X3607829Y-18193793D01*
X3607829Y-18193793D02*
X3598305Y-18231889D01*
X3598305Y-18231889D02*
X3588782Y-18250936D01*
X3588782Y-18250936D02*
X3579258Y-18260460D01*
X3579258Y-18260460D02*
X3560210Y-18269984D01*
X3560210Y-18269984D02*
X3541162Y-18269984D01*
X3541162Y-18269984D02*
X3522115Y-18260460D01*
X3522115Y-18260460D02*
X3512591Y-18250936D01*
X3512591Y-18250936D02*
X3503067Y-18231889D01*
X3503067Y-18231889D02*
X3493543Y-18193793D01*
X3493543Y-18193793D02*
X3493543Y-18146174D01*
X3493543Y-18146174D02*
X3503067Y-18108079D01*
X3503067Y-18108079D02*
X3512591Y-18089031D01*
X3512591Y-18089031D02*
X3522115Y-18079508D01*
X3522115Y-18079508D02*
X3541162Y-18069984D01*
X3731639Y-18069984D02*
X3750686Y-18069984D01*
X3750686Y-18069984D02*
X3769734Y-18079508D01*
X3769734Y-18079508D02*
X3779258Y-18089031D01*
X3779258Y-18089031D02*
X3788782Y-18108079D01*
X3788782Y-18108079D02*
X3798305Y-18146174D01*
X3798305Y-18146174D02*
X3798305Y-18193793D01*
X3798305Y-18193793D02*
X3788782Y-18231889D01*
X3788782Y-18231889D02*
X3779258Y-18250936D01*
X3779258Y-18250936D02*
X3769734Y-18260460D01*
X3769734Y-18260460D02*
X3750686Y-18269984D01*
X3750686Y-18269984D02*
X3731639Y-18269984D01*
X3731639Y-18269984D02*
X3712591Y-18260460D01*
X3712591Y-18260460D02*
X3703067Y-18250936D01*
X3703067Y-18250936D02*
X3693543Y-18231889D01*
X3693543Y-18231889D02*
X3684020Y-18193793D01*
X3684020Y-18193793D02*
X3684020Y-18146174D01*
X3684020Y-18146174D02*
X3693543Y-18108079D01*
X3693543Y-18108079D02*
X3703067Y-18089031D01*
X3703067Y-18089031D02*
X3712591Y-18079508D01*
X3712591Y-18079508D02*
X3731639Y-18069984D01*
X3884020Y-18269984D02*
X3884020Y-18136650D01*
X3884020Y-18155698D02*
X3893543Y-18146174D01*
X3893543Y-18146174D02*
X3912591Y-18136650D01*
X3912591Y-18136650D02*
X3941163Y-18136650D01*
X3941163Y-18136650D02*
X3960210Y-18146174D01*
X3960210Y-18146174D02*
X3969734Y-18165222D01*
X3969734Y-18165222D02*
X3969734Y-18269984D01*
X3969734Y-18165222D02*
X3979258Y-18146174D01*
X3979258Y-18146174D02*
X3998305Y-18136650D01*
X3998305Y-18136650D02*
X4026877Y-18136650D01*
X4026877Y-18136650D02*
X4045924Y-18146174D01*
X4045924Y-18146174D02*
X4055448Y-18165222D01*
X4055448Y-18165222D02*
X4055448Y-18269984D01*
X4150686Y-18269984D02*
X4150686Y-18136650D01*
X4150686Y-18155698D02*
X4160210Y-18146174D01*
X4160210Y-18146174D02*
X4179258Y-18136650D01*
X4179258Y-18136650D02*
X4207829Y-18136650D01*
X4207829Y-18136650D02*
X4226877Y-18146174D01*
X4226877Y-18146174D02*
X4236401Y-18165222D01*
X4236401Y-18165222D02*
X4236401Y-18269984D01*
X4236401Y-18165222D02*
X4245925Y-18146174D01*
X4245925Y-18146174D02*
X4264972Y-18136650D01*
X4264972Y-18136650D02*
X4293544Y-18136650D01*
X4293544Y-18136650D02*
X4312591Y-18146174D01*
X4312591Y-18146174D02*
X4322115Y-18165222D01*
X4322115Y-18165222D02*
X4322115Y-18269984D01*
X4712591Y-18060460D02*
X4541163Y-18317603D01*
X4969734Y-18069984D02*
X4988782Y-18069984D01*
X4988782Y-18069984D02*
X5007829Y-18079508D01*
X5007829Y-18079508D02*
X5017353Y-18089031D01*
X5017353Y-18089031D02*
X5026877Y-18108079D01*
X5026877Y-18108079D02*
X5036401Y-18146174D01*
X5036401Y-18146174D02*
X5036401Y-18193793D01*
X5036401Y-18193793D02*
X5026877Y-18231889D01*
X5026877Y-18231889D02*
X5017353Y-18250936D01*
X5017353Y-18250936D02*
X5007829Y-18260460D01*
X5007829Y-18260460D02*
X4988782Y-18269984D01*
X4988782Y-18269984D02*
X4969734Y-18269984D01*
X4969734Y-18269984D02*
X4950687Y-18260460D01*
X4950687Y-18260460D02*
X4941163Y-18250936D01*
X4941163Y-18250936D02*
X4931639Y-18231889D01*
X4931639Y-18231889D02*
X4922115Y-18193793D01*
X4922115Y-18193793D02*
X4922115Y-18146174D01*
X4922115Y-18146174D02*
X4931639Y-18108079D01*
X4931639Y-18108079D02*
X4941163Y-18089031D01*
X4941163Y-18089031D02*
X4950687Y-18079508D01*
X4950687Y-18079508D02*
X4969734Y-18069984D01*
X5122115Y-18250936D02*
X5131639Y-18260460D01*
X5131639Y-18260460D02*
X5122115Y-18269984D01*
X5122115Y-18269984D02*
X5112591Y-18260460D01*
X5112591Y-18260460D02*
X5122115Y-18250936D01*
X5122115Y-18250936D02*
X5122115Y-18269984D01*
X5255448Y-18069984D02*
X5274496Y-18069984D01*
X5274496Y-18069984D02*
X5293544Y-18079508D01*
X5293544Y-18079508D02*
X5303068Y-18089031D01*
X5303068Y-18089031D02*
X5312591Y-18108079D01*
X5312591Y-18108079D02*
X5322115Y-18146174D01*
X5322115Y-18146174D02*
X5322115Y-18193793D01*
X5322115Y-18193793D02*
X5312591Y-18231889D01*
X5312591Y-18231889D02*
X5303068Y-18250936D01*
X5303068Y-18250936D02*
X5293544Y-18260460D01*
X5293544Y-18260460D02*
X5274496Y-18269984D01*
X5274496Y-18269984D02*
X5255448Y-18269984D01*
X5255448Y-18269984D02*
X5236401Y-18260460D01*
X5236401Y-18260460D02*
X5226877Y-18250936D01*
X5226877Y-18250936D02*
X5217353Y-18231889D01*
X5217353Y-18231889D02*
X5207829Y-18193793D01*
X5207829Y-18193793D02*
X5207829Y-18146174D01*
X5207829Y-18146174D02*
X5217353Y-18108079D01*
X5217353Y-18108079D02*
X5226877Y-18089031D01*
X5226877Y-18089031D02*
X5236401Y-18079508D01*
X5236401Y-18079508D02*
X5255448Y-18069984D01*
X5512591Y-18269984D02*
X5398306Y-18269984D01*
X5455448Y-18269984D02*
X5455448Y-18069984D01*
X5455448Y-18069984D02*
X5436401Y-18098555D01*
X5436401Y-18098555D02*
X5417353Y-18117603D01*
X5417353Y-18117603D02*
X5398306Y-18127127D01*
X5607829Y-18269984D02*
X5645925Y-18269984D01*
X5645925Y-18269984D02*
X5664972Y-18260460D01*
X5664972Y-18260460D02*
X5674496Y-18250936D01*
X5674496Y-18250936D02*
X5693544Y-18222365D01*
X5693544Y-18222365D02*
X5703067Y-18184270D01*
X5703067Y-18184270D02*
X5703067Y-18108079D01*
X5703067Y-18108079D02*
X5693544Y-18089031D01*
X5693544Y-18089031D02*
X5684020Y-18079508D01*
X5684020Y-18079508D02*
X5664972Y-18069984D01*
X5664972Y-18069984D02*
X5626877Y-18069984D01*
X5626877Y-18069984D02*
X5607829Y-18079508D01*
X5607829Y-18079508D02*
X5598306Y-18089031D01*
X5598306Y-18089031D02*
X5588782Y-18108079D01*
X5588782Y-18108079D02*
X5588782Y-18155698D01*
X5588782Y-18155698D02*
X5598306Y-18174746D01*
X5598306Y-18174746D02*
X5607829Y-18184270D01*
X5607829Y-18184270D02*
X5626877Y-18193793D01*
X5626877Y-18193793D02*
X5664972Y-18193793D01*
X5664972Y-18193793D02*
X5684020Y-18184270D01*
X5684020Y-18184270D02*
X5693544Y-18174746D01*
X5693544Y-18174746D02*
X5703067Y-18155698D01*
X5769734Y-18069984D02*
X5903067Y-18069984D01*
X5903067Y-18069984D02*
X5817353Y-18269984D01*
X5969734Y-18069984D02*
X5969734Y-18108079D01*
X6045925Y-18069984D02*
X6045925Y-18108079D01*
X6341163Y-18346174D02*
X6331639Y-18336650D01*
X6331639Y-18336650D02*
X6312591Y-18308079D01*
X6312591Y-18308079D02*
X6303068Y-18289031D01*
X6303068Y-18289031D02*
X6293544Y-18260460D01*
X6293544Y-18260460D02*
X6284020Y-18212841D01*
X6284020Y-18212841D02*
X6284020Y-18174746D01*
X6284020Y-18174746D02*
X6293544Y-18127127D01*
X6293544Y-18127127D02*
X6303068Y-18098555D01*
X6303068Y-18098555D02*
X6312591Y-18079508D01*
X6312591Y-18079508D02*
X6331639Y-18050936D01*
X6331639Y-18050936D02*
X6341163Y-18041412D01*
X6455448Y-18069984D02*
X6474496Y-18069984D01*
X6474496Y-18069984D02*
X6493544Y-18079508D01*
X6493544Y-18079508D02*
X6503068Y-18089031D01*
X6503068Y-18089031D02*
X6512591Y-18108079D01*
X6512591Y-18108079D02*
X6522115Y-18146174D01*
X6522115Y-18146174D02*
X6522115Y-18193793D01*
X6522115Y-18193793D02*
X6512591Y-18231889D01*
X6512591Y-18231889D02*
X6503068Y-18250936D01*
X6503068Y-18250936D02*
X6493544Y-18260460D01*
X6493544Y-18260460D02*
X6474496Y-18269984D01*
X6474496Y-18269984D02*
X6455448Y-18269984D01*
X6455448Y-18269984D02*
X6436401Y-18260460D01*
X6436401Y-18260460D02*
X6426877Y-18250936D01*
X6426877Y-18250936D02*
X6417353Y-18231889D01*
X6417353Y-18231889D02*
X6407829Y-18193793D01*
X6407829Y-18193793D02*
X6407829Y-18146174D01*
X6407829Y-18146174D02*
X6417353Y-18108079D01*
X6417353Y-18108079D02*
X6426877Y-18089031D01*
X6426877Y-18089031D02*
X6436401Y-18079508D01*
X6436401Y-18079508D02*
X6455448Y-18069984D01*
X6760210Y-18269984D02*
X6760210Y-18069984D01*
X6845925Y-18269984D02*
X6845925Y-18165222D01*
X6845925Y-18165222D02*
X6836401Y-18146174D01*
X6836401Y-18146174D02*
X6817353Y-18136650D01*
X6817353Y-18136650D02*
X6788782Y-18136650D01*
X6788782Y-18136650D02*
X6769734Y-18146174D01*
X6769734Y-18146174D02*
X6760210Y-18155698D01*
X6969734Y-18269984D02*
X6950687Y-18260460D01*
X6950687Y-18260460D02*
X6941163Y-18250936D01*
X6941163Y-18250936D02*
X6931639Y-18231889D01*
X6931639Y-18231889D02*
X6931639Y-18174746D01*
X6931639Y-18174746D02*
X6941163Y-18155698D01*
X6941163Y-18155698D02*
X6950687Y-18146174D01*
X6950687Y-18146174D02*
X6969734Y-18136650D01*
X6969734Y-18136650D02*
X6998306Y-18136650D01*
X6998306Y-18136650D02*
X7017353Y-18146174D01*
X7017353Y-18146174D02*
X7026877Y-18155698D01*
X7026877Y-18155698D02*
X7036401Y-18174746D01*
X7036401Y-18174746D02*
X7036401Y-18231889D01*
X7036401Y-18231889D02*
X7026877Y-18250936D01*
X7026877Y-18250936D02*
X7017353Y-18260460D01*
X7017353Y-18260460D02*
X6998306Y-18269984D01*
X6998306Y-18269984D02*
X6969734Y-18269984D01*
X7150687Y-18269984D02*
X7131639Y-18260460D01*
X7131639Y-18260460D02*
X7122115Y-18241412D01*
X7122115Y-18241412D02*
X7122115Y-18069984D01*
X7303068Y-18260460D02*
X7284020Y-18269984D01*
X7284020Y-18269984D02*
X7245925Y-18269984D01*
X7245925Y-18269984D02*
X7226877Y-18260460D01*
X7226877Y-18260460D02*
X7217353Y-18241412D01*
X7217353Y-18241412D02*
X7217353Y-18165222D01*
X7217353Y-18165222D02*
X7226877Y-18146174D01*
X7226877Y-18146174D02*
X7245925Y-18136650D01*
X7245925Y-18136650D02*
X7284020Y-18136650D01*
X7284020Y-18136650D02*
X7303068Y-18146174D01*
X7303068Y-18146174D02*
X7312591Y-18165222D01*
X7312591Y-18165222D02*
X7312591Y-18184270D01*
X7312591Y-18184270D02*
X7217353Y-18203317D01*
X7388782Y-18260460D02*
X7407830Y-18269984D01*
X7407830Y-18269984D02*
X7445925Y-18269984D01*
X7445925Y-18269984D02*
X7464972Y-18260460D01*
X7464972Y-18260460D02*
X7474496Y-18241412D01*
X7474496Y-18241412D02*
X7474496Y-18231889D01*
X7474496Y-18231889D02*
X7464972Y-18212841D01*
X7464972Y-18212841D02*
X7445925Y-18203317D01*
X7445925Y-18203317D02*
X7417353Y-18203317D01*
X7417353Y-18203317D02*
X7398306Y-18193793D01*
X7398306Y-18193793D02*
X7388782Y-18174746D01*
X7388782Y-18174746D02*
X7388782Y-18165222D01*
X7388782Y-18165222D02*
X7398306Y-18146174D01*
X7398306Y-18146174D02*
X7417353Y-18136650D01*
X7417353Y-18136650D02*
X7445925Y-18136650D01*
X7445925Y-18136650D02*
X7464972Y-18146174D01*
X7712592Y-18193793D02*
X7864973Y-18193793D01*
X7788782Y-18269984D02*
X7788782Y-18117603D01*
X8103068Y-18089031D02*
X8112592Y-18079508D01*
X8112592Y-18079508D02*
X8131639Y-18069984D01*
X8131639Y-18069984D02*
X8179258Y-18069984D01*
X8179258Y-18069984D02*
X8198306Y-18079508D01*
X8198306Y-18079508D02*
X8207830Y-18089031D01*
X8207830Y-18089031D02*
X8217353Y-18108079D01*
X8217353Y-18108079D02*
X8217353Y-18127127D01*
X8217353Y-18127127D02*
X8207830Y-18155698D01*
X8207830Y-18155698D02*
X8093544Y-18269984D01*
X8093544Y-18269984D02*
X8217353Y-18269984D01*
X8445925Y-18260460D02*
X8464973Y-18269984D01*
X8464973Y-18269984D02*
X8503068Y-18269984D01*
X8503068Y-18269984D02*
X8522116Y-18260460D01*
X8522116Y-18260460D02*
X8531639Y-18241412D01*
X8531639Y-18241412D02*
X8531639Y-18231889D01*
X8531639Y-18231889D02*
X8522116Y-18212841D01*
X8522116Y-18212841D02*
X8503068Y-18203317D01*
X8503068Y-18203317D02*
X8474496Y-18203317D01*
X8474496Y-18203317D02*
X8455449Y-18193793D01*
X8455449Y-18193793D02*
X8445925Y-18174746D01*
X8445925Y-18174746D02*
X8445925Y-18165222D01*
X8445925Y-18165222D02*
X8455449Y-18146174D01*
X8455449Y-18146174D02*
X8474496Y-18136650D01*
X8474496Y-18136650D02*
X8503068Y-18136650D01*
X8503068Y-18136650D02*
X8522116Y-18146174D01*
X8645925Y-18269984D02*
X8626877Y-18260460D01*
X8626877Y-18260460D02*
X8617354Y-18241412D01*
X8617354Y-18241412D02*
X8617354Y-18069984D01*
X8750687Y-18269984D02*
X8731639Y-18260460D01*
X8731639Y-18260460D02*
X8722116Y-18250936D01*
X8722116Y-18250936D02*
X8712592Y-18231889D01*
X8712592Y-18231889D02*
X8712592Y-18174746D01*
X8712592Y-18174746D02*
X8722116Y-18155698D01*
X8722116Y-18155698D02*
X8731639Y-18146174D01*
X8731639Y-18146174D02*
X8750687Y-18136650D01*
X8750687Y-18136650D02*
X8779258Y-18136650D01*
X8779258Y-18136650D02*
X8798306Y-18146174D01*
X8798306Y-18146174D02*
X8807830Y-18155698D01*
X8807830Y-18155698D02*
X8817354Y-18174746D01*
X8817354Y-18174746D02*
X8817354Y-18231889D01*
X8817354Y-18231889D02*
X8807830Y-18250936D01*
X8807830Y-18250936D02*
X8798306Y-18260460D01*
X8798306Y-18260460D02*
X8779258Y-18269984D01*
X8779258Y-18269984D02*
X8750687Y-18269984D01*
X8874497Y-18136650D02*
X8950687Y-18136650D01*
X8903068Y-18069984D02*
X8903068Y-18241412D01*
X8903068Y-18241412D02*
X8912592Y-18260460D01*
X8912592Y-18260460D02*
X8931639Y-18269984D01*
X8931639Y-18269984D02*
X8950687Y-18269984D01*
X9007830Y-18260460D02*
X9026877Y-18269984D01*
X9026877Y-18269984D02*
X9064973Y-18269984D01*
X9064973Y-18269984D02*
X9084020Y-18260460D01*
X9084020Y-18260460D02*
X9093544Y-18241412D01*
X9093544Y-18241412D02*
X9093544Y-18231889D01*
X9093544Y-18231889D02*
X9084020Y-18212841D01*
X9084020Y-18212841D02*
X9064973Y-18203317D01*
X9064973Y-18203317D02*
X9036401Y-18203317D01*
X9036401Y-18203317D02*
X9017354Y-18193793D01*
X9017354Y-18193793D02*
X9007830Y-18174746D01*
X9007830Y-18174746D02*
X9007830Y-18165222D01*
X9007830Y-18165222D02*
X9017354Y-18146174D01*
X9017354Y-18146174D02*
X9036401Y-18136650D01*
X9036401Y-18136650D02*
X9064973Y-18136650D01*
X9064973Y-18136650D02*
X9084020Y-18146174D01*
X9160211Y-18346174D02*
X9169735Y-18336650D01*
X9169735Y-18336650D02*
X9188782Y-18308079D01*
X9188782Y-18308079D02*
X9198306Y-18289031D01*
X9198306Y-18289031D02*
X9207830Y-18260460D01*
X9207830Y-18260460D02*
X9217354Y-18212841D01*
X9217354Y-18212841D02*
X9217354Y-18174746D01*
X9217354Y-18174746D02*
X9207830Y-18127127D01*
X9207830Y-18127127D02*
X9198306Y-18098555D01*
X9198306Y-18098555D02*
X9188782Y-18079508D01*
X9188782Y-18079508D02*
X9169735Y-18050936D01*
X9169735Y-18050936D02*
X9160211Y-18041412D01*
D12*
X2738600Y-18415000D02*
X2738600Y-18470000D01*
X2711100Y-18442500D02*
X2766100Y-18442500D01*
D11*
X3064972Y-18333984D02*
X3084020Y-18333984D01*
X3084020Y-18333984D02*
X3103067Y-18343508D01*
X3103067Y-18343508D02*
X3112591Y-18353031D01*
X3112591Y-18353031D02*
X3122115Y-18372079D01*
X3122115Y-18372079D02*
X3131639Y-18410174D01*
X3131639Y-18410174D02*
X3131639Y-18457793D01*
X3131639Y-18457793D02*
X3122115Y-18495889D01*
X3122115Y-18495889D02*
X3112591Y-18514936D01*
X3112591Y-18514936D02*
X3103067Y-18524460D01*
X3103067Y-18524460D02*
X3084020Y-18533984D01*
X3084020Y-18533984D02*
X3064972Y-18533984D01*
X3064972Y-18533984D02*
X3045924Y-18524460D01*
X3045924Y-18524460D02*
X3036401Y-18514936D01*
X3036401Y-18514936D02*
X3026877Y-18495889D01*
X3026877Y-18495889D02*
X3017353Y-18457793D01*
X3017353Y-18457793D02*
X3017353Y-18410174D01*
X3017353Y-18410174D02*
X3026877Y-18372079D01*
X3026877Y-18372079D02*
X3036401Y-18353031D01*
X3036401Y-18353031D02*
X3045924Y-18343508D01*
X3045924Y-18343508D02*
X3064972Y-18333984D01*
X3217353Y-18514936D02*
X3226877Y-18524460D01*
X3226877Y-18524460D02*
X3217353Y-18533984D01*
X3217353Y-18533984D02*
X3207829Y-18524460D01*
X3207829Y-18524460D02*
X3217353Y-18514936D01*
X3217353Y-18514936D02*
X3217353Y-18533984D01*
X3407829Y-18333984D02*
X3312591Y-18333984D01*
X3312591Y-18333984D02*
X3303067Y-18429222D01*
X3303067Y-18429222D02*
X3312591Y-18419698D01*
X3312591Y-18419698D02*
X3331639Y-18410174D01*
X3331639Y-18410174D02*
X3379258Y-18410174D01*
X3379258Y-18410174D02*
X3398305Y-18419698D01*
X3398305Y-18419698D02*
X3407829Y-18429222D01*
X3407829Y-18429222D02*
X3417353Y-18448270D01*
X3417353Y-18448270D02*
X3417353Y-18495889D01*
X3417353Y-18495889D02*
X3407829Y-18514936D01*
X3407829Y-18514936D02*
X3398305Y-18524460D01*
X3398305Y-18524460D02*
X3379258Y-18533984D01*
X3379258Y-18533984D02*
X3331639Y-18533984D01*
X3331639Y-18533984D02*
X3312591Y-18524460D01*
X3312591Y-18524460D02*
X3303067Y-18514936D01*
X3598305Y-18333984D02*
X3503067Y-18333984D01*
X3503067Y-18333984D02*
X3493543Y-18429222D01*
X3493543Y-18429222D02*
X3503067Y-18419698D01*
X3503067Y-18419698D02*
X3522115Y-18410174D01*
X3522115Y-18410174D02*
X3569734Y-18410174D01*
X3569734Y-18410174D02*
X3588782Y-18419698D01*
X3588782Y-18419698D02*
X3598305Y-18429222D01*
X3598305Y-18429222D02*
X3607829Y-18448270D01*
X3607829Y-18448270D02*
X3607829Y-18495889D01*
X3607829Y-18495889D02*
X3598305Y-18514936D01*
X3598305Y-18514936D02*
X3588782Y-18524460D01*
X3588782Y-18524460D02*
X3569734Y-18533984D01*
X3569734Y-18533984D02*
X3522115Y-18533984D01*
X3522115Y-18533984D02*
X3503067Y-18524460D01*
X3503067Y-18524460D02*
X3493543Y-18514936D01*
X3731639Y-18333984D02*
X3750686Y-18333984D01*
X3750686Y-18333984D02*
X3769734Y-18343508D01*
X3769734Y-18343508D02*
X3779258Y-18353031D01*
X3779258Y-18353031D02*
X3788782Y-18372079D01*
X3788782Y-18372079D02*
X3798305Y-18410174D01*
X3798305Y-18410174D02*
X3798305Y-18457793D01*
X3798305Y-18457793D02*
X3788782Y-18495889D01*
X3788782Y-18495889D02*
X3779258Y-18514936D01*
X3779258Y-18514936D02*
X3769734Y-18524460D01*
X3769734Y-18524460D02*
X3750686Y-18533984D01*
X3750686Y-18533984D02*
X3731639Y-18533984D01*
X3731639Y-18533984D02*
X3712591Y-18524460D01*
X3712591Y-18524460D02*
X3703067Y-18514936D01*
X3703067Y-18514936D02*
X3693543Y-18495889D01*
X3693543Y-18495889D02*
X3684020Y-18457793D01*
X3684020Y-18457793D02*
X3684020Y-18410174D01*
X3684020Y-18410174D02*
X3693543Y-18372079D01*
X3693543Y-18372079D02*
X3703067Y-18353031D01*
X3703067Y-18353031D02*
X3712591Y-18343508D01*
X3712591Y-18343508D02*
X3731639Y-18333984D01*
X3884020Y-18533984D02*
X3884020Y-18400650D01*
X3884020Y-18419698D02*
X3893543Y-18410174D01*
X3893543Y-18410174D02*
X3912591Y-18400650D01*
X3912591Y-18400650D02*
X3941163Y-18400650D01*
X3941163Y-18400650D02*
X3960210Y-18410174D01*
X3960210Y-18410174D02*
X3969734Y-18429222D01*
X3969734Y-18429222D02*
X3969734Y-18533984D01*
X3969734Y-18429222D02*
X3979258Y-18410174D01*
X3979258Y-18410174D02*
X3998305Y-18400650D01*
X3998305Y-18400650D02*
X4026877Y-18400650D01*
X4026877Y-18400650D02*
X4045924Y-18410174D01*
X4045924Y-18410174D02*
X4055448Y-18429222D01*
X4055448Y-18429222D02*
X4055448Y-18533984D01*
X4150686Y-18533984D02*
X4150686Y-18400650D01*
X4150686Y-18419698D02*
X4160210Y-18410174D01*
X4160210Y-18410174D02*
X4179258Y-18400650D01*
X4179258Y-18400650D02*
X4207829Y-18400650D01*
X4207829Y-18400650D02*
X4226877Y-18410174D01*
X4226877Y-18410174D02*
X4236401Y-18429222D01*
X4236401Y-18429222D02*
X4236401Y-18533984D01*
X4236401Y-18429222D02*
X4245925Y-18410174D01*
X4245925Y-18410174D02*
X4264972Y-18400650D01*
X4264972Y-18400650D02*
X4293544Y-18400650D01*
X4293544Y-18400650D02*
X4312591Y-18410174D01*
X4312591Y-18410174D02*
X4322115Y-18429222D01*
X4322115Y-18429222D02*
X4322115Y-18533984D01*
X4712591Y-18324460D02*
X4541163Y-18581603D01*
X4969734Y-18333984D02*
X4988782Y-18333984D01*
X4988782Y-18333984D02*
X5007829Y-18343508D01*
X5007829Y-18343508D02*
X5017353Y-18353031D01*
X5017353Y-18353031D02*
X5026877Y-18372079D01*
X5026877Y-18372079D02*
X5036401Y-18410174D01*
X5036401Y-18410174D02*
X5036401Y-18457793D01*
X5036401Y-18457793D02*
X5026877Y-18495889D01*
X5026877Y-18495889D02*
X5017353Y-18514936D01*
X5017353Y-18514936D02*
X5007829Y-18524460D01*
X5007829Y-18524460D02*
X4988782Y-18533984D01*
X4988782Y-18533984D02*
X4969734Y-18533984D01*
X4969734Y-18533984D02*
X4950687Y-18524460D01*
X4950687Y-18524460D02*
X4941163Y-18514936D01*
X4941163Y-18514936D02*
X4931639Y-18495889D01*
X4931639Y-18495889D02*
X4922115Y-18457793D01*
X4922115Y-18457793D02*
X4922115Y-18410174D01*
X4922115Y-18410174D02*
X4931639Y-18372079D01*
X4931639Y-18372079D02*
X4941163Y-18353031D01*
X4941163Y-18353031D02*
X4950687Y-18343508D01*
X4950687Y-18343508D02*
X4969734Y-18333984D01*
X5122115Y-18514936D02*
X5131639Y-18524460D01*
X5131639Y-18524460D02*
X5122115Y-18533984D01*
X5122115Y-18533984D02*
X5112591Y-18524460D01*
X5112591Y-18524460D02*
X5122115Y-18514936D01*
X5122115Y-18514936D02*
X5122115Y-18533984D01*
X5255448Y-18333984D02*
X5274496Y-18333984D01*
X5274496Y-18333984D02*
X5293544Y-18343508D01*
X5293544Y-18343508D02*
X5303068Y-18353031D01*
X5303068Y-18353031D02*
X5312591Y-18372079D01*
X5312591Y-18372079D02*
X5322115Y-18410174D01*
X5322115Y-18410174D02*
X5322115Y-18457793D01*
X5322115Y-18457793D02*
X5312591Y-18495889D01*
X5312591Y-18495889D02*
X5303068Y-18514936D01*
X5303068Y-18514936D02*
X5293544Y-18524460D01*
X5293544Y-18524460D02*
X5274496Y-18533984D01*
X5274496Y-18533984D02*
X5255448Y-18533984D01*
X5255448Y-18533984D02*
X5236401Y-18524460D01*
X5236401Y-18524460D02*
X5226877Y-18514936D01*
X5226877Y-18514936D02*
X5217353Y-18495889D01*
X5217353Y-18495889D02*
X5207829Y-18457793D01*
X5207829Y-18457793D02*
X5207829Y-18410174D01*
X5207829Y-18410174D02*
X5217353Y-18372079D01*
X5217353Y-18372079D02*
X5226877Y-18353031D01*
X5226877Y-18353031D02*
X5236401Y-18343508D01*
X5236401Y-18343508D02*
X5255448Y-18333984D01*
X5398306Y-18353031D02*
X5407829Y-18343508D01*
X5407829Y-18343508D02*
X5426877Y-18333984D01*
X5426877Y-18333984D02*
X5474496Y-18333984D01*
X5474496Y-18333984D02*
X5493544Y-18343508D01*
X5493544Y-18343508D02*
X5503068Y-18353031D01*
X5503068Y-18353031D02*
X5512591Y-18372079D01*
X5512591Y-18372079D02*
X5512591Y-18391127D01*
X5512591Y-18391127D02*
X5503068Y-18419698D01*
X5503068Y-18419698D02*
X5388782Y-18533984D01*
X5388782Y-18533984D02*
X5512591Y-18533984D01*
X5703067Y-18533984D02*
X5588782Y-18533984D01*
X5645925Y-18533984D02*
X5645925Y-18333984D01*
X5645925Y-18333984D02*
X5626877Y-18362555D01*
X5626877Y-18362555D02*
X5607829Y-18381603D01*
X5607829Y-18381603D02*
X5588782Y-18391127D01*
X5769734Y-18333984D02*
X5903067Y-18333984D01*
X5903067Y-18333984D02*
X5817353Y-18533984D01*
X5969734Y-18333984D02*
X5969734Y-18372079D01*
X6045925Y-18333984D02*
X6045925Y-18372079D01*
X6341163Y-18610174D02*
X6331639Y-18600650D01*
X6331639Y-18600650D02*
X6312591Y-18572079D01*
X6312591Y-18572079D02*
X6303068Y-18553031D01*
X6303068Y-18553031D02*
X6293544Y-18524460D01*
X6293544Y-18524460D02*
X6284020Y-18476841D01*
X6284020Y-18476841D02*
X6284020Y-18438746D01*
X6284020Y-18438746D02*
X6293544Y-18391127D01*
X6293544Y-18391127D02*
X6303068Y-18362555D01*
X6303068Y-18362555D02*
X6312591Y-18343508D01*
X6312591Y-18343508D02*
X6331639Y-18314936D01*
X6331639Y-18314936D02*
X6341163Y-18305412D01*
X6455448Y-18333984D02*
X6474496Y-18333984D01*
X6474496Y-18333984D02*
X6493544Y-18343508D01*
X6493544Y-18343508D02*
X6503068Y-18353031D01*
X6503068Y-18353031D02*
X6512591Y-18372079D01*
X6512591Y-18372079D02*
X6522115Y-18410174D01*
X6522115Y-18410174D02*
X6522115Y-18457793D01*
X6522115Y-18457793D02*
X6512591Y-18495889D01*
X6512591Y-18495889D02*
X6503068Y-18514936D01*
X6503068Y-18514936D02*
X6493544Y-18524460D01*
X6493544Y-18524460D02*
X6474496Y-18533984D01*
X6474496Y-18533984D02*
X6455448Y-18533984D01*
X6455448Y-18533984D02*
X6436401Y-18524460D01*
X6436401Y-18524460D02*
X6426877Y-18514936D01*
X6426877Y-18514936D02*
X6417353Y-18495889D01*
X6417353Y-18495889D02*
X6407829Y-18457793D01*
X6407829Y-18457793D02*
X6407829Y-18410174D01*
X6407829Y-18410174D02*
X6417353Y-18372079D01*
X6417353Y-18372079D02*
X6426877Y-18353031D01*
X6426877Y-18353031D02*
X6436401Y-18343508D01*
X6436401Y-18343508D02*
X6455448Y-18333984D01*
X6760210Y-18533984D02*
X6760210Y-18333984D01*
X6845925Y-18533984D02*
X6845925Y-18429222D01*
X6845925Y-18429222D02*
X6836401Y-18410174D01*
X6836401Y-18410174D02*
X6817353Y-18400650D01*
X6817353Y-18400650D02*
X6788782Y-18400650D01*
X6788782Y-18400650D02*
X6769734Y-18410174D01*
X6769734Y-18410174D02*
X6760210Y-18419698D01*
X6969734Y-18533984D02*
X6950687Y-18524460D01*
X6950687Y-18524460D02*
X6941163Y-18514936D01*
X6941163Y-18514936D02*
X6931639Y-18495889D01*
X6931639Y-18495889D02*
X6931639Y-18438746D01*
X6931639Y-18438746D02*
X6941163Y-18419698D01*
X6941163Y-18419698D02*
X6950687Y-18410174D01*
X6950687Y-18410174D02*
X6969734Y-18400650D01*
X6969734Y-18400650D02*
X6998306Y-18400650D01*
X6998306Y-18400650D02*
X7017353Y-18410174D01*
X7017353Y-18410174D02*
X7026877Y-18419698D01*
X7026877Y-18419698D02*
X7036401Y-18438746D01*
X7036401Y-18438746D02*
X7036401Y-18495889D01*
X7036401Y-18495889D02*
X7026877Y-18514936D01*
X7026877Y-18514936D02*
X7017353Y-18524460D01*
X7017353Y-18524460D02*
X6998306Y-18533984D01*
X6998306Y-18533984D02*
X6969734Y-18533984D01*
X7150687Y-18533984D02*
X7131639Y-18524460D01*
X7131639Y-18524460D02*
X7122115Y-18505412D01*
X7122115Y-18505412D02*
X7122115Y-18333984D01*
X7303068Y-18524460D02*
X7284020Y-18533984D01*
X7284020Y-18533984D02*
X7245925Y-18533984D01*
X7245925Y-18533984D02*
X7226877Y-18524460D01*
X7226877Y-18524460D02*
X7217353Y-18505412D01*
X7217353Y-18505412D02*
X7217353Y-18429222D01*
X7217353Y-18429222D02*
X7226877Y-18410174D01*
X7226877Y-18410174D02*
X7245925Y-18400650D01*
X7245925Y-18400650D02*
X7284020Y-18400650D01*
X7284020Y-18400650D02*
X7303068Y-18410174D01*
X7303068Y-18410174D02*
X7312591Y-18429222D01*
X7312591Y-18429222D02*
X7312591Y-18448270D01*
X7312591Y-18448270D02*
X7217353Y-18467317D01*
X7388782Y-18524460D02*
X7407830Y-18533984D01*
X7407830Y-18533984D02*
X7445925Y-18533984D01*
X7445925Y-18533984D02*
X7464972Y-18524460D01*
X7464972Y-18524460D02*
X7474496Y-18505412D01*
X7474496Y-18505412D02*
X7474496Y-18495889D01*
X7474496Y-18495889D02*
X7464972Y-18476841D01*
X7464972Y-18476841D02*
X7445925Y-18467317D01*
X7445925Y-18467317D02*
X7417353Y-18467317D01*
X7417353Y-18467317D02*
X7398306Y-18457793D01*
X7398306Y-18457793D02*
X7388782Y-18438746D01*
X7388782Y-18438746D02*
X7388782Y-18429222D01*
X7388782Y-18429222D02*
X7398306Y-18410174D01*
X7398306Y-18410174D02*
X7417353Y-18400650D01*
X7417353Y-18400650D02*
X7445925Y-18400650D01*
X7445925Y-18400650D02*
X7464972Y-18410174D01*
X7712592Y-18457793D02*
X7864973Y-18457793D01*
X7788782Y-18533984D02*
X7788782Y-18381603D01*
X8103068Y-18353031D02*
X8112592Y-18343508D01*
X8112592Y-18343508D02*
X8131639Y-18333984D01*
X8131639Y-18333984D02*
X8179258Y-18333984D01*
X8179258Y-18333984D02*
X8198306Y-18343508D01*
X8198306Y-18343508D02*
X8207830Y-18353031D01*
X8207830Y-18353031D02*
X8217353Y-18372079D01*
X8217353Y-18372079D02*
X8217353Y-18391127D01*
X8217353Y-18391127D02*
X8207830Y-18419698D01*
X8207830Y-18419698D02*
X8093544Y-18533984D01*
X8093544Y-18533984D02*
X8217353Y-18533984D01*
X8445925Y-18524460D02*
X8464973Y-18533984D01*
X8464973Y-18533984D02*
X8503068Y-18533984D01*
X8503068Y-18533984D02*
X8522116Y-18524460D01*
X8522116Y-18524460D02*
X8531639Y-18505412D01*
X8531639Y-18505412D02*
X8531639Y-18495889D01*
X8531639Y-18495889D02*
X8522116Y-18476841D01*
X8522116Y-18476841D02*
X8503068Y-18467317D01*
X8503068Y-18467317D02*
X8474496Y-18467317D01*
X8474496Y-18467317D02*
X8455449Y-18457793D01*
X8455449Y-18457793D02*
X8445925Y-18438746D01*
X8445925Y-18438746D02*
X8445925Y-18429222D01*
X8445925Y-18429222D02*
X8455449Y-18410174D01*
X8455449Y-18410174D02*
X8474496Y-18400650D01*
X8474496Y-18400650D02*
X8503068Y-18400650D01*
X8503068Y-18400650D02*
X8522116Y-18410174D01*
X8645925Y-18533984D02*
X8626877Y-18524460D01*
X8626877Y-18524460D02*
X8617354Y-18505412D01*
X8617354Y-18505412D02*
X8617354Y-18333984D01*
X8750687Y-18533984D02*
X8731639Y-18524460D01*
X8731639Y-18524460D02*
X8722116Y-18514936D01*
X8722116Y-18514936D02*
X8712592Y-18495889D01*
X8712592Y-18495889D02*
X8712592Y-18438746D01*
X8712592Y-18438746D02*
X8722116Y-18419698D01*
X8722116Y-18419698D02*
X8731639Y-18410174D01*
X8731639Y-18410174D02*
X8750687Y-18400650D01*
X8750687Y-18400650D02*
X8779258Y-18400650D01*
X8779258Y-18400650D02*
X8798306Y-18410174D01*
X8798306Y-18410174D02*
X8807830Y-18419698D01*
X8807830Y-18419698D02*
X8817354Y-18438746D01*
X8817354Y-18438746D02*
X8817354Y-18495889D01*
X8817354Y-18495889D02*
X8807830Y-18514936D01*
X8807830Y-18514936D02*
X8798306Y-18524460D01*
X8798306Y-18524460D02*
X8779258Y-18533984D01*
X8779258Y-18533984D02*
X8750687Y-18533984D01*
X8874497Y-18400650D02*
X8950687Y-18400650D01*
X8903068Y-18333984D02*
X8903068Y-18505412D01*
X8903068Y-18505412D02*
X8912592Y-18524460D01*
X8912592Y-18524460D02*
X8931639Y-18533984D01*
X8931639Y-18533984D02*
X8950687Y-18533984D01*
X9007830Y-18524460D02*
X9026877Y-18533984D01*
X9026877Y-18533984D02*
X9064973Y-18533984D01*
X9064973Y-18533984D02*
X9084020Y-18524460D01*
X9084020Y-18524460D02*
X9093544Y-18505412D01*
X9093544Y-18505412D02*
X9093544Y-18495889D01*
X9093544Y-18495889D02*
X9084020Y-18476841D01*
X9084020Y-18476841D02*
X9064973Y-18467317D01*
X9064973Y-18467317D02*
X9036401Y-18467317D01*
X9036401Y-18467317D02*
X9017354Y-18457793D01*
X9017354Y-18457793D02*
X9007830Y-18438746D01*
X9007830Y-18438746D02*
X9007830Y-18429222D01*
X9007830Y-18429222D02*
X9017354Y-18410174D01*
X9017354Y-18410174D02*
X9036401Y-18400650D01*
X9036401Y-18400650D02*
X9064973Y-18400650D01*
X9064973Y-18400650D02*
X9084020Y-18410174D01*
X9160211Y-18610174D02*
X9169735Y-18600650D01*
X9169735Y-18600650D02*
X9188782Y-18572079D01*
X9188782Y-18572079D02*
X9198306Y-18553031D01*
X9198306Y-18553031D02*
X9207830Y-18524460D01*
X9207830Y-18524460D02*
X9217354Y-18476841D01*
X9217354Y-18476841D02*
X9217354Y-18438746D01*
X9217354Y-18438746D02*
X9207830Y-18391127D01*
X9207830Y-18391127D02*
X9198306Y-18362555D01*
X9198306Y-18362555D02*
X9188782Y-18343508D01*
X9188782Y-18343508D02*
X9169735Y-18314936D01*
X9169735Y-18314936D02*
X9160211Y-18305412D01*
D12*
X2757313Y-18727713D02*
X2757313Y-18685287D01*
X2714887Y-18685287D01*
X2714887Y-18727713D01*
X2757313Y-18727713D01*
D11*
X3064972Y-18597984D02*
X3084020Y-18597984D01*
X3084020Y-18597984D02*
X3103067Y-18607508D01*
X3103067Y-18607508D02*
X3112591Y-18617031D01*
X3112591Y-18617031D02*
X3122115Y-18636079D01*
X3122115Y-18636079D02*
X3131639Y-18674174D01*
X3131639Y-18674174D02*
X3131639Y-18721793D01*
X3131639Y-18721793D02*
X3122115Y-18759889D01*
X3122115Y-18759889D02*
X3112591Y-18778936D01*
X3112591Y-18778936D02*
X3103067Y-18788460D01*
X3103067Y-18788460D02*
X3084020Y-18797984D01*
X3084020Y-18797984D02*
X3064972Y-18797984D01*
X3064972Y-18797984D02*
X3045924Y-18788460D01*
X3045924Y-18788460D02*
X3036401Y-18778936D01*
X3036401Y-18778936D02*
X3026877Y-18759889D01*
X3026877Y-18759889D02*
X3017353Y-18721793D01*
X3017353Y-18721793D02*
X3017353Y-18674174D01*
X3017353Y-18674174D02*
X3026877Y-18636079D01*
X3026877Y-18636079D02*
X3036401Y-18617031D01*
X3036401Y-18617031D02*
X3045924Y-18607508D01*
X3045924Y-18607508D02*
X3064972Y-18597984D01*
X3217353Y-18778936D02*
X3226877Y-18788460D01*
X3226877Y-18788460D02*
X3217353Y-18797984D01*
X3217353Y-18797984D02*
X3207829Y-18788460D01*
X3207829Y-18788460D02*
X3217353Y-18778936D01*
X3217353Y-18778936D02*
X3217353Y-18797984D01*
X3398305Y-18597984D02*
X3360210Y-18597984D01*
X3360210Y-18597984D02*
X3341162Y-18607508D01*
X3341162Y-18607508D02*
X3331639Y-18617031D01*
X3331639Y-18617031D02*
X3312591Y-18645603D01*
X3312591Y-18645603D02*
X3303067Y-18683698D01*
X3303067Y-18683698D02*
X3303067Y-18759889D01*
X3303067Y-18759889D02*
X3312591Y-18778936D01*
X3312591Y-18778936D02*
X3322115Y-18788460D01*
X3322115Y-18788460D02*
X3341162Y-18797984D01*
X3341162Y-18797984D02*
X3379258Y-18797984D01*
X3379258Y-18797984D02*
X3398305Y-18788460D01*
X3398305Y-18788460D02*
X3407829Y-18778936D01*
X3407829Y-18778936D02*
X3417353Y-18759889D01*
X3417353Y-18759889D02*
X3417353Y-18712270D01*
X3417353Y-18712270D02*
X3407829Y-18693222D01*
X3407829Y-18693222D02*
X3398305Y-18683698D01*
X3398305Y-18683698D02*
X3379258Y-18674174D01*
X3379258Y-18674174D02*
X3341162Y-18674174D01*
X3341162Y-18674174D02*
X3322115Y-18683698D01*
X3322115Y-18683698D02*
X3312591Y-18693222D01*
X3312591Y-18693222D02*
X3303067Y-18712270D01*
X3541162Y-18597984D02*
X3560210Y-18597984D01*
X3560210Y-18597984D02*
X3579258Y-18607508D01*
X3579258Y-18607508D02*
X3588782Y-18617031D01*
X3588782Y-18617031D02*
X3598305Y-18636079D01*
X3598305Y-18636079D02*
X3607829Y-18674174D01*
X3607829Y-18674174D02*
X3607829Y-18721793D01*
X3607829Y-18721793D02*
X3598305Y-18759889D01*
X3598305Y-18759889D02*
X3588782Y-18778936D01*
X3588782Y-18778936D02*
X3579258Y-18788460D01*
X3579258Y-18788460D02*
X3560210Y-18797984D01*
X3560210Y-18797984D02*
X3541162Y-18797984D01*
X3541162Y-18797984D02*
X3522115Y-18788460D01*
X3522115Y-18788460D02*
X3512591Y-18778936D01*
X3512591Y-18778936D02*
X3503067Y-18759889D01*
X3503067Y-18759889D02*
X3493543Y-18721793D01*
X3493543Y-18721793D02*
X3493543Y-18674174D01*
X3493543Y-18674174D02*
X3503067Y-18636079D01*
X3503067Y-18636079D02*
X3512591Y-18617031D01*
X3512591Y-18617031D02*
X3522115Y-18607508D01*
X3522115Y-18607508D02*
X3541162Y-18597984D01*
X3731639Y-18597984D02*
X3750686Y-18597984D01*
X3750686Y-18597984D02*
X3769734Y-18607508D01*
X3769734Y-18607508D02*
X3779258Y-18617031D01*
X3779258Y-18617031D02*
X3788782Y-18636079D01*
X3788782Y-18636079D02*
X3798305Y-18674174D01*
X3798305Y-18674174D02*
X3798305Y-18721793D01*
X3798305Y-18721793D02*
X3788782Y-18759889D01*
X3788782Y-18759889D02*
X3779258Y-18778936D01*
X3779258Y-18778936D02*
X3769734Y-18788460D01*
X3769734Y-18788460D02*
X3750686Y-18797984D01*
X3750686Y-18797984D02*
X3731639Y-18797984D01*
X3731639Y-18797984D02*
X3712591Y-18788460D01*
X3712591Y-18788460D02*
X3703067Y-18778936D01*
X3703067Y-18778936D02*
X3693543Y-18759889D01*
X3693543Y-18759889D02*
X3684020Y-18721793D01*
X3684020Y-18721793D02*
X3684020Y-18674174D01*
X3684020Y-18674174D02*
X3693543Y-18636079D01*
X3693543Y-18636079D02*
X3703067Y-18617031D01*
X3703067Y-18617031D02*
X3712591Y-18607508D01*
X3712591Y-18607508D02*
X3731639Y-18597984D01*
X3884020Y-18797984D02*
X3884020Y-18664650D01*
X3884020Y-18683698D02*
X3893543Y-18674174D01*
X3893543Y-18674174D02*
X3912591Y-18664650D01*
X3912591Y-18664650D02*
X3941163Y-18664650D01*
X3941163Y-18664650D02*
X3960210Y-18674174D01*
X3960210Y-18674174D02*
X3969734Y-18693222D01*
X3969734Y-18693222D02*
X3969734Y-18797984D01*
X3969734Y-18693222D02*
X3979258Y-18674174D01*
X3979258Y-18674174D02*
X3998305Y-18664650D01*
X3998305Y-18664650D02*
X4026877Y-18664650D01*
X4026877Y-18664650D02*
X4045924Y-18674174D01*
X4045924Y-18674174D02*
X4055448Y-18693222D01*
X4055448Y-18693222D02*
X4055448Y-18797984D01*
X4150686Y-18797984D02*
X4150686Y-18664650D01*
X4150686Y-18683698D02*
X4160210Y-18674174D01*
X4160210Y-18674174D02*
X4179258Y-18664650D01*
X4179258Y-18664650D02*
X4207829Y-18664650D01*
X4207829Y-18664650D02*
X4226877Y-18674174D01*
X4226877Y-18674174D02*
X4236401Y-18693222D01*
X4236401Y-18693222D02*
X4236401Y-18797984D01*
X4236401Y-18693222D02*
X4245925Y-18674174D01*
X4245925Y-18674174D02*
X4264972Y-18664650D01*
X4264972Y-18664650D02*
X4293544Y-18664650D01*
X4293544Y-18664650D02*
X4312591Y-18674174D01*
X4312591Y-18674174D02*
X4322115Y-18693222D01*
X4322115Y-18693222D02*
X4322115Y-18797984D01*
X4712591Y-18588460D02*
X4541163Y-18845603D01*
X4969734Y-18597984D02*
X4988782Y-18597984D01*
X4988782Y-18597984D02*
X5007829Y-18607508D01*
X5007829Y-18607508D02*
X5017353Y-18617031D01*
X5017353Y-18617031D02*
X5026877Y-18636079D01*
X5026877Y-18636079D02*
X5036401Y-18674174D01*
X5036401Y-18674174D02*
X5036401Y-18721793D01*
X5036401Y-18721793D02*
X5026877Y-18759889D01*
X5026877Y-18759889D02*
X5017353Y-18778936D01*
X5017353Y-18778936D02*
X5007829Y-18788460D01*
X5007829Y-18788460D02*
X4988782Y-18797984D01*
X4988782Y-18797984D02*
X4969734Y-18797984D01*
X4969734Y-18797984D02*
X4950687Y-18788460D01*
X4950687Y-18788460D02*
X4941163Y-18778936D01*
X4941163Y-18778936D02*
X4931639Y-18759889D01*
X4931639Y-18759889D02*
X4922115Y-18721793D01*
X4922115Y-18721793D02*
X4922115Y-18674174D01*
X4922115Y-18674174D02*
X4931639Y-18636079D01*
X4931639Y-18636079D02*
X4941163Y-18617031D01*
X4941163Y-18617031D02*
X4950687Y-18607508D01*
X4950687Y-18607508D02*
X4969734Y-18597984D01*
X5122115Y-18778936D02*
X5131639Y-18788460D01*
X5131639Y-18788460D02*
X5122115Y-18797984D01*
X5122115Y-18797984D02*
X5112591Y-18788460D01*
X5112591Y-18788460D02*
X5122115Y-18778936D01*
X5122115Y-18778936D02*
X5122115Y-18797984D01*
X5255448Y-18597984D02*
X5274496Y-18597984D01*
X5274496Y-18597984D02*
X5293544Y-18607508D01*
X5293544Y-18607508D02*
X5303068Y-18617031D01*
X5303068Y-18617031D02*
X5312591Y-18636079D01*
X5312591Y-18636079D02*
X5322115Y-18674174D01*
X5322115Y-18674174D02*
X5322115Y-18721793D01*
X5322115Y-18721793D02*
X5312591Y-18759889D01*
X5312591Y-18759889D02*
X5303068Y-18778936D01*
X5303068Y-18778936D02*
X5293544Y-18788460D01*
X5293544Y-18788460D02*
X5274496Y-18797984D01*
X5274496Y-18797984D02*
X5255448Y-18797984D01*
X5255448Y-18797984D02*
X5236401Y-18788460D01*
X5236401Y-18788460D02*
X5226877Y-18778936D01*
X5226877Y-18778936D02*
X5217353Y-18759889D01*
X5217353Y-18759889D02*
X5207829Y-18721793D01*
X5207829Y-18721793D02*
X5207829Y-18674174D01*
X5207829Y-18674174D02*
X5217353Y-18636079D01*
X5217353Y-18636079D02*
X5226877Y-18617031D01*
X5226877Y-18617031D02*
X5236401Y-18607508D01*
X5236401Y-18607508D02*
X5255448Y-18597984D01*
X5398306Y-18617031D02*
X5407829Y-18607508D01*
X5407829Y-18607508D02*
X5426877Y-18597984D01*
X5426877Y-18597984D02*
X5474496Y-18597984D01*
X5474496Y-18597984D02*
X5493544Y-18607508D01*
X5493544Y-18607508D02*
X5503068Y-18617031D01*
X5503068Y-18617031D02*
X5512591Y-18636079D01*
X5512591Y-18636079D02*
X5512591Y-18655127D01*
X5512591Y-18655127D02*
X5503068Y-18683698D01*
X5503068Y-18683698D02*
X5388782Y-18797984D01*
X5388782Y-18797984D02*
X5512591Y-18797984D01*
X5579258Y-18597984D02*
X5703067Y-18597984D01*
X5703067Y-18597984D02*
X5636401Y-18674174D01*
X5636401Y-18674174D02*
X5664972Y-18674174D01*
X5664972Y-18674174D02*
X5684020Y-18683698D01*
X5684020Y-18683698D02*
X5693544Y-18693222D01*
X5693544Y-18693222D02*
X5703067Y-18712270D01*
X5703067Y-18712270D02*
X5703067Y-18759889D01*
X5703067Y-18759889D02*
X5693544Y-18778936D01*
X5693544Y-18778936D02*
X5684020Y-18788460D01*
X5684020Y-18788460D02*
X5664972Y-18797984D01*
X5664972Y-18797984D02*
X5607829Y-18797984D01*
X5607829Y-18797984D02*
X5588782Y-18788460D01*
X5588782Y-18788460D02*
X5579258Y-18778936D01*
X5874496Y-18597984D02*
X5836401Y-18597984D01*
X5836401Y-18597984D02*
X5817353Y-18607508D01*
X5817353Y-18607508D02*
X5807829Y-18617031D01*
X5807829Y-18617031D02*
X5788782Y-18645603D01*
X5788782Y-18645603D02*
X5779258Y-18683698D01*
X5779258Y-18683698D02*
X5779258Y-18759889D01*
X5779258Y-18759889D02*
X5788782Y-18778936D01*
X5788782Y-18778936D02*
X5798306Y-18788460D01*
X5798306Y-18788460D02*
X5817353Y-18797984D01*
X5817353Y-18797984D02*
X5855448Y-18797984D01*
X5855448Y-18797984D02*
X5874496Y-18788460D01*
X5874496Y-18788460D02*
X5884020Y-18778936D01*
X5884020Y-18778936D02*
X5893544Y-18759889D01*
X5893544Y-18759889D02*
X5893544Y-18712270D01*
X5893544Y-18712270D02*
X5884020Y-18693222D01*
X5884020Y-18693222D02*
X5874496Y-18683698D01*
X5874496Y-18683698D02*
X5855448Y-18674174D01*
X5855448Y-18674174D02*
X5817353Y-18674174D01*
X5817353Y-18674174D02*
X5798306Y-18683698D01*
X5798306Y-18683698D02*
X5788782Y-18693222D01*
X5788782Y-18693222D02*
X5779258Y-18712270D01*
X5969734Y-18597984D02*
X5969734Y-18636079D01*
X6045925Y-18597984D02*
X6045925Y-18636079D01*
X6341163Y-18874174D02*
X6331639Y-18864650D01*
X6331639Y-18864650D02*
X6312591Y-18836079D01*
X6312591Y-18836079D02*
X6303068Y-18817031D01*
X6303068Y-18817031D02*
X6293544Y-18788460D01*
X6293544Y-18788460D02*
X6284020Y-18740841D01*
X6284020Y-18740841D02*
X6284020Y-18702746D01*
X6284020Y-18702746D02*
X6293544Y-18655127D01*
X6293544Y-18655127D02*
X6303068Y-18626555D01*
X6303068Y-18626555D02*
X6312591Y-18607508D01*
X6312591Y-18607508D02*
X6331639Y-18578936D01*
X6331639Y-18578936D02*
X6341163Y-18569412D01*
X6407829Y-18617031D02*
X6417353Y-18607508D01*
X6417353Y-18607508D02*
X6436401Y-18597984D01*
X6436401Y-18597984D02*
X6484020Y-18597984D01*
X6484020Y-18597984D02*
X6503068Y-18607508D01*
X6503068Y-18607508D02*
X6512591Y-18617031D01*
X6512591Y-18617031D02*
X6522115Y-18636079D01*
X6522115Y-18636079D02*
X6522115Y-18655127D01*
X6522115Y-18655127D02*
X6512591Y-18683698D01*
X6512591Y-18683698D02*
X6398306Y-18797984D01*
X6398306Y-18797984D02*
X6522115Y-18797984D01*
X6760210Y-18797984D02*
X6760210Y-18597984D01*
X6845925Y-18797984D02*
X6845925Y-18693222D01*
X6845925Y-18693222D02*
X6836401Y-18674174D01*
X6836401Y-18674174D02*
X6817353Y-18664650D01*
X6817353Y-18664650D02*
X6788782Y-18664650D01*
X6788782Y-18664650D02*
X6769734Y-18674174D01*
X6769734Y-18674174D02*
X6760210Y-18683698D01*
X6969734Y-18797984D02*
X6950687Y-18788460D01*
X6950687Y-18788460D02*
X6941163Y-18778936D01*
X6941163Y-18778936D02*
X6931639Y-18759889D01*
X6931639Y-18759889D02*
X6931639Y-18702746D01*
X6931639Y-18702746D02*
X6941163Y-18683698D01*
X6941163Y-18683698D02*
X6950687Y-18674174D01*
X6950687Y-18674174D02*
X6969734Y-18664650D01*
X6969734Y-18664650D02*
X6998306Y-18664650D01*
X6998306Y-18664650D02*
X7017353Y-18674174D01*
X7017353Y-18674174D02*
X7026877Y-18683698D01*
X7026877Y-18683698D02*
X7036401Y-18702746D01*
X7036401Y-18702746D02*
X7036401Y-18759889D01*
X7036401Y-18759889D02*
X7026877Y-18778936D01*
X7026877Y-18778936D02*
X7017353Y-18788460D01*
X7017353Y-18788460D02*
X6998306Y-18797984D01*
X6998306Y-18797984D02*
X6969734Y-18797984D01*
X7150687Y-18797984D02*
X7131639Y-18788460D01*
X7131639Y-18788460D02*
X7122115Y-18769412D01*
X7122115Y-18769412D02*
X7122115Y-18597984D01*
X7303068Y-18788460D02*
X7284020Y-18797984D01*
X7284020Y-18797984D02*
X7245925Y-18797984D01*
X7245925Y-18797984D02*
X7226877Y-18788460D01*
X7226877Y-18788460D02*
X7217353Y-18769412D01*
X7217353Y-18769412D02*
X7217353Y-18693222D01*
X7217353Y-18693222D02*
X7226877Y-18674174D01*
X7226877Y-18674174D02*
X7245925Y-18664650D01*
X7245925Y-18664650D02*
X7284020Y-18664650D01*
X7284020Y-18664650D02*
X7303068Y-18674174D01*
X7303068Y-18674174D02*
X7312591Y-18693222D01*
X7312591Y-18693222D02*
X7312591Y-18712270D01*
X7312591Y-18712270D02*
X7217353Y-18731317D01*
X7388782Y-18788460D02*
X7407830Y-18797984D01*
X7407830Y-18797984D02*
X7445925Y-18797984D01*
X7445925Y-18797984D02*
X7464972Y-18788460D01*
X7464972Y-18788460D02*
X7474496Y-18769412D01*
X7474496Y-18769412D02*
X7474496Y-18759889D01*
X7474496Y-18759889D02*
X7464972Y-18740841D01*
X7464972Y-18740841D02*
X7445925Y-18731317D01*
X7445925Y-18731317D02*
X7417353Y-18731317D01*
X7417353Y-18731317D02*
X7398306Y-18721793D01*
X7398306Y-18721793D02*
X7388782Y-18702746D01*
X7388782Y-18702746D02*
X7388782Y-18693222D01*
X7388782Y-18693222D02*
X7398306Y-18674174D01*
X7398306Y-18674174D02*
X7417353Y-18664650D01*
X7417353Y-18664650D02*
X7445925Y-18664650D01*
X7445925Y-18664650D02*
X7464972Y-18674174D01*
X7541163Y-18874174D02*
X7550687Y-18864650D01*
X7550687Y-18864650D02*
X7569734Y-18836079D01*
X7569734Y-18836079D02*
X7579258Y-18817031D01*
X7579258Y-18817031D02*
X7588782Y-18788460D01*
X7588782Y-18788460D02*
X7598306Y-18740841D01*
X7598306Y-18740841D02*
X7598306Y-18702746D01*
X7598306Y-18702746D02*
X7588782Y-18655127D01*
X7588782Y-18655127D02*
X7579258Y-18626555D01*
X7579258Y-18626555D02*
X7569734Y-18607508D01*
X7569734Y-18607508D02*
X7550687Y-18578936D01*
X7550687Y-18578936D02*
X7541163Y-18569412D01*
D13*
X2691100Y-19045500D02*
X2766100Y-18970500D01*
X2691100Y-18895500D01*
X2616100Y-18970500D01*
X2691100Y-19045500D01*
D11*
X3131639Y-19061984D02*
X3017353Y-19061984D01*
X3074496Y-19061984D02*
X3074496Y-18861984D01*
X3074496Y-18861984D02*
X3055448Y-18890555D01*
X3055448Y-18890555D02*
X3036401Y-18909603D01*
X3036401Y-18909603D02*
X3017353Y-18919127D01*
X3217353Y-19042936D02*
X3226877Y-19052460D01*
X3226877Y-19052460D02*
X3217353Y-19061984D01*
X3217353Y-19061984D02*
X3207829Y-19052460D01*
X3207829Y-19052460D02*
X3217353Y-19042936D01*
X3217353Y-19042936D02*
X3217353Y-19061984D01*
X3407829Y-18861984D02*
X3312591Y-18861984D01*
X3312591Y-18861984D02*
X3303067Y-18957222D01*
X3303067Y-18957222D02*
X3312591Y-18947698D01*
X3312591Y-18947698D02*
X3331639Y-18938174D01*
X3331639Y-18938174D02*
X3379258Y-18938174D01*
X3379258Y-18938174D02*
X3398305Y-18947698D01*
X3398305Y-18947698D02*
X3407829Y-18957222D01*
X3407829Y-18957222D02*
X3417353Y-18976270D01*
X3417353Y-18976270D02*
X3417353Y-19023889D01*
X3417353Y-19023889D02*
X3407829Y-19042936D01*
X3407829Y-19042936D02*
X3398305Y-19052460D01*
X3398305Y-19052460D02*
X3379258Y-19061984D01*
X3379258Y-19061984D02*
X3331639Y-19061984D01*
X3331639Y-19061984D02*
X3312591Y-19052460D01*
X3312591Y-19052460D02*
X3303067Y-19042936D01*
X3541162Y-18861984D02*
X3560210Y-18861984D01*
X3560210Y-18861984D02*
X3579258Y-18871508D01*
X3579258Y-18871508D02*
X3588782Y-18881031D01*
X3588782Y-18881031D02*
X3598305Y-18900079D01*
X3598305Y-18900079D02*
X3607829Y-18938174D01*
X3607829Y-18938174D02*
X3607829Y-18985793D01*
X3607829Y-18985793D02*
X3598305Y-19023889D01*
X3598305Y-19023889D02*
X3588782Y-19042936D01*
X3588782Y-19042936D02*
X3579258Y-19052460D01*
X3579258Y-19052460D02*
X3560210Y-19061984D01*
X3560210Y-19061984D02*
X3541162Y-19061984D01*
X3541162Y-19061984D02*
X3522115Y-19052460D01*
X3522115Y-19052460D02*
X3512591Y-19042936D01*
X3512591Y-19042936D02*
X3503067Y-19023889D01*
X3503067Y-19023889D02*
X3493543Y-18985793D01*
X3493543Y-18985793D02*
X3493543Y-18938174D01*
X3493543Y-18938174D02*
X3503067Y-18900079D01*
X3503067Y-18900079D02*
X3512591Y-18881031D01*
X3512591Y-18881031D02*
X3522115Y-18871508D01*
X3522115Y-18871508D02*
X3541162Y-18861984D01*
X3731639Y-18861984D02*
X3750686Y-18861984D01*
X3750686Y-18861984D02*
X3769734Y-18871508D01*
X3769734Y-18871508D02*
X3779258Y-18881031D01*
X3779258Y-18881031D02*
X3788782Y-18900079D01*
X3788782Y-18900079D02*
X3798305Y-18938174D01*
X3798305Y-18938174D02*
X3798305Y-18985793D01*
X3798305Y-18985793D02*
X3788782Y-19023889D01*
X3788782Y-19023889D02*
X3779258Y-19042936D01*
X3779258Y-19042936D02*
X3769734Y-19052460D01*
X3769734Y-19052460D02*
X3750686Y-19061984D01*
X3750686Y-19061984D02*
X3731639Y-19061984D01*
X3731639Y-19061984D02*
X3712591Y-19052460D01*
X3712591Y-19052460D02*
X3703067Y-19042936D01*
X3703067Y-19042936D02*
X3693543Y-19023889D01*
X3693543Y-19023889D02*
X3684020Y-18985793D01*
X3684020Y-18985793D02*
X3684020Y-18938174D01*
X3684020Y-18938174D02*
X3693543Y-18900079D01*
X3693543Y-18900079D02*
X3703067Y-18881031D01*
X3703067Y-18881031D02*
X3712591Y-18871508D01*
X3712591Y-18871508D02*
X3731639Y-18861984D01*
X3884020Y-19061984D02*
X3884020Y-18928650D01*
X3884020Y-18947698D02*
X3893543Y-18938174D01*
X3893543Y-18938174D02*
X3912591Y-18928650D01*
X3912591Y-18928650D02*
X3941163Y-18928650D01*
X3941163Y-18928650D02*
X3960210Y-18938174D01*
X3960210Y-18938174D02*
X3969734Y-18957222D01*
X3969734Y-18957222D02*
X3969734Y-19061984D01*
X3969734Y-18957222D02*
X3979258Y-18938174D01*
X3979258Y-18938174D02*
X3998305Y-18928650D01*
X3998305Y-18928650D02*
X4026877Y-18928650D01*
X4026877Y-18928650D02*
X4045924Y-18938174D01*
X4045924Y-18938174D02*
X4055448Y-18957222D01*
X4055448Y-18957222D02*
X4055448Y-19061984D01*
X4150686Y-19061984D02*
X4150686Y-18928650D01*
X4150686Y-18947698D02*
X4160210Y-18938174D01*
X4160210Y-18938174D02*
X4179258Y-18928650D01*
X4179258Y-18928650D02*
X4207829Y-18928650D01*
X4207829Y-18928650D02*
X4226877Y-18938174D01*
X4226877Y-18938174D02*
X4236401Y-18957222D01*
X4236401Y-18957222D02*
X4236401Y-19061984D01*
X4236401Y-18957222D02*
X4245925Y-18938174D01*
X4245925Y-18938174D02*
X4264972Y-18928650D01*
X4264972Y-18928650D02*
X4293544Y-18928650D01*
X4293544Y-18928650D02*
X4312591Y-18938174D01*
X4312591Y-18938174D02*
X4322115Y-18957222D01*
X4322115Y-18957222D02*
X4322115Y-19061984D01*
X4712591Y-18852460D02*
X4541163Y-19109603D01*
X4969734Y-18861984D02*
X4988782Y-18861984D01*
X4988782Y-18861984D02*
X5007829Y-18871508D01*
X5007829Y-18871508D02*
X5017353Y-18881031D01*
X5017353Y-18881031D02*
X5026877Y-18900079D01*
X5026877Y-18900079D02*
X5036401Y-18938174D01*
X5036401Y-18938174D02*
X5036401Y-18985793D01*
X5036401Y-18985793D02*
X5026877Y-19023889D01*
X5026877Y-19023889D02*
X5017353Y-19042936D01*
X5017353Y-19042936D02*
X5007829Y-19052460D01*
X5007829Y-19052460D02*
X4988782Y-19061984D01*
X4988782Y-19061984D02*
X4969734Y-19061984D01*
X4969734Y-19061984D02*
X4950687Y-19052460D01*
X4950687Y-19052460D02*
X4941163Y-19042936D01*
X4941163Y-19042936D02*
X4931639Y-19023889D01*
X4931639Y-19023889D02*
X4922115Y-18985793D01*
X4922115Y-18985793D02*
X4922115Y-18938174D01*
X4922115Y-18938174D02*
X4931639Y-18900079D01*
X4931639Y-18900079D02*
X4941163Y-18881031D01*
X4941163Y-18881031D02*
X4950687Y-18871508D01*
X4950687Y-18871508D02*
X4969734Y-18861984D01*
X5122115Y-19042936D02*
X5131639Y-19052460D01*
X5131639Y-19052460D02*
X5122115Y-19061984D01*
X5122115Y-19061984D02*
X5112591Y-19052460D01*
X5112591Y-19052460D02*
X5122115Y-19042936D01*
X5122115Y-19042936D02*
X5122115Y-19061984D01*
X5255448Y-18861984D02*
X5274496Y-18861984D01*
X5274496Y-18861984D02*
X5293544Y-18871508D01*
X5293544Y-18871508D02*
X5303068Y-18881031D01*
X5303068Y-18881031D02*
X5312591Y-18900079D01*
X5312591Y-18900079D02*
X5322115Y-18938174D01*
X5322115Y-18938174D02*
X5322115Y-18985793D01*
X5322115Y-18985793D02*
X5312591Y-19023889D01*
X5312591Y-19023889D02*
X5303068Y-19042936D01*
X5303068Y-19042936D02*
X5293544Y-19052460D01*
X5293544Y-19052460D02*
X5274496Y-19061984D01*
X5274496Y-19061984D02*
X5255448Y-19061984D01*
X5255448Y-19061984D02*
X5236401Y-19052460D01*
X5236401Y-19052460D02*
X5226877Y-19042936D01*
X5226877Y-19042936D02*
X5217353Y-19023889D01*
X5217353Y-19023889D02*
X5207829Y-18985793D01*
X5207829Y-18985793D02*
X5207829Y-18938174D01*
X5207829Y-18938174D02*
X5217353Y-18900079D01*
X5217353Y-18900079D02*
X5226877Y-18881031D01*
X5226877Y-18881031D02*
X5236401Y-18871508D01*
X5236401Y-18871508D02*
X5255448Y-18861984D01*
X5503068Y-18861984D02*
X5407829Y-18861984D01*
X5407829Y-18861984D02*
X5398306Y-18957222D01*
X5398306Y-18957222D02*
X5407829Y-18947698D01*
X5407829Y-18947698D02*
X5426877Y-18938174D01*
X5426877Y-18938174D02*
X5474496Y-18938174D01*
X5474496Y-18938174D02*
X5493544Y-18947698D01*
X5493544Y-18947698D02*
X5503068Y-18957222D01*
X5503068Y-18957222D02*
X5512591Y-18976270D01*
X5512591Y-18976270D02*
X5512591Y-19023889D01*
X5512591Y-19023889D02*
X5503068Y-19042936D01*
X5503068Y-19042936D02*
X5493544Y-19052460D01*
X5493544Y-19052460D02*
X5474496Y-19061984D01*
X5474496Y-19061984D02*
X5426877Y-19061984D01*
X5426877Y-19061984D02*
X5407829Y-19052460D01*
X5407829Y-19052460D02*
X5398306Y-19042936D01*
X5607829Y-19061984D02*
X5645925Y-19061984D01*
X5645925Y-19061984D02*
X5664972Y-19052460D01*
X5664972Y-19052460D02*
X5674496Y-19042936D01*
X5674496Y-19042936D02*
X5693544Y-19014365D01*
X5693544Y-19014365D02*
X5703067Y-18976270D01*
X5703067Y-18976270D02*
X5703067Y-18900079D01*
X5703067Y-18900079D02*
X5693544Y-18881031D01*
X5693544Y-18881031D02*
X5684020Y-18871508D01*
X5684020Y-18871508D02*
X5664972Y-18861984D01*
X5664972Y-18861984D02*
X5626877Y-18861984D01*
X5626877Y-18861984D02*
X5607829Y-18871508D01*
X5607829Y-18871508D02*
X5598306Y-18881031D01*
X5598306Y-18881031D02*
X5588782Y-18900079D01*
X5588782Y-18900079D02*
X5588782Y-18947698D01*
X5588782Y-18947698D02*
X5598306Y-18966746D01*
X5598306Y-18966746D02*
X5607829Y-18976270D01*
X5607829Y-18976270D02*
X5626877Y-18985793D01*
X5626877Y-18985793D02*
X5664972Y-18985793D01*
X5664972Y-18985793D02*
X5684020Y-18976270D01*
X5684020Y-18976270D02*
X5693544Y-18966746D01*
X5693544Y-18966746D02*
X5703067Y-18947698D01*
X5893544Y-19061984D02*
X5779258Y-19061984D01*
X5836401Y-19061984D02*
X5836401Y-18861984D01*
X5836401Y-18861984D02*
X5817353Y-18890555D01*
X5817353Y-18890555D02*
X5798306Y-18909603D01*
X5798306Y-18909603D02*
X5779258Y-18919127D01*
X5969734Y-18861984D02*
X5969734Y-18900079D01*
X6045925Y-18861984D02*
X6045925Y-18900079D01*
X6341163Y-19138174D02*
X6331639Y-19128650D01*
X6331639Y-19128650D02*
X6312591Y-19100079D01*
X6312591Y-19100079D02*
X6303068Y-19081031D01*
X6303068Y-19081031D02*
X6293544Y-19052460D01*
X6293544Y-19052460D02*
X6284020Y-19004841D01*
X6284020Y-19004841D02*
X6284020Y-18966746D01*
X6284020Y-18966746D02*
X6293544Y-18919127D01*
X6293544Y-18919127D02*
X6303068Y-18890555D01*
X6303068Y-18890555D02*
X6312591Y-18871508D01*
X6312591Y-18871508D02*
X6331639Y-18842936D01*
X6331639Y-18842936D02*
X6341163Y-18833412D01*
X6522115Y-19061984D02*
X6407829Y-19061984D01*
X6464972Y-19061984D02*
X6464972Y-18861984D01*
X6464972Y-18861984D02*
X6445925Y-18890555D01*
X6445925Y-18890555D02*
X6426877Y-18909603D01*
X6426877Y-18909603D02*
X6407829Y-18919127D01*
X6693544Y-18928650D02*
X6693544Y-19061984D01*
X6645925Y-18852460D02*
X6598306Y-18995317D01*
X6598306Y-18995317D02*
X6722115Y-18995317D01*
X6826877Y-18947698D02*
X6807829Y-18938174D01*
X6807829Y-18938174D02*
X6798306Y-18928650D01*
X6798306Y-18928650D02*
X6788782Y-18909603D01*
X6788782Y-18909603D02*
X6788782Y-18900079D01*
X6788782Y-18900079D02*
X6798306Y-18881031D01*
X6798306Y-18881031D02*
X6807829Y-18871508D01*
X6807829Y-18871508D02*
X6826877Y-18861984D01*
X6826877Y-18861984D02*
X6864972Y-18861984D01*
X6864972Y-18861984D02*
X6884020Y-18871508D01*
X6884020Y-18871508D02*
X6893544Y-18881031D01*
X6893544Y-18881031D02*
X6903068Y-18900079D01*
X6903068Y-18900079D02*
X6903068Y-18909603D01*
X6903068Y-18909603D02*
X6893544Y-18928650D01*
X6893544Y-18928650D02*
X6884020Y-18938174D01*
X6884020Y-18938174D02*
X6864972Y-18947698D01*
X6864972Y-18947698D02*
X6826877Y-18947698D01*
X6826877Y-18947698D02*
X6807829Y-18957222D01*
X6807829Y-18957222D02*
X6798306Y-18966746D01*
X6798306Y-18966746D02*
X6788782Y-18985793D01*
X6788782Y-18985793D02*
X6788782Y-19023889D01*
X6788782Y-19023889D02*
X6798306Y-19042936D01*
X6798306Y-19042936D02*
X6807829Y-19052460D01*
X6807829Y-19052460D02*
X6826877Y-19061984D01*
X6826877Y-19061984D02*
X6864972Y-19061984D01*
X6864972Y-19061984D02*
X6884020Y-19052460D01*
X6884020Y-19052460D02*
X6893544Y-19042936D01*
X6893544Y-19042936D02*
X6903068Y-19023889D01*
X6903068Y-19023889D02*
X6903068Y-18985793D01*
X6903068Y-18985793D02*
X6893544Y-18966746D01*
X6893544Y-18966746D02*
X6884020Y-18957222D01*
X6884020Y-18957222D02*
X6864972Y-18947698D01*
X7141163Y-19061984D02*
X7141163Y-18861984D01*
X7226877Y-19061984D02*
X7226877Y-18957222D01*
X7226877Y-18957222D02*
X7217353Y-18938174D01*
X7217353Y-18938174D02*
X7198306Y-18928650D01*
X7198306Y-18928650D02*
X7169734Y-18928650D01*
X7169734Y-18928650D02*
X7150687Y-18938174D01*
X7150687Y-18938174D02*
X7141163Y-18947698D01*
X7350687Y-19061984D02*
X7331639Y-19052460D01*
X7331639Y-19052460D02*
X7322115Y-19042936D01*
X7322115Y-19042936D02*
X7312591Y-19023889D01*
X7312591Y-19023889D02*
X7312591Y-18966746D01*
X7312591Y-18966746D02*
X7322115Y-18947698D01*
X7322115Y-18947698D02*
X7331639Y-18938174D01*
X7331639Y-18938174D02*
X7350687Y-18928650D01*
X7350687Y-18928650D02*
X7379258Y-18928650D01*
X7379258Y-18928650D02*
X7398306Y-18938174D01*
X7398306Y-18938174D02*
X7407830Y-18947698D01*
X7407830Y-18947698D02*
X7417353Y-18966746D01*
X7417353Y-18966746D02*
X7417353Y-19023889D01*
X7417353Y-19023889D02*
X7407830Y-19042936D01*
X7407830Y-19042936D02*
X7398306Y-19052460D01*
X7398306Y-19052460D02*
X7379258Y-19061984D01*
X7379258Y-19061984D02*
X7350687Y-19061984D01*
X7531639Y-19061984D02*
X7512591Y-19052460D01*
X7512591Y-19052460D02*
X7503068Y-19033412D01*
X7503068Y-19033412D02*
X7503068Y-18861984D01*
X7684020Y-19052460D02*
X7664972Y-19061984D01*
X7664972Y-19061984D02*
X7626877Y-19061984D01*
X7626877Y-19061984D02*
X7607830Y-19052460D01*
X7607830Y-19052460D02*
X7598306Y-19033412D01*
X7598306Y-19033412D02*
X7598306Y-18957222D01*
X7598306Y-18957222D02*
X7607830Y-18938174D01*
X7607830Y-18938174D02*
X7626877Y-18928650D01*
X7626877Y-18928650D02*
X7664972Y-18928650D01*
X7664972Y-18928650D02*
X7684020Y-18938174D01*
X7684020Y-18938174D02*
X7693544Y-18957222D01*
X7693544Y-18957222D02*
X7693544Y-18976270D01*
X7693544Y-18976270D02*
X7598306Y-18995317D01*
X7769734Y-19052460D02*
X7788782Y-19061984D01*
X7788782Y-19061984D02*
X7826877Y-19061984D01*
X7826877Y-19061984D02*
X7845925Y-19052460D01*
X7845925Y-19052460D02*
X7855449Y-19033412D01*
X7855449Y-19033412D02*
X7855449Y-19023889D01*
X7855449Y-19023889D02*
X7845925Y-19004841D01*
X7845925Y-19004841D02*
X7826877Y-18995317D01*
X7826877Y-18995317D02*
X7798306Y-18995317D01*
X7798306Y-18995317D02*
X7779258Y-18985793D01*
X7779258Y-18985793D02*
X7769734Y-18966746D01*
X7769734Y-18966746D02*
X7769734Y-18957222D01*
X7769734Y-18957222D02*
X7779258Y-18938174D01*
X7779258Y-18938174D02*
X7798306Y-18928650D01*
X7798306Y-18928650D02*
X7826877Y-18928650D01*
X7826877Y-18928650D02*
X7845925Y-18938174D01*
X7922115Y-19138174D02*
X7931639Y-19128650D01*
X7931639Y-19128650D02*
X7950687Y-19100079D01*
X7950687Y-19100079D02*
X7960211Y-19081031D01*
X7960211Y-19081031D02*
X7969734Y-19052460D01*
X7969734Y-19052460D02*
X7979258Y-19004841D01*
X7979258Y-19004841D02*
X7979258Y-18966746D01*
X7979258Y-18966746D02*
X7969734Y-18919127D01*
X7969734Y-18919127D02*
X7960211Y-18890555D01*
X7960211Y-18890555D02*
X7950687Y-18871508D01*
X7950687Y-18871508D02*
X7931639Y-18842936D01*
X7931639Y-18842936D02*
X7922115Y-18833412D01*
M02*
