%TF.GenerationSoftware,KiCad,Pcbnew,8.0.3*%
%TF.CreationDate,2024-06-29T11:43:37-07:00*%
%TF.ProjectId,CustomKeyboard,43757374-6f6d-44b6-9579-626f6172642e,rev?*%
%TF.SameCoordinates,Original*%
%TF.FileFunction,Soldermask,Bot*%
%TF.FilePolarity,Negative*%
%FSLAX46Y46*%
G04 Gerber Fmt 4.6, Leading zero omitted, Abs format (unit mm)*
G04 Created by KiCad (PCBNEW 8.0.3) date 2024-06-29 11:43:37*
%MOMM*%
%LPD*%
G01*
G04 APERTURE LIST*
G04 Aperture macros list*
%AMRoundRect*
0 Rectangle with rounded corners*
0 $1 Rounding radius*
0 $2 $3 $4 $5 $6 $7 $8 $9 X,Y pos of 4 corners*
0 Add a 4 corners polygon primitive as box body*
4,1,4,$2,$3,$4,$5,$6,$7,$8,$9,$2,$3,0*
0 Add four circle primitives for the rounded corners*
1,1,$1+$1,$2,$3*
1,1,$1+$1,$4,$5*
1,1,$1+$1,$6,$7*
1,1,$1+$1,$8,$9*
0 Add four rect primitives between the rounded corners*
20,1,$1+$1,$2,$3,$4,$5,0*
20,1,$1+$1,$4,$5,$6,$7,0*
20,1,$1+$1,$6,$7,$8,$9,0*
20,1,$1+$1,$8,$9,$2,$3,0*%
%AMRotRect*
0 Rectangle, with rotation*
0 The origin of the aperture is its center*
0 $1 length*
0 $2 width*
0 $3 Rotation angle, in degrees counterclockwise*
0 Add horizontal line*
21,1,$1,$2,0,0,$3*%
G04 Aperture macros list end*
%ADD10C,1.750000*%
%ADD11C,4.000000*%
%ADD12C,2.500000*%
%ADD13RoundRect,0.218750X0.218750X0.256250X-0.218750X0.256250X-0.218750X-0.256250X0.218750X-0.256250X0*%
%ADD14C,1.700000*%
%ADD15C,2.200000*%
%ADD16RoundRect,0.225000X0.250000X-0.225000X0.250000X0.225000X-0.250000X0.225000X-0.250000X-0.225000X0*%
%ADD17RoundRect,0.225000X0.335876X0.017678X0.017678X0.335876X-0.335876X-0.017678X-0.017678X-0.335876X0*%
%ADD18R,0.400000X1.350000*%
%ADD19O,0.890000X1.550000*%
%ADD20R,1.200000X1.550000*%
%ADD21O,1.250000X0.950000*%
%ADD22R,1.500000X1.550000*%
%ADD23C,3.050000*%
%ADD24RoundRect,0.225000X0.225000X0.250000X-0.225000X0.250000X-0.225000X-0.250000X0.225000X-0.250000X0*%
%ADD25RoundRect,0.225000X-0.017678X0.335876X-0.335876X0.017678X0.017678X-0.335876X0.335876X-0.017678X0*%
%ADD26RoundRect,0.225000X-0.250000X0.225000X-0.250000X-0.225000X0.250000X-0.225000X0.250000X0.225000X0*%
%ADD27RoundRect,0.225000X-0.225000X-0.250000X0.225000X-0.250000X0.225000X0.250000X-0.225000X0.250000X0*%
%ADD28RoundRect,0.200000X0.275000X-0.200000X0.275000X0.200000X-0.275000X0.200000X-0.275000X-0.200000X0*%
%ADD29R,0.550000X1.500000*%
%ADD30R,1.500000X0.550000*%
%ADD31RoundRect,0.200000X-0.275000X0.200000X-0.275000X-0.200000X0.275000X-0.200000X0.275000X0.200000X0*%
%ADD32RotRect,1.400000X1.200000X315.000000*%
%ADD33RoundRect,0.200000X0.200000X0.275000X-0.200000X0.275000X-0.200000X-0.275000X0.200000X-0.275000X0*%
G04 APERTURE END LIST*
D10*
%TO.C,SW_M1*%
X196670000Y-131100000D03*
D11*
X201750000Y-131100000D03*
D10*
X206830000Y-131100000D03*
D12*
X197940000Y-128560000D03*
X204290000Y-126020000D03*
%TD*%
D13*
%TO.C,D45*%
X119387500Y-41400000D03*
X117812500Y-41400000D03*
%TD*%
D10*
%TO.C,SW_F10*%
X269320000Y-46000000D03*
D11*
X274400000Y-46000000D03*
D10*
X279480000Y-46000000D03*
D12*
X270590000Y-43460000D03*
X276940000Y-40920000D03*
%TD*%
D10*
%TO.C,SW_F4*%
X133870000Y-46000000D03*
D11*
X138950000Y-46000000D03*
D10*
X144030000Y-46000000D03*
D12*
X135140000Y-43460000D03*
X141490000Y-40920000D03*
%TD*%
D14*
%TO.C,SW_LALT1*%
X88220000Y-150600000D03*
D11*
X93300000Y-150600000D03*
D14*
X98380000Y-150600000D03*
D15*
X95840000Y-145520000D03*
X89490000Y-148060000D03*
%TD*%
D10*
%TO.C,SW_0*%
X230620000Y-72900000D03*
D11*
X235700000Y-72900000D03*
D10*
X240780000Y-72900000D03*
D12*
X231890000Y-70360000D03*
X238240000Y-67820000D03*
%TD*%
D13*
%TO.C,D21*%
X165075000Y-146500000D03*
X163500000Y-146500000D03*
%TD*%
%TO.C,D13*%
X240387500Y-126800000D03*
X238812500Y-126800000D03*
%TD*%
D10*
%TO.C,SW_U1*%
X182120000Y-92300000D03*
D11*
X187200000Y-92300000D03*
D10*
X192280000Y-92300000D03*
D12*
X183390000Y-89760000D03*
X189740000Y-87220000D03*
%TD*%
D13*
%TO.C,D39*%
X254987500Y-68500000D03*
X253412500Y-68500000D03*
%TD*%
%TO.C,D67*%
X283687500Y-87900000D03*
X282112500Y-87900000D03*
%TD*%
D10*
%TO.C,SW_F6*%
X182245000Y-46000000D03*
D11*
X187325000Y-46000000D03*
D10*
X192405000Y-46000000D03*
D12*
X183515000Y-43460000D03*
X189865000Y-40920000D03*
%TD*%
D10*
%TO.C,SW_\u002C1*%
X216020000Y-131100000D03*
D11*
X221100000Y-131100000D03*
D10*
X226180000Y-131100000D03*
D12*
X217290000Y-128560000D03*
X223640000Y-126020000D03*
%TD*%
D13*
%TO.C,D53*%
X293587500Y-41500000D03*
X292012500Y-41500000D03*
%TD*%
D10*
%TO.C,SW_[1*%
X259520000Y-92300000D03*
D11*
X264600000Y-92300000D03*
D10*
X269680000Y-92300000D03*
D12*
X260790000Y-89760000D03*
X267140000Y-87220000D03*
%TD*%
D13*
%TO.C,D54*%
X312987500Y-41500000D03*
X311412500Y-41500000D03*
%TD*%
D16*
%TO.C,C3*%
X146100000Y-36175000D03*
X146100000Y-34625000D03*
%TD*%
D13*
%TO.C,D3*%
X85687500Y-126700000D03*
X84112500Y-126700000D03*
%TD*%
D10*
%TO.C,SW_H1*%
X167570000Y-111700000D03*
D11*
X172650000Y-111700000D03*
D10*
X177730000Y-111700000D03*
D12*
X168840000Y-109160000D03*
X175190000Y-106620000D03*
%TD*%
D13*
%TO.C,D23*%
X261387500Y-146400000D03*
X259812500Y-146400000D03*
%TD*%
%TO.C,D48*%
X187287500Y-41600000D03*
X185712500Y-41600000D03*
%TD*%
D10*
%TO.C,SW_P1*%
X240170000Y-92300000D03*
D11*
X245250000Y-92300000D03*
D10*
X250330000Y-92300000D03*
D12*
X241440000Y-89760000D03*
X247790000Y-87220000D03*
%TD*%
D13*
%TO.C,D26*%
X310287500Y-146600000D03*
X308712500Y-146600000D03*
%TD*%
%TO.C,D73*%
X133687500Y-107300000D03*
X132112500Y-107300000D03*
%TD*%
%TO.C,D49*%
X206587500Y-41600000D03*
X205012500Y-41600000D03*
%TD*%
D17*
%TO.C,C2*%
X165600000Y-29600000D03*
X164503984Y-28503984D03*
%TD*%
D13*
%TO.C,D51*%
X254987500Y-41500000D03*
X253412500Y-41500000D03*
%TD*%
D10*
%TO.C,SW_F5*%
X162895000Y-46000000D03*
D11*
X167975000Y-46000000D03*
D10*
X173055000Y-46000000D03*
D12*
X164165000Y-43460000D03*
X170515000Y-40920000D03*
%TD*%
D10*
%TO.C,SW_L1*%
X225620000Y-111700000D03*
D11*
X230700000Y-111700000D03*
D10*
X235780000Y-111700000D03*
D12*
X226890000Y-109160000D03*
X233240000Y-106620000D03*
%TD*%
D13*
%TO.C,D59*%
X129087500Y-88000000D03*
X127512500Y-88000000D03*
%TD*%
%TO.C,D46*%
X138887500Y-41500000D03*
X137312500Y-41500000D03*
%TD*%
D18*
%TO.C,J1*%
X177675000Y-18600000D03*
X178325000Y-18600000D03*
X178975000Y-18600000D03*
X179625000Y-18600000D03*
X180275000Y-18600000D03*
D19*
X175475000Y-15900000D03*
D20*
X176075000Y-15900000D03*
D21*
X176475000Y-18600000D03*
D22*
X177975000Y-15900000D03*
X179975000Y-15900000D03*
D21*
X181475000Y-18600000D03*
D20*
X181875000Y-15900000D03*
D19*
X182475000Y-15900000D03*
%TD*%
D13*
%TO.C,D62*%
X186987500Y-87800000D03*
X185412500Y-87800000D03*
%TD*%
D10*
%TO.C,SW_I1*%
X201470000Y-92300000D03*
D11*
X206550000Y-92300000D03*
D10*
X211630000Y-92300000D03*
D12*
X202740000Y-89760000D03*
X209090000Y-87220000D03*
%TD*%
D13*
%TO.C,D47*%
X167987500Y-41700000D03*
X166412500Y-41700000D03*
%TD*%
%TO.C,D20*%
X119287500Y-68400000D03*
X117712500Y-68400000D03*
%TD*%
D10*
%TO.C,SW_A1*%
X70820000Y-111700000D03*
D11*
X75900000Y-111700000D03*
D10*
X80980000Y-111700000D03*
D12*
X72090000Y-109160000D03*
X78440000Y-106620000D03*
%TD*%
D10*
%TO.C,SW_F8*%
X220945000Y-46000000D03*
D11*
X226025000Y-46000000D03*
D10*
X231105000Y-46000000D03*
D12*
X222215000Y-43460000D03*
X228565000Y-40920000D03*
%TD*%
D23*
%TO.C,SW_SPACE1*%
X115300000Y-143642500D03*
D11*
X115300000Y-158882500D03*
D14*
X160220000Y-150642500D03*
D11*
X165300000Y-150642500D03*
D14*
X170380000Y-150642500D03*
D23*
X215300000Y-143642500D03*
D11*
X215300000Y-158882500D03*
D15*
X167840000Y-145562500D03*
X161490000Y-148102500D03*
%TD*%
D10*
%TO.C,SW_W1*%
X85370000Y-92300000D03*
D11*
X90450000Y-92300000D03*
D10*
X95530000Y-92300000D03*
D12*
X86640000Y-89760000D03*
X92990000Y-87220000D03*
%TD*%
D13*
%TO.C,D10*%
X80687500Y-68400000D03*
X79112500Y-68400000D03*
%TD*%
%TO.C,D16*%
X295787500Y-127000000D03*
X294212500Y-127000000D03*
%TD*%
D10*
%TO.C,SW_V1*%
X138620000Y-131100000D03*
D11*
X143700000Y-131100000D03*
D10*
X148780000Y-131100000D03*
D12*
X139890000Y-128560000D03*
X146240000Y-126020000D03*
%TD*%
D10*
%TO.C,SW_ESC1*%
X37120000Y-46000000D03*
D11*
X42200000Y-46000000D03*
D10*
X47280000Y-46000000D03*
D12*
X38390000Y-43460000D03*
X44740000Y-40920000D03*
%TD*%
D10*
%TO.C,SW_6*%
X153220000Y-72900000D03*
D11*
X158300000Y-72900000D03*
D10*
X163380000Y-72900000D03*
D12*
X154490000Y-70360000D03*
X160840000Y-67820000D03*
%TD*%
D13*
%TO.C,D75*%
X172587500Y-107400000D03*
X171012500Y-107400000D03*
%TD*%
D10*
%TO.C,SW_N1*%
X177320000Y-131100000D03*
D11*
X182400000Y-131100000D03*
D10*
X187480000Y-131100000D03*
D12*
X178590000Y-128560000D03*
X184940000Y-126020000D03*
%TD*%
D13*
%TO.C,D9*%
X182187500Y-126600000D03*
X180612500Y-126600000D03*
%TD*%
%TO.C,D58*%
X109675000Y-87800000D03*
X108100000Y-87800000D03*
%TD*%
D10*
%TO.C,SW_4*%
X114520000Y-72900000D03*
D11*
X119600000Y-72900000D03*
D10*
X124680000Y-72900000D03*
D12*
X115790000Y-70360000D03*
X122140000Y-67820000D03*
%TD*%
D13*
%TO.C,D15*%
X259787500Y-126700000D03*
X258212500Y-126700000D03*
%TD*%
D14*
%TO.C,SW_LCTRL1*%
X39520000Y-150600000D03*
D11*
X44600000Y-150600000D03*
D14*
X49680000Y-150600000D03*
D15*
X47140000Y-145520000D03*
X40790000Y-148060000D03*
%TD*%
D14*
%TO.C,SW_RCTRL1*%
X305420000Y-150700000D03*
D11*
X310500000Y-150700000D03*
D14*
X315580000Y-150700000D03*
D15*
X313040000Y-145620000D03*
X306690000Y-148160000D03*
%TD*%
D10*
%TO.C,SW_F7*%
X201595000Y-46000000D03*
D11*
X206675000Y-46000000D03*
D10*
X211755000Y-46000000D03*
D12*
X202865000Y-43460000D03*
X209215000Y-40920000D03*
%TD*%
D14*
%TO.C,SW_TAB1*%
X41920000Y-92300000D03*
D11*
X47000000Y-92300000D03*
D14*
X52080000Y-92300000D03*
D15*
X49540000Y-87220000D03*
X43190000Y-89760000D03*
%TD*%
D24*
%TO.C,C6*%
X148325000Y-23900000D03*
X149875000Y-23900000D03*
%TD*%
D10*
%TO.C,SW_FKEY1*%
X128870000Y-111700000D03*
D11*
X133950000Y-111700000D03*
D10*
X139030000Y-111700000D03*
D12*
X130140000Y-109160000D03*
X136490000Y-106620000D03*
%TD*%
D13*
%TO.C,D66*%
X264375000Y-87800000D03*
X262800000Y-87800000D03*
%TD*%
D14*
%TO.C,SW_RALT1*%
X232220000Y-150700000D03*
D11*
X237300000Y-150700000D03*
D14*
X242380000Y-150700000D03*
D15*
X239840000Y-145620000D03*
X233490000Y-148160000D03*
%TD*%
D13*
%TO.C,D65*%
X245087500Y-87900000D03*
X243512500Y-87900000D03*
%TD*%
D25*
%TO.C,C1*%
X166148008Y-32851992D03*
X165051992Y-33948008D03*
%TD*%
D10*
%TO.C,SW_.1*%
X235370000Y-131100000D03*
D11*
X240450000Y-131100000D03*
D10*
X245530000Y-131100000D03*
D12*
X236640000Y-128560000D03*
X242990000Y-126020000D03*
%TD*%
D13*
%TO.C,D1*%
X42187500Y-68500000D03*
X40612500Y-68500000D03*
%TD*%
D26*
%TO.C,C7*%
X146100000Y-26425000D03*
X146100000Y-27975000D03*
%TD*%
D10*
%TO.C,SW_F9*%
X249970000Y-46000000D03*
D11*
X255050000Y-46000000D03*
D10*
X260130000Y-46000000D03*
D12*
X251240000Y-43460000D03*
X257590000Y-40920000D03*
%TD*%
D23*
%TO.C,SW_BACK1*%
X291380000Y-65900000D03*
D11*
X291380000Y-81140000D03*
D14*
X298200000Y-72900000D03*
D11*
X303280000Y-72900000D03*
D14*
X308360000Y-72900000D03*
D23*
X315180000Y-65900000D03*
D11*
X315180000Y-81140000D03*
D15*
X305820000Y-67820000D03*
X299470000Y-70360000D03*
%TD*%
D10*
%TO.C,SW_7*%
X172570000Y-72900000D03*
D11*
X177650000Y-72900000D03*
D10*
X182730000Y-72900000D03*
D12*
X173840000Y-70360000D03*
X180190000Y-67820000D03*
%TD*%
D10*
%TO.C,SW_/1*%
X254720000Y-131100000D03*
D11*
X259800000Y-131100000D03*
D10*
X264880000Y-131100000D03*
D12*
X255990000Y-128560000D03*
X262340000Y-126020000D03*
%TD*%
D13*
%TO.C,D14*%
X100087500Y-68500000D03*
X98512500Y-68500000D03*
%TD*%
D10*
%TO.C,SW_F1*%
X75820000Y-46000000D03*
D11*
X80900000Y-46000000D03*
D10*
X85980000Y-46000000D03*
D12*
X77090000Y-43460000D03*
X83440000Y-40920000D03*
%TD*%
D10*
%TO.C,SW_S1*%
X90170000Y-111700000D03*
D11*
X95250000Y-111700000D03*
D10*
X100330000Y-111700000D03*
D12*
X91440000Y-109160000D03*
X97790000Y-106620000D03*
%TD*%
D10*
%TO.C,SW_F3*%
X114520000Y-46000000D03*
D11*
X119600000Y-46000000D03*
D10*
X124680000Y-46000000D03*
D12*
X115790000Y-43460000D03*
X122140000Y-40920000D03*
%TD*%
D13*
%TO.C,D25*%
X138787500Y-68400000D03*
X137212500Y-68400000D03*
%TD*%
%TO.C,D71*%
X95087500Y-107400000D03*
X93512500Y-107400000D03*
%TD*%
D14*
%TO.C,SW_CAPS1*%
X44300000Y-111680000D03*
D11*
X49380000Y-111680000D03*
D14*
X54460000Y-111680000D03*
D15*
X51920000Y-106600000D03*
X45570000Y-109140000D03*
%TD*%
D13*
%TO.C,D37*%
X216287500Y-68500000D03*
X214712500Y-68500000D03*
%TD*%
D10*
%TO.C,SW_3*%
X95170000Y-72900000D03*
D11*
X100250000Y-72900000D03*
D10*
X105330000Y-72900000D03*
D12*
X96440000Y-70360000D03*
X102790000Y-67820000D03*
%TD*%
D27*
%TO.C,C4*%
X157721000Y-40132000D03*
X159271000Y-40132000D03*
%TD*%
D13*
%TO.C,D81*%
X300587500Y-107600000D03*
X299012500Y-107600000D03*
%TD*%
D28*
%TO.C,R13*%
X151600000Y-23025000D03*
X151600000Y-21375000D03*
%TD*%
D13*
%TO.C,D42*%
X42187500Y-41600000D03*
X40612500Y-41600000D03*
%TD*%
D29*
%TO.C,U1*%
X149600000Y-25700000D03*
X150400000Y-25700000D03*
X151200000Y-25700000D03*
X152000000Y-25700000D03*
X152800000Y-25700000D03*
X153600000Y-25700000D03*
X154400000Y-25700000D03*
X155200000Y-25700000D03*
X156000000Y-25700000D03*
X156800000Y-25700000D03*
X157600000Y-25700000D03*
D30*
X159300000Y-27400000D03*
X159300000Y-28200000D03*
X159300000Y-29000000D03*
X159300000Y-29800000D03*
X159300000Y-30600000D03*
X159300000Y-31400000D03*
X159300000Y-32200000D03*
X159300000Y-33000000D03*
X159300000Y-33800000D03*
X159300000Y-34600000D03*
X159300000Y-35400000D03*
D29*
X157600000Y-37100000D03*
X156800000Y-37100000D03*
X156000000Y-37100000D03*
X155200000Y-37100000D03*
X154400000Y-37100000D03*
X153600000Y-37100000D03*
X152800000Y-37100000D03*
X152000000Y-37100000D03*
X151200000Y-37100000D03*
X150400000Y-37100000D03*
X149600000Y-37100000D03*
D30*
X147900000Y-35400000D03*
X147900000Y-34600000D03*
X147900000Y-33800000D03*
X147900000Y-33000000D03*
X147900000Y-32200000D03*
X147900000Y-31400000D03*
X147900000Y-30600000D03*
X147900000Y-29800000D03*
X147900000Y-29000000D03*
X147900000Y-28200000D03*
X147900000Y-27400000D03*
%TD*%
D13*
%TO.C,D63*%
X206487500Y-87900000D03*
X204912500Y-87900000D03*
%TD*%
D23*
%TO.C,SW_ENTER1*%
X288980000Y-104700000D03*
D11*
X288980000Y-119940000D03*
D14*
X295800000Y-111700000D03*
D11*
X300880000Y-111700000D03*
D14*
X305960000Y-111700000D03*
D23*
X312780000Y-104700000D03*
D11*
X312780000Y-119940000D03*
D15*
X303420000Y-106620000D03*
X297070000Y-109160000D03*
%TD*%
D13*
%TO.C,D11*%
X201775000Y-126700000D03*
X200200000Y-126700000D03*
%TD*%
%TO.C,D64*%
X225887500Y-87800000D03*
X224312500Y-87800000D03*
%TD*%
D10*
%TO.C,SW_-1*%
X249970000Y-72900000D03*
D11*
X255050000Y-72900000D03*
D10*
X260130000Y-72900000D03*
D12*
X251240000Y-70360000D03*
X257590000Y-67820000D03*
%TD*%
D10*
%TO.C,SW_Q1*%
X66020000Y-92300000D03*
D11*
X71100000Y-92300000D03*
D10*
X76180000Y-92300000D03*
D12*
X67290000Y-89760000D03*
X73640000Y-87220000D03*
%TD*%
D13*
%TO.C,D38*%
X235687500Y-68500000D03*
X234112500Y-68500000D03*
%TD*%
D10*
%TO.C,SW_1*%
X56470000Y-72900000D03*
D11*
X61550000Y-72900000D03*
D10*
X66630000Y-72900000D03*
D12*
X57740000Y-70360000D03*
X64090000Y-67820000D03*
%TD*%
D10*
%TO.C,SW_E1*%
X104720000Y-92300000D03*
D11*
X109800000Y-92300000D03*
D10*
X114880000Y-92300000D03*
D12*
X105990000Y-89760000D03*
X112340000Y-87220000D03*
%TD*%
D13*
%TO.C,D68*%
X307587500Y-88300000D03*
X306012500Y-88300000D03*
%TD*%
%TO.C,D18*%
X68587500Y-146500000D03*
X67012500Y-146500000D03*
%TD*%
%TO.C,D76*%
X191887500Y-107300000D03*
X190312500Y-107300000D03*
%TD*%
D14*
%TO.C,SW_LWIN1*%
X63820000Y-150600000D03*
D11*
X68900000Y-150600000D03*
D14*
X73980000Y-150600000D03*
D15*
X71440000Y-145520000D03*
X65090000Y-148060000D03*
%TD*%
D13*
%TO.C,D17*%
X44187500Y-146500000D03*
X42612500Y-146500000D03*
%TD*%
%TO.C,D60*%
X148487500Y-87800000D03*
X146912500Y-87800000D03*
%TD*%
%TO.C,D72*%
X114375000Y-107300000D03*
X112800000Y-107300000D03*
%TD*%
%TO.C,D52*%
X274287500Y-41500000D03*
X272712500Y-41500000D03*
%TD*%
%TO.C,D6*%
X124387500Y-126700000D03*
X122812500Y-126700000D03*
%TD*%
%TO.C,D77*%
X211187500Y-107500000D03*
X209612500Y-107500000D03*
%TD*%
D10*
%TO.C,SW_B1*%
X157970000Y-131100000D03*
D11*
X163050000Y-131100000D03*
D10*
X168130000Y-131100000D03*
D12*
X159240000Y-128560000D03*
X165590000Y-126020000D03*
%TD*%
D13*
%TO.C,D43*%
X80587500Y-41500000D03*
X79012500Y-41500000D03*
%TD*%
D10*
%TO.C,SW_T1*%
X143420000Y-92300000D03*
D11*
X148500000Y-92300000D03*
D10*
X153580000Y-92300000D03*
D12*
X144690000Y-89760000D03*
X151040000Y-87220000D03*
%TD*%
D13*
%TO.C,D50*%
X225887500Y-41700000D03*
X224312500Y-41700000D03*
%TD*%
%TO.C,D80*%
X269387500Y-107300000D03*
X267812500Y-107300000D03*
%TD*%
D10*
%TO.C,SW_J1*%
X186920000Y-111700000D03*
D11*
X192000000Y-111700000D03*
D10*
X197080000Y-111700000D03*
D12*
X188190000Y-109160000D03*
X194540000Y-106620000D03*
%TD*%
D13*
%TO.C,D4*%
X104787500Y-126600000D03*
X103212500Y-126600000D03*
%TD*%
%TO.C,D57*%
X90387500Y-87900000D03*
X88812500Y-87900000D03*
%TD*%
%TO.C,D40*%
X274275000Y-68400000D03*
X272700000Y-68400000D03*
%TD*%
D14*
%TO.C,SW_RC1*%
X281120000Y-150700000D03*
D11*
X286200000Y-150700000D03*
D14*
X291280000Y-150700000D03*
D15*
X288740000Y-145620000D03*
X282390000Y-148160000D03*
%TD*%
D10*
%TO.C,SW_F12*%
X308020000Y-46000000D03*
D11*
X313100000Y-46000000D03*
D10*
X318180000Y-46000000D03*
D12*
X309290000Y-43460000D03*
X315640000Y-40920000D03*
%TD*%
D13*
%TO.C,D5*%
X61375000Y-68400000D03*
X59800000Y-68400000D03*
%TD*%
%TO.C,D22*%
X237087500Y-146400000D03*
X235512500Y-146400000D03*
%TD*%
%TO.C,D41*%
X303287500Y-68600000D03*
X301712500Y-68600000D03*
%TD*%
%TO.C,D69*%
X49187500Y-107600000D03*
X47612500Y-107600000D03*
%TD*%
D10*
%TO.C,SW_'1*%
X264320000Y-111700000D03*
D11*
X269400000Y-111700000D03*
D10*
X274480000Y-111700000D03*
D12*
X265590000Y-109160000D03*
X271940000Y-106620000D03*
%TD*%
D10*
%TO.C,SW_9*%
X211270000Y-72900000D03*
D11*
X216350000Y-72900000D03*
D10*
X221430000Y-72900000D03*
D12*
X212540000Y-70360000D03*
X218890000Y-67820000D03*
%TD*%
D13*
%TO.C,D36*%
X196887500Y-68600000D03*
X195312500Y-68600000D03*
%TD*%
D10*
%TO.C,SW_8*%
X191920000Y-72900000D03*
D11*
X197000000Y-72900000D03*
D10*
X202080000Y-72900000D03*
D12*
X193190000Y-70360000D03*
X199540000Y-67820000D03*
%TD*%
D13*
%TO.C,D35*%
X177687500Y-68500000D03*
X176112500Y-68500000D03*
%TD*%
%TO.C,D12*%
X220887500Y-126600000D03*
X219312500Y-126600000D03*
%TD*%
D10*
%TO.C,SW_5*%
X133870000Y-72900000D03*
D11*
X138950000Y-72900000D03*
D10*
X144030000Y-72900000D03*
D12*
X135140000Y-70360000D03*
X141490000Y-67820000D03*
%TD*%
D14*
%TO.C,SW_\u005C1*%
X302920000Y-92400000D03*
D11*
X308000000Y-92400000D03*
D14*
X313080000Y-92400000D03*
D15*
X310540000Y-87320000D03*
X304190000Y-89860000D03*
%TD*%
D10*
%TO.C,SW_O1*%
X220820000Y-92300000D03*
D11*
X225900000Y-92300000D03*
D10*
X230980000Y-92300000D03*
D12*
X222090000Y-89760000D03*
X228440000Y-87220000D03*
%TD*%
D13*
%TO.C,D79*%
X249987500Y-107300000D03*
X248412500Y-107300000D03*
%TD*%
D10*
%TO.C,SW_;1*%
X244970000Y-111700000D03*
D11*
X250050000Y-111700000D03*
D10*
X255130000Y-111700000D03*
D12*
X246240000Y-109160000D03*
X252590000Y-106620000D03*
%TD*%
D13*
%TO.C,D44*%
X100087500Y-41500000D03*
X98512500Y-41500000D03*
%TD*%
D10*
%TO.C,SW_K1*%
X206270000Y-111700000D03*
D11*
X211350000Y-111700000D03*
D10*
X216430000Y-111700000D03*
D12*
X207540000Y-109160000D03*
X213890000Y-106620000D03*
%TD*%
D10*
%TO.C,SW_F2*%
X95170000Y-46000000D03*
D11*
X100250000Y-46000000D03*
D10*
X105330000Y-46000000D03*
D12*
X96440000Y-43460000D03*
X102790000Y-40920000D03*
%TD*%
D13*
%TO.C,D55*%
X46487500Y-88200000D03*
X44912500Y-88200000D03*
%TD*%
%TO.C,D56*%
X71087500Y-87500000D03*
X69512500Y-87500000D03*
%TD*%
%TO.C,D2*%
X53587500Y-127100000D03*
X52012500Y-127100000D03*
%TD*%
D31*
%TO.C,R12*%
X153100000Y-21375000D03*
X153100000Y-23025000D03*
%TD*%
D13*
%TO.C,D24*%
X285887500Y-146600000D03*
X284312500Y-146600000D03*
%TD*%
D14*
%TO.C,SW_RWIN1*%
X256620000Y-150700000D03*
D11*
X261700000Y-150700000D03*
D14*
X266780000Y-150700000D03*
D15*
X264240000Y-145620000D03*
X257890000Y-148160000D03*
%TD*%
D10*
%TO.C,SW_]1*%
X278870000Y-92300000D03*
D11*
X283950000Y-92300000D03*
D10*
X289030000Y-92300000D03*
D12*
X280140000Y-89760000D03*
X286490000Y-87220000D03*
%TD*%
D10*
%TO.C,SW_X1*%
X99920000Y-131100000D03*
D11*
X105000000Y-131100000D03*
D10*
X110080000Y-131100000D03*
D12*
X101190000Y-128560000D03*
X107540000Y-126020000D03*
%TD*%
D32*
%TO.C,Y2*%
X163487868Y-29856497D03*
X165043503Y-31412132D03*
X163912132Y-32543503D03*
X162356497Y-30987868D03*
%TD*%
D13*
%TO.C,D31*%
X158187500Y-68400000D03*
X156612500Y-68400000D03*
%TD*%
D27*
%TO.C,C5*%
X161100000Y-24900000D03*
X162650000Y-24900000D03*
%TD*%
D33*
%TO.C,R10*%
X162625000Y-27900000D03*
X160975000Y-27900000D03*
%TD*%
D10*
%TO.C,SW_G1*%
X148220000Y-111700000D03*
D11*
X153300000Y-111700000D03*
D10*
X158380000Y-111700000D03*
D12*
X149490000Y-109160000D03*
X155840000Y-106620000D03*
%TD*%
D31*
%TO.C,R11*%
X149600000Y-39375000D03*
X149600000Y-41025000D03*
%TD*%
D10*
%TO.C,SW_TILDE1*%
X37120000Y-72900000D03*
D11*
X42200000Y-72900000D03*
D10*
X47280000Y-72900000D03*
D12*
X38390000Y-70360000D03*
X44740000Y-67820000D03*
%TD*%
D10*
%TO.C,SW_2*%
X75820000Y-72900000D03*
D11*
X80900000Y-72900000D03*
D10*
X85980000Y-72900000D03*
D12*
X77090000Y-70360000D03*
X83440000Y-67820000D03*
%TD*%
D10*
%TO.C,SW_Y1*%
X162770000Y-92300000D03*
D11*
X167850000Y-92300000D03*
D10*
X172930000Y-92300000D03*
D12*
X164040000Y-89760000D03*
X170390000Y-87220000D03*
%TD*%
D13*
%TO.C,D78*%
X230487500Y-107200000D03*
X228912500Y-107200000D03*
%TD*%
D10*
%TO.C,SW_D1*%
X109520000Y-111700000D03*
D11*
X114600000Y-111700000D03*
D10*
X119680000Y-111700000D03*
D12*
X110790000Y-109160000D03*
X117140000Y-106620000D03*
%TD*%
D10*
%TO.C,SW_C1*%
X119270000Y-131100000D03*
D11*
X124350000Y-131100000D03*
D10*
X129430000Y-131100000D03*
D12*
X120540000Y-128560000D03*
X126890000Y-126020000D03*
%TD*%
D10*
%TO.C,SW_=1*%
X269320000Y-72900000D03*
D11*
X274400000Y-72900000D03*
D10*
X279480000Y-72900000D03*
D12*
X270590000Y-70360000D03*
X276940000Y-67820000D03*
%TD*%
D10*
%TO.C,SW_Z1*%
X80570000Y-131100000D03*
D11*
X85650000Y-131100000D03*
D10*
X90730000Y-131100000D03*
D12*
X81840000Y-128560000D03*
X88190000Y-126020000D03*
%TD*%
D13*
%TO.C,D8*%
X162987500Y-126700000D03*
X161412500Y-126700000D03*
%TD*%
D23*
%TO.C,SW_RSHIFT1*%
X284300000Y-124160000D03*
D11*
X284300000Y-139400000D03*
D14*
X291120000Y-131160000D03*
D11*
X296200000Y-131160000D03*
D14*
X301280000Y-131160000D03*
D23*
X308100000Y-124160000D03*
D11*
X308100000Y-139400000D03*
D15*
X298740000Y-126080000D03*
X292390000Y-128620000D03*
%TD*%
D13*
%TO.C,D74*%
X153187500Y-107300000D03*
X151612500Y-107300000D03*
%TD*%
%TO.C,D7*%
X143587500Y-126700000D03*
X142012500Y-126700000D03*
%TD*%
%TO.C,D61*%
X167587500Y-87900000D03*
X166012500Y-87900000D03*
%TD*%
D10*
%TO.C,SW_R1*%
X124070000Y-92300000D03*
D11*
X129150000Y-92300000D03*
D10*
X134230000Y-92300000D03*
D12*
X125340000Y-89760000D03*
X131690000Y-87220000D03*
%TD*%
D13*
%TO.C,D19*%
X93087500Y-146500000D03*
X91512500Y-146500000D03*
%TD*%
D26*
%TO.C,C8*%
X154600000Y-21525000D03*
X154600000Y-23075000D03*
%TD*%
D10*
%TO.C,SW_F11*%
X288670000Y-46000000D03*
D11*
X293750000Y-46000000D03*
D10*
X298830000Y-46000000D03*
D12*
X289940000Y-43460000D03*
X296290000Y-40920000D03*
%TD*%
D23*
%TO.C,SW_LSHIFT1*%
X42220000Y-124100000D03*
D11*
X42220000Y-139340000D03*
D14*
X49040000Y-131100000D03*
D11*
X54120000Y-131100000D03*
D14*
X59200000Y-131100000D03*
D23*
X66020000Y-124100000D03*
D11*
X66020000Y-139340000D03*
D15*
X56660000Y-126020000D03*
X50310000Y-128560000D03*
%TD*%
D13*
%TO.C,D70*%
X75887500Y-107400000D03*
X74312500Y-107400000D03*
%TD*%
M02*
