M48
; DRILL file {KiCad 8.0.3} date 2024-06-29T11:43:40-0700
; FORMAT={-:-/ absolute / inch / decimal}
; #@! TF.CreationDate,2024-06-29T11:43:40-07:00
; #@! TF.GenerationSoftware,Kicad,Pcbnew,8.0.3
; #@! TF.FileFunction,NonPlated,1,2,NPTH
FMAT,2
INCH
; #@! TA.AperFunction,NonPlated,NPTH,ComponentDrill
T1C0.0669
; #@! TA.AperFunction,NonPlated,NPTH,ComponentDrill
T2C0.0689
; #@! TA.AperFunction,NonPlated,NPTH,ComponentDrill
T3C0.1201
; #@! TA.AperFunction,NonPlated,NPTH,ComponentDrill
T4C0.1575
%
G90
G05
T1
X1.5559Y-5.9291
X1.6504Y-3.6339
X1.7441Y-4.3969
X1.9307Y-5.1614
X1.9559Y-5.9291
X2.0504Y-3.6339
X2.1441Y-4.3969
X2.3307Y-5.1614
X2.5126Y-5.9291
X2.9126Y-5.9291
X3.4732Y-5.9291
X3.8732Y-5.9291
X6.3079Y-5.9308
X6.7079Y-5.9308
X9.1425Y-5.9331
X9.5425Y-5.9331
X10.1031Y-5.9331
X10.5031Y-5.9331
X11.0677Y-5.9331
X11.4614Y-5.1638
X11.4677Y-5.9331
X11.6457Y-4.3976
X11.7402Y-2.8701
X11.8614Y-5.1638
X11.926Y-3.6378
X12.0244Y-5.9331
X12.0457Y-4.3976
X12.1402Y-2.8701
X12.326Y-3.6378
X12.4244Y-5.9331
T2
X1.4614Y-1.811
X1.4614Y-2.8701
X1.8614Y-1.811
X1.8614Y-2.8701
X2.2232Y-2.8701
X2.5992Y-3.6339
X2.6232Y-2.8701
X2.7882Y-4.3976
X2.985Y-1.811
X2.985Y-2.8701
X2.9992Y-3.6339
X3.172Y-5.1614
X3.1882Y-4.3976
X3.361Y-3.6339
X3.385Y-1.811
X3.385Y-2.8701
X3.55Y-4.3976
X3.572Y-5.1614
X3.7469Y-1.811
X3.7469Y-2.8701
X3.761Y-3.6339
X3.9339Y-5.1614
X3.95Y-4.3976
X4.1228Y-3.6339
X4.1469Y-1.811
X4.1469Y-2.8701
X4.3118Y-4.3976
X4.3339Y-5.1614
X4.5087Y-1.811
X4.5087Y-2.8701
X4.5228Y-3.6339
X4.6957Y-5.1614
X4.7118Y-4.3976
X4.8846Y-3.6339
X4.9087Y-1.811
X4.9087Y-2.8701
X5.0736Y-4.3976
X5.0957Y-5.1614
X5.2705Y-1.811
X5.2705Y-2.8701
X5.2846Y-3.6339
X5.4575Y-5.1614
X5.4736Y-4.3976
X5.6465Y-3.6339
X5.6705Y-1.811
X5.6705Y-2.8701
X5.8354Y-4.3976
X5.8575Y-5.1614
X6.0323Y-2.8701
X6.0465Y-3.6339
X6.2193Y-5.1614
X6.2354Y-4.3976
X6.4083Y-3.6339
X6.4132Y-1.811
X6.4323Y-2.8701
X6.5972Y-4.3976
X6.6193Y-5.1614
X6.7941Y-2.8701
X6.8083Y-3.6339
X6.8132Y-1.811
X6.9811Y-5.1614
X6.9972Y-4.3976
X7.1701Y-3.6339
X7.175Y-1.811
X7.1941Y-2.8701
X7.3591Y-4.3976
X7.3811Y-5.1614
X7.5559Y-2.8701
X7.5701Y-3.6339
X7.575Y-1.811
X7.7429Y-5.1614
X7.7591Y-4.3976
X7.9319Y-3.6339
X7.9368Y-1.811
X7.9559Y-2.8701
X8.1209Y-4.3976
X8.1429Y-5.1614
X8.3177Y-2.8701
X8.3319Y-3.6339
X8.3368Y-1.811
X8.5047Y-5.1614
X8.5209Y-4.3976
X8.6937Y-3.6339
X8.6986Y-1.811
X8.7177Y-2.8701
X8.8827Y-4.3976
X8.9047Y-5.1614
X9.0795Y-2.8701
X9.0937Y-3.6339
X9.0986Y-1.811
X9.2665Y-5.1614
X9.2827Y-4.3976
X9.4555Y-3.6339
X9.4795Y-2.8701
X9.6445Y-4.3976
X9.6665Y-5.1614
X9.8413Y-1.811
X9.8413Y-2.8701
X9.8555Y-3.6339
X10.0283Y-5.1614
X10.0445Y-4.3976
X10.2173Y-3.6339
X10.2413Y-1.811
X10.2413Y-2.8701
X10.4063Y-4.3976
X10.4283Y-5.1614
X10.6031Y-1.811
X10.6031Y-2.8701
X10.6173Y-3.6339
X10.8063Y-4.3976
X10.9791Y-3.6339
X11.0031Y-1.811
X11.0031Y-2.8701
X11.365Y-1.811
X11.3791Y-3.6339
X11.765Y-1.811
X12.1268Y-1.811
X12.5268Y-1.811
T3
X1.6622Y-4.8858
X2.5992Y-4.8858
X4.5394Y-5.6552
X8.4764Y-5.6552
X11.1929Y-4.8882
X11.3772Y-4.122
X11.4717Y-2.5945
X12.1299Y-4.8882
X12.3142Y-4.122
X12.4087Y-2.5945
T4
X1.6614Y-1.811
X1.6614Y-2.8701
X1.6622Y-5.4858
X1.7559Y-5.9291
X1.8504Y-3.6339
X1.9441Y-4.3969
X2.1307Y-5.1614
X2.4232Y-2.8701
X2.5992Y-5.4858
X2.7126Y-5.9291
X2.7992Y-3.6339
X2.9882Y-4.3976
X3.185Y-1.811
X3.185Y-2.8701
X3.372Y-5.1614
X3.561Y-3.6339
X3.6732Y-5.9291
X3.75Y-4.3976
X3.9469Y-1.811
X3.9469Y-2.8701
X4.1339Y-5.1614
X4.3228Y-3.6339
X4.5118Y-4.3976
X4.5394Y-6.2552
X4.7087Y-1.811
X4.7087Y-2.8701
X4.8957Y-5.1614
X5.0846Y-3.6339
X5.2736Y-4.3976
X5.4705Y-1.811
X5.4705Y-2.8701
X5.6575Y-5.1614
X5.8465Y-3.6339
X6.0354Y-4.3976
X6.2323Y-2.8701
X6.4193Y-5.1614
X6.5079Y-5.9308
X6.6083Y-3.6339
X6.6132Y-1.811
X6.7972Y-4.3976
X6.9941Y-2.8701
X7.1811Y-5.1614
X7.3701Y-3.6339
X7.375Y-1.811
X7.5591Y-4.3976
X7.7559Y-2.8701
X7.9429Y-5.1614
X8.1319Y-3.6339
X8.1368Y-1.811
X8.3209Y-4.3976
X8.4764Y-6.2552
X8.5177Y-2.8701
X8.7047Y-5.1614
X8.8937Y-3.6339
X8.8986Y-1.811
X9.0827Y-4.3976
X9.2795Y-2.8701
X9.3425Y-5.9331
X9.4665Y-5.1614
X9.6555Y-3.6339
X9.8445Y-4.3976
X10.0413Y-1.811
X10.0413Y-2.8701
X10.2283Y-5.1614
X10.3031Y-5.9331
X10.4173Y-3.6339
X10.6063Y-4.3976
X10.8031Y-1.811
X10.8031Y-2.8701
X11.1791Y-3.6339
X11.1929Y-5.4882
X11.2677Y-5.9331
X11.3772Y-4.722
X11.4717Y-3.1945
X11.565Y-1.811
X11.6614Y-5.1638
X11.8457Y-4.3976
X11.9402Y-2.8701
X12.126Y-3.6378
X12.1299Y-5.4882
X12.2244Y-5.9331
X12.3142Y-4.722
X12.3268Y-1.811
X12.4087Y-3.1945
M30
