M48
; DRILL file {KiCad 8.0.3} date 2024-06-19T10:55:34-0700
; FORMAT={-:-/ absolute / inch / decimal}
; #@! TF.CreationDate,2024-06-19T10:55:34-07:00
; #@! TF.GenerationSoftware,Kicad,Pcbnew,8.0.3
; #@! TF.FileFunction,Plated,1,2,PTH
FMAT,2
INCH
; #@! TA.AperFunction,Plated,PTH,ViaDrill
T1C0.0118
; #@! TA.AperFunction,Plated,PTH,ComponentDrill
T2C0.0197
; #@! TA.AperFunction,Plated,PTH,ComponentDrill
T3C0.0217
; #@! TA.AperFunction,Plated,PTH,ViaDrill
T4C0.0236
; #@! TA.AperFunction,Plated,PTH,ComponentDrill
T5C0.0591
%
G90
G05
T1
X2.2539Y-4.4783
X2.2539Y-4.5866
X2.315Y-5.3071
X2.4488Y-4.2283
X2.5984Y-4.5118
X2.8976Y-5.3937
X2.9134Y-3.9764
X2.9823Y-3.9862
X3.061Y-3.7598
X3.1339Y-3.9921
X3.3169Y-3.6909
X3.4646Y-3.6319
X3.5433Y-3.8287
X3.622Y-5.3937
X3.6772Y-3.874
X3.6929Y-4.4724
X3.7087Y-4.2756
X3.7697Y-4.2618
X3.8091Y-4.2618
X3.8976Y-3.4252
X3.8976Y-3.563
X3.9075Y-4.2677
X3.9134Y-3.6457
X3.937Y-3.5335
X3.9862Y-3.5138
X4.0Y-4.189
X4.0Y-4.3386
X4.0846Y-3.5433
X4.1142Y-1.9685
X4.1142Y-2.0374
X4.1339Y-2.8248
X4.1535Y-2.7165
X4.1732Y-2.815
X4.1831Y-2.7362
X4.3386Y-0.9606
X4.4016Y-0.937
X4.5276Y-4.6378
X4.5669Y-4.0748
X4.5866Y-4.0157
X4.685Y-4.7244
X4.9764Y-5.3543
X5.4173Y-4.9134
X5.7717Y-4.8425
X6.0945Y-5.3307
T4
X3.622Y-3.5138
X4.2756Y-0.9449
T5
X2.0016Y-1.2622
X2.0016Y-2.024
X2.0016Y-2.7858
X2.0016Y-5.0713
X2.2516Y-1.1622
X2.2516Y-1.924
X2.2516Y-2.6858
X2.2516Y-4.9713
X2.7634Y-1.2622
X2.7634Y-2.024
X2.7634Y-2.7858
X2.7634Y-4.3094
X2.7634Y-5.0713
X3.0134Y-1.1622
X3.0134Y-1.924
X3.0134Y-2.6858
X3.0134Y-4.2094
X3.0134Y-4.9713
X3.5252Y-1.2622
X3.5252Y-2.024
X3.5252Y-2.7858
X3.5252Y-5.0713
X3.7752Y-1.1622
X3.7752Y-1.924
X3.7752Y-2.6858
X3.7752Y-4.9713
X4.3776Y-1.2622
X4.3776Y-2.024
X4.3776Y-2.7858
X4.3776Y-3.5476
X4.3776Y-4.3094
X4.6276Y-1.1622
X4.6276Y-1.924
X4.6276Y-2.6858
X4.6276Y-3.4476
X4.6276Y-4.2094
X4.7585Y-5.0713
X5.0085Y-4.9713
X5.1394Y-1.2622
X5.1394Y-2.024
X5.1394Y-2.7858
X5.1394Y-3.5476
X5.1394Y-4.3094
X5.3894Y-1.1622
X5.3894Y-1.924
X5.3894Y-2.6858
X5.3894Y-3.4476
X5.3894Y-4.2094
X5.9012Y-1.2622
X5.9012Y-2.024
X5.9012Y-2.7858
X5.9012Y-3.5476
X5.9012Y-4.3094
X5.9012Y-5.0713
X6.1512Y-1.1622
X6.1512Y-1.924
X6.1512Y-2.6858
X6.1512Y-3.4476
X6.1512Y-4.2094
X6.1512Y-4.9713
X6.663Y-1.2622
X6.663Y-2.024
X6.663Y-3.1667
X6.663Y-4.6904
X6.913Y-1.1622
X6.913Y-1.924
X6.913Y-3.0667
X6.913Y-4.5904
T2
G00X4.2913Y-0.753
M15
G01X4.2913Y-0.7785
M16
G05
G00X4.5669Y-0.753
M15
G01X4.5669Y-0.7785
M16
G05
T3
G00X4.3248Y-0.872
M15
G01X4.3366Y-0.872
M16
G05
G00X4.5217Y-0.872
M15
G01X4.5335Y-0.872
M16
G05
M30
