%TF.GenerationSoftware,KiCad,Pcbnew,8.0.3*%
%TF.CreationDate,2024-06-19T10:52:00-07:00*%
%TF.ProjectId,CustomNumpad,43757374-6f6d-44e7-956d-7061642e6b69,rev?*%
%TF.SameCoordinates,Original*%
%TF.FileFunction,Paste,Bot*%
%TF.FilePolarity,Positive*%
%FSLAX46Y46*%
G04 Gerber Fmt 4.6, Leading zero omitted, Abs format (unit mm)*
G04 Created by KiCad (PCBNEW 8.0.3) date 2024-06-19 10:52:00*
%MOMM*%
%LPD*%
G01*
G04 APERTURE LIST*
G04 Aperture macros list*
%AMRoundRect*
0 Rectangle with rounded corners*
0 $1 Rounding radius*
0 $2 $3 $4 $5 $6 $7 $8 $9 X,Y pos of 4 corners*
0 Add a 4 corners polygon primitive as box body*
4,1,4,$2,$3,$4,$5,$6,$7,$8,$9,$2,$3,0*
0 Add four circle primitives for the rounded corners*
1,1,$1+$1,$2,$3*
1,1,$1+$1,$4,$5*
1,1,$1+$1,$6,$7*
1,1,$1+$1,$8,$9*
0 Add four rect primitives between the rounded corners*
20,1,$1+$1,$2,$3,$4,$5,0*
20,1,$1+$1,$4,$5,$6,$7,0*
20,1,$1+$1,$6,$7,$8,$9,0*
20,1,$1+$1,$8,$9,$2,$3,0*%
%AMRotRect*
0 Rectangle, with rotation*
0 The origin of the aperture is its center*
0 $1 length*
0 $2 width*
0 $3 Rotation angle, in degrees counterclockwise*
0 Add horizontal line*
21,1,$1,$2,0,0,$3*%
G04 Aperture macros list end*
%ADD10RoundRect,0.218750X0.218750X0.256250X-0.218750X0.256250X-0.218750X-0.256250X0.218750X-0.256250X0*%
%ADD11O,0.890000X1.550000*%
%ADD12O,1.250000X0.950000*%
%ADD13R,0.400000X1.350000*%
%ADD14R,1.200000X1.550000*%
%ADD15R,1.500000X1.550000*%
%ADD16RoundRect,0.225000X-0.250000X0.225000X-0.250000X-0.225000X0.250000X-0.225000X0.250000X0.225000X0*%
%ADD17RoundRect,0.225000X0.250000X-0.225000X0.250000X0.225000X-0.250000X0.225000X-0.250000X-0.225000X0*%
%ADD18RoundRect,0.200000X0.275000X-0.200000X0.275000X0.200000X-0.275000X0.200000X-0.275000X-0.200000X0*%
%ADD19R,0.550000X1.500000*%
%ADD20R,1.500000X0.550000*%
%ADD21RoundRect,0.225000X0.017678X-0.335876X0.335876X-0.017678X-0.017678X0.335876X-0.335876X0.017678X0*%
%ADD22RotRect,1.400000X1.200000X135.000000*%
%ADD23RoundRect,0.225000X0.225000X0.250000X-0.225000X0.250000X-0.225000X-0.250000X0.225000X-0.250000X0*%
%ADD24RoundRect,0.200000X0.200000X0.275000X-0.200000X0.275000X-0.200000X-0.275000X0.200000X-0.275000X0*%
G04 APERTURE END LIST*
D10*
%TO.C,D34*%
X93500000Y-30750000D03*
X91925000Y-30750000D03*
%TD*%
%TO.C,D33*%
X73787500Y-30000000D03*
X72212500Y-30000000D03*
%TD*%
%TO.C,D32*%
X54575000Y-30250000D03*
X53000000Y-30250000D03*
%TD*%
%TO.C,D31*%
X93325000Y-49500000D03*
X91750000Y-49500000D03*
%TD*%
%TO.C,D30*%
X72250000Y-49500000D03*
X73825000Y-49500000D03*
%TD*%
%TO.C,D29*%
X52925000Y-49500000D03*
X54500000Y-49500000D03*
%TD*%
%TO.C,D28*%
X54500000Y-68750000D03*
X52925000Y-68750000D03*
%TD*%
%TO.C,D27*%
X73825000Y-68750000D03*
X72250000Y-68750000D03*
%TD*%
%TO.C,D26*%
X93037500Y-68750000D03*
X91462500Y-68750000D03*
%TD*%
D11*
%TO.C,J1*%
X109000000Y-19450000D03*
D12*
X110000000Y-22150000D03*
X115000000Y-22150000D03*
D11*
X116000000Y-19450000D03*
D13*
X111200000Y-22150000D03*
X111850000Y-22150000D03*
X112500000Y-22150000D03*
X113150000Y-22150000D03*
X113800000Y-22150000D03*
D14*
X109600000Y-19450000D03*
D15*
X111500000Y-19450000D03*
X113500000Y-19450000D03*
D14*
X115400000Y-19450000D03*
%TD*%
D10*
%TO.C,D4*%
X115287500Y-89000000D03*
X113712500Y-89000000D03*
%TD*%
%TO.C,D23*%
X74000000Y-127000000D03*
X72425000Y-127000000D03*
%TD*%
%TO.C,D2*%
X134000000Y-107500000D03*
X132425000Y-107500000D03*
%TD*%
%TO.C,D14*%
X172787500Y-78500000D03*
X171212500Y-78500000D03*
%TD*%
D16*
%TO.C,C3*%
X100400000Y-105425000D03*
X100400000Y-106975000D03*
%TD*%
D17*
%TO.C,C8*%
X94000000Y-107175000D03*
X94000000Y-105625000D03*
%TD*%
D10*
%TO.C,D10*%
X114500000Y-49000000D03*
X112925000Y-49000000D03*
%TD*%
%TO.C,D13*%
X173287500Y-49500000D03*
X171712500Y-49500000D03*
%TD*%
%TO.C,D15*%
X172787500Y-117000000D03*
X171212500Y-117000000D03*
%TD*%
%TO.C,D3*%
X153500000Y-107500000D03*
X151925000Y-107500000D03*
%TD*%
%TO.C,D8*%
X133787500Y-68500000D03*
X132212500Y-68500000D03*
%TD*%
%TO.C,D18*%
X114575000Y-30000000D03*
X113000000Y-30000000D03*
%TD*%
%TO.C,D11*%
X134287500Y-49500000D03*
X132712500Y-49500000D03*
%TD*%
%TO.C,D20*%
X153287500Y-30000000D03*
X151712500Y-30000000D03*
%TD*%
%TO.C,D25*%
X74000000Y-107500000D03*
X72425000Y-107500000D03*
%TD*%
D18*
%TO.C,R11*%
X102600000Y-90025000D03*
X102600000Y-88375000D03*
%TD*%
D16*
%TO.C,C7*%
X98600000Y-105600000D03*
X98600000Y-107150000D03*
%TD*%
D10*
%TO.C,D22*%
X54575000Y-127000000D03*
X53000000Y-127000000D03*
%TD*%
%TO.C,D16*%
X153287500Y-126000000D03*
X151712500Y-126000000D03*
%TD*%
%TO.C,D6*%
X153500000Y-88000000D03*
X151925000Y-88000000D03*
%TD*%
%TO.C,D9*%
X153287500Y-68500000D03*
X151712500Y-68500000D03*
%TD*%
%TO.C,D5*%
X134500000Y-88500000D03*
X132925000Y-88500000D03*
%TD*%
D19*
%TO.C,U1*%
X98000000Y-103700000D03*
X97200000Y-103700000D03*
X96400000Y-103700000D03*
X95600000Y-103700000D03*
X94800000Y-103700000D03*
X94000000Y-103700000D03*
X93200000Y-103700000D03*
X92400000Y-103700000D03*
X91600000Y-103700000D03*
X90800000Y-103700000D03*
X90000000Y-103700000D03*
D20*
X88300000Y-102000000D03*
X88300000Y-101200000D03*
X88300000Y-100400000D03*
X88300000Y-99600000D03*
X88300000Y-98800000D03*
X88300000Y-98000000D03*
X88300000Y-97200000D03*
X88300000Y-96400000D03*
X88300000Y-95600000D03*
X88300000Y-94800000D03*
X88300000Y-94000000D03*
D19*
X90000000Y-92300000D03*
X90800000Y-92300000D03*
X91600000Y-92300000D03*
X92400000Y-92300000D03*
X93200000Y-92300000D03*
X94000000Y-92300000D03*
X94800000Y-92300000D03*
X95600000Y-92300000D03*
X96400000Y-92300000D03*
X97200000Y-92300000D03*
X98000000Y-92300000D03*
D20*
X99700000Y-94000000D03*
X99700000Y-94800000D03*
X99700000Y-95600000D03*
X99700000Y-96400000D03*
X99700000Y-97200000D03*
X99700000Y-98000000D03*
X99700000Y-98800000D03*
X99700000Y-99600000D03*
X99700000Y-100400000D03*
X99700000Y-101200000D03*
X99700000Y-102000000D03*
%TD*%
D21*
%TO.C,C2*%
X84651992Y-102748008D03*
X85748008Y-101651992D03*
%TD*%
D10*
%TO.C,D19*%
X134000000Y-30000000D03*
X132425000Y-30000000D03*
%TD*%
%TO.C,D21*%
X172787500Y-30000000D03*
X171212500Y-30000000D03*
%TD*%
D16*
%TO.C,C5*%
X92200000Y-105625000D03*
X92200000Y-107175000D03*
%TD*%
D10*
%TO.C,D12*%
X153500000Y-49500000D03*
X151925000Y-49500000D03*
%TD*%
D22*
%TO.C,Y2*%
X84624264Y-99887006D03*
X83068629Y-98331371D03*
X84200000Y-97200000D03*
X85755635Y-98755635D03*
%TD*%
D10*
%TO.C,D24*%
X93000000Y-127000000D03*
X91425000Y-127000000D03*
%TD*%
%TO.C,D7*%
X114787500Y-69000000D03*
X113212500Y-69000000D03*
%TD*%
D23*
%TO.C,C4*%
X90775000Y-90000000D03*
X89225000Y-90000000D03*
%TD*%
D24*
%TO.C,R10*%
X90250000Y-107500000D03*
X88600000Y-107500000D03*
%TD*%
D21*
%TO.C,C1*%
X81200000Y-97600000D03*
X82296016Y-96503984D03*
%TD*%
D10*
%TO.C,D17*%
X124075000Y-126500000D03*
X122500000Y-126500000D03*
%TD*%
%TO.C,D1*%
X115000000Y-107500000D03*
X113425000Y-107500000D03*
%TD*%
D16*
%TO.C,C6*%
X86500000Y-103475000D03*
X86500000Y-105025000D03*
%TD*%
M02*
