M48
; DRILL file {KiCad 8.0.3} date 2024-06-19T10:55:34-0700
; FORMAT={-:-/ absolute / inch / decimal}
; #@! TF.CreationDate,2024-06-19T10:55:34-07:00
; #@! TF.GenerationSoftware,Kicad,Pcbnew,8.0.3
; #@! TF.FileFunction,NonPlated,1,2,NPTH
FMAT,2
INCH
; #@! TA.AperFunction,NonPlated,NPTH,ComponentDrill
T1C0.0689
; #@! TA.AperFunction,NonPlated,NPTH,ComponentDrill
T2C0.1575
%
G90
G05
T1
X1.9516Y-1.3622
X1.9516Y-2.124
X1.9516Y-2.8858
X1.9516Y-5.1713
X2.3516Y-1.3622
X2.3516Y-2.124
X2.3516Y-2.8858
X2.3516Y-5.1713
X2.7134Y-1.3622
X2.7134Y-2.124
X2.7134Y-2.8858
X2.7134Y-4.4094
X2.7134Y-5.1713
X3.1134Y-1.3622
X3.1134Y-2.124
X3.1134Y-2.8858
X3.1134Y-4.4094
X3.1134Y-5.1713
X3.4752Y-1.3622
X3.4752Y-2.124
X3.4752Y-2.8858
X3.4752Y-5.1713
X3.8752Y-1.3622
X3.8752Y-2.124
X3.8752Y-2.8858
X3.8752Y-5.1713
X4.3276Y-1.3622
X4.3276Y-2.124
X4.3276Y-2.8858
X4.3276Y-3.6476
X4.3276Y-4.4094
X4.7085Y-5.1713
X4.7276Y-1.3622
X4.7276Y-2.124
X4.7276Y-2.8858
X4.7276Y-3.6476
X4.7276Y-4.4094
X5.0894Y-1.3622
X5.0894Y-2.124
X5.0894Y-2.8858
X5.0894Y-3.6476
X5.0894Y-4.4094
X5.1085Y-5.1713
X5.4894Y-1.3622
X5.4894Y-2.124
X5.4894Y-2.8858
X5.4894Y-3.6476
X5.4894Y-4.4094
X5.8512Y-1.3622
X5.8512Y-2.124
X5.8512Y-2.8858
X5.8512Y-3.6476
X5.8512Y-4.4094
X5.8512Y-5.1713
X6.2512Y-1.3622
X6.2512Y-2.124
X6.2512Y-2.8858
X6.2512Y-3.6476
X6.2512Y-4.4094
X6.2512Y-5.1713
X6.613Y-1.3622
X6.613Y-2.124
X6.613Y-3.2667
X6.613Y-4.7904
X7.013Y-1.3622
X7.013Y-2.124
X7.013Y-3.2667
X7.013Y-4.7904
T2
X2.1516Y-1.3622
X2.1516Y-2.124
X2.1516Y-2.8858
X2.1516Y-5.1713
X2.9134Y-1.3622
X2.9134Y-2.124
X2.9134Y-2.8858
X2.9134Y-4.4094
X2.9134Y-5.1713
X3.6752Y-1.3622
X3.6752Y-2.124
X3.6752Y-2.8858
X3.6752Y-5.1713
X4.5276Y-1.3622
X4.5276Y-2.124
X4.5276Y-2.8858
X4.5276Y-3.6476
X4.5276Y-4.4094
X4.9085Y-5.1713
X5.2894Y-1.3622
X5.2894Y-2.124
X5.2894Y-2.8858
X5.2894Y-3.6476
X5.2894Y-4.4094
X6.0512Y-1.3622
X6.0512Y-2.124
X6.0512Y-2.8858
X6.0512Y-3.6476
X6.0512Y-4.4094
X6.0512Y-5.1713
X6.813Y-1.3622
X6.813Y-2.124
X6.813Y-3.2667
X6.813Y-4.7904
M30
